<svg width="19" height="19" viewBox="0 0 19 19" fill="none" xmlns="http://www.w3.org/2000/svg">
<path fill-rule="evenodd" clip-rule="evenodd" d="M6.33333 0.989746C6.66125 0.989746 6.92708 1.25558 6.92708 1.5835V2.771H12.0729V1.5835C12.0729 1.25558 12.3387 0.989746 12.6667 0.989746C12.9946 0.989746 13.2604 1.25558 13.2604 1.5835V2.771H13.4583C15.2072 2.771 16.625 4.18876 16.625 5.93766V6.53141H2.375V5.93766C2.375 4.18876 3.79277 2.771 5.54167 2.771H5.73958V1.5835C5.73958 1.25558 6.00541 0.989746 6.33333 0.989746ZM16.625 7.71891H2.375V14.2502C2.375 15.9991 3.79276 17.4168 5.54167 17.4168H13.4583C15.2072 17.4168 16.625 15.9991 16.625 14.2502V7.71891Z" fill="#666666"/>
</svg>
