<svg width="21" height="21" viewBox="0 0 21 21" fill="none" xmlns="http://www.w3.org/2000/svg">
<g id="Group 1488">
<g id="Group 1486">
<path id="Vector 38" d="M18.7894 6.63135H15.5214C14.9129 6.63135 14.457 7.17384 14.4549 7.78239C14.4454 10.6137 12.5297 11.0524 11.0526 11.0524H8.73682C8.18453 11.0524 7.73682 11.5001 7.73682 12.0524V14.3682C7.73682 16.1366 9.2105 16.5787 9.94734 16.5787H16.1647C16.4299 16.5787 16.6843 16.6841 16.8718 16.8716L19.2929 19.2927C19.9228 19.9226 21 19.4765 21 18.5856V8.84187C21 7.07345 19.5263 6.63135 18.7894 6.63135Z" fill="#28303F"/>
<path id="Vector" d="M13.2632 7.73684C13.2632 8.32311 13.0303 8.88537 12.6157 9.29992C12.2012 9.71447 11.6389 9.94737 11.0526 9.94737H4.83527C4.57005 9.94737 4.3157 10.0527 4.12816 10.2403L1.70711 12.6613C1.07714 13.2913 0 12.8451 0 11.9542V2.21053C0 0.994737 0.994737 0 2.21053 0H11.0526C11.6389 0 12.2012 0.232894 12.6157 0.647448C13.0303 1.062 13.2632 1.62426 13.2632 2.21053V7.73684Z" fill="#28303F"/>
</g>
<path id="Line 5" d="M3 3H9" stroke="white" stroke-linecap="round"/>
<path id="Line 6" d="M3 6H7" stroke="white" stroke-linecap="round"/>
</g>
</svg>
