<svg width="23" height="23" viewBox="0 0 23 23" fill="none" xmlns="http://www.w3.org/2000/svg">
<g id="Edit File">
<g id="Group 1638">
<path id="Vector" d="M17.4537 4.73283V21.8395C17.4537 22.1386 17.3349 22.4256 17.1233 22.6371C16.9118 22.8487 16.6248 22.9675 16.3257 22.9675H1.12805C0.828869 22.9675 0.541947 22.8487 0.330397 22.6371C0.118847 22.4256 0 22.1386 0 21.8395V1.12557C0.000656587 0.82682 0.119794 0.540533 0.331272 0.32952C0.542751 0.118506 0.829298 -7.21522e-07 1.12805 0H12.7234L17.4537 4.73283Z" fill="#DCDDFF"/>
<path id="Vector_2" d="M15.1232 17.9768H2.33288C2.26713 17.9768 2.20407 17.9507 2.15758 17.9042C2.11108 17.8577 2.08496 17.7946 2.08496 17.7289C2.08496 17.6631 2.11108 17.6001 2.15758 17.5536C2.20407 17.5071 2.26713 17.481 2.33288 17.481H15.1232C15.1889 17.481 15.252 17.5071 15.2985 17.5536C15.345 17.6001 15.3711 17.6631 15.3711 17.7289C15.3711 17.7946 15.345 17.8577 15.2985 17.9042C15.252 17.9507 15.1889 17.9768 15.1232 17.9768ZM8.72679 19.8808H2.33288C2.26713 19.8808 2.20407 19.8547 2.15758 19.8082C2.11108 19.7617 2.08496 19.6987 2.08496 19.6329C2.08496 19.5672 2.11108 19.5041 2.15758 19.4576C2.20407 19.4111 2.26713 19.385 2.33288 19.385H8.72679C8.79255 19.385 8.85561 19.4111 8.9021 19.4576C8.9486 19.5041 8.97472 19.5672 8.97472 19.6329C8.97472 19.6987 8.9486 19.7617 8.9021 19.8082C8.85561 19.8547 8.79255 19.8808 8.72679 19.8808Z" fill="#46477D"/>
<path id="Vector_3" d="M17.4536 4.73283H13.8513C13.5526 4.73283 13.266 4.61433 13.0545 4.40331C12.8431 4.1923 12.7239 3.90601 12.7233 3.60727V0L17.4536 4.73283Z" fill="#B4B5FF"/>
<path id="Vector_4" d="M4.34861 3.58252H2.6206C2.46177 3.58252 2.33301 3.71128 2.33301 3.87011V5.59813C2.33301 5.75696 2.46177 5.88572 2.6206 5.88572H4.34861C4.50745 5.88572 4.6362 5.75696 4.6362 5.59813V3.87011C4.6362 3.71128 4.50745 3.58252 4.34861 3.58252Z" fill="#46477D"/>
<path id="Vector_5" d="M15.1232 8.44653H2.33288C2.26713 8.44653 2.20407 8.42041 2.15758 8.37391C2.11108 8.32742 2.08496 8.26436 2.08496 8.19861C2.08496 8.13285 2.11108 8.06979 2.15758 8.0233C2.20407 7.9768 2.26713 7.95068 2.33288 7.95068H15.1232C15.1889 7.95068 15.252 7.9768 15.2985 8.0233C15.345 8.06979 15.3711 8.13285 15.3711 8.19861C15.3711 8.26436 15.345 8.32742 15.2985 8.37391C15.252 8.42041 15.1889 8.44653 15.1232 8.44653ZM15.1232 10.353H2.33288C2.26713 10.353 2.20407 10.3269 2.15758 10.2804C2.11108 10.2339 2.08496 10.1709 2.08496 10.1051C2.08496 10.0394 2.11108 9.97631 2.15758 9.92982C2.20407 9.88332 2.26713 9.8572 2.33288 9.8572H15.1232C15.1889 9.8572 15.252 9.88332 15.2985 9.92982C15.345 9.97631 15.3711 10.0394 15.3711 10.1051C15.3711 10.1709 15.345 10.2339 15.2985 10.2804C15.252 10.3269 15.1889 10.353 15.1232 10.353ZM15.1232 12.2596H2.33288C2.26713 12.2596 2.20407 12.2334 2.15758 12.187C2.11108 12.1405 2.08496 12.0774 2.08496 12.0116C2.08496 11.9459 2.11108 11.8828 2.15758 11.8363C2.20407 11.7898 2.26713 11.7637 2.33288 11.7637H15.1232C15.1889 11.7637 15.252 11.7898 15.2985 11.8363C15.345 11.8828 15.3711 11.9459 15.3711 12.0116C15.3711 12.0774 15.345 12.1405 15.2985 12.187C15.252 12.2334 15.1889 12.2596 15.1232 12.2596ZM15.1232 14.1636H2.33288C2.26713 14.1636 2.20407 14.1375 2.15758 14.091C2.11108 14.0445 2.08496 13.9814 2.08496 13.9157C2.08496 13.8499 2.11108 13.7869 2.15758 13.7404C2.20407 13.6939 2.26713 13.6678 2.33288 13.6678H15.1232C15.1889 13.6678 15.252 13.6939 15.2985 13.7404C15.345 13.7869 15.3711 13.8499 15.3711 13.9157C15.3711 13.9814 15.345 14.0445 15.2985 14.091C15.252 14.1375 15.1889 14.1636 15.1232 14.1636ZM15.1232 16.0701H2.33288C2.26713 16.0701 2.20407 16.044 2.15758 15.9975C2.11108 15.951 2.08496 15.888 2.08496 15.8222C2.08496 15.7565 2.11108 15.6934 2.15758 15.6469C2.20407 15.6004 2.26713 15.5743 2.33288 15.5743H15.1232C15.1889 15.5743 15.252 15.6004 15.2985 15.6469C15.345 15.6934 15.3711 15.7565 15.3711 15.8222C15.3711 15.888 15.345 15.951 15.2985 15.9975C15.252 16.044 15.1889 16.0701 15.1232 16.0701Z" fill="#46477D"/>
</g>
<path id="Vector_6" d="M23 6.23535H19.699V17.5827H23V6.23535Z" fill="#FFA23F"/>
<path id="Vector_7" d="M23 16.4478H19.699V17.5825H23V16.4478Z" fill="#FE9526"/>
<path id="Vector_8" d="M23 7.37012V16.448H20.7517C20.6426 16.4472 20.5381 16.4035 20.4608 16.3263C20.3836 16.2491 20.3399 16.1446 20.3391 16.0354V7.78275C20.3391 7.67331 20.3826 7.56836 20.46 7.49097C20.5374 7.41359 20.6423 7.37012 20.7517 7.37012H23Z" fill="#FFB567"/>
<path id="Vector_9" d="M22.997 4.56055H19.6959V6.23535H22.997V4.56055Z" fill="#595BD4"/>
<path id="Vector_10" d="M23 4.56055H20.3391V6.23535H23V4.56055Z" fill="#9B9DFF"/>
<path id="Vector_11" d="M21.0461 4.56055H23.0001V5.56482H21.3708C21.2847 5.56482 21.2021 5.53062 21.1412 5.46974C21.0803 5.40885 21.0461 5.32628 21.0461 5.24018V4.56055Z" fill="#BEBFFF"/>
<path id="Vector_12" d="M20.4453 1.99414H22.2476C22.4463 1.99414 22.6369 2.0731 22.7775 2.21364C22.918 2.35418 22.997 2.5448 22.997 2.74355V4.56399H19.6959V2.74355C19.6959 2.5448 19.7749 2.35418 19.9154 2.21364C20.056 2.0731 20.2466 1.99414 20.4453 1.99414Z" fill="#C3731E"/>
<path id="Vector_13" d="M21.0885 1.99414H22.2506C22.4493 1.99414 22.6399 2.0731 22.7805 2.21364C22.921 2.35418 23 2.5448 23 2.74355V4.56399H20.3391V2.74355C20.3391 2.5448 20.4181 2.35418 20.5586 2.21364C20.6992 2.0731 20.8898 1.99414 21.0885 1.99414Z" fill="#FFA03C"/>
<path id="Vector_14" d="M22.997 18.8786L21.3465 21.0752L19.6959 18.8786V17.583H22.997V18.8786Z" fill="#FFD8AF"/>
<path id="Vector_15" d="M21.3495 21.0722L20.0449 19.3367L19.699 18.8755V17.583H20.3392V18.8755L21.3495 21.0722Z" fill="#FFC07D"/>
<path id="Vector_16" d="M20.0387 19.3369L21.3464 21.0754L22.6541 19.3369H20.0387Z" fill="#46477D"/>
<path id="Vector_17" d="M21.3494 21.0724L20.0417 19.3369H20.5515L21.3494 21.0724Z" fill="#32335A"/>
<path id="Vector_18" d="M21.653 6.23535H21.0461V17.5827H21.653V6.23535Z" fill="#FE9526"/>
<path id="Vector_19" d="M21.653 16.4478H21.0461V17.5825H21.653V16.4478Z" fill="#FF9D35"/>
<path id="Vector_20" d="M21.653 7.37012H21.0461V16.448H21.653V7.37012Z" fill="#FFA23F"/>
<path id="Vector_21" d="M21.653 9.77295H21.0461V14.0449H21.653V9.77295Z" fill="#FFD2A3"/>
<path id="Vector_22" d="M21.3707 3.0708H23V4.55749H21.0461V3.40151C21.0453 3.35837 21.0531 3.3155 21.069 3.27541C21.085 3.23532 21.1088 3.19881 21.139 3.16802C21.1692 3.13723 21.2053 3.11277 21.2451 3.09608C21.2849 3.07939 21.3276 3.07079 21.3707 3.0708Z" fill="#FFB86E"/>
</g>
</svg>
