<svg width="73" height="73" viewBox="0 0 73 73" fill="none" xmlns="http://www.w3.org/2000/svg">
<g id="Mask group">
<mask id="mask0_34_531" style="mask-type:alpha" maskUnits="userSpaceOnUse" x="0" y="0" width="73" height="73">
<rect id="Rectangle 21422" width="73" height="73" rx="36.5" fill="#FFD36A"/>
</mask>
<g mask="url(#mask0_34_531)">
<g id="Group 1477">
<path id="Subtract" fill-rule="evenodd" clip-rule="evenodd" d="M26.9391 14.9826C31.6556 12.0486 35.0016 12.8916 36.3174 15.5231C36.6265 16.1413 37.6156 17.0068 39.0993 15.5231C40.3357 13.9776 45.5905 10.8866 52.0817 19.2324L52.0243 19.1398C56.0512 24.3729 58.224 32.0335 59.0994 43.3835C59.8497 53.1323 59.6926 54.3711 57.3547 57.1202C54.0332 61.0257 50.5329 60.9518 47.087 56.9L44.331 53.6594L42.2528 56.9C39.7071 60.868 35.0614 61.0996 31.9272 57.4143C29.6424 54.7277 29.5796 54.7277 27.5111 57.4143C24.749 61.0029 20.3704 60.8737 17.1685 57.1088C14.8632 54.3981 14.6662 53.0215 15.303 44.0882C16.1886 31.6628 20.9854 19.6182 26.8731 15.0336C26.895 15.0165 26.917 14.9996 26.9391 14.9826Z" fill="#FFD36A"/>
<ellipse id="Ellipse 4" cx="36.742" cy="38.8708" rx="13.7562" ry="13.4035" fill="url(#paint0_radial_34_531)"/>
<g id="Group 1452">
<rect id="Rectangle 21408" x="31.0237" y="29.0276" width="2.57817" height="6.44544" rx="1.28909" fill="black"/>
<rect id="Rectangle 21409" x="40.0474" y="29.0276" width="2.57817" height="6.44544" rx="1.28909" fill="black"/>
<path id="Vector" d="M30.2319 39.9057C30.3709 39.9573 30.5044 40.0297 30.6298 40.1214C31.0701 40.4539 31.5733 40.6295 32.0861 40.6295C32.5989 40.6295 33.1022 40.4539 33.5425 40.1214C33.8199 39.9229 34.1331 39.8186 34.4518 39.8186C34.7705 39.8186 35.0838 39.9229 35.3612 40.1214C35.8068 40.4438 36.3113 40.6134 36.8246 40.6134C37.338 40.6134 37.8424 40.4438 38.2881 40.1214C38.5655 39.9229 38.8787 39.8186 39.1974 39.8186C39.5161 39.8186 39.8294 39.9229 40.1068 40.1214C40.557 40.4469 41.0659 40.6203 41.5844 40.6247C42.0854 40.6234 42.5766 40.4494 43.0053 40.1214C43.1306 40.0297 43.3175 39.876 43.4565 39.8244C43.6373 39.7577 43.7365 39.684 43.8271 39.475C43.9177 39.266 43.9389 39.02 43.8862 38.7912C43.8334 38.5623 43.711 38.3694 43.5458 38.2547C43.3806 38.1401 43.1861 38.1132 43.0053 38.18C42.7562 38.2772 42.5176 38.4131 42.2948 38.5844C42.0685 38.7519 41.8111 38.8401 41.5489 38.8401C41.2867 38.8401 41.0293 38.7519 40.803 38.5844C40.3104 38.2349 39.7551 38.0513 39.1903 38.0513C38.6255 38.0513 38.0702 38.2349 37.5777 38.5844C37.3489 38.7526 37.0891 38.8411 36.8246 38.8411C36.5601 38.8411 36.3003 38.7526 36.0716 38.5844C35.579 38.2349 35.0237 38.0513 34.4589 38.0513C33.8942 38.0513 33.3389 38.2349 32.8463 38.5844C32.62 38.7519 32.3625 38.8401 32.1003 38.8401C31.8382 38.8401 31.5807 38.7519 31.3544 38.5844C31.1317 38.4131 30.8931 38.2772 30.644 38.18C30.4631 38.1132 30.2687 38.1401 30.1035 38.2547C29.9383 38.3694 29.8158 38.5623 29.7631 38.7912C29.7103 39.02 29.7316 39.266 29.8222 39.475C29.9128 39.684 30.0653 39.8389 30.2461 39.9057H30.2319Z" fill="black"/>
</g>
</g>
</g>
</g>
<defs>
<radialGradient id="paint1_radial_34_817" cx="0" cy="0" r="1" gradientUnits="userSpaceOnUse" gradientTransform="translate(154.478 38.5214) rotate(90) scale(13.3925 13.8978)">
<stop stop-color="#E2FFB1" stop-opacity="0.8"/>
<stop offset="1" stop-color="#D9D9D9" stop-opacity="0"/>
</radialGradient>
</defs>
</svg>
