<svg width="4" height="18" viewBox="0 0 4 18" fill="none" xmlns="http://www.w3.org/2000/svg">
<path d="M4 9C4 9.99411 3.10457 10.8 2 10.8C0.89543 10.8 0 9.99411 0 9C0 8.00589 0.89543 7.2 2 7.2C3.10457 7.2 4 8.00589 4 9Z" fill="black"/>
<path d="M4 1.8C4 2.79411 3.10457 3.6 2 3.6C0.89543 3.6 0 2.79411 0 1.8C0 0.805887 0.89543 0 2 0C3.10457 0 4 0.805887 4 1.8Z" fill="black"/>
<path d="M4 16.2C4 17.1941 3.10457 18 2 18C0.89543 18 0 17.1941 0 16.2C0 15.2059 0.89543 14.4 2 14.4C3.10457 14.4 4 15.2059 4 16.2Z" fill="black"/>
</svg>
