<svg width="20" height="25" viewBox="0 0 20 25" fill="none" xmlns="http://www.w3.org/2000/svg">
<g id="Group 1491">
<path id="Vector" d="M19.1893 2.40234V23.8327C19.1893 24.4774 18.6667 25 18.0221 25H1.16723C0.52259 25 0 24.4774 0 23.8327V2.40234C0 1.7577 0.52259 1.23511 1.16723 1.23511H18.0221C18.6667 1.23511 19.1893 1.75769 19.1893 2.40234Z" fill="#FDD678"/>
<path id="Vector_2" d="M4.11436 3.46901C4.11436 3.92728 3.7428 4.29576 3.28451 4.29576C2.82934 4.29576 2.45776 3.92728 2.45776 3.46901C2.45776 3.01074 2.82934 2.63916 3.28451 2.63916C3.7428 2.63916 4.11436 3.01074 4.11436 3.46901ZM8.32021 3.46901C8.32021 3.92728 7.94865 4.29576 7.49036 4.29576C7.03519 4.29576 6.66361 3.92728 6.66361 3.46901C6.66361 3.01074 7.03519 2.63916 7.49036 2.63916C7.94865 2.63916 8.32021 3.01074 8.32021 3.46901ZM12.5261 3.46901C12.5261 3.92728 12.1545 4.29576 11.6962 4.29576C11.241 4.29576 10.8695 3.92728 10.8695 3.46901C10.8695 3.01074 11.241 2.63916 11.6962 2.63916C12.1545 2.63916 12.5261 3.01074 12.5261 3.46901ZM16.7319 3.46901C16.7319 3.92728 16.3604 4.29576 15.9021 4.29576C15.4469 4.29576 15.0753 3.92728 15.0753 3.46901C15.0753 3.01074 15.4469 2.63916 15.9021 2.63916C16.3604 2.63916 16.7319 3.01074 16.7319 3.46901ZM13.9575 19.9549H7.07545C6.9137 19.9549 6.78248 19.8236 6.78248 19.6619C6.78248 19.5001 6.9137 19.3689 7.07545 19.3689H13.9575C14.1193 19.3689 14.2505 19.5001 14.2505 19.6619C14.2505 19.8236 14.1193 19.9549 13.9575 19.9549ZM13.9575 21.673H3.28593C3.12419 21.673 2.99296 21.5418 2.99296 21.38C2.99296 21.2183 3.12419 21.087 3.28593 21.087H13.9575C14.1193 21.087 14.2505 21.2183 14.2505 21.38C14.2505 21.5418 14.1193 21.673 13.9575 21.673ZM5.74564 19.9549H3.28592C3.12418 19.9549 2.99296 19.8236 2.99296 19.6619C2.99296 19.5001 3.12418 19.3689 3.28592 19.3689H5.74564C5.90738 19.3689 6.03861 19.5001 6.03861 19.6619C6.03861 19.8236 5.90738 19.9549 5.74564 19.9549Z" fill="#FC9675"/>
<path id="Vector_3" d="M7.25682 7.95349V11.2631C7.25682 11.5854 6.99553 11.8467 6.6732 11.8467H3.36365C3.04132 11.8467 2.78003 11.5854 2.78003 11.2631V7.95349C2.78003 7.63117 3.04132 7.36987 3.36365 7.36987H6.67321C6.99553 7.36987 7.25682 7.63117 7.25682 7.95349ZM7.25682 13.9989V17.3084C7.25682 17.6308 6.99553 17.8921 6.6732 17.8921H3.36365C3.04132 17.8921 2.78003 17.6308 2.78003 17.3084V13.9989C2.78003 13.6765 3.04132 13.4152 3.36365 13.4152H6.67321C6.99553 13.4152 7.25682 13.6765 7.25682 13.9989Z" fill="#99A2E9"/>
<path id="Vector_4" d="M16.4094 15.864H9.59021C9.42847 15.864 9.29724 15.7328 9.29724 15.571C9.29724 15.4093 9.42847 15.2781 9.59021 15.2781H16.4094C16.5711 15.2781 16.7023 15.4093 16.7023 15.571C16.7023 15.7328 16.5711 15.864 16.4094 15.864ZM16.4094 14.5239H9.59021C9.42847 14.5239 9.29724 14.3927 9.29724 14.2309C9.29724 14.0692 9.42847 13.938 9.59021 13.938H16.4094C16.5711 13.938 16.7023 14.0692 16.7023 14.2309C16.7023 14.3927 16.5711 14.5239 16.4094 14.5239ZM15.2821 17.3693H9.59021C9.42847 17.3693 9.29724 17.2381 9.29724 17.0763C9.29724 16.9146 9.42847 16.7834 9.59021 16.7834H15.2821C15.4439 16.7834 15.5751 16.9146 15.5751 17.0763C15.5751 17.2381 15.4439 17.3693 15.2821 17.3693ZM16.4094 9.81886H9.59021C9.42847 9.81886 9.29724 9.68763 9.29724 9.52589C9.29724 9.36415 9.42847 9.23292 9.59021 9.23292H16.4094C16.5711 9.23292 16.7023 9.36415 16.7023 9.52589C16.7023 9.68763 16.5711 9.81886 16.4094 9.81886ZM16.4094 8.47876H9.59021C9.42847 8.47876 9.29724 8.34753 9.29724 8.18579C9.29724 8.02405 9.42847 7.89282 9.59021 7.89282H16.4094C16.5711 7.89282 16.7023 8.02405 16.7023 8.18579C16.7023 8.34753 16.5711 8.47876 16.4094 8.47876ZM15.2821 11.3238H9.59021C9.42847 11.3238 9.29724 11.1925 9.29724 11.0308C9.29724 10.869 9.42847 10.7378 9.59021 10.7378H15.2821C15.4439 10.7378 15.5751 10.869 15.5751 11.0308C15.5751 11.1925 15.4439 11.3238 15.2821 11.3238Z" fill="#FC9675"/>
<g id="Group">
<path id="Vector_5" d="M4.59029 10.5823C4.51247 10.5823 4.43808 10.5514 4.38315 10.4965L3.8777 9.99064C3.76326 9.8762 3.76326 9.69081 3.8777 9.57637C3.99214 9.46154 4.17754 9.46231 4.29198 9.57637L4.59029 9.87506L5.74499 8.72035C5.85943 8.60591 6.04483 8.60591 6.15927 8.72035C6.27371 8.83479 6.27371 9.02019 6.15927 9.13463L4.79742 10.4965C4.74249 10.5514 4.66811 10.5823 4.59029 10.5823Z" fill="white"/>
</g>
<g id="Group_2">
<path id="Vector_6" d="M4.59029 16.6275C4.51247 16.6275 4.43808 16.5966 4.38315 16.5416L3.8777 16.0358C3.76326 15.9214 3.76326 15.736 3.8777 15.6215C3.99214 15.5071 4.17754 15.5071 4.29198 15.6215L4.59029 15.9202L5.74499 14.7655C5.85943 14.6511 6.04483 14.6511 6.15927 14.7655C6.27371 14.88 6.27371 15.0654 6.15927 15.1798L4.79742 16.5416C4.74249 16.5966 4.66811 16.6275 4.59029 16.6275Z" fill="white"/>
</g>
<g id="Group_3">
<path id="Vector_7" d="M3.28593 3.85658C3.07087 3.85658 2.89685 3.68256 2.89685 3.46751V0.389078C2.89685 0.17402 3.07087 0 3.28593 0C3.50098 0 3.67501 0.17402 3.67501 0.389078V3.46751C3.67501 3.68256 3.50098 3.85658 3.28593 3.85658ZM7.49207 3.85658C7.27701 3.85658 7.10299 3.68256 7.10299 3.46751V0.389078C7.10299 0.17402 7.27702 0 7.49207 0C7.70713 0 7.88115 0.17402 7.88115 0.389078V3.46751C7.88115 3.68256 7.70713 3.85658 7.49207 3.85658ZM11.6978 3.85658C11.4828 3.85658 11.3088 3.68256 11.3088 3.46751V0.389078C11.3088 0.17402 11.4828 0 11.6978 0C11.9129 0 12.0869 0.17402 12.0869 0.389078V3.46751C12.0869 3.68256 11.9129 3.85658 11.6978 3.85658ZM15.9036 3.85658C15.6885 3.85658 15.5145 3.68256 15.5145 3.46751V0.389078C15.5145 0.17402 15.6885 0 15.9036 0C16.1187 0 16.2927 0.17402 16.2927 0.389078V3.46751C16.2927 3.68256 16.1187 3.85658 15.9036 3.85658Z" fill="#4C4947"/>
</g>
</g>
</svg>
