<svg width="16" height="20" viewBox="0 0 16 20" fill="none" xmlns="http://www.w3.org/2000/svg">
<path d="M13.4596 7.27767L12.9626 7.33251L13.4596 7.27767ZM13.8509 10.8237L14.3479 10.7689L13.8509 10.8237ZM2.14912 10.8237L1.65213 10.7689L2.14912 10.8237ZM2.54041 7.27767L3.03739 7.33251L2.54041 7.27767ZM1.39181 12.5849L1.00661 12.2661H1.00661L1.39181 12.5849ZM14.6082 12.5849L14.223 12.9037V12.9037L14.6082 12.5849ZM9.9862 3.1363H9.4862C9.4862 3.34841 9.62004 3.53745 9.82012 3.6079L9.9862 3.1363ZM6.0138 3.1363L6.17988 3.6079C6.37996 3.53744 6.5138 3.34841 6.5138 3.1363H6.0138ZM11.0948 17.3712C11.1893 17.1117 11.0556 16.8247 10.7962 16.7302C10.5367 16.6357 10.2497 16.7694 10.1552 17.0288L11.0948 17.3712ZM5.84479 17.0288C5.75025 16.7694 5.46328 16.6357 5.20383 16.7302C4.94437 16.8247 4.81068 17.1117 4.90521 17.3712L5.84479 17.0288ZM13.055 14.9H2.94496V15.9H13.055V14.9ZM12.9626 7.33251L13.3539 10.8786L14.3479 10.7689L13.9566 7.22283L12.9626 7.33251ZM2.6461 10.8786L3.03739 7.33251L2.04342 7.22283L1.65213 10.7689L2.6461 10.8786ZM1.77701 12.9037C2.26173 12.318 2.56451 11.618 2.6461 10.8786L1.65213 10.7689C1.59278 11.3068 1.37179 11.8249 1.00661 12.2661L1.77701 12.9037ZM13.3539 10.8786C13.4355 11.618 13.7383 12.318 14.223 12.9037L14.9934 12.2661C14.6282 11.8249 14.4072 11.3068 14.3479 10.7689L13.3539 10.8786ZM2.94496 14.9C2.32479 14.9 1.86546 14.5831 1.64628 14.1859C1.43044 13.7947 1.43673 13.3149 1.77701 12.9037L1.00661 12.2661C0.386998 13.0148 0.369945 13.9426 0.770699 14.6689C1.1681 15.3892 1.9653 15.9 2.94496 15.9V14.9ZM13.055 15.9C14.0347 15.9 14.8319 15.3892 15.2293 14.6689C15.6301 13.9426 15.613 13.0148 14.9934 12.2661L14.223 12.9037C14.5633 13.3149 14.5696 13.7947 14.3537 14.1859C14.1345 14.5831 13.6752 14.9 13.055 14.9V15.9ZM10.4862 3.1363V3.04295H9.4862V3.1363H10.4862ZM13.9566 7.22283C13.7216 5.09375 12.182 3.3795 10.1523 2.66469L9.82012 3.6079C11.5396 4.21345 12.7756 5.63739 12.9626 7.33251L13.9566 7.22283ZM6.5138 3.1363V3.04295H5.5138V3.1363H6.5138ZM3.03739 7.33251C3.22444 5.63739 4.46041 4.21345 6.17988 3.6079L5.84771 2.66469C3.81799 3.3795 2.27836 5.09375 2.04342 7.22283L3.03739 7.33251ZM8 1.5C8.80762 1.5 9.4862 2.17743 9.4862 3.04295H10.4862C10.4862 1.65189 9.38628 0.5 8 0.5V1.5ZM8 0.5C6.61372 0.5 5.5138 1.65189 5.5138 3.04295H6.5138C6.5138 2.17743 7.19238 1.5 8 1.5V0.5ZM10.1552 17.0288C9.84545 17.879 9.00291 18.5 8 18.5V19.5C9.42089 19.5 10.6404 18.6184 11.0948 17.3712L10.1552 17.0288ZM8 18.5C6.99708 18.5 6.15455 17.879 5.84479 17.0288L4.90521 17.3712C5.35964 18.6184 6.57911 19.5 8 19.5V18.5Z" fill="#28303F"/>
</svg>
