<svg width="9" height="9" viewBox="0 0 9 9" fill="none" xmlns="http://www.w3.org/2000/svg">
<path fill-rule="evenodd" clip-rule="evenodd" d="M5.82615 0.288463C5.20993 -0.327755 4.15629 0.108675 4.15629 0.980139C4.15629 1.23957 4.05323 1.48837 3.86979 1.67182L3.05944 2.48217C2.87599 2.66561 2.62719 2.76867 2.36776 2.76867C1.49629 2.76867 1.05986 3.8223 1.67608 4.43852L2.86422 5.62666L0.105442 8.38544C-0.0351472 8.52603 -0.0351472 8.75397 0.105442 8.89456C0.24603 9.03515 0.47397 9.03515 0.614559 8.89456L3.37334 6.13578L4.56147 7.3239C5.17769 7.94012 6.23133 7.50369 6.23133 6.63223C6.23133 6.3728 6.33438 6.12399 6.51783 5.94055L7.32818 5.1302C7.51163 4.94675 7.76043 4.8437 8.01986 4.8437C8.89132 4.8437 9.32776 3.79006 8.71154 3.17384L5.82615 0.288463Z" fill="#666666"/>
</svg>
