<svg width="20" height="23" viewBox="0 0 20 23" fill="none" xmlns="http://www.w3.org/2000/svg">
<g id="Group 1492">
<path id="Vector" d="M18.2609 20H1.73914V22.1739H18.2609V20Z" fill="#DBDBDB"/>
<path id="Vector_2" d="M0.869565 1.30444H19.1304C19.3611 1.30444 19.5822 1.39606 19.7453 1.55913C19.9084 1.72221 20 1.94339 20 2.17401V20.4349H0V2.17401C0 1.94339 0.0916146 1.72221 0.25469 1.55913C0.417765 1.39606 0.638942 1.30444 0.869565 1.30444Z" fill="#99A2E9"/>
<path id="Vector_3" d="M0.869565 1.30444H19.1304C19.3611 1.30444 19.5822 1.39606 19.7453 1.55913C19.9084 1.72221 20 1.94339 20 2.17401V4.7827H0V2.17401C0 1.94339 0.0916146 1.72221 0.25469 1.55913C0.417765 1.39606 0.638942 1.30444 0.869565 1.30444Z" fill="#FFD36A"/>
<path id="Vector_4" d="M3.47821 9.13024C3.95846 9.13024 4.34777 8.74093 4.34777 8.26068C4.34777 7.78043 3.95846 7.39111 3.47821 7.39111C2.99796 7.39111 2.60864 7.78043 2.60864 8.26068C2.60864 8.74093 2.99796 9.13024 3.47821 9.13024Z" fill="#CBCBCB"/>
<path id="Vector_5" d="M7.82611 9.13024C8.30636 9.13024 8.69567 8.74093 8.69567 8.26068C8.69567 7.78043 8.30636 7.39111 7.82611 7.39111C7.34586 7.39111 6.95654 7.78043 6.95654 8.26068C6.95654 8.74093 7.34586 9.13024 7.82611 9.13024Z" fill="#CBCBCB"/>
<path id="Vector_6" d="M12.1739 9.13024C12.6541 9.13024 13.0435 8.74093 13.0435 8.26068C13.0435 7.78043 12.6541 7.39111 12.1739 7.39111C11.6936 7.39111 11.3043 7.78043 11.3043 8.26068C11.3043 8.74093 11.6936 9.13024 12.1739 9.13024Z" fill="#CBCBCB"/>
<path id="Vector_7" d="M12.1739 12.6088C12.6541 12.6088 13.0435 12.2194 13.0435 11.7392C13.0435 11.2589 12.6541 10.8696 12.1739 10.8696C11.6936 10.8696 11.3043 11.2589 11.3043 11.7392C11.3043 12.2194 11.6936 12.6088 12.1739 12.6088Z" fill="#CBCBCB"/>
<path id="Vector_8" d="M16.5218 9.13024C17.002 9.13024 17.3914 8.74093 17.3914 8.26068C17.3914 7.78043 17.002 7.39111 16.5218 7.39111C16.0415 7.39111 15.6522 7.78043 15.6522 8.26068C15.6522 8.74093 16.0415 9.13024 16.5218 9.13024Z" fill="#CBCBCB"/>
<path id="Vector_9" d="M16.5218 12.6088C17.002 12.6088 17.3914 12.2194 17.3914 11.7392C17.3914 11.2589 17.002 10.8696 16.5218 10.8696C16.0415 10.8696 15.6522 11.2589 15.6522 11.7392C15.6522 12.2194 16.0415 12.6088 16.5218 12.6088Z" fill="#CBCBCB"/>
<path id="Vector_10" d="M3.47821 12.6088C3.95846 12.6088 4.34777 12.2194 4.34777 11.7392C4.34777 11.2589 3.95846 10.8696 3.47821 10.8696C2.99796 10.8696 2.60864 11.2589 2.60864 11.7392C2.60864 12.2194 2.99796 12.6088 3.47821 12.6088Z" fill="#CBCBCB"/>
<path id="Vector_11" d="M7.82611 12.6088C8.30636 12.6088 8.69567 12.2194 8.69567 11.7392C8.69567 11.2589 8.30636 10.8696 7.82611 10.8696C7.34586 10.8696 6.95654 11.2589 6.95654 11.7392C6.95654 12.2194 7.34586 12.6088 7.82611 12.6088Z" fill="#FC9675"/>
<path id="Vector_12" d="M16.5218 16.0868C17.002 16.0868 17.3914 15.6975 17.3914 15.2172C17.3914 14.737 17.002 14.3477 16.5218 14.3477C16.0415 14.3477 15.6522 14.737 15.6522 15.2172C15.6522 15.6975 16.0415 16.0868 16.5218 16.0868Z" fill="#FC9675"/>
<path id="Vector_13" d="M3.47821 16.0868C3.95846 16.0868 4.34777 15.6975 4.34777 15.2172C4.34777 14.737 3.95846 14.3477 3.47821 14.3477C2.99796 14.3477 2.60864 14.737 2.60864 15.2172C2.60864 15.6975 2.99796 16.0868 3.47821 16.0868Z" fill="#CBCBCB"/>
<path id="Vector_14" d="M7.82611 16.0868C8.30636 16.0868 8.69567 15.6975 8.69567 15.2172C8.69567 14.737 8.30636 14.3477 7.82611 14.3477C7.34586 14.3477 6.95654 14.737 6.95654 15.2172C6.95654 15.6975 7.34586 16.0868 7.82611 16.0868Z" fill="#CBCBCB"/>
<path id="Vector_15" d="M12.1739 16.0868C12.6541 16.0868 13.0435 15.6975 13.0435 15.2172C13.0435 14.737 12.6541 14.3477 12.1739 14.3477C11.6936 14.3477 11.3043 14.737 11.3043 15.2172C11.3043 15.6975 11.6936 16.0868 12.1739 16.0868Z" fill="#CBCBCB"/>
<path id="Vector_16" d="M3.47821 0C3.70883 0 3.93001 0.0916146 4.09308 0.25469C4.25616 0.417765 4.34777 0.638942 4.34777 0.869565V2.6087H2.60864V0.869565C2.60864 0.638942 2.70026 0.417765 2.86333 0.25469C3.02641 0.0916146 3.24758 0 3.47821 0ZM7.82603 0C8.05666 0 8.27783 0.0916146 8.44091 0.25469C8.60398 0.417765 8.6956 0.638942 8.6956 0.869565V2.6087H6.95647V0.869565C6.95647 0.638942 7.04808 0.417765 7.21116 0.25469C7.37423 0.0916146 7.59541 0 7.82603 0ZM12.1739 0C12.4045 0 12.6257 0.0916146 12.7887 0.25469C12.9518 0.417765 13.0434 0.638942 13.0434 0.869565V2.6087H11.3043V0.869565C11.3043 0.638942 11.3959 0.417765 11.559 0.25469C11.7221 0.0916146 11.9432 0 12.1739 0ZM16.5217 0C16.7523 0 16.9735 0.0916146 17.1366 0.25469C17.2996 0.417765 17.3913 0.638942 17.3913 0.869565V2.6087H15.6521V0.869565C15.6521 0.638942 15.7437 0.417765 15.9068 0.25469C16.0699 0.0916146 16.2911 0 16.5217 0Z" fill="#C3C3C3"/>
</g>
</svg>
