<svg width="138" height="109" viewBox="0 0 138 109" fill="none" xmlns="http://www.w3.org/2000/svg">
<path d="M12.5357 43.0357C11.0586 43.034 9.64246 42.4465 8.59798 41.402C7.5535 40.3575 6.96597 38.9414 6.96429 37.4643C6.96429 37.3411 6.91537 37.2231 6.8283 37.136C6.74123 37.0489 6.62314 37 6.5 37C6.37686 37 6.25877 37.0489 6.1717 37.136C6.08463 37.2231 6.03571 37.3411 6.03571 37.4643C6.03403 38.9414 5.4465 40.3575 4.40202 41.402C3.35754 42.4465 1.9414 43.034 0.464286 43.0357C0.341149 43.0357 0.223057 43.0846 0.135986 43.1717C0.0489157 43.2588 0 43.3769 0 43.5C0 43.6231 0.0489157 43.7412 0.135986 43.8283C0.223057 43.9154 0.341149 43.9643 0.464286 43.9643C1.9414 43.966 3.35754 44.5535 4.40202 45.598C5.4465 46.6425 6.03403 48.0586 6.03571 49.5357C6.03571 49.6589 6.08463 49.7769 6.1717 49.864C6.25877 49.9511 6.37686 50 6.5 50C6.62314 50 6.74123 49.9511 6.8283 49.864C6.91537 49.7769 6.96429 49.6589 6.96429 49.5357C6.96597 48.0586 7.5535 46.6425 8.59798 45.598C9.64246 44.5535 11.0586 43.966 12.5357 43.9643C12.6589 43.9643 12.7769 43.9154 12.864 43.8283C12.9511 43.7412 13 43.6231 13 43.5C13 43.3769 12.9511 43.2588 12.864 43.1717C12.7769 43.0846 12.6589 43.0357 12.5357 43.0357Z" fill="white"/>
<path d="M130.536 9.03571C129.059 9.03403 127.642 8.4465 126.598 7.40202C125.553 6.35754 124.966 4.9414 124.964 3.46429C124.964 3.34115 124.915 3.22306 124.828 3.13599C124.741 3.04892 124.623 3 124.5 3C124.377 3 124.259 3.04892 124.172 3.13599C124.085 3.22306 124.036 3.34115 124.036 3.46429C124.034 4.9414 123.447 6.35754 122.402 7.40202C121.358 8.4465 119.941 9.03403 118.464 9.03571C118.341 9.03571 118.223 9.08463 118.136 9.1717C118.049 9.25877 118 9.37686 118 9.5C118 9.62314 118.049 9.74123 118.136 9.8283C118.223 9.91537 118.341 9.96429 118.464 9.96429C119.941 9.96597 121.358 10.5535 122.402 11.598C123.447 12.6425 124.034 14.0586 124.036 15.5357C124.036 15.6589 124.085 15.7769 124.172 15.864C124.259 15.9511 124.377 16 124.5 16C124.623 16 124.741 15.9511 124.828 15.864C124.915 15.7769 124.964 15.6589 124.964 15.5357C124.966 14.0586 125.553 12.6425 126.598 11.598C127.642 10.5535 129.059 9.96597 130.536 9.96429C130.659 9.96429 130.777 9.91537 130.864 9.8283C130.951 9.74123 131 9.62314 131 9.5C131 9.37686 130.951 9.25877 130.864 9.1717C130.777 9.08463 130.659 9.03571 130.536 9.03571Z" fill="white"/>
<path d="M21.3612 49.1406H18.1946V45.9739C18.1946 45.834 18.139 45.6997 18.04 45.6007C17.941 45.5018 17.8068 45.4462 17.6668 45.4462C17.5268 45.4462 17.3926 45.5018 17.2936 45.6007C17.1946 45.6997 17.139 45.834 17.139 45.9739V49.1406H13.9724C13.8324 49.1406 13.6981 49.1962 13.5992 49.2952C13.5002 49.3942 13.4446 49.5284 13.4446 49.6684C13.4446 49.8084 13.5002 49.9426 13.5992 50.0416C13.6981 50.1406 13.8324 50.1962 13.9724 50.1962H17.139V53.3628C17.139 53.5028 17.1946 53.6371 17.2936 53.736C17.3926 53.835 17.5268 53.8906 17.6668 53.8906C17.8068 53.8906 17.941 53.835 18.04 53.736C18.139 53.6371 18.1946 53.5028 18.1946 53.3628V50.1962H21.3612C21.5012 50.1962 21.6355 50.1406 21.7344 50.0416C21.8334 49.9426 21.889 49.8084 21.889 49.6684C21.889 49.5284 21.8334 49.3942 21.7344 49.2952C21.6355 49.1962 21.5012 49.1406 21.3612 49.1406Z" fill="white"/>
<path d="M135.028 94.8066H131.861V91.64C131.861 91.5 131.806 91.3657 131.707 91.2668C131.608 91.1678 131.473 91.1122 131.333 91.1122C131.193 91.1122 131.059 91.1678 130.96 91.2668C130.861 91.3657 130.806 91.5 130.806 91.64V94.8066H127.639C127.499 94.8066 127.365 94.8622 127.266 94.9612C127.167 95.0602 127.111 95.1944 127.111 95.3344C127.111 95.4744 127.167 95.6086 127.266 95.7076C127.365 95.8066 127.499 95.8622 127.639 95.8622H130.806V99.0288C130.806 99.1688 130.861 99.3031 130.96 99.402C131.059 99.501 131.193 99.5566 131.333 99.5566C131.473 99.5566 131.608 99.501 131.707 99.402C131.806 99.3031 131.861 99.1688 131.861 99.0288V95.8622H135.028C135.168 95.8622 135.302 95.8066 135.401 95.7076C135.5 95.6086 135.556 95.4744 135.556 95.3344C135.556 95.1944 135.5 95.0602 135.401 94.9612C135.302 94.8622 135.168 94.8066 135.028 94.8066Z" fill="white"/>
<path d="M54.4173 5.71545V54.6759L49.1655 58.8434L43.9255 54.6759V5.71545C43.9897 4.3673 44.5703 3.09559 45.5471 2.16417C46.5239 1.23275 47.8217 0.713135 49.1714 0.713135C50.5211 0.713135 51.819 1.23275 52.7957 2.16417C53.7725 3.09559 54.3532 4.3673 54.4173 5.71545Z" fill="#F8E883"/>
<path d="M70.0999 95.4422C70.2921 98.3804 69.7078 101.318 68.4058 103.959C66.1761 105.183 63.8336 106.19 61.4107 106.966C60.257 107.333 59.1016 107.643 57.9124 107.911C55.6135 108.434 53.2725 108.75 50.9173 108.855C50.3413 108.873 49.7466 108.89 49.1689 108.89C48.5912 108.89 47.9966 108.873 47.4206 108.855C45.0654 108.749 42.7244 108.434 40.4255 107.911C39.2396 107.648 38.0809 107.333 36.9271 106.966C34.506 106.19 32.1652 105.183 29.9372 103.959C26.4337 98.678 28.182 79.3174 36.9255 68.7562V61.6731C36.9252 60.7544 37.106 59.8447 37.4575 58.9959C37.8089 58.1471 38.3242 57.3759 38.9738 56.7263C39.6234 56.0767 40.3946 55.5614 41.2434 55.21C42.0921 54.8585 43.0019 54.6778 43.9205 54.678H54.414C55.3326 54.6778 56.2424 54.8585 57.0911 55.21C57.9399 55.5614 58.7111 56.0767 59.3607 56.7263C60.0103 57.3759 60.5256 58.1471 60.877 58.9959C61.2285 59.8447 61.4093 60.7544 61.4091 61.6731V68.7562C67.3893 75.9783 70.0999 87.2934 70.0999 95.4422Z" fill="#DCDCDC"/>
<path d="M45.5233 68.7562V60.9463C45.527 59.7452 45.7973 58.5598 46.3147 57.4759C46.8321 56.3919 47.5836 55.4363 48.5151 54.678H43.9257C43.0069 54.6775 42.097 54.8582 41.2481 55.2095C40.3991 55.5609 39.6277 56.0761 38.9779 56.7257C38.3281 57.3753 37.8127 58.1466 37.4612 58.9955C37.1096 59.8444 36.9288 60.7542 36.929 61.6731V68.7562C28.1856 79.3174 26.4372 98.678 29.9373 103.959C31.8776 105.016 33.9023 105.91 35.9904 106.632C34.054 97.7665 36.7951 79.2954 45.5233 68.7562Z" fill="#C7BDC0"/>
<path d="M61.4124 61.6731V68.7562H36.9288V61.6731C36.9286 60.7542 37.1094 59.8444 37.461 58.9955C37.8126 58.1466 38.328 57.3753 38.9777 56.7257C39.6275 56.0761 40.3989 55.5609 41.2479 55.2095C42.0969 54.8582 43.0068 54.6775 43.9256 54.678H54.4174C55.336 54.6778 56.2457 54.8585 57.0945 55.21C57.9433 55.5615 58.7145 56.0767 59.3641 56.7263C60.0137 57.3759 60.529 58.1471 60.8804 58.9959C61.2319 59.8447 61.4127 60.7544 61.4124 61.6731Z" fill="#FF6F7F"/>
<path d="M47.4189 65.1714C46.4912 65.171 45.6017 64.8023 44.9457 64.1463C44.2897 63.4903 43.921 62.6007 43.9205 61.6731V58.0883C43.9283 56.8906 44.2471 55.7155 44.8455 54.678H43.9273C42.0719 54.678 40.2925 55.4149 38.9804 56.7267C37.6683 58.0385 36.931 59.8177 36.9305 61.6731V68.7562H61.4124V65.1714H47.4189Z" fill="#ED5C79"/>
<path d="M49.1672 45.9337V0.464844C48.4779 0.464619 47.7954 0.600382 47.1587 0.864356C46.522 1.12833 45.9436 1.51533 45.4567 2.00318C44.9698 2.49103 44.5839 3.07016 44.3212 3.70738C44.0584 4.3446 43.924 5.02739 43.9256 5.71665V54.6771H54.4173V49.4253H52.6656C51.7388 49.4257 50.8497 49.0582 50.1937 48.4035C49.5378 47.7488 49.1685 46.8605 49.1672 45.9337Z" fill="#F2CB77"/>
<path d="M50.9157 96.6485V108.846C50.3397 108.865 49.745 108.882 49.1673 108.882C48.5896 108.882 47.995 108.865 47.419 108.846V96.6485C47.419 96.1848 47.6032 95.7401 47.9311 95.4122C48.2589 95.0843 48.7036 94.9001 49.1673 94.9001C49.631 94.9001 50.0757 95.0843 50.4036 95.4122C50.7315 95.7401 50.9157 96.1848 50.9157 96.6485ZM61.4091 96.6485V106.966C60.2554 107.333 59.1 107.643 57.9107 107.911V96.6485C57.9249 96.194 58.1154 95.7629 58.4419 95.4464C58.7684 95.1299 59.2052 94.9529 59.6599 94.9529C60.1147 94.9529 60.5515 95.1299 60.878 95.4464C61.2045 95.7629 61.395 96.194 61.4091 96.6485ZM40.4239 96.6485V107.911C39.238 107.648 38.0792 107.333 36.9255 106.966V96.6485C36.9397 96.194 37.1302 95.7629 37.4567 95.4464C37.7832 95.1299 38.22 94.9529 38.6747 94.9529C39.1294 94.9529 39.5663 95.1299 39.8928 95.4464C40.2193 95.7629 40.4098 96.194 40.4239 96.6485Z" fill="#655E67"/>
<path d="M117.337 58.461V67.7878H111.119V58.461C111.16 56.8028 110.869 55.1532 110.262 53.6093C109.656 52.0655 108.747 50.6585 107.589 49.4713C106.43 48.284 105.046 47.3406 103.517 46.6964C101.989 46.0522 100.347 45.7204 98.6883 45.7204C97.0296 45.7204 95.3877 46.0522 93.8592 46.6964C92.3307 47.3406 90.9465 48.284 89.7881 49.4713C88.6298 50.6585 87.7206 52.0655 87.1143 53.6093C86.5079 55.1532 86.2165 56.8028 86.2574 58.461V67.7878H80.0325V58.461C80.0325 53.5142 81.9976 48.77 85.4955 45.272C88.9935 41.7741 93.7377 39.809 98.6846 39.809C103.631 39.809 108.376 41.7741 111.874 45.272C115.372 48.77 117.337 53.5142 117.337 58.461Z" fill="#DCDCDC"/>
<path d="M118.892 64.6791H78.4785C77.6545 64.6815 76.865 65.0098 76.2824 65.5924C75.6998 66.1751 75.3714 66.9646 75.369 67.7885V74.0059C75.3718 74.8296 75.7003 75.6187 76.2829 76.201C76.8655 76.7833 77.6548 77.1114 78.4785 77.1138H80.0324L82.5501 101.075C82.7127 102.603 83.4345 104.018 84.5765 105.046C85.7186 106.074 87.2005 106.645 88.7373 106.647H108.633C110.17 106.645 111.652 106.075 112.794 105.046C113.936 104.018 114.657 102.603 114.819 101.075L117.337 77.1138H118.892C119.716 77.1114 120.505 76.7832 121.087 76.2009C121.669 75.6185 121.998 74.8294 122 74.0059V67.7885C121.998 66.9648 121.669 66.1755 121.087 65.593C120.505 65.0104 119.716 64.6819 118.892 64.6791Z" fill="#7FB3FA"/>
<path d="M90.3229 101.075L87.8007 77.1138H86.2468C85.4231 77.1114 84.6338 76.7833 84.0512 76.201C83.4687 75.6187 83.1401 74.8296 83.1373 74.0059V67.7885C83.1397 66.9646 83.4681 66.1751 84.0507 65.5924C84.6333 65.0098 85.4228 64.6815 86.2468 64.6791H78.4785C77.6545 64.6815 76.865 65.0098 76.2824 65.5924C75.6998 66.1751 75.3714 66.9646 75.369 67.7885V74.0059C75.3718 74.8296 75.7003 75.6187 76.2829 76.201C76.8655 76.7833 77.6548 77.1114 78.4785 77.1138H80.0324L82.5501 101.075C82.7127 102.603 83.4345 104.018 84.5765 105.046C85.7186 106.074 87.2005 106.645 88.7373 106.647H96.5056C94.9696 106.643 93.4888 106.073 92.3477 105.045C91.2066 104.016 90.4855 102.603 90.3229 101.075Z" fill="#64A6F4"/>
<path d="M122 67.7885V74.0059C121.998 74.8294 121.669 75.6185 121.087 76.2009C120.505 76.7832 119.716 77.1114 118.892 77.1138H78.4785C77.6548 77.1114 76.8655 76.7833 76.2829 76.201C75.7003 75.6187 75.3718 74.8296 75.369 74.0059V67.7885C75.3714 66.9646 75.6998 66.1751 76.2824 65.5924C76.865 65.0098 77.6545 64.6815 78.4785 64.6791H118.892C119.716 64.6819 120.505 65.0104 121.087 65.593C121.669 66.1755 121.998 66.9648 122 67.7885Z" fill="#655E67"/>
<path d="M87.8007 72.4507H86.2468C85.4231 72.4483 84.6338 72.1201 84.0512 71.5378C83.4687 70.9555 83.1401 70.1664 83.1373 69.3427V64.6748H78.4785C77.6545 64.6772 76.865 65.0056 76.2824 65.5882C75.6998 66.1708 75.3714 66.9603 75.369 67.7842V74.0016C75.3718 74.8253 75.7003 75.6144 76.2829 76.1967C76.8655 76.779 77.6548 77.1071 78.4785 77.1095H118.892C119.716 77.1071 120.505 76.7789 121.087 76.1966C121.669 75.6143 121.998 74.8251 122 74.0016V72.4507H87.8007Z" fill="#544F56"/>
</svg>
