<svg width="11" height="10" viewBox="0 0 11 10" fill="none" xmlns="http://www.w3.org/2000/svg">
<path fill-rule="evenodd" clip-rule="evenodd" d="M7.54529 1.18629C7.82442 0.938049 8.27709 0.93788 8.55646 1.18592L9.79026 2.28135C10.0697 2.52949 10.0699 2.93205 9.79069 3.1804L3.96633 8.36025C3.86673 8.44883 3.73991 8.50928 3.60179 8.53402L1 9L1.52519 6.69011C1.55304 6.56759 1.62092 6.45509 1.72033 6.36668L7.54529 1.18629Z" fill="white"/>
<path d="M6.36327 2.32591L8.50859 4.2328M1 9L3.60179 8.53402C3.73991 8.50928 3.86673 8.44883 3.96633 8.36025L9.79069 3.1804C10.0699 2.93205 10.0697 2.52949 9.79026 2.28135L8.55646 1.18592C8.27709 0.93788 7.82442 0.938049 7.54529 1.18629L1.72033 6.36668C1.62092 6.45509 1.55304 6.56759 1.52519 6.69011L1 9Z" stroke="black" stroke-linecap="round" stroke-linejoin="round"/>
</svg>
