<svg width="21" height="21" viewBox="0 0 21 21" fill="none" xmlns="http://www.w3.org/2000/svg">
<path id="Vector" d="M19.7297 14.4273L19.3033 14.1662L19.7297 14.4273ZM18.7221 16.0727L19.1485 16.3338L18.7221 16.0727ZM1.27032 6.57272L0.843911 6.31161H0.843911L1.27032 6.57272ZM2.2779 4.92727L2.7043 5.18838L2.2779 4.92727ZM5.03066 4.23182L5.26971 3.79267L5.26971 3.79267L5.03066 4.23182ZM2.00792 9.16817L1.76886 9.60732H1.76886L2.00792 9.16817ZM15.9693 16.7682L15.7303 17.2073H15.7303L15.9693 16.7682ZM18.9921 11.8318L18.753 12.271V12.271L18.9921 11.8318ZM2.2779 16.0727L1.85149 16.3338L1.85149 16.3338L2.2779 16.0727ZM1.27032 14.4273L1.69672 14.1662H1.69672L1.27032 14.4273ZM18.7221 4.92728L19.1485 4.66618V4.66618L18.7221 4.92728ZM19.7297 6.57273L19.3033 6.83384V6.83384L19.7297 6.57273ZM18.9921 9.16818L19.2311 9.60733L18.9921 9.16818ZM15.9693 4.23183L16.2084 4.67098H16.2084L15.9693 4.23183ZM2.00792 11.8318L2.24697 12.271H2.24697L2.00792 11.8318ZM5.03065 16.7682L4.7916 16.329L4.7916 16.329L5.03065 16.7682ZM15.8622 4.29014L15.6232 3.85099L15.8622 4.29014ZM5.13778 4.29013L4.89872 4.72928L4.89872 4.72928L5.13778 4.29013ZM15.8622 16.7099L16.1013 16.2707H16.1013L15.8622 16.7099ZM5.13778 16.7099L5.37683 17.149H5.37683L5.13778 16.7099ZM9.49242 1.5H11.5076V0.5H9.49242V1.5ZM11.5076 19.5H9.49242V20.5H11.5076V19.5ZM9.49242 19.5C8.62749 19.5 7.97726 18.8459 7.97726 18.1H6.97726C6.97726 19.4528 8.13146 20.5 9.49242 20.5V19.5ZM13.0227 18.1C13.0227 18.8459 12.3725 19.5 11.5076 19.5V20.5C12.8685 20.5 14.0227 19.4528 14.0227 18.1H13.0227ZM11.5076 1.5C12.3725 1.5 13.0227 2.15411 13.0227 2.9H14.0227C14.0227 1.5472 12.8685 0.5 11.5076 0.5V1.5ZM9.49242 0.5C8.13146 0.5 6.97726 1.54721 6.97726 2.9H7.97726C7.97726 2.15411 8.62749 1.5 9.49242 1.5V0.5ZM19.3033 14.1662L18.2957 15.8116L19.1485 16.3338L20.1561 14.6884L19.3033 14.1662ZM1.69672 6.83382L2.7043 5.18838L1.85149 4.66616L0.843911 6.31161L1.69672 6.83382ZM2.7043 5.18838C3.11508 4.51755 4.05025 4.26741 4.7916 4.67097L5.26971 3.79267C4.08339 3.14689 2.55366 3.51947 1.85149 4.66616L2.7043 5.18838ZM2.24697 8.72902C1.52122 8.33394 1.29744 7.48588 1.69672 6.83382L0.843911 6.31161C0.130254 7.47706 0.566948 8.95305 1.76886 9.60732L2.24697 8.72902ZM18.2957 15.8116C17.8849 16.4824 16.9498 16.7326 16.2084 16.329L15.7303 17.2073C16.9166 17.8531 18.4463 17.4805 19.1485 16.3338L18.2957 15.8116ZM20.1561 14.6884C20.8697 13.5229 20.4331 12.0469 19.2311 11.3927L18.753 12.271C19.4788 12.666 19.7026 13.5141 19.3033 14.1662L20.1561 14.6884ZM2.7043 15.8116L1.69672 14.1662L0.84391 14.6884L1.85149 16.3338L2.7043 15.8116ZM18.2957 5.18839L19.3033 6.83384L20.1561 6.31162L19.1485 4.66618L18.2957 5.18839ZM19.3033 6.83384C19.7026 7.4859 19.4788 8.33396 18.753 8.72903L19.2311 9.60733C20.4331 8.95306 20.8697 7.47708 20.1561 6.31162L19.3033 6.83384ZM16.2084 4.67098C16.9498 4.26742 17.8849 4.51757 18.2957 5.18839L19.1485 4.66618C18.4463 3.51949 16.9166 3.1469 15.7303 3.79268L16.2084 4.67098ZM1.69672 14.1662C1.29744 13.5141 1.52121 12.6661 2.24697 12.271L1.76886 11.3927C0.566947 12.047 0.130253 13.5229 0.84391 14.6884L1.69672 14.1662ZM1.85149 16.3338C2.55366 17.4805 4.08339 17.8531 5.26971 17.2073L4.7916 16.329C4.05024 16.7326 3.11508 16.4824 2.7043 15.8116L1.85149 16.3338ZM16.1013 4.72929L16.2084 4.67098L15.7303 3.79268L15.6232 3.85099L16.1013 4.72929ZM4.7916 4.67097L4.89872 4.72928L5.37683 3.85098L5.26971 3.79267L4.7916 4.67097ZM16.2084 16.329L16.1013 16.2707L15.6232 17.149L15.7303 17.2073L16.2084 16.329ZM4.89873 16.2707L4.7916 16.329L5.26971 17.2073L5.37683 17.149L4.89873 16.2707ZM1.76886 9.60732C2.47611 9.99231 2.47611 11.0077 1.76886 11.3927L2.24697 12.271C3.65007 11.5072 3.65008 9.49281 2.24697 8.72902L1.76886 9.60732ZM5.37683 17.149C6.09833 16.7563 6.97726 17.2785 6.97726 18.1H7.97726C7.97726 16.5198 6.28657 15.5152 4.89872 16.2707L5.37683 17.149ZM14.0227 18.1C14.0227 17.2785 14.9017 16.7563 15.6232 17.149L16.1013 16.2707C14.7134 15.5152 13.0227 16.5198 13.0227 18.1H14.0227ZM19.2311 11.3927C18.5239 11.0077 18.5239 9.99232 19.2311 9.60733L18.753 8.72903C17.3499 9.49281 17.3499 11.5072 18.753 12.271L19.2311 11.3927ZM4.89872 4.72928C6.28658 5.48477 7.97726 4.48016 7.97726 2.9H6.97726C6.97726 3.72147 6.09833 4.24374 5.37683 3.85098L4.89872 4.72928ZM15.6232 3.85099C14.9017 4.24375 14.0227 3.72148 14.0227 2.9H13.0227C13.0227 4.48016 14.7134 5.48478 16.1013 4.72929L15.6232 3.85099ZM13.1667 10.5C13.1667 11.9728 11.9728 13.1667 10.5 13.1667V14.1667C12.5251 14.1667 14.1667 12.525 14.1667 10.5H13.1667ZM10.5 13.1667C9.02725 13.1667 7.83334 11.9728 7.83334 10.5H6.83334C6.83334 12.525 8.47497 14.1667 10.5 14.1667V13.1667ZM7.83334 10.5C7.83334 9.02724 9.02725 7.83333 10.5 7.83333V6.83333C8.47497 6.83333 6.83334 8.47496 6.83334 10.5H7.83334ZM10.5 7.83333C11.9728 7.83333 13.1667 9.02724 13.1667 10.5H14.1667C14.1667 8.47496 12.5251 6.83333 10.5 6.83333V7.83333Z" fill="#28303F"/>
</svg>
