<svg width="19" height="19" viewBox="0 0 19 19" fill="none" xmlns="http://www.w3.org/2000/svg">
<path fill-rule="evenodd" clip-rule="evenodd" d="M10.5556 1.05556C10.5556 0.472588 10.083 0 9.5 0C8.91703 0 8.44444 0.472588 8.44444 1.05556V8.44444H1.05556C0.472588 8.44444 0 8.91703 0 9.5C0 10.083 0.472587 10.5556 1.05556 10.5556H8.44444V17.9444C8.44444 18.5274 8.91703 19 9.5 19C10.083 19 10.5556 18.5274 10.5556 17.9444V10.5556H17.9444C18.5274 10.5556 19 10.083 19 9.5C19 8.91703 18.5274 8.44444 17.9444 8.44444H10.5556V1.05556Z" fill="#999999"/>
</svg>
