<svg width="9" height="11" viewBox="0 0 9 11" fill="none" xmlns="http://www.w3.org/2000/svg">
<path fill-rule="evenodd" clip-rule="evenodd" d="M2.875 0.39759C2.875 0.178007 2.70711 0 2.5 0C2.29289 0 2.125 0.178007 2.125 0.39759V1.19277H2C0.895431 1.19277 0 2.14214 0 3.31325V3.71084H9V3.31325C9 2.14214 8.10457 1.19277 7 1.19277H6.875V0.39759C6.875 0.178007 6.70711 0 6.5 0C6.29289 0 6.125 0.178007 6.125 0.39759V1.19277H2.875V0.39759ZM0 4.50602H9V8.87952C9 10.0506 8.10457 11 7 11H2C0.89543 11 0 10.0506 0 8.87952V4.50602Z" fill="#666666"/>
</svg>
