<svg width="191" height="73" viewBox="0 0 191 73" fill="none" xmlns="http://www.w3.org/2000/svg">
<g id="Group 1485">
<g id="Group 1494">
<rect id="Rectangle 21430" width="73" height="73" rx="28" fill="#99A2E9" fill-opacity="0.8"/>
<g id="Group 1484">
<path id="Vector 37" d="M34.2501 15.3129C33.6495 14.5234 32.6753 12.3554 33.5838 9.9998" stroke="black" stroke-linecap="round"/>
<path id="Vector 38" d="M37.0277 17.3191C36.6322 16.4093 36.2019 14.0718 37.6448 12" stroke="black" stroke-linecap="round"/>
<path id="Vector 39" d="M40.5105 15.7666C40.4585 14.7759 40.8738 12.4357 42.9507 11.0002" stroke="black" stroke-linecap="round"/>
<path id="Subtract" fill-rule="evenodd" clip-rule="evenodd" d="M26.6955 15.275C31.3119 12.4032 34.5869 13.2283 35.8747 15.8039C36.1772 16.4089 37.1453 17.256 38.5974 15.8039C39.8075 14.2912 44.9505 11.2659 51.3036 19.4342L51.2476 19.3436C55.1887 24.4655 57.3153 31.9631 58.1721 43.0717C58.9064 52.6131 58.7527 53.8256 56.4645 56.5162C53.2136 60.3386 49.7878 60.2663 46.4152 56.3007L43.7178 53.129L41.6838 56.3007C39.1922 60.1843 34.6453 60.4109 31.5778 56.804C29.3416 54.1746 29.2801 54.1746 27.2556 56.804C24.5523 60.3163 20.2668 60.1898 17.133 56.5051C14.8767 53.852 14.684 52.5047 15.3072 43.7613C16.174 31.6002 20.8687 19.8118 26.6312 15.3247C26.6526 15.3081 26.674 15.2915 26.6955 15.275Z" fill="#FC9675"/>
<ellipse id="Ellipse 6" cx="35.792" cy="37.9701" rx="13.3663" ry="13.1188" fill="url(#paint0_radial_34_817)"/>
<g id="Group 1479">
<rect id="Rectangle 21406" x="30.6935" y="29.1931" width="2.52334" height="6.30835" rx="1.26167" fill="black"/>
<rect id="Rectangle 21407" x="39.5253" y="29.1929" width="2.52334" height="6.30835" rx="1.26167" fill="black"/>
<ellipse id="Ellipse 1" cx="36.371" cy="39.2863" rx="1.8925" ry="2.52334" fill="black"/>
</g>
</g>
<path id="Rectangle 21431" d="M0 28C0 12.536 12.536 0 28 0H45C60.464 0 73 12.536 73 28V45C73 60.464 60.464 73 45 73H28C12.536 73 0 60.464 0 45V28Z" fill="white" fill-opacity="0.5"/>
</g>
<g id="Group 1493">
<rect id="Rectangle 21431_2" x="118" width="73" height="73" rx="28" fill="#FC9675" fill-opacity="0.8"/>
<rect id="Rectangle 21432" x="118" width="73" height="73" rx="28" fill="#FC9675" fill-opacity="0.8"/>
</g>
<g id="Group 1485_2">
<path id="Subtract_2" fill-rule="evenodd" clip-rule="evenodd" d="M144.978 14.8508C149.703 11.9126 153.055 12.7576 154.374 15.3942C154.684 16.0137 155.675 16.8811 157.162 15.3942C158.401 13.8454 163.667 10.7478 170.172 19.1114L170.116 19.0206C174.15 24.2649 176.327 31.9414 177.204 43.3144C177.956 53.084 177.799 54.3255 175.456 57.0804C172.127 60.9942 168.62 60.9202 165.166 56.8597L162.404 53.6122L160.322 56.8597C157.771 60.8362 153.115 61.0683 149.974 57.3751C147.685 54.6829 147.622 54.6829 145.549 57.3751C142.781 60.9714 138.393 60.8419 135.184 57.069C132.874 54.3526 132.676 52.973 133.315 44.0206C134.202 31.5687 139.009 19.4984 144.909 14.904C144.932 14.8862 144.955 14.8685 144.978 14.8508Z" fill="#FFD36A"/>
<ellipse id="Ellipse 5" cx="154.478" cy="38.5214" rx="13.8978" ry="13.3925" fill="url(#paint1_radial_34_817)"/>
<g id="Group 1451">
<rect id="Rectangle 21407_2" x="158.112" y="29.1038" width="2.58367" height="6.45919" rx="1.29184" fill="black"/>
</g>
<rect id="Rectangle 21423" x="151.699" y="36.7529" width="3.03226" height="4.54838" rx="1.51613" fill="#E14136"/>
<path id="Vector 30" d="M148.667 39.2795C150.688 40.6272 156.247 42.5139 162.312 39.2795" stroke="black" stroke-width="2" stroke-linecap="round"/>
<path id="Vector 33" d="M153.37 18.1458C152.109 18.5102 151.274 20.1651 152.012 21.362C152.349 21.9098 152.82 22.4863 153.523 22.5315C154.338 22.5839 155.199 22.4195 155.843 21.9098C156.729 21.2084 157.149 19.5502 155.974 18.9023C155.211 18.4814 154.675 19.0337 154.608 19.8108C154.541 20.5927 154.673 21.4869 155.407 21.9925C155.764 22.2389 155.869 22.3781 156.404 22.5805C156.841 22.7455 157.294 22.7112 157.812 22.5847C158.774 22.3495 159.83 20.8133 159.76 19.7065C159.722 19.1054 159.473 17.9948 158.739 17.8595" stroke="black" stroke-linecap="round"/>
<path id="Vector 34" d="M148.667 32.7033C149.341 31.9452 151.143 30.8839 152.962 32.7033" stroke="black" stroke-width="2" stroke-linecap="round"/>
</g>
<path id="Rectangle 21431_3" d="M118 28C118 12.536 130.536 0 146 0H163C178.464 0 191 12.536 191 28V45C191 60.464 178.464 73 163 73H146C130.536 73 118 60.464 118 45V28Z" fill="white" fill-opacity="0.5"/>
</g>
<defs>
<radialGradient id="paint0_radial_34_817" cx="0" cy="0" r="1" gradientUnits="userSpaceOnUse" gradientTransform="translate(35.792 37.9701) rotate(90) scale(13.1188 13.3663)">
<stop stop-color="#FFB1D2" stop-opacity="0.8"/>
<stop offset="1" stop-color="#D9D9D9" stop-opacity="0"/>
</radialGradient>
<radialGradient id="paint1_radial_34_817" cx="0" cy="0" r="1" gradientUnits="userSpaceOnUse" gradientTransform="translate(154.478 38.5214) rotate(90) scale(13.3925 13.8978)">
<stop stop-color="#E2FFB1" stop-opacity="0.8"/>
<stop offset="1" stop-color="#D9D9D9" stop-opacity="0"/>
</radialGradient>
</defs>
</svg>
