<svg width="345" height="278" viewBox="0 0 345 278" fill="none" xmlns="http://www.w3.org/2000/svg">
<ellipse cx="57.2851" cy="20.7016" rx="57.2851" ry="20.7016" transform="matrix(0.984123 -0.177488 0.209274 0.977857 5 236.335)" fill="#F2EFE7"/>
<ellipse cx="57.2851" cy="20.7016" rx="57.2851" ry="20.7016" transform="matrix(0.984123 -0.177488 0.209274 0.977857 75 234.335)" fill="#F2EFE7"/>
<ellipse cx="57.2851" cy="20.7016" rx="57.2851" ry="20.7016" transform="matrix(0.984123 -0.177488 0.209274 0.977857 157 236.335)" fill="#F2EFE7"/>
<ellipse cx="57.2851" cy="20.7016" rx="57.2851" ry="20.7016" transform="matrix(0.984123 -0.177488 0.209274 0.977857 222 237.335)" fill="#F2EFE7"/>
<rect x="231.958" y="213.866" width="13.563" height="43.2718" rx="6.78149" transform="rotate(145.994 231.958 213.866)" fill="#ADB5FA"/>
<rect width="13.563" height="43.2719" rx="6.78149" transform="matrix(0.828978 0.559281 0.559281 -0.828978 109.212 213.866)" fill="#ADB5FA"/>
<path d="M166.746 233.592C166.812 233.592 166.865 233.637 166.932 233.66V214.925L148.174 219.096C148.174 219.096 148.373 226.959 148.611 233.683C148.678 233.683 148.744 233.614 148.823 233.614H166.746V233.592Z" fill="#ADB5FA"/>
<path d="M148.561 235.825C148.642 236.801 148.709 237.534 148.776 237.849C148.925 238.955 148.345 239.242 147.725 239.013C145.312 237.806 143.156 237.921 141.202 239.013C138.425 240.793 137.953 246.092 140.299 248.232C141.633 249.581 143.062 250.228 144.531 250.357H163.131C165.705 250.256 166.864 248.605 166.932 245.79V235.767C166.932 235.767 166.811 235.81 166.743 235.81H148.561V235.825Z" fill="#A6E7BC"/>
<g filter="url(#filter0_d_449_468)">
<path d="M167.442 232.689C167.442 232.689 167.32 232.641 167.252 232.641H148.909C148.828 232.641 148.773 232.689 148.692 232.689C147.824 232.817 147.132 233.663 147.132 234.717C147.132 235.867 147.919 236.81 148.909 236.81H167.252C167.32 236.81 167.374 236.778 167.442 236.762C168.324 236.65 169.016 235.787 169.016 234.717C169.016 233.647 168.324 232.801 167.442 232.673V232.689Z" fill="#A6E7BC"/>
</g>
<path d="M174.412 233.572C174.346 233.572 174.293 233.628 174.226 233.656V210.757L192.984 215.855C192.984 215.855 192.786 225.466 192.547 233.683C192.481 233.683 192.414 233.6 192.335 233.6H174.412V233.572Z" fill="#ADB5FA"/>
<path d="M192.598 235.825C192.517 236.801 192.449 237.534 192.382 237.849C192.234 238.955 192.813 239.242 193.433 239.013C195.846 237.806 198.002 237.921 199.957 239.013C202.733 240.793 203.205 246.092 200.86 248.232C199.526 249.581 198.097 250.228 196.628 250.357H178.027C175.453 250.256 174.294 248.605 174.227 245.79V235.767C174.227 235.767 174.348 235.81 174.415 235.81H192.598V235.825Z" fill="#A6E7BC"/>
<g filter="url(#filter1_d_449_468)">
<path d="M173.716 232.689C173.716 232.689 173.838 232.641 173.906 232.641H192.249C192.331 232.641 192.385 232.689 192.466 232.689C193.335 232.817 194.026 233.663 194.026 234.717C194.026 235.867 193.24 236.81 192.249 236.81H173.906C173.838 236.81 173.784 236.778 173.716 236.762C172.834 236.65 172.142 235.787 172.142 234.717C172.142 233.647 172.834 232.801 173.716 232.673V232.689Z" fill="#A6E7BC"/>
</g>
<g filter="url(#filter2_d_449_468)">
<path fill-rule="evenodd" clip-rule="evenodd" d="M150.859 141.358C159.923 135.723 166.353 137.345 168.882 142.403C169.476 143.591 171.378 145.255 174.23 142.403C176.608 139.431 186.71 133.488 199.19 149.534L199.084 149.362C206.824 159.423 211 174.15 212.683 195.968C214.125 214.711 213.823 217.093 209.328 222.379C202.942 229.887 196.213 229.745 189.588 221.955L184.289 215.725L180.293 221.955C175.399 229.584 166.467 230.029 160.441 222.944C156.049 217.779 155.928 217.779 151.951 222.944C146.641 229.844 138.222 229.595 132.066 222.357C127.634 217.145 127.255 214.498 128.48 197.323C130.182 173.434 139.404 150.277 150.724 141.463C150.769 141.428 150.814 141.393 150.859 141.358Z" fill="#ADB5FA"/>
</g>
<ellipse cx="169.537" cy="187.309" rx="26.5737" ry="25.5316" fill="url(#paint0_radial_449_468)"/>
<circle cx="161.62" cy="175.785" r="4.0689" fill="black"/>
<circle cx="0.678149" cy="0.678149" r="0.678149" transform="matrix(-1 0 0 1 164.332 174.429)" fill="white"/>
<circle cx="176.539" cy="175.785" r="4.0689" fill="black"/>
<circle cx="0.678149" cy="0.678149" r="0.678149" transform="matrix(-1 0 0 1 179.251 174.429)" fill="white"/>
<path d="M158.595 169.072C159.376 167.949 163.284 167.44 164.847 169.072" stroke="black" stroke-linecap="round"/>
<path d="M174.227 169.072C174.878 167.949 178.134 167.44 179.437 169.072" stroke="black" stroke-linecap="round"/>
<rect x="345" y="213.787" width="13.5492" height="43.2279" rx="6.7746" transform="rotate(145.994 345 213.787)" fill="#FFD36A"/>
<rect width="13.5492" height="43.2279" rx="6.7746" transform="matrix(0.828978 0.559281 0.559281 -0.828978 222 213.787)" fill="#FFD36A"/>
<path d="M279.855 233.493C279.921 233.493 279.974 233.538 280.04 233.561V214.845L261.301 219.012C261.301 219.012 261.5 226.867 261.738 233.584C261.804 233.584 261.871 233.516 261.95 233.516H279.855V233.493Z" fill="#FFD36A"/>
<path d="M261.688 235.724C261.769 236.699 261.836 237.431 261.903 237.746C262.051 238.851 261.472 239.138 260.853 238.908C258.443 237.703 256.289 237.818 254.336 238.908C251.562 240.687 251.091 245.98 253.434 248.118C254.767 249.466 256.194 250.112 257.662 250.241H276.243C278.815 250.141 279.973 248.491 280.04 245.679V235.666C280.04 235.666 279.919 235.709 279.852 235.709H261.688V235.724Z" fill="#A6E7BC"/>
<g filter="url(#filter3_d_449_468)">
<path d="M280.55 232.591C280.55 232.591 280.428 232.543 280.36 232.543H262.036C261.954 232.543 261.9 232.591 261.819 232.591C260.951 232.719 260.26 233.565 260.26 234.618C260.26 235.766 261.046 236.708 262.036 236.708H280.36C280.428 236.708 280.482 236.676 280.55 236.66C281.431 236.548 282.122 235.687 282.122 234.618C282.122 233.549 281.431 232.703 280.55 232.575V232.591Z" fill="#A6E7BC"/>
</g>
<path d="M287.513 233.473C287.446 233.473 287.394 233.529 287.327 233.557V210.681L306.066 215.774C306.066 215.774 305.868 225.375 305.629 233.584C305.563 233.584 305.497 233.501 305.417 233.501H287.513V233.473Z" fill="#FFD36A"/>
<path d="M305.68 235.724C305.599 236.699 305.532 237.431 305.464 237.746C305.316 238.851 305.895 239.138 306.515 238.908C308.925 237.703 311.079 237.818 313.032 238.908C315.805 240.687 316.277 245.98 313.934 248.118C312.601 249.466 311.173 250.112 309.706 250.241H291.125C288.553 250.141 287.395 248.491 287.327 245.679V235.666C287.327 235.666 287.449 235.709 287.516 235.709H305.68V235.724Z" fill="#A6E7BC"/>
<g filter="url(#filter4_d_449_468)">
<path d="M286.818 232.591C286.818 232.591 286.94 232.543 287.007 232.543H305.332C305.413 232.543 305.467 232.591 305.549 232.591C306.416 232.719 307.107 233.565 307.107 234.618C307.107 235.766 306.321 236.708 305.332 236.708H287.007C286.94 236.708 286.885 236.676 286.818 236.66C285.937 236.548 285.245 235.687 285.245 234.618C285.245 233.549 285.937 232.703 286.818 232.575V232.591Z" fill="#A6E7BC"/>
</g>
<g filter="url(#filter5_d_449_468)">
<path fill-rule="evenodd" clip-rule="evenodd" d="M263.986 141.352C273.039 135.724 279.462 137.344 281.988 142.396C282.582 143.584 284.482 145.246 287.332 142.396C289.706 139.428 299.799 133.491 312.266 149.52L312.161 149.35C319.892 159.401 324.064 174.113 325.745 195.908C327.186 214.632 326.884 217.011 322.394 222.291C316.014 229.792 309.292 229.65 302.673 221.868L297.38 215.644L293.388 221.868C288.499 229.489 279.576 229.934 273.556 222.856C269.168 217.696 269.047 217.696 265.075 222.856C259.77 229.749 251.36 229.5 245.21 222.269C240.782 217.063 240.404 214.419 241.627 197.261C243.328 173.396 252.541 150.263 263.849 141.457C263.894 141.422 263.94 141.387 263.986 141.352Z" fill="#FFD36A"/>
</g>
<ellipse cx="282.643" cy="187.257" rx="26.5467" ry="25.5057" fill="url(#paint1_radial_449_468)"/>
<circle cx="274.733" cy="175.745" r="4.06476" fill="black"/>
<circle cx="0.677336" cy="0.677336" r="0.677336" transform="matrix(-1 0 0 1 277.443 174.39)" fill="white"/>
<circle cx="289.637" cy="175.745" r="4.06476" fill="black"/>
<circle cx="0.677336" cy="0.677336" r="0.677336" transform="matrix(-1 0 0 1 292.347 174.39)" fill="white"/>
<path d="M271.712 169.039C272.492 167.917 276.396 167.409 277.958 169.039" stroke="black" stroke-linecap="round"/>
<path d="M287.327 169.039C287.978 167.917 291.231 167.409 292.533 169.039" stroke="black" stroke-linecap="round"/>
<rect x="123.445" y="213.866" width="13.563" height="43.2718" rx="6.78149" transform="rotate(145.994 123.445 213.866)" fill="#FF9F80"/>
<rect width="13.563" height="43.2719" rx="6.78149" transform="matrix(0.828978 0.559281 0.559281 -0.828978 0 213.866)" fill="#FF9F80"/>
<path d="M58.3132 233.504C58.3793 233.504 58.4322 233.55 58.4983 233.572V214.892L39.7956 219.051C39.7956 219.051 39.9939 226.891 40.2318 233.595C40.2979 233.595 40.3639 233.527 40.4432 233.527H58.3132V233.504Z" fill="#FF9F80"/>
<path d="M40.1815 235.731C40.2621 236.704 40.3293 237.435 40.3965 237.75C40.5443 238.852 39.9665 239.138 39.3483 238.909C36.9428 237.707 34.7926 237.821 32.8439 238.909C30.0756 240.685 29.6052 245.968 31.9436 248.101C33.274 249.447 34.6985 250.091 36.1633 250.22H54.7087C57.2755 250.12 58.4312 248.473 58.4984 245.667V235.674C58.4984 235.674 58.3775 235.717 58.3103 235.717H40.1815V235.731Z" fill="#A6E7BC"/>
<g filter="url(#filter6_d_449_468)">
<path d="M59.0072 232.604C59.0072 232.604 58.8855 232.557 58.8178 232.557H40.5287C40.4475 232.557 40.3934 232.604 40.3123 232.604C39.4465 232.732 38.7566 233.576 38.7566 234.627C38.7566 235.773 39.5412 236.713 40.5287 236.713H58.8178C58.8855 236.713 58.9396 236.681 59.0072 236.665C59.8865 236.554 60.5764 235.694 60.5764 234.627C60.5764 233.56 59.8865 232.716 59.0072 232.588V232.604Z" fill="#A6E7BC"/>
</g>
<path d="M65.9567 233.485C65.8906 233.485 65.8377 233.54 65.7716 233.568V210.737L84.4743 215.82C84.4743 215.82 84.276 225.402 84.0381 233.596C83.972 233.596 83.906 233.512 83.8266 233.512H65.9567V233.485Z" fill="#FF9F80"/>
<path d="M84.0886 235.731C84.008 236.704 83.9408 237.435 83.8736 237.75C83.7258 238.852 84.3036 239.138 84.9218 238.909C87.3273 237.707 89.4775 237.821 91.4261 238.909C94.1945 240.685 94.6649 245.968 92.3265 248.101C90.9961 249.447 89.5716 250.091 88.1068 250.22H69.5614C66.9946 250.12 65.8389 248.473 65.7717 245.667V235.674C65.7717 235.674 65.8926 235.717 65.9598 235.717H84.0886V235.731Z" fill="#A6E7BC"/>
<g filter="url(#filter7_d_449_468)">
<path d="M65.2627 232.604C65.2627 232.604 65.3844 232.557 65.4521 232.557H83.7412C83.8224 232.557 83.8765 232.604 83.9576 232.604C84.8234 232.732 85.5133 233.576 85.5133 234.627C85.5133 235.773 84.7287 236.713 83.7412 236.713H65.4521C65.3844 236.713 65.3303 236.681 65.2627 236.665C64.3834 236.554 63.6935 235.694 63.6935 234.627C63.6935 233.56 64.3834 232.716 65.2627 232.588V232.604Z" fill="#A6E7BC"/>
</g>
<g filter="url(#filter8_d_449_468)">
<path fill-rule="evenodd" clip-rule="evenodd" d="M42.4729 141.543C51.5102 135.924 57.9213 137.541 60.4428 142.584C61.0354 143.769 62.9315 145.428 65.7756 142.584C68.1458 139.621 78.2188 133.696 90.6621 149.694L90.5554 149.522C98.2726 159.553 102.437 174.237 104.115 195.992C105.553 214.679 105.252 217.054 100.77 222.324C94.4031 229.811 87.6932 229.669 81.0876 221.902L75.8045 215.69L71.8208 221.902C66.9407 229.508 58.0352 229.952 52.0271 222.888C47.6473 217.738 47.5269 217.738 43.5616 222.888C38.267 229.767 29.8733 229.519 23.7355 222.302C19.3164 217.106 18.9388 214.467 20.1594 197.342C21.8572 173.524 31.0522 150.435 42.3387 141.646C42.3833 141.612 42.428 141.577 42.4729 141.543Z" fill="#FF9F80"/>
</g>
<ellipse cx="61.0961" cy="187.358" rx="26.4955" ry="25.4564" fill="url(#paint2_radial_449_468)"/>
<circle cx="53.2018" cy="175.868" r="4.05691" fill="black"/>
<circle cx="0.676152" cy="0.676152" r="0.676152" transform="matrix(-1 0 0 1 55.9066 174.516)" fill="white"/>
<circle cx="68.0771" cy="175.868" r="4.05691" fill="black"/>
<circle cx="0.676152" cy="0.676152" r="0.676152" transform="matrix(-1 0 0 1 70.7817 174.516)" fill="white"/>
<path d="M50.186 169.175C50.9653 168.055 54.8616 167.547 56.4202 169.175" stroke="black" stroke-linecap="round"/>
<path d="M65.7716 169.175C66.421 168.055 69.668 167.547 70.9668 169.175" stroke="black" stroke-linecap="round"/>
<g clip-path="url(#clip0_449_468)">
<path d="M52.4229 187.819C56.0764 192.401 65.6749 192.735 69.581 187.819C70.1223 187.007 70.2756 186.042 70.2576 185.013C70.005 183.083 68.1106 182.172 66.4326 182.208C65.323 182.19 64.8179 182.55 64.2315 182.956L64.2315 184.824C64.2315 186.926 58.1783 187.151 58.1783 184.824L58.1783 183.101C57.2311 182.632 56.2929 182.172 55.1292 182.208C53.5144 182.19 51.9898 183.119 51.647 184.752C51.5478 185.645 51.611 186.926 52.4138 187.81L52.4229 187.819Z" fill="#020304"/>
<path d="M64.2403 184.824L64.2403 182.956C63.6269 183.38 62.9232 183.858 61.3445 183.994C60.1267 184.048 59.1524 183.57 58.1962 183.101L58.1962 184.824C58.1962 187.151 64.2493 186.926 64.2493 184.824L64.2403 184.824Z" fill="white"/>
<path d="M56.2258 190.478C57.1717 189.588 62.6396 188.19 65.8826 190.478C62.8857 191.81 59.1446 191.698 56.2258 190.478Z" fill="#FF3838"/>
</g>
<ellipse cx="282.333" cy="186" rx="3.33333" ry="5" fill="#020304"/>
<mask id="mask0_449_468" style="mask-type:alpha" maskUnits="userSpaceOnUse" x="279" y="181" width="7" height="5">
<path d="M285.667 186C285.667 185.343 285.58 184.693 285.413 184.087C285.245 183.48 285 182.929 284.69 182.464C284.381 182 284.013 181.632 283.609 181.381C283.205 181.129 282.771 181 282.333 181C281.896 181 281.462 181.129 281.058 181.381C280.653 181.632 280.286 182 279.976 182.464C279.667 182.929 279.421 183.48 279.254 184.087C279.086 184.693 279 185.343 279 186L282.333 186H285.667Z" fill="#020304"/>
</mask>
<g mask="url(#mask0_449_468)">
<path d="M285.657 181.968L285.657 179.889C284.974 180.361 284.091 180.849 282.333 181C280.978 181.06 279.992 180.572 278.928 180.05L278.928 181.968C278.928 184.559 285.667 184.308 285.667 181.968L285.657 181.968Z" fill="white"/>
</g>
<g clip-path="url(#clip1_449_468)">
<path d="M166.57 184.32V185.78C166.57 186.65 169.35 186.65 169.35 185.78V184.32H166.57Z" fill="white"/>
<path d="M170.05 184.32V185.78C170.05 186.65 172.83 186.65 172.83 185.78V184.32H170.05Z" fill="white"/>
<path d="M164.5 183C164.5 185.5 174.76 185.279 174.76 183" stroke="#010101" stroke-miterlimit="10" stroke-linecap="round"/>
</g>
<path d="M286 40.4651C286 33.5572 281.175 26.9321 272.586 22.0475C263.996 17.1628 252.347 14.4186 240.2 14.4186C232.835 14.4182 225.58 15.4319 219.053 17.373C205.431 6.85395 183.558 -2.83122e-06 158.82 -2.83122e-06C125.242 -2.83122e-06 96.8329 12.5767 87.3589 29.9014C78.7284 31.0416 71.0306 33.8094 65.5183 37.7543C60.0059 41.6993 57.0036 46.5891 57 51.6279C57.005 56.9141 60.3102 62.0276 66.3267 66.0571C72.3433 70.0865 80.6802 72.7702 89.8517 73.6298C91.2649 88.3237 112.601 100 138.786 100C153.023 100 165.808 96.5284 174.771 91.0214C179.351 93.8523 184.914 96.112 191.108 97.6575C197.302 99.2029 203.993 100.001 210.757 100C237.864 100 259.829 87.5088 259.829 72.093C259.818 69.5191 259.182 66.9584 257.938 64.4837C266.254 62.4965 273.354 59.157 278.346 54.8841C283.338 50.6112 286.001 45.5952 286 40.4651Z" fill="#CFE9FC"/>
<path d="M88.1053 109.553C88.1053 112.086 87.0988 114.516 85.3074 116.307C83.5159 118.099 81.0861 119.105 78.5526 119.105C76.0191 119.105 73.5894 118.099 71.7979 116.307C70.0064 114.516 69 112.086 69 109.553C69 107.019 70.0064 104.589 71.7979 102.798C73.5894 101.006 76.0191 100 78.5526 100C81.0861 100 83.5159 101.006 85.3074 102.798C87.0988 104.589 88.1053 107.019 88.1053 109.553Z" fill="#CFE9FC"/>
<path d="M185.105 118.553C185.105 121.086 184.099 123.516 182.307 125.307C180.516 127.099 178.086 128.105 175.553 128.105C173.019 128.105 170.589 127.099 168.798 125.307C167.006 123.516 166 121.086 166 118.553C166 116.019 167.006 113.589 168.798 111.798C170.589 110.006 173.019 109 175.553 109C178.086 109 180.516 110.006 182.307 111.798C184.099 113.589 185.105 116.019 185.105 118.553Z" fill="#CFE9FC"/>
<path d="M272.105 109.553C272.105 112.086 271.099 114.516 269.307 116.307C267.516 118.099 265.086 119.105 262.553 119.105C260.019 119.105 257.589 118.099 255.798 116.307C254.006 114.516 253 112.086 253 109.553C253 107.019 254.006 104.589 255.798 102.798C257.589 101.006 260.019 100 262.553 100C265.086 100 267.516 101.006 269.307 102.798C271.099 104.589 272.105 107.019 272.105 109.553Z" fill="#CFE9FC"/>
<mask id="mask1_449_468" style="mask-type:alpha" maskUnits="userSpaceOnUse" x="57" y="0" width="229" height="100">
<path d="M286 40.4651C286 33.5572 281.175 26.9321 272.586 22.0475C263.996 17.1628 252.347 14.4186 240.2 14.4186C232.835 14.4182 225.58 15.4319 219.053 17.373C205.431 6.85395 183.558 -2.83122e-06 158.82 -2.83122e-06C125.242 -2.83122e-06 96.8329 12.5767 87.3589 29.9014C78.7284 31.0416 71.0306 33.8094 65.5183 37.7543C60.0059 41.6993 57.0036 46.5891 57 51.6279C57.005 56.9141 60.3102 62.0276 66.3267 66.0571C72.3433 70.0865 80.6802 72.7702 89.8517 73.6298C91.2649 88.3237 112.601 100 138.786 100C153.023 100 165.808 96.5284 174.771 91.0214C179.351 93.8523 184.914 96.112 191.108 97.6575C197.302 99.2029 203.993 100.001 210.757 100C237.864 100 259.829 87.5088 259.829 72.093C259.818 69.5191 259.182 66.9584 257.938 64.4837C266.254 62.4965 273.354 59.157 278.346 54.8841C283.338 50.6112 286.001 45.5952 286 40.4651Z" fill="#CFE9FC"/>
</mask>
<g mask="url(#mask1_449_468)">
<path d="M122.535 103.612C122.22 93.004 121.38 85.3894 120.389 85.3894C119.398 85.3894 118.558 93.004 118.243 103.612H122.535Z" fill="#FFCC4D"/>
<path d="M145.444 74.9639C145.444 86.4553 140.347 89.9448 134.056 89.9448C127.767 89.9448 122.667 86.4553 122.667 74.9639C122.667 63.4748 131.778 46.6671 134.056 46.6671C136.333 46.6671 145.444 63.4748 145.444 74.9639Z" fill="#A6D388"/>
<path d="M131.778 73.3877C131.778 86.084 126.68 89.9448 120.389 89.9448C114.1 89.9448 109 86.084 109 73.3877C109 60.6845 118.111 42.1116 120.389 42.1116C122.667 42.1116 131.778 60.6845 131.778 73.3877Z" fill="#77B255"/>
<path d="M127.222 64.8894L156.833 35.2783L186.444 64.8894V101.334H127.222V64.8894Z" fill="#FFE8B6"/>
<path d="M159.111 101.334H156.833V64.8894H159.111V101.334Z" fill="white"/>
<path d="M129.5 101.334H127.222V64.8894H129.5V101.334ZM184.167 101.334H186.444V64.8894H184.167V101.334Z" fill="#FFCC4D"/>
<path d="M186.444 67.167C186.145 67.1673 185.849 67.1085 185.573 66.994C185.296 66.8794 185.045 66.7114 184.834 66.4996L156.833 38.4989L128.833 66.4996C128.621 66.7111 128.37 66.8788 128.094 66.9933C127.817 67.1077 127.521 67.1666 127.222 67.1666C126.923 67.1666 126.627 67.1077 126.351 66.9933C126.074 66.8788 125.823 66.7111 125.612 66.4996C125.4 66.2881 125.233 66.0371 125.118 65.7607C125.004 65.4844 124.945 65.1883 124.945 64.8892C124.945 64.5901 125.004 64.294 125.118 64.0177C125.233 63.7414 125.4 63.4903 125.612 63.2788L155.223 33.6678C155.434 33.4561 155.685 33.2881 155.962 33.1735C156.238 33.0589 156.534 32.9999 156.833 32.9999C157.132 32.9999 157.429 33.0589 157.705 33.1735C157.981 33.2881 158.232 33.4561 158.444 33.6678L188.055 63.2788C188.374 63.5969 188.592 64.0028 188.681 64.445C188.769 64.8872 188.724 65.3456 188.552 65.7622C188.379 66.1788 188.087 66.5348 187.712 66.7849C187.336 67.035 186.895 67.168 186.444 67.167Z" fill="#66757F"/>
<path d="M156.833 67.167C156.382 67.168 155.941 67.035 155.566 66.7849C155.191 66.5348 154.899 66.1788 154.726 65.7622C154.553 65.3456 154.509 64.8872 154.597 64.445C154.686 64.0028 154.903 63.5969 155.223 63.2788L170.029 48.4733C170.456 48.0462 171.035 47.8062 171.639 47.8062C172.243 47.8062 172.822 48.0462 173.249 48.4733C173.676 48.9004 173.916 49.4797 173.916 50.0837C173.916 50.6877 173.676 51.267 173.249 51.6941L158.444 66.4996C158.233 66.7114 157.982 66.8794 157.705 66.994C157.429 67.1085 157.133 67.1673 156.833 67.167Z" fill="#66757F"/>
<path d="M147.722 101.334H138.611V87.6671H147.722V101.334Z" fill="#C1694F"/>
<path d="M175.056 96.7781H168.222V87.667H175.056V96.7781Z" fill="#55ACEE"/>
<path d="M165.944 96.7781H170.5V87.667H165.944V96.7781ZM177.333 96.7781H172.778V87.667H177.333V96.7781ZM147.722 76.2781H138.611V67.167H147.722V76.2781ZM177.333 76.2781H165.944V67.167H177.333V76.2781Z" fill="#55ACEE"/>
</g>
<path opacity="0.6" d="M213.958 35.8459C213.958 36.9374 215.936 38.274 215.667 39.2807C215.388 40.3224 212.999 40.4902 212.472 41.4021C211.936 42.3271 212.98 44.4785 212.229 45.2292C211.478 45.9799 209.327 44.9367 208.402 45.4718C207.49 45.9994 207.322 48.3883 206.281 48.6667C205.274 48.9357 203.937 46.9582 202.846 46.9582C201.754 46.9582 200.418 48.9357 199.411 48.6667C198.369 48.3882 198.202 45.9994 197.29 45.4718C196.365 44.9364 194.214 45.9799 193.463 45.2292C192.712 44.4785 193.755 42.3271 193.22 41.4021C192.693 40.4903 190.304 40.3224 190.025 39.2807C189.756 38.274 191.734 36.9374 191.734 35.846C191.734 34.7547 189.756 33.418 190.025 32.4113C190.304 31.3697 192.693 31.2019 193.22 30.2899C193.755 29.3648 192.712 27.2136 193.463 26.4629C194.214 25.7121 196.365 26.7554 197.29 26.2203C198.202 25.6926 198.369 23.3038 199.411 23.0253C200.418 22.7563 201.754 24.734 202.846 24.734C203.937 24.734 205.274 22.7563 206.281 23.0253C207.322 23.3038 207.49 25.6926 208.402 26.2203C209.327 26.7556 211.478 25.7121 212.229 26.4629C212.98 27.2137 211.937 29.3648 212.472 30.2901C212.999 31.2019 215.388 31.3697 215.667 32.4113C215.936 33.4179 213.958 34.7546 213.958 35.8459Z" fill="#FFBE55"/>
<path d="M211.474 35.8457C211.474 31.4879 208.243 27.8846 204.045 27.3008C203.648 27.2454 203.247 27.2177 202.846 27.218C198.081 27.218 194.218 31.0808 194.218 35.8457C194.218 40.611 198.081 44.4736 202.846 44.4736C203.253 44.4736 203.654 44.4457 204.045 44.3909C208.243 43.8072 211.474 40.2038 211.474 35.8457Z" fill="#FFBE55"/>
<path d="M234.132 56.9812H216.373C215.246 56.9812 214.152 56.7602 213.122 56.3248C212.128 55.9043 211.235 55.3022 210.468 54.5356C209.702 53.7689 209.1 52.8761 208.679 51.8817C208.243 50.8514 208.023 49.7581 208.023 48.6309C208.023 47.5043 208.244 46.4104 208.679 45.3802C209.1 44.3858 209.702 43.493 210.468 42.7263C211.235 41.9597 212.128 41.3576 213.122 40.9371C214.152 40.5012 215.246 40.2807 216.373 40.2807C216.646 40.2807 216.92 40.294 217.191 40.3207C218.089 39.0981 219.25 38.075 220.576 37.3412C222.117 36.4884 223.868 36.0376 225.64 36.0376C226.84 36.0376 228.018 36.2391 229.14 36.6371C230.225 37.0217 231.233 37.5807 232.139 38.2981C233.034 39.0063 233.807 39.8558 234.428 40.813C234.952 41.62 235.363 42.4958 235.647 43.4155C237.05 43.732 238.325 44.4858 239.287 45.5766C240.391 46.8301 241.001 48.4437 241 50.1145C241 51.9489 240.286 53.6735 238.989 54.9704C237.691 56.2673 235.966 56.9812 234.132 56.9812Z" fill="white"/>
<path d="M231.564 44.1591C231.214 44.1591 230.881 43.9514 230.739 43.6078C230.499 43.0299 230.15 42.5089 229.7 42.0591C228.798 41.1571 227.599 40.6602 226.323 40.6602C225.83 40.6602 225.43 40.2602 225.43 39.7673C225.43 39.274 225.83 38.8745 226.323 38.8745C228.076 38.8745 229.724 39.5571 230.964 40.7966C231.58 41.413 232.059 42.1289 232.389 42.9243C232.577 43.3796 232.361 43.9022 231.906 44.0909C231.794 44.1371 231.678 44.1591 231.564 44.1591Z" fill="#E2E2E2"/>
<defs>
<filter id="filter0_d_449_468" x="141.132" y="226.641" width="41.8843" height="24.1685" filterUnits="userSpaceOnUse" color-interpolation-filters="sRGB">
<feFlood flood-opacity="0" result="BackgroundImageFix"/>
<feColorMatrix in="SourceAlpha" type="matrix" values="0 0 0 0 0 0 0 0 0 0 0 0 0 0 0 0 0 0 127 0" result="hardAlpha"/>
<feOffset dx="4" dy="4"/>
<feGaussianBlur stdDeviation="5"/>
<feComposite in2="hardAlpha" operator="out"/>
<feColorMatrix type="matrix" values="0 0 0 0 0 0 0 0 0 0 0 0 0 0 0 0 0 0 0.05 0"/>
<feBlend mode="normal" in2="BackgroundImageFix" result="effect1_dropShadow_449_468"/>
<feBlend mode="normal" in="SourceGraphic" in2="effect1_dropShadow_449_468" result="shape"/>
</filter>
<filter id="filter1_d_449_468" x="166.142" y="226.641" width="41.8843" height="24.1685" filterUnits="userSpaceOnUse" color-interpolation-filters="sRGB">
<feFlood flood-opacity="0" result="BackgroundImageFix"/>
<feColorMatrix in="SourceAlpha" type="matrix" values="0 0 0 0 0 0 0 0 0 0 0 0 0 0 0 0 0 0 127 0" result="hardAlpha"/>
<feOffset dx="4" dy="4"/>
<feGaussianBlur stdDeviation="5"/>
<feComposite in2="hardAlpha" operator="out"/>
<feColorMatrix type="matrix" values="0 0 0 0 0 0 0 0 0 0 0 0 0 0 0 0 0 0 0.05 0"/>
<feBlend mode="normal" in2="BackgroundImageFix" result="effect1_dropShadow_449_468"/>
<feBlend mode="normal" in="SourceGraphic" in2="effect1_dropShadow_449_468" result="shape"/>
</filter>
<filter id="filter2_d_449_468" x="117.876" y="131.809" width="105.577" height="110.171" filterUnits="userSpaceOnUse" color-interpolation-filters="sRGB">
<feFlood flood-opacity="0" result="BackgroundImageFix"/>
<feColorMatrix in="SourceAlpha" type="matrix" values="0 0 0 0 0 0 0 0 0 0 0 0 0 0 0 0 0 0 127 0" result="hardAlpha"/>
<feOffset dy="4"/>
<feGaussianBlur stdDeviation="5"/>
<feComposite in2="hardAlpha" operator="out"/>
<feColorMatrix type="matrix" values="0 0 0 0 0 0 0 0 0 0 0 0 0 0 0 0 0 0 0.05 0"/>
<feBlend mode="normal" in2="BackgroundImageFix" result="effect1_dropShadow_449_468"/>
<feBlend mode="normal" in="SourceGraphic" in2="effect1_dropShadow_449_468" result="shape"/>
</filter>
<filter id="filter3_d_449_468" x="254.26" y="226.543" width="41.862" height="24.1643" filterUnits="userSpaceOnUse" color-interpolation-filters="sRGB">
<feFlood flood-opacity="0" result="BackgroundImageFix"/>
<feColorMatrix in="SourceAlpha" type="matrix" values="0 0 0 0 0 0 0 0 0 0 0 0 0 0 0 0 0 0 127 0" result="hardAlpha"/>
<feOffset dx="4" dy="4"/>
<feGaussianBlur stdDeviation="5"/>
<feComposite in2="hardAlpha" operator="out"/>
<feColorMatrix type="matrix" values="0 0 0 0 0 0 0 0 0 0 0 0 0 0 0 0 0 0 0.05 0"/>
<feBlend mode="normal" in2="BackgroundImageFix" result="effect1_dropShadow_449_468"/>
<feBlend mode="normal" in="SourceGraphic" in2="effect1_dropShadow_449_468" result="shape"/>
</filter>
<filter id="filter4_d_449_468" x="279.245" y="226.543" width="41.862" height="24.1643" filterUnits="userSpaceOnUse" color-interpolation-filters="sRGB">
<feFlood flood-opacity="0" result="BackgroundImageFix"/>
<feColorMatrix in="SourceAlpha" type="matrix" values="0 0 0 0 0 0 0 0 0 0 0 0 0 0 0 0 0 0 127 0" result="hardAlpha"/>
<feOffset dx="4" dy="4"/>
<feGaussianBlur stdDeviation="5"/>
<feComposite in2="hardAlpha" operator="out"/>
<feColorMatrix type="matrix" values="0 0 0 0 0 0 0 0 0 0 0 0 0 0 0 0 0 0 0.05 0"/>
<feBlend mode="normal" in2="BackgroundImageFix" result="effect1_dropShadow_449_468"/>
<feBlend mode="normal" in="SourceGraphic" in2="effect1_dropShadow_449_468" result="shape"/>
</filter>
<filter id="filter5_d_449_468" x="231.024" y="131.808" width="105.49" height="110.08" filterUnits="userSpaceOnUse" color-interpolation-filters="sRGB">
<feFlood flood-opacity="0" result="BackgroundImageFix"/>
<feColorMatrix in="SourceAlpha" type="matrix" values="0 0 0 0 0 0 0 0 0 0 0 0 0 0 0 0 0 0 127 0" result="hardAlpha"/>
<feOffset dy="4"/>
<feGaussianBlur stdDeviation="5"/>
<feComposite in2="hardAlpha" operator="out"/>
<feColorMatrix type="matrix" values="0 0 0 0 0 0 0 0 0 0 0 0 0 0 0 0 0 0 0.05 0"/>
<feBlend mode="normal" in2="BackgroundImageFix" result="effect1_dropShadow_449_468"/>
<feBlend mode="normal" in="SourceGraphic" in2="effect1_dropShadow_449_468" result="shape"/>
</filter>
<filter id="filter6_d_449_468" x="32.7566" y="226.557" width="41.8198" height="24.1562" filterUnits="userSpaceOnUse" color-interpolation-filters="sRGB">
<feFlood flood-opacity="0" result="BackgroundImageFix"/>
<feColorMatrix in="SourceAlpha" type="matrix" values="0 0 0 0 0 0 0 0 0 0 0 0 0 0 0 0 0 0 127 0" result="hardAlpha"/>
<feOffset dx="4" dy="4"/>
<feGaussianBlur stdDeviation="5"/>
<feComposite in2="hardAlpha" operator="out"/>
<feColorMatrix type="matrix" values="0 0 0 0 0 0 0 0 0 0 0 0 0 0 0 0 0 0 0.05 0"/>
<feBlend mode="normal" in2="BackgroundImageFix" result="effect1_dropShadow_449_468"/>
<feBlend mode="normal" in="SourceGraphic" in2="effect1_dropShadow_449_468" result="shape"/>
</filter>
<filter id="filter7_d_449_468" x="57.6935" y="226.557" width="41.8198" height="24.1562" filterUnits="userSpaceOnUse" color-interpolation-filters="sRGB">
<feFlood flood-opacity="0" result="BackgroundImageFix"/>
<feColorMatrix in="SourceAlpha" type="matrix" values="0 0 0 0 0 0 0 0 0 0 0 0 0 0 0 0 0 0 127 0" result="hardAlpha"/>
<feOffset dx="4" dy="4"/>
<feGaussianBlur stdDeviation="5"/>
<feComposite in2="hardAlpha" operator="out"/>
<feColorMatrix type="matrix" values="0 0 0 0 0 0 0 0 0 0 0 0 0 0 0 0 0 0 0.05 0"/>
<feBlend mode="normal" in2="BackgroundImageFix" result="effect1_dropShadow_449_468"/>
<feBlend mode="normal" in="SourceGraphic" in2="effect1_dropShadow_449_468" result="shape"/>
</filter>
<filter id="filter8_d_449_468" x="9.5578" y="132.004" width="105.325" height="109.906" filterUnits="userSpaceOnUse" color-interpolation-filters="sRGB">
<feFlood flood-opacity="0" result="BackgroundImageFix"/>
<feColorMatrix in="SourceAlpha" type="matrix" values="0 0 0 0 0 0 0 0 0 0 0 0 0 0 0 0 0 0 127 0" result="hardAlpha"/>
<feOffset dy="4"/>
<feGaussianBlur stdDeviation="5"/>
<feComposite in2="hardAlpha" operator="out"/>
<feColorMatrix type="matrix" values="0 0 0 0 0 0 0 0 0 0 0 0 0 0 0 0 0 0 0.05 0"/>
<feBlend mode="normal" in2="BackgroundImageFix" result="effect1_dropShadow_449_468"/>
<feBlend mode="normal" in="SourceGraphic" in2="effect1_dropShadow_449_468" result="shape"/>
</filter>
<radialGradient id="paint0_radial_449_468" cx="0" cy="0" r="1" gradientUnits="userSpaceOnUse" gradientTransform="translate(169.537 187.309) rotate(90) scale(25.5316 26.5737)">
<stop stop-color="#CAD2FF" stop-opacity="0.8"/>
<stop offset="1" stop-color="#D9D9D9" stop-opacity="0"/>
</radialGradient>
<radialGradient id="paint1_radial_449_468" cx="0" cy="0" r="1" gradientUnits="userSpaceOnUse" gradientTransform="translate(282.643 187.257) rotate(90) scale(25.5057 26.5467)">
<stop stop-color="#E2FFB1" stop-opacity="0.8"/>
<stop offset="0.364583" stop-color="#DFF3BE" stop-opacity="0.545833"/>
<stop offset="1" stop-color="#D9D9D9" stop-opacity="0"/>
</radialGradient>
<radialGradient id="paint2_radial_449_468" cx="0" cy="0" r="1" gradientUnits="userSpaceOnUse" gradientTransform="translate(61.0961 187.358) rotate(90) scale(25.4564 26.4955)">
<stop offset="0.141692" stop-color="#FFB1D2" stop-opacity="0.8"/>
<stop offset="1" stop-color="#D9D9D9" stop-opacity="0"/>
</radialGradient>
<clipPath id="clip0_449_468">
<rect width="18.6376" height="9.17446" fill="white" transform="translate(70.2574 191.382) rotate(-180)"/>
</clipPath>
<clipPath id="clip1_449_468">
<rect width="11.26" height="3.43" fill="white" transform="translate(164 183)"/>
</clipPath>
</defs>
</svg>
