<svg width="368" height="293" viewBox="0 0 368 293" fill="none" xmlns="http://www.w3.org/2000/svg">
<ellipse cx="65.7548" cy="14.1449" rx="65.7548" ry="14.1449" transform="matrix(0.999946 -0.0103766 0.0427622 0.999085 229 100.365)" fill="#F2EFE7"/>
<path d="M352 47.5862H237V55.5172H352V47.5862Z" fill="#285D36"/>
<path d="M352 103.104H237V111.035H352V103.104Z" fill="#285D36"/>
<path d="M244.931 0H237V115H244.931V0Z" fill="#285D36"/>
<path d="M344.069 115H352V0H344.069V115Z" fill="#285D36"/>
<path d="M352 0H350.017V115H352V0Z" fill="#1D4227"/>
<path d="M264.759 7.93115H252.862V47.5863H264.759V7.93115Z" fill="#FBBC05"/>
<path d="M264.759 7.93115H262.776V47.5863H264.759V7.93115Z" fill="#B95C54"/>
<path d="M324.241 47.5862H336.138V7.93101H324.241V47.5862Z" fill="#59976A"/>
<path d="M336.138 7.93115H334.155V47.5863H336.138V7.93115Z" fill="#34A853"/>
<path d="M276.655 7.93115H264.759V47.5863H276.655V7.93115Z" fill="#CC6158"/>
<path d="M276.655 7.93115H274.672V47.5863H276.655V7.93115Z" fill="#A64F48"/>
<path d="M316.31 47.5862H324.241V7.93101H316.31V47.5862Z" fill="#994D47"/>
<path d="M324.241 7.93115H322.259V47.5863H324.241V7.93115Z" fill="#2C5F3A"/>
<path d="M288.552 13.8794H276.655V47.5863H288.552V13.8794Z" fill="#87AAE5"/>
<path d="M288.552 13.8794H286.569V47.5863H288.552V13.8794Z" fill="#4285F4"/>
<path d="M316.312 16.0354L305.178 11.8464L293.309 43.3946L304.444 47.5836L316.312 16.0354Z" fill="#DE6F66"/>
<path d="M264.759 33.7068H252.862V41.6378H264.759V33.7068Z" fill="#994C46"/>
<path d="M270.707 41.6378C272.897 41.6378 274.672 39.8624 274.672 37.6723C274.672 35.4822 272.897 33.7068 270.707 33.7068C268.517 33.7068 266.741 35.4822 266.741 37.6723C266.741 39.8624 268.517 41.6378 270.707 41.6378Z" fill="#974841"/>
<path d="M288.552 21.8103H276.655V33.7069H288.552V21.8103Z" fill="#59976A"/>
<path d="M334.155 31.7241H326.224C325.129 31.7241 324.241 30.8363 324.241 29.7413C324.241 28.6463 325.129 27.7585 326.224 27.7585H334.155C335.25 27.7585 336.138 28.6463 336.138 29.7413C336.138 30.8363 335.25 31.7241 334.155 31.7241ZM334.155 41.6379H326.224C325.129 41.6379 324.241 40.7501 324.241 39.6551C324.241 38.5601 325.129 37.6723 326.224 37.6723H334.155C335.25 37.6723 336.138 38.5601 336.138 39.6551C336.138 40.7501 335.25 41.6379 334.155 41.6379Z" fill="#FBBC05"/>
<path d="M336.138 67.4138H324.241V103.103H336.138V67.4138Z" fill="#59976A"/>
<path d="M336.138 67.4138H334.155V103.103H336.138V67.4138Z" fill="#3B6446"/>
<path d="M314.328 67.4138H302.431V103.103H314.328V67.4138Z" fill="#59976A"/>
<path d="M314.328 67.4138H312.345V103.103H314.328V67.4138Z" fill="#3D6848"/>
<path d="M324.241 69.3965H314.328V103.103H324.241V69.3965Z" fill="#FBBC05"/>
<path d="M324.241 69.3965H322.259V103.103H324.241V69.3965Z" fill="#B45A52"/>
<path d="M312.345 87.2414H304.414C303.319 87.2414 302.431 86.3536 302.431 85.2586C302.431 84.1637 303.319 83.2759 304.414 83.2759H312.345C313.44 83.2759 314.328 84.1637 314.328 85.2586C314.328 86.3536 313.44 87.2414 312.345 87.2414ZM312.345 93.1897H304.414C303.319 93.1897 302.431 92.3019 302.431 91.2069C302.431 90.1119 303.319 89.2242 304.414 89.2242H312.345C313.44 89.2242 314.328 90.1119 314.328 91.2069C314.328 92.3019 313.44 93.1897 312.345 93.1897ZM312.345 99.1379H304.414C303.319 99.1379 302.431 98.2502 302.431 97.1552C302.431 96.0602 303.319 95.1724 304.414 95.1724H312.345C313.44 95.1724 314.328 96.0602 314.328 97.1552C314.328 98.2502 313.44 99.1379 312.345 99.1379Z" fill="#33573D"/>
<path d="M302.431 67.4138H294.5V103.103H302.431V67.4138Z" fill="#DE6F66"/>
<path d="M302.431 67.4138H300.448V103.103H302.431V67.4138Z" fill="#EA4335"/>
<path d="M298.466 95.1725C300.656 95.1725 302.431 93.3971 302.431 91.207C302.431 89.0169 300.656 87.2415 298.466 87.2415C296.275 87.2415 294.5 89.0169 294.5 91.207C294.5 93.3971 296.275 95.1725 298.466 95.1725Z" fill="#994D47"/>
<path d="M336.138 89.2241H324.241V97.1552H336.138V89.2241Z" fill="#33573D"/>
<path d="M282.603 103.103H252.862C255.692 101.217 255.692 97.059 252.862 95.1724H282.603C284.794 95.1724 286.569 96.9477 286.569 99.1379C286.569 101.328 284.794 103.103 282.603 103.103Z" fill="#87AAE5"/>
<path d="M282.603 95.1724H278.638C280.828 95.1724 282.603 96.9477 282.603 99.1379C282.603 101.328 280.828 103.103 278.638 103.103H282.603C284.794 103.103 286.569 101.328 286.569 99.1379C286.569 96.9477 284.794 95.1724 282.603 95.1724Z" fill="#647EAA"/>
<path d="M284.586 95.1725H256.828C259.018 92.9823 259.018 89.4317 256.828 87.2415H284.586C286.776 87.2415 288.552 89.0168 288.552 91.207C288.552 93.3972 286.776 95.1725 284.586 95.1725Z" fill="#FBBC05"/>
<path d="M284.586 87.2415H280.621C282.811 87.2415 284.586 89.0168 284.586 91.207C284.586 93.3969 282.811 95.1725 280.621 95.1725H284.586C286.776 95.1725 288.552 93.3969 288.552 91.207C288.552 89.0168 286.776 87.2415 284.586 87.2415Z" fill="#B45A52"/>
<path d="M278.638 87.2413H252.862C256.147 83.9561 256.147 78.6299 252.862 75.3447H278.638C281.923 75.3447 284.586 78.0078 284.586 81.293C284.586 84.5782 281.923 87.2413 278.638 87.2413Z" fill="#DE6F66"/>
<path d="M278.638 75.3447H274.672C277.958 75.3447 280.621 78.0078 280.621 81.293C280.621 84.5782 277.958 87.2413 274.672 87.2413H278.638C281.923 87.2413 284.586 84.5782 284.586 81.293C284.586 78.0078 281.923 75.3447 278.638 75.3447Z" fill="#B25952"/>
<ellipse cx="39.1415" cy="14.1449" rx="39.1415" ry="14.1449" transform="matrix(0.999166 -0.0408226 0.073167 0.99732 0 121.196)" fill="#F2EFE7"/>
<path d="M76 123V139H31.3684C30.9006 139.001 30.4337 138.961 29.9737 138.88C28.4594 138.637 27.0444 138 25.884 137.039C24.7236 136.078 23.8626 134.829 23.3957 133.431C22.9288 132.033 22.8739 130.539 23.2372 129.112C23.6004 127.686 24.3677 126.383 25.4547 125.347C26.6735 124.162 28.2572 123.382 29.9737 123.12C30.4337 123.039 30.9006 122.999 31.3684 123H76Z" fill="#CC7400"/>
<path d="M71 88V106H27.2105C26.7516 106.001 26.2935 105.956 25.8421 105.865C24.3564 105.592 22.9681 104.875 21.8295 103.794C20.691 102.712 19.8464 101.308 19.3883 99.735C18.9301 98.1619 18.8763 96.4809 19.2327 94.8764C19.5891 93.272 20.3419 91.8062 21.4084 90.64C22.6042 89.3072 24.158 88.4293 25.8421 88.135C26.2935 88.0441 26.7516 87.9989 27.2105 88H71Z" fill="#6F72C0"/>
<path d="M79 106V123H33.5263C33.0497 123.001 32.574 122.958 32.1052 122.872C30.5624 122.615 29.1207 121.938 27.9384 120.916C26.7561 119.895 25.8789 118.569 25.4032 117.083C24.9275 115.597 24.8716 114.01 25.2416 112.494C25.6117 110.979 26.3935 109.595 27.501 108.493C28.7428 107.235 30.3564 106.405 32.1052 106.128C32.574 106.042 33.0497 105.999 33.5263 106H79Z" fill="#FF6243"/>
<path d="M85 71V88H41.2105C40.7516 88.001 40.2935 87.9583 39.8421 87.8725C38.3564 87.6145 36.9681 86.9377 35.8295 85.9164C34.691 84.8951 33.8464 83.5688 33.3883 82.0831C32.9301 80.5974 32.8763 79.0097 33.2327 77.4944C33.5891 75.9791 34.3419 74.5948 35.4084 73.4933C36.6042 72.2346 38.158 71.4055 39.8421 71.1275C40.2935 71.0417 40.7516 70.999 41.2105 71H85Z" fill="#FF9D43"/>
<path d="M68 55V71H23.3684C22.9006 71.0009 22.4337 70.9608 21.9737 70.88C20.4594 70.6372 19.0444 70.0002 17.884 69.039C16.7236 68.0778 15.8626 66.8295 15.3957 65.4311C14.9288 64.0328 14.8739 62.5386 15.2372 61.1124C15.6004 59.6862 16.3677 58.3833 17.4547 57.3467C18.6735 56.162 20.2572 55.3816 21.9737 55.12C22.4337 55.0392 22.9006 54.9991 23.3684 55H68Z" fill="#69E88D"/>
<path d="M76 126H29V135H76V126Z" fill="#E0E0E2"/>
<path d="M71 93H25V101H71V93Z" fill="#E0E0E2"/>
<path d="M79 109H33V118H79V109Z" fill="#E0E0E2"/>
<path d="M85 76H40V85H85V76Z" fill="#E0E0E2"/>
<path d="M68 59H22V68H68V59Z" fill="#E0E0E2"/>
<path d="M79 109H33V111H79V109Z" fill="#C6C5CA"/>
<path d="M85 76H40V78H85V76Z" fill="#C6C5CA"/>
<path d="M68 59H22V60H68V59Z" fill="#C6C5CA"/>
<path d="M76 126H29V128H76V126Z" fill="#C6C5CA"/>
<path d="M71 93H25V94H71V93Z" fill="#C6C5CA"/>
<ellipse cx="85.762" cy="30.9926" rx="85.762" ry="30.9926" transform="matrix(0.984123 -0.177488 0.209274 0.977857 48 176.085)" fill="#F2EFE7"/>
<ellipse cx="85.762" cy="30.9926" rx="85.762" ry="30.9926" transform="matrix(0.984123 -0.177488 0.209274 0.977857 134.911 192.698)" fill="#F2EFE7"/>
<ellipse cx="39.1415" cy="14.1449" rx="39.1415" ry="14.1449" transform="matrix(0.999166 -0.0408226 0.073167 0.99732 59.9503 242.383)" fill="#F2EFE7"/>
<ellipse cx="51.5169" cy="14.1449" rx="51.5169" ry="14.1449" transform="matrix(0.999166 -0.0408226 0.073167 0.99732 276 264.196)" fill="#F2EFE7"/>
<rect x="142.432" y="98.165" width="20.3053" height="64.7827" rx="10.1526" transform="rotate(63.2891 142.432 98.165)" fill="#FF9F80"/>
<path d="M184.134 185.397C184.234 185.397 184.313 185.465 184.412 185.499V157.45L156.33 163.695C156.33 163.695 156.627 175.467 156.985 185.533C157.084 185.533 157.183 185.431 157.302 185.431H184.134V185.397Z" fill="#FF9F80"/>
<path d="M156.909 188.74C157.03 190.202 157.131 191.298 157.232 191.771C157.454 193.427 156.586 193.857 155.658 193.513C152.046 191.707 148.817 191.879 145.891 193.513C141.735 196.178 141.028 204.111 144.539 207.314C146.537 209.335 148.676 210.303 150.875 210.496H178.722C182.576 210.346 184.311 207.873 184.412 203.66V188.654C184.412 188.654 184.231 188.719 184.13 188.719H156.909V188.74Z" fill="#A6E7BC"/>
<g filter="url(#filter0_d_449_467)">
<path d="M185.176 184.046C185.176 184.046 184.994 183.974 184.892 183.974H157.43C157.308 183.974 157.227 184.046 157.105 184.046C155.805 184.237 154.769 185.504 154.769 187.082C154.769 188.804 155.948 190.214 157.43 190.214H184.892C184.994 190.214 185.075 190.167 185.176 190.143C186.497 189.975 187.533 188.684 187.533 187.082C187.533 185.48 186.497 184.213 185.176 184.022V184.046Z" fill="#A6E7BC"/>
</g>
<path d="M195.611 185.367C195.512 185.367 195.433 185.451 195.333 185.493V151.211L223.416 158.843C223.416 158.843 223.118 173.231 222.761 185.534C222.662 185.534 222.563 185.409 222.444 185.409H195.611V185.367Z" fill="#FF9F80"/>
<path d="M222.837 188.74C222.716 190.202 222.615 191.298 222.514 191.771C222.292 193.427 223.16 193.857 224.088 193.513C227.7 191.707 230.928 191.879 233.854 193.513C238.011 196.178 238.717 204.111 235.206 207.314C233.209 209.335 231.07 210.303 228.87 210.496H201.024C197.17 210.346 195.434 207.873 195.333 203.66V188.654C195.333 188.654 195.515 188.719 195.616 188.719H222.837V188.74Z" fill="#A6E7BC"/>
<g filter="url(#filter1_d_449_467)">
<path d="M194.569 184.046C194.569 184.046 194.752 183.974 194.853 183.974H222.315C222.437 183.974 222.518 184.046 222.64 184.046C223.94 184.237 224.976 185.504 224.976 187.082C224.976 188.804 223.798 190.214 222.315 190.214H194.853C194.752 190.214 194.671 190.167 194.569 190.143C193.249 189.975 192.213 188.684 192.213 187.082C192.213 185.48 193.249 184.213 194.569 184.022V184.046Z" fill="#A6E7BC"/>
</g>
<g filter="url(#filter2_d_449_467)">
<path fill-rule="evenodd" clip-rule="evenodd" d="M160.35 47.3135C173.919 38.8772 183.546 41.3045 187.332 48.8766C188.222 50.6561 191.069 53.1472 195.339 48.8766C198.898 44.4282 214.023 35.5311 232.707 59.5532L232.547 59.2951C244.135 74.3579 250.387 96.4059 252.906 129.07C255.066 157.131 254.614 160.697 247.885 168.609C238.324 179.851 228.249 179.638 218.331 167.976L210.398 158.648L204.416 167.976C197.089 179.397 183.717 180.063 174.695 169.456C168.119 161.723 167.938 161.723 161.984 169.456C154.034 179.785 141.431 179.413 132.215 168.577C125.579 160.774 125.012 156.812 126.845 131.099C129.394 95.334 143.201 60.6653 160.148 47.4693C160.215 47.4171 160.282 47.3652 160.35 47.3135Z" fill="#FF9F80"/>
</g>
<ellipse cx="188.313" cy="116.106" rx="39.7838" ry="38.2236" fill="url(#paint0_radial_449_467)"/>
<circle cx="176.459" cy="98.8545" r="6.09158" fill="black"/>
<circle cx="1.01526" cy="1.01526" r="1.01526" transform="matrix(-1 0 0 1 180.521 96.8242)" fill="white"/>
<circle cx="198.795" cy="98.8545" r="6.09158" fill="black"/>
<circle cx="1.01526" cy="1.01526" r="1.01526" transform="matrix(-1 0 0 1 202.856 96.8242)" fill="white"/>
<path d="M171.931 88.8043C173.101 87.1223 178.952 86.3607 181.292 88.8043" stroke="black" stroke-linecap="round"/>
<path d="M195.333 88.8043C196.308 87.1223 201.184 86.3607 203.134 88.8043" stroke="black" stroke-linecap="round"/>
<g filter="url(#filter3_d_449_467)">
<rect x="190.725" y="140.36" width="20.3053" height="70.0622" rx="10.1526" transform="rotate(-87.627 190.725 140.36)" fill="#FA9170"/>
</g>
<g clip-path="url(#clip0_449_467)">
<path d="M175.29 116.799C180.775 123.68 195.188 124.181 201.053 116.799C201.866 115.579 202.096 114.13 202.069 112.586C201.69 109.687 198.845 108.319 196.326 108.373C194.66 108.346 193.901 108.888 193.021 109.497L193.021 112.301C193.021 115.458 183.932 115.796 183.932 112.301L183.932 109.714C182.509 109.01 181.101 108.319 179.353 108.373C176.929 108.346 174.639 109.741 174.125 112.193C173.976 113.534 174.07 115.458 175.276 116.785L175.29 116.799Z" fill="#020304"/>
<path d="M193.034 112.301L193.034 109.498C192.113 110.134 191.056 110.852 188.686 111.055C186.857 111.137 185.394 110.419 183.959 109.714L183.959 112.301C183.959 115.796 193.048 115.458 193.048 112.301L193.034 112.301Z" fill="white"/>
<path d="M181 120.791C182.42 119.455 190.63 117.356 195.5 120.791C191 122.791 185.383 122.623 181 120.791Z" fill="#FF3838"/>
</g>
<path d="M132.739 159.881C130.939 159.881 129.48 155.746 129.48 150.646C129.48 145.546 130.939 141.412 132.739 141.412C134.539 141.412 135.998 145.546 135.998 150.646C135.998 155.746 134.539 159.881 132.739 159.881Z" fill="#6563FF"/>
<path d="M132.971 115.43C139.672 115.43 145.124 131.217 145.124 150.629C145.124 170.042 139.672 185.829 132.971 185.829C126.27 185.829 120.818 170.042 120.818 150.629C120.818 131.217 126.27 115.43 132.971 115.43ZM132.971 157.921C133.942 157.921 134.35 156.819 134.805 155.449C135.259 154.079 135.473 152.334 135.401 150.588C135.473 148.842 135.259 147.098 134.805 145.728C134.35 144.358 133.825 143.255 132.971 143.255C132.151 143.255 131.591 144.358 131.137 145.728C130.683 147.098 130.494 148.9 130.566 150.646C130.494 152.392 130.683 154.079 131.137 155.449C131.591 156.819 132 157.921 132.971 157.921Z" fill="#B2B1FF"/>
<path d="M52.7774 259.733C60.0534 251.704 64.0001 241.528 63.9068 231.039V150.538C63.9068 131.125 67.6119 115.338 76.6525 115.338H133.267C123.041 115.98 120.818 142.654 120.818 150.538V231.039C120.818 251.681 115.887 257.204 106.653 267.359C106.059 268.003 105.322 268.52 104.493 268.874C103.663 269.228 102.761 269.412 101.848 269.412H57.5833C56.3745 269.412 55.1909 269.091 54.1729 268.486C53.1549 267.882 52.3451 267.019 51.8394 266C51.3336 264.982 51.1532 263.85 51.3195 262.739C51.4857 261.628 51.9917 260.585 52.7774 259.733Z" fill="#D8D8FF"/>
<path d="M120.818 150.629C120.818 170.042 126.27 185.828 132.971 185.828H120.818V150.629Z" fill="#6563FF"/>
<path d="M185.306 61.473C182.812 62.194 181.159 65.4687 182.619 67.8369C183.287 68.9209 184.218 70.0615 185.61 70.151C187.223 70.2547 188.925 69.9295 190.199 68.9209C191.952 67.5329 192.784 64.2519 190.459 62.9698C188.949 62.1371 187.889 63.2299 187.757 64.7676C187.624 66.3148 187.886 68.0841 189.337 69.0846C190.044 69.572 190.252 69.8476 191.311 70.2479C192.174 70.5744 193.072 70.5065 194.096 70.2563C196 69.791 198.088 66.7512 197.951 64.5612C197.876 63.3717 197.384 61.1743 195.931 60.9065" stroke="#383838" stroke-width="2" stroke-linecap="round"/>
<path d="M183.091 123.437L182.325 124.355L179.402 121.917L178.365 121.05L179.131 120.132L180.168 120.998L183.091 123.437Z" fill="#78909C"/>
<path d="M180.168 120.998C180.047 121.156 179.922 121.311 179.794 121.465C179.667 121.618 179.535 121.77 179.402 121.916L178.364 121.05L179.133 120.131L180.168 120.998ZM183.246 123.549C183.125 123.706 183 123.862 182.872 124.015C182.745 124.169 182.613 124.32 182.48 124.467L181.442 123.6L182.211 122.682L183.246 123.549Z" fill="#465E66"/>
<path d="M181.275 110.541C181.583 113.949 180.557 117.343 178.412 120.009C176.267 122.676 173.171 124.405 169.776 124.834C169.621 124.854 169.465 124.87 169.308 124.885C168.49 124.959 167.668 124.958 166.85 124.881C165.294 124.735 163.777 124.31 162.371 123.628C161.399 123.155 160.488 122.565 159.658 121.872C156.995 119.62 155.33 116.405 155.028 112.93C154.726 109.455 155.81 106.002 158.045 103.324C160.279 100.645 163.483 98.9595 166.955 98.6341C170.428 98.3088 173.889 99.3703 176.582 101.587C177.177 102.083 177.727 102.629 178.227 103.22C179.236 104.413 180.023 105.777 180.551 107.248C180.931 108.31 181.175 109.417 181.275 110.541Z" fill="#90CAF9" fill-opacity="0.7"/>
<path d="M171.574 104.168C169.304 103.231 166.756 103.234 164.49 104.176C162.223 105.118 160.423 106.921 159.485 109.19" stroke="white" stroke-width="3" stroke-linecap="round" stroke-linejoin="round"/>
<path d="M195.296 134.082C194.864 134.602 194.25 134.938 193.579 135.021L193.485 135.033C193.136 135.066 192.785 135.029 192.45 134.925C192.116 134.821 191.805 134.652 191.537 134.427L180.528 125.576L183.95 121.472L194.956 130.318C195.5 130.773 195.841 131.424 195.904 132.13C195.968 132.835 195.749 133.538 195.296 134.082Z" fill="#5E35B1"/>
<path d="M195.592 133.647C195.39 134.02 195.102 134.339 194.752 134.579C194.402 134.818 194 134.971 193.579 135.024L193.485 135.036C193.136 135.068 192.784 135.031 192.45 134.927C192.115 134.822 191.805 134.653 191.537 134.427L180.528 125.576L181.082 124.911L192.068 133.742C192.336 133.967 192.647 134.136 192.981 134.24C193.316 134.344 193.667 134.381 194.016 134.348L194.11 134.337C194.664 134.268 195.183 134.027 195.592 133.647Z" fill="#4A2A96"/>
<path d="M177.23 100.81C174.331 98.4182 170.603 97.2711 166.861 97.6194C163.119 97.9677 159.667 99.7831 157.26 102.669C154.852 105.555 153.685 109.276 154.013 113.02C154.341 116.764 156.138 120.225 159.01 122.649C160.442 123.849 162.097 124.754 163.88 125.31C165.663 125.867 167.539 126.065 169.399 125.891C169.568 125.876 169.736 125.858 169.903 125.837C172.65 125.49 175.237 124.348 177.344 122.551C179.452 120.755 180.989 118.382 181.767 115.724C182.545 113.067 182.53 110.239 181.724 107.59C180.918 104.941 179.356 102.584 177.23 100.81ZM181.275 110.541C181.583 113.949 180.557 117.343 178.412 120.009C176.267 122.675 173.171 124.405 169.776 124.834C169.621 124.853 169.465 124.87 169.308 124.885C166.707 125.117 164.095 124.574 161.802 123.324C159.509 122.073 157.639 120.171 156.426 117.858C155.214 115.545 154.714 112.925 154.99 110.328C155.266 107.731 156.306 105.274 157.978 103.267C159.651 101.261 161.882 99.7962 164.388 99.058C166.894 98.3198 169.563 98.3413 172.056 99.1198C174.55 99.8984 176.757 101.399 178.398 103.432C180.039 105.465 181.04 107.939 181.275 110.541Z" fill="#465E66"/>
<path d="M374 261V278H330.211C329.752 278.001 329.293 277.958 328.842 277.872C327.356 277.615 325.968 276.938 324.83 275.916C323.691 274.895 322.846 273.569 322.388 272.083C321.93 270.597 321.876 269.01 322.233 267.494C322.589 265.979 323.342 264.595 324.408 263.493C325.604 262.235 327.158 261.405 328.842 261.128C329.293 261.042 329.752 260.999 330.211 261H374Z" fill="#FF9D43"/>
<path d="M333.226 240L341.053 253.955L302.126 275.788C301.718 276.017 301.291 276.211 300.85 276.365C299.411 276.894 297.865 277.031 296.383 276.76C294.901 276.489 293.539 275.822 292.448 274.831C291.357 273.839 290.578 272.563 290.197 271.141C289.816 269.72 289.848 268.208 290.289 266.772C290.772 265.143 291.772 263.687 293.141 262.62C293.503 262.324 293.89 262.061 294.299 261.833L333.226 240Z" fill="#69E88D"/>
<path d="M374 266H329V275H374V266Z" fill="#E0E0E2"/>
<path d="M335.182 243.489L295.062 265.991L299.465 273.841L339.585 251.338L335.182 243.489Z" fill="#E0E0E2"/>
<path d="M374 266H329V268H374V266Z" fill="#C6C5CA"/>
<path d="M335.182 243.489L295.062 265.991L295.551 266.863L335.672 244.361L335.182 243.489Z" fill="#C6C5CA"/>
<defs>
<filter id="filter0_d_449_467" x="148.769" y="177.974" width="52.7632" height="26.2405" filterUnits="userSpaceOnUse" color-interpolation-filters="sRGB">
<feFlood flood-opacity="0" result="BackgroundImageFix"/>
<feColorMatrix in="SourceAlpha" type="matrix" values="0 0 0 0 0 0 0 0 0 0 0 0 0 0 0 0 0 0 127 0" result="hardAlpha"/>
<feOffset dx="4" dy="4"/>
<feGaussianBlur stdDeviation="5"/>
<feComposite in2="hardAlpha" operator="out"/>
<feColorMatrix type="matrix" values="0 0 0 0 0 0 0 0 0 0 0 0 0 0 0 0 0 0 0.05 0"/>
<feBlend mode="normal" in2="BackgroundImageFix" result="effect1_dropShadow_449_467"/>
<feBlend mode="normal" in="SourceGraphic" in2="effect1_dropShadow_449_467" result="shape"/>
</filter>
<filter id="filter1_d_449_467" x="186.213" y="177.974" width="52.7632" height="26.2405" filterUnits="userSpaceOnUse" color-interpolation-filters="sRGB">
<feFlood flood-opacity="0" result="BackgroundImageFix"/>
<feColorMatrix in="SourceAlpha" type="matrix" values="0 0 0 0 0 0 0 0 0 0 0 0 0 0 0 0 0 0 127 0" result="hardAlpha"/>
<feOffset dx="4" dy="4"/>
<feGaussianBlur stdDeviation="5"/>
<feComposite in2="hardAlpha" operator="out"/>
<feColorMatrix type="matrix" values="0 0 0 0 0 0 0 0 0 0 0 0 0 0 0 0 0 0 0.05 0"/>
<feBlend mode="normal" in2="BackgroundImageFix" result="effect1_dropShadow_449_467"/>
<feBlend mode="normal" in="SourceGraphic" in2="effect1_dropShadow_449_467" result="shape"/>
</filter>
<filter id="filter2_d_449_467" x="115.942" y="36" width="148.118" height="154.996" filterUnits="userSpaceOnUse" color-interpolation-filters="sRGB">
<feFlood flood-opacity="0" result="BackgroundImageFix"/>
<feColorMatrix in="SourceAlpha" type="matrix" values="0 0 0 0 0 0 0 0 0 0 0 0 0 0 0 0 0 0 127 0" result="hardAlpha"/>
<feOffset dy="4"/>
<feGaussianBlur stdDeviation="5"/>
<feComposite in2="hardAlpha" operator="out"/>
<feColorMatrix type="matrix" values="0 0 0 0 0 0 0 0 0 0 0 0 0 0 0 0 0 0 0.05 0"/>
<feBlend mode="normal" in2="BackgroundImageFix" result="effect1_dropShadow_449_467"/>
<feBlend mode="normal" in="SourceGraphic" in2="effect1_dropShadow_449_467" result="shape"/>
</filter>
<filter id="filter3_d_449_467" x="185.136" y="114.484" width="90.0199" height="42.366" filterUnits="userSpaceOnUse" color-interpolation-filters="sRGB">
<feFlood flood-opacity="0" result="BackgroundImageFix"/>
<feColorMatrix in="SourceAlpha" type="matrix" values="0 0 0 0 0 0 0 0 0 0 0 0 0 0 0 0 0 0 127 0" result="hardAlpha"/>
<feOffset dx="4" dy="4"/>
<feGaussianBlur stdDeviation="5"/>
<feComposite in2="hardAlpha" operator="out"/>
<feColorMatrix type="matrix" values="0 0 0 0 0 0 0 0 0 0 0 0 0 0 0 0 0 0 0.1 0"/>
<feBlend mode="normal" in2="BackgroundImageFix" result="effect1_dropShadow_449_467"/>
<feBlend mode="normal" in="SourceGraphic" in2="effect1_dropShadow_449_467" result="shape"/>
</filter>
<radialGradient id="paint0_radial_449_467" cx="0" cy="0" r="1" gradientUnits="userSpaceOnUse" gradientTransform="translate(188.313 116.106) rotate(90) scale(38.2236 39.7838)">
<stop offset="0.141692" stop-color="#FFB1D2" stop-opacity="0.8"/>
<stop offset="1" stop-color="#D9D9D9" stop-opacity="0"/>
</radialGradient>
<clipPath id="clip0_449_467">
<rect width="27.985" height="13.7758" fill="white" transform="translate(202.069 122.149) rotate(-180)"/>
</clipPath>
</defs>
</svg>
