<svg width="390" height="323" viewBox="0 0 390 323" fill="none" xmlns="http://www.w3.org/2000/svg">
<mask id="mask0_449_466" style="mask-type:luminance" maskUnits="userSpaceOnUse" x="-17" y="0" width="146" height="146">
<path d="M-17 4.29153e-06H129V146H-17V4.29153e-06Z" fill="white"/>
</mask>
<g mask="url(#mask0_449_466)">
<path d="M9.67212 130.632C9.14191 112.739 7.72417 99.8948 6.05286 99.8948C4.38154 99.8948 2.9638 112.739 2.43359 130.632H9.67212Z" fill="#FFCC4D"/>
<path d="M48.3159 82.3096C48.3159 101.693 39.7173 107.579 29.1054 107.579C18.4974 107.579 9.8949 101.693 9.8949 82.3096C9.8949 62.93 25.2633 34.5791 29.1054 34.5791C32.9475 34.5791 48.3159 62.93 48.3159 82.3096Z" fill="#A6D388"/>
<path d="M25.2633 79.6508C25.2633 101.067 16.6647 107.579 6.05281 107.579C-4.55524 107.579 -13.1577 101.067 -13.1577 79.6508C-13.1577 58.2234 2.21071 26.8949 6.05281 26.8949C9.89492 26.8949 25.2633 58.2234 25.2633 79.6508Z" fill="#77B255"/>
<path d="M17.5792 65.3159L67.5266 15.3685L117.474 65.3159V126.79H17.5792V65.3159Z" fill="#FFE8B6"/>
<path d="M71.3685 126.79H67.5264V65.3159H71.3685V126.79Z" fill="white"/>
<path d="M21.4213 126.79H17.5792V65.3159H21.4213V126.79ZM113.632 126.79H117.474V65.3159H113.632V126.79Z" fill="#FFCC4D"/>
<path d="M117.474 69.1579C116.969 69.1585 116.469 69.0593 116.003 68.8661C115.537 68.6729 115.114 68.3895 114.757 68.0322L67.5264 20.8012L20.2954 68.0322C19.9387 68.3889 19.5152 68.6719 19.0492 68.865C18.5831 69.058 18.0836 69.1574 17.5791 69.1574C17.0746 69.1574 16.5751 69.058 16.109 68.865C15.6429 68.6719 15.2194 68.3889 14.8627 68.0322C14.506 67.6755 14.223 67.252 14.03 66.7859C13.8369 66.3199 13.7375 65.8203 13.7375 65.3158C13.7375 64.8114 13.8369 64.3118 14.03 63.8458C14.223 63.3797 14.506 62.9562 14.8627 62.5995L64.8101 12.6521C65.1666 12.295 65.59 12.0117 66.0561 11.8184C66.5222 11.6251 67.0219 11.5256 67.5264 11.5256C68.031 11.5256 68.5307 11.6251 68.9968 11.8184C69.4629 12.0117 69.8863 12.295 70.2428 12.6521L120.19 62.5995C120.729 63.1361 121.097 63.8207 121.246 64.5666C121.395 65.3124 121.319 66.0857 121.028 66.7884C120.737 67.4911 120.244 68.0915 119.611 68.5134C118.978 68.9353 118.234 69.1596 117.474 69.1579Z" fill="#66757F"/>
<path d="M67.5266 69.1579C66.766 69.1596 66.022 68.9353 65.3891 68.5134C64.7563 68.0915 64.263 67.4911 63.9719 66.7884C63.6809 66.0857 63.6052 65.3124 63.7544 64.5666C63.9037 63.8207 64.2711 63.1361 64.8102 62.5995L89.7839 37.6258C90.5043 36.9054 91.4814 36.5006 92.5002 36.5006C93.5191 36.5006 94.4962 36.9054 95.2166 37.6258C95.937 38.3462 96.3418 39.3233 96.3418 40.3422C96.3418 41.361 95.937 42.3381 95.2166 43.0585L70.2429 68.0322C69.8866 68.3895 69.4632 68.6729 68.9971 68.8661C68.5309 69.0593 68.0312 69.1585 67.5266 69.1579Z" fill="#66757F"/>
<path d="M52.1581 126.79H36.7897V103.737H52.1581V126.79Z" fill="#C1694F"/>
<path d="M98.2634 119.105H86.7371V103.737H98.2634V119.105Z" fill="#55ACEE"/>
<path d="M82.8949 119.105H90.5791V103.737H82.8949V119.105ZM102.105 119.105H94.4212V103.737H102.105V119.105ZM52.1581 84.526H36.7897V69.1576H52.1581V84.526ZM102.105 84.526H82.8949V69.1576H102.105V84.526Z" fill="#55ACEE"/>
<path d="M125.158 134.474C125.158 136.512 124.348 138.466 122.907 139.907C121.466 141.348 119.512 142.158 117.474 142.158H-5.47363C-7.51161 142.158 -9.46611 141.348 -10.9072 139.907C-12.3483 138.466 -13.1578 136.512 -13.1578 134.474C-13.1578 132.436 -12.3483 130.481 -10.9072 129.04C-9.46611 127.599 -7.51161 126.79 -5.47363 126.79H117.474C119.512 126.79 121.466 127.599 122.907 129.04C124.348 130.481 125.158 132.436 125.158 134.474Z" fill="#5C913B"/>
<path d="M52.1581 142.158H36.7897V126.79H52.1581V142.158Z" fill="white"/>
</g>
<mask id="mask1_449_466" style="mask-type:luminance" maskUnits="userSpaceOnUse" x="129" y="0" width="146" height="146">
<path d="M129 4.29153e-06H275V146H129V4.29153e-06Z" fill="white"/>
</mask>
<g mask="url(#mask1_449_466)">
<path d="M155.672 130.632C155.142 112.739 153.724 99.8948 152.053 99.8948C150.382 99.8948 148.964 112.739 148.434 130.632H155.672Z" fill="#FFCC4D"/>
<path d="M194.316 82.3096C194.316 101.693 185.717 107.579 175.105 107.579C164.497 107.579 155.895 101.693 155.895 82.3096C155.895 62.93 171.263 34.5791 175.105 34.5791C178.948 34.5791 194.316 62.93 194.316 82.3096Z" fill="#A6D388"/>
<path d="M171.263 79.6508C171.263 101.067 162.665 107.579 152.053 107.579C141.445 107.579 132.842 101.067 132.842 79.6508C132.842 58.2234 148.211 26.8949 152.053 26.8949C155.895 26.8949 171.263 58.2234 171.263 79.6508Z" fill="#77B255"/>
<path d="M163.579 65.3159L213.527 15.3685L263.474 65.3159V126.79H163.579V65.3159Z" fill="#FFE8B6"/>
<path d="M217.368 126.79H213.526V65.3159H217.368V126.79Z" fill="white"/>
<path d="M167.421 126.79H163.579V65.3159H167.421V126.79ZM259.632 126.79H263.474V65.3159H259.632V126.79Z" fill="#FFCC4D"/>
<path d="M263.474 69.1579C262.969 69.1585 262.469 69.0593 262.003 68.8661C261.537 68.6729 261.114 68.3895 260.757 68.0322L213.526 20.8012L166.295 68.0322C165.939 68.3889 165.515 68.6719 165.049 68.865C164.583 69.058 164.084 69.1574 163.579 69.1574C163.075 69.1574 162.575 69.058 162.109 68.865C161.643 68.6719 161.219 68.3889 160.863 68.0322C160.506 67.6755 160.223 67.252 160.03 66.7859C159.837 66.3199 159.738 65.8203 159.738 65.3158C159.738 64.8114 159.837 64.3118 160.03 63.8458C160.223 63.3797 160.506 62.9562 160.863 62.5995L210.81 12.6521C211.167 12.295 211.59 12.0117 212.056 11.8184C212.522 11.6251 213.022 11.5256 213.526 11.5256C214.031 11.5256 214.531 11.6251 214.997 11.8184C215.463 12.0117 215.886 12.295 216.243 12.6521L266.19 62.5995C266.729 63.1361 267.097 63.8207 267.246 64.5666C267.395 65.3124 267.319 66.0857 267.028 66.7884C266.737 67.4911 266.244 68.0915 265.611 68.5134C264.978 68.9353 264.234 69.1596 263.474 69.1579Z" fill="#66757F"/>
<path d="M213.527 69.1579C212.766 69.1596 212.022 68.9353 211.389 68.5134C210.756 68.0915 210.263 67.4911 209.972 66.7884C209.681 66.0857 209.605 65.3124 209.754 64.5666C209.904 63.8207 210.271 63.1361 210.81 62.5995L235.784 37.6258C236.504 36.9054 237.481 36.5006 238.5 36.5006C239.519 36.5006 240.496 36.9054 241.217 37.6258C241.937 38.3462 242.342 39.3233 242.342 40.3422C242.342 41.361 241.937 42.3381 241.217 43.0585L216.243 68.0322C215.887 68.3895 215.463 68.6729 214.997 68.8661C214.531 69.0593 214.031 69.1585 213.527 69.1579Z" fill="#66757F"/>
<path d="M198.158 126.79H182.79V103.737H198.158V126.79Z" fill="#C1694F"/>
<path d="M244.263 119.105H232.737V103.737H244.263V119.105Z" fill="#55ACEE"/>
<path d="M228.895 119.105H236.579V103.737H228.895V119.105ZM248.105 119.105H240.421V103.737H248.105V119.105ZM198.158 84.526H182.79V69.1576H198.158V84.526ZM248.105 84.526H228.895V69.1576H248.105V84.526Z" fill="#55ACEE"/>
<path d="M271.158 134.474C271.158 136.512 270.348 138.466 268.907 139.907C267.466 141.348 265.512 142.158 263.474 142.158H140.526C138.488 142.158 136.534 141.348 135.093 139.907C133.652 138.466 132.842 136.512 132.842 134.474C132.842 132.436 133.652 130.481 135.093 129.04C136.534 127.599 138.488 126.79 140.526 126.79H263.474C265.512 126.79 267.466 127.599 268.907 129.04C270.348 130.481 271.158 132.436 271.158 134.474Z" fill="#5C913B"/>
<path d="M198.158 142.158H182.79V126.79H198.158V142.158Z" fill="white"/>
</g>
<mask id="mask2_449_466" style="mask-type:luminance" maskUnits="userSpaceOnUse" x="273" y="0" width="147" height="146">
<path d="M273.027 4.29153e-06H419.027V146H273.027V4.29153e-06Z" fill="white"/>
</mask>
<g mask="url(#mask2_449_466)">
<path d="M299.699 130.632C299.169 112.739 297.751 99.8948 296.08 99.8948C294.408 99.8948 292.991 112.739 292.46 130.632H299.699Z" fill="#FFCC4D"/>
<path d="M338.343 82.3096C338.343 101.693 329.744 107.579 319.132 107.579C308.524 107.579 299.922 101.693 299.922 82.3096C299.922 62.93 315.29 34.5791 319.132 34.5791C322.974 34.5791 338.343 62.93 338.343 82.3096Z" fill="#A6D388"/>
<path d="M315.29 79.6508C315.29 101.067 306.691 107.579 296.08 107.579C285.471 107.579 276.869 101.067 276.869 79.6508C276.869 58.2234 292.237 26.8949 296.08 26.8949C299.922 26.8949 315.29 58.2234 315.29 79.6508Z" fill="#77B255"/>
<path d="M307.606 65.3159L357.553 15.3685L407.501 65.3159V126.79H307.606V65.3159Z" fill="#FFE8B6"/>
<path d="M361.395 126.79H357.553V65.3159H361.395V126.79Z" fill="white"/>
<path d="M311.448 126.79H307.606V65.3159H311.448V126.79ZM403.659 126.79H407.501V65.3159H403.659V126.79Z" fill="#FFCC4D"/>
<path d="M407.501 69.1579C406.996 69.1585 406.496 69.0593 406.03 68.8661C405.564 68.6729 405.14 68.3895 404.784 68.0322L357.553 20.8012L310.322 68.0322C309.965 68.3889 309.542 68.6719 309.076 68.865C308.61 69.058 308.11 69.1574 307.606 69.1574C307.101 69.1574 306.602 69.058 306.136 68.865C305.67 68.6719 305.246 68.3889 304.889 68.0322C304.533 67.6755 304.25 67.252 304.057 66.7859C303.864 66.3199 303.764 65.8203 303.764 65.3158C303.764 64.8114 303.864 64.3118 304.057 63.8458C304.25 63.3797 304.533 62.9562 304.889 62.5995L354.837 12.6521C355.193 12.295 355.617 12.0117 356.083 11.8184C356.549 11.6251 357.049 11.5256 357.553 11.5256C358.058 11.5256 358.557 11.6251 359.024 11.8184C359.49 12.0117 359.913 12.295 360.27 12.6521L410.217 62.5995C410.756 63.1361 411.123 63.8207 411.273 64.5666C411.422 65.3124 411.346 66.0857 411.055 66.7884C410.764 67.4911 410.271 68.0915 409.638 68.5134C409.005 68.9353 408.261 69.1596 407.501 69.1579Z" fill="#66757F"/>
<path d="M357.553 69.1579C356.793 69.1596 356.049 68.9353 355.416 68.5134C354.783 68.0915 354.29 67.4911 353.999 66.7884C353.708 66.0857 353.632 65.3124 353.781 64.5666C353.931 63.8207 354.298 63.1361 354.837 62.5995L379.811 37.6258C380.531 36.9054 381.508 36.5006 382.527 36.5006C383.546 36.5006 384.523 36.9054 385.243 37.6258C385.964 38.3462 386.369 39.3233 386.369 40.3422C386.369 41.361 385.964 42.3381 385.243 43.0585L360.27 68.0322C359.913 68.3895 359.49 68.6729 359.024 68.8661C358.558 69.0593 358.058 69.1585 357.553 69.1579Z" fill="#66757F"/>
<path d="M342.185 126.79H326.816V103.737H342.185V126.79Z" fill="#C1694F"/>
<path d="M388.29 119.105H376.764V103.737H388.29V119.105Z" fill="#55ACEE"/>
<path d="M372.922 119.105H380.606V103.737H372.922V119.105ZM392.132 119.105H384.448V103.737H392.132V119.105ZM342.185 84.526H326.816V69.1576H342.185V84.526ZM392.132 84.526H372.922V69.1576H392.132V84.526Z" fill="#55ACEE"/>
<path d="M415.185 134.474C415.185 136.512 414.375 138.466 412.934 139.907C411.493 141.348 409.539 142.158 407.501 142.158H284.553C282.515 142.158 280.561 141.348 279.12 139.907C277.679 138.466 276.869 136.512 276.869 134.474C276.869 132.436 277.679 130.481 279.12 129.04C280.561 127.599 282.515 126.79 284.553 126.79H407.501C409.539 126.79 411.493 127.599 412.934 129.04C414.375 130.481 415.185 132.436 415.185 134.474Z" fill="#5C913B"/>
<path d="M342.185 142.158H326.816V126.79H342.185V142.158Z" fill="white"/>
</g>
<ellipse cx="76.9305" cy="27.801" rx="76.9305" ry="27.801" transform="matrix(0.984123 -0.177488 0.209274 0.977857 122 253.708)" fill="#F2EFE7"/>
<ellipse cx="76.9305" cy="27.801" rx="76.9305" ry="27.801" transform="matrix(0.984123 -0.177488 0.209274 0.977857 199.961 268.609)" fill="#F2EFE7"/>
<rect x="206.708" y="183.812" width="18.2143" height="58.1115" rx="9.10714" transform="rotate(63.2891 206.708 183.812)" fill="#FFD36A"/>
<rect x="331.691" y="235.57" width="18.2143" height="58.1115" rx="9.10714" transform="rotate(145.994 331.691 235.57)" fill="#FFD36A"/>
<path d="M244.116 262.06C244.205 262.06 244.276 262.121 244.365 262.152V236.992L219.174 242.593C219.174 242.593 219.441 253.153 219.761 262.182C219.85 262.182 219.939 262.091 220.046 262.091H244.116V262.06Z" fill="#FFD36A"/>
<path d="M219.694 265.059C219.802 266.371 219.893 267.354 219.983 267.778C220.183 269.263 219.404 269.649 218.572 269.34C215.332 267.721 212.435 267.875 209.811 269.34C206.082 271.732 205.449 278.848 208.598 281.721C210.39 283.534 212.309 284.401 214.282 284.575H239.261C242.718 284.44 244.275 282.222 244.365 278.443V264.982C244.365 264.982 244.202 265.04 244.112 265.04H219.694V265.059Z" fill="#A6E7BC"/>
<g filter="url(#filter0_d_449_466)">
<path d="M245.05 260.848C245.05 260.848 244.886 260.784 244.795 260.784H220.161C220.052 260.784 219.979 260.848 219.87 260.848C218.704 261.02 217.775 262.157 217.775 263.572C217.775 265.116 218.831 266.382 220.161 266.382H244.795C244.886 266.382 244.959 266.339 245.05 266.318C246.235 266.167 247.164 265.009 247.164 263.572C247.164 262.135 246.235 260.998 245.05 260.827V260.848Z" fill="#A6E7BC"/>
</g>
<path d="M254.41 262.034C254.321 262.034 254.25 262.109 254.161 262.146V231.395L279.352 238.241C279.352 238.241 279.085 251.147 278.764 262.184C278.675 262.184 278.586 262.071 278.48 262.071H254.41V262.034Z" fill="#FFD36A"/>
<path d="M278.833 265.059C278.724 266.371 278.633 267.354 278.543 267.778C278.344 269.263 279.122 269.649 279.955 269.34C283.195 267.721 286.091 267.875 288.716 269.34C292.444 271.732 293.078 278.848 289.928 281.721C288.136 283.534 286.218 284.401 284.245 284.575H259.266C255.808 284.44 254.252 282.222 254.161 278.443V264.982C254.161 264.982 254.324 265.04 254.415 265.04H278.833V265.059Z" fill="#A6E7BC"/>
<g filter="url(#filter1_d_449_466)">
<path d="M253.476 260.848C253.476 260.848 253.64 260.784 253.731 260.784H278.365C278.474 260.784 278.547 260.848 278.656 260.848C279.822 261.02 280.752 262.157 280.752 263.572C280.752 265.116 279.695 266.382 278.365 266.382H253.731C253.64 266.382 253.567 266.339 253.476 266.318C252.292 266.167 251.362 265.009 251.362 263.572C251.362 262.135 252.292 260.998 253.476 260.827V260.848Z" fill="#A6E7BC"/>
</g>
<g filter="url(#filter2_d_449_466)">
<path fill-rule="evenodd" clip-rule="evenodd" d="M222.781 138.196C234.953 130.629 243.588 132.806 246.984 139.599C247.782 141.195 250.336 143.43 254.167 139.599C257.359 135.608 270.927 127.627 287.686 149.176L287.543 148.944C297.937 162.456 303.546 182.234 305.806 211.534C307.743 236.705 307.337 239.904 301.301 247.002C292.725 257.085 283.688 256.895 274.791 246.433L267.675 238.066L262.309 246.433C255.736 256.678 243.741 257.276 235.649 247.761C229.749 240.824 229.587 240.824 224.246 247.761C217.115 257.027 205.81 256.693 197.543 246.972C191.59 239.973 191.082 236.419 192.726 213.354C195.013 181.272 207.397 150.173 222.599 138.336C222.659 138.289 222.72 138.243 222.781 138.196Z" fill="#FFD36A"/>
</g>
<ellipse cx="247.864" cy="199.905" rx="35.687" ry="34.2875" fill="url(#paint0_radial_449_466)"/>
<circle cx="237.231" cy="184.43" r="5.46429" fill="black"/>
<circle cx="0.910714" cy="0.910714" r="0.910714" transform="matrix(-1 0 0 1 240.874 182.609)" fill="white"/>
<circle cx="257.266" cy="184.43" r="5.46429" fill="black"/>
<circle cx="0.910714" cy="0.910714" r="0.910714" transform="matrix(-1 0 0 1 260.909 182.609)" fill="white"/>
<path d="M233.169 175.415C234.218 173.906 239.467 173.223 241.566 175.415" stroke="black" stroke-linecap="round"/>
<path d="M254.161 175.415C255.036 173.906 259.409 173.223 261.159 175.415" stroke="black" stroke-linecap="round"/>
<g clip-path="url(#clip0_449_466)">
<path d="M259.122 197.768C254.201 191.595 241.272 191.146 236.011 197.768C235.282 198.862 235.075 200.162 235.1 201.547C235.44 204.147 237.992 205.374 240.252 205.326C241.746 205.35 242.427 204.864 243.216 204.317V201.802C243.216 198.971 251.369 198.667 251.369 201.802V204.123C252.645 204.755 253.909 205.374 255.476 205.326C257.651 205.35 259.705 204.098 260.166 201.899C260.3 200.696 260.215 198.971 259.134 197.78L259.122 197.768Z" fill="#020304"/>
<path d="M243.205 201.802V204.317C244.031 203.746 244.979 203.102 247.105 202.92C248.745 202.847 250.057 203.491 251.345 204.123V201.802C251.345 198.667 243.192 198.971 243.192 201.802H243.205Z" fill="white"/>
</g>
<path d="M300.343 137.722L295.588 148.206L306.798 147.214C309.238 147.1 311.528 145.663 312.604 143.289C314.136 139.912 312.632 135.928 309.246 134.391C305.86 132.853 301.873 134.345 300.343 137.722ZM315.175 148.086L308.675 149.585L313.111 154.393C314.03 155.475 315.502 156.025 316.972 155.685C317.47 155.571 317.941 155.358 318.356 155.061C318.772 154.763 319.124 154.386 319.393 153.952C319.662 153.517 319.843 153.034 319.924 152.529C320.005 152.024 319.985 151.508 319.866 151.011C319.369 148.914 317.27 147.602 315.175 148.086Z" fill="#8ABDE6"/>
<path d="M304.359 137.071C305.145 136.346 307.234 135.381 309.298 137.312" stroke="white" stroke-linecap="round"/>
<path d="M318.323 151.445C318.147 150.737 317.319 149.4 315.416 149.724" stroke="white" stroke-linecap="round"/>
<path d="M180.421 170.125L194.452 167.526L185.495 156.831C183.648 154.431 180.564 153.122 177.387 153.711C172.867 154.547 169.883 158.902 170.722 163.434C171.558 167.967 175.902 170.963 180.421 170.125Z" fill="#8ABDE6"/>
<path d="M179.984 166.924C178.37 167.114 174.938 166.44 174.119 162.224" stroke="white" stroke-linecap="round"/>
<defs>
<filter id="filter0_d_449_466" x="211.775" y="254.784" width="49.3893" height="25.5979" filterUnits="userSpaceOnUse" color-interpolation-filters="sRGB">
<feFlood flood-opacity="0" result="BackgroundImageFix"/>
<feColorMatrix in="SourceAlpha" type="matrix" values="0 0 0 0 0 0 0 0 0 0 0 0 0 0 0 0 0 0 127 0" result="hardAlpha"/>
<feOffset dx="4" dy="4"/>
<feGaussianBlur stdDeviation="5"/>
<feComposite in2="hardAlpha" operator="out"/>
<feColorMatrix type="matrix" values="0 0 0 0 0 0 0 0 0 0 0 0 0 0 0 0 0 0 0.05 0"/>
<feBlend mode="normal" in2="BackgroundImageFix" result="effect1_dropShadow_449_466"/>
<feBlend mode="normal" in="SourceGraphic" in2="effect1_dropShadow_449_466" result="shape"/>
</filter>
<filter id="filter1_d_449_466" x="245.362" y="254.784" width="49.3893" height="25.5979" filterUnits="userSpaceOnUse" color-interpolation-filters="sRGB">
<feFlood flood-opacity="0" result="BackgroundImageFix"/>
<feColorMatrix in="SourceAlpha" type="matrix" values="0 0 0 0 0 0 0 0 0 0 0 0 0 0 0 0 0 0 127 0" result="hardAlpha"/>
<feOffset dx="4" dy="4"/>
<feGaussianBlur stdDeviation="5"/>
<feComposite in2="hardAlpha" operator="out"/>
<feColorMatrix type="matrix" values="0 0 0 0 0 0 0 0 0 0 0 0 0 0 0 0 0 0 0.05 0"/>
<feBlend mode="normal" in2="BackgroundImageFix" result="effect1_dropShadow_449_466"/>
<feBlend mode="normal" in="SourceGraphic" in2="effect1_dropShadow_449_466" result="shape"/>
</filter>
<filter id="filter2_d_449_466" x="181.916" y="127.43" width="134.925" height="141.094" filterUnits="userSpaceOnUse" color-interpolation-filters="sRGB">
<feFlood flood-opacity="0" result="BackgroundImageFix"/>
<feColorMatrix in="SourceAlpha" type="matrix" values="0 0 0 0 0 0 0 0 0 0 0 0 0 0 0 0 0 0 127 0" result="hardAlpha"/>
<feOffset dy="4"/>
<feGaussianBlur stdDeviation="5"/>
<feComposite in2="hardAlpha" operator="out"/>
<feColorMatrix type="matrix" values="0 0 0 0 0 0 0 0 0 0 0 0 0 0 0 0 0 0 0.05 0"/>
<feBlend mode="normal" in2="BackgroundImageFix" result="effect1_dropShadow_449_466"/>
<feBlend mode="normal" in="SourceGraphic" in2="effect1_dropShadow_449_466" result="shape"/>
</filter>
<radialGradient id="paint0_radial_449_466" cx="0" cy="0" r="1" gradientUnits="userSpaceOnUse" gradientTransform="translate(247.864 199.905) rotate(90) scale(34.2875 35.687)">
<stop stop-color="#E2FFB1" stop-opacity="0.8"/>
<stop offset="0.364583" stop-color="#DFF3BE" stop-opacity="0.545833"/>
<stop offset="1" stop-color="#D9D9D9" stop-opacity="0"/>
</radialGradient>
<clipPath id="clip0_449_466">
<rect width="25.1031" height="12.3572" fill="white" transform="translate(235.1 192.969)"/>
</clipPath>
</defs>
</svg>
