<svg width="337" height="422" viewBox="0 0 337 422" fill="none" xmlns="http://www.w3.org/2000/svg">
<path d="M335.19 371.735C335.887 384.654 307.436 395.752 271.641 396.523C235.847 397.294 206.265 387.446 205.568 374.527C204.87 361.607 233.322 350.509 269.116 349.738C304.91 348.967 334.492 358.815 335.19 371.735Z" fill="#F2EFE7"/>
<path d="M211.335 387.633C211.339 387.707 211.211 387.773 211.15 387.851L264.76 385.199L251.779 364.65C251.779 364.65 229.289 365.988 210.063 367.209C210.067 367.284 210.266 367.349 210.27 367.438L211.27 387.636L211.335 387.633Z" fill="#FF9F80"/>
<path d="M207.646 367.271C206.55 367.417 205.728 367.533 205.376 367.627C204.138 367.856 203.782 367.218 204.007 366.507C205.232 363.721 204.982 361.297 203.643 359.155C201.482 356.126 195.484 355.89 193.204 358.652C191.757 360.231 191.108 361.877 191.045 363.54L192.082 384.501C192.339 387.396 194.264 388.61 197.44 388.529L208.735 387.971C208.735 387.971 208.68 387.836 208.676 387.76L207.662 367.27L207.646 367.271Z" fill="#A6E7BC"/>
<g filter="url(#filter0_d_680_357)">
<path d="M212.233 388.374C212.233 388.374 212.28 388.234 212.276 388.157L211.253 367.486C211.249 367.394 211.192 367.336 211.187 367.244C210.995 366.273 210.002 365.54 208.814 365.599C207.518 365.663 206.5 366.602 206.556 367.719L207.579 388.39C207.582 388.466 207.621 388.526 207.643 388.601C207.818 389.589 208.829 390.321 210.035 390.261C211.241 390.201 212.156 389.374 212.251 388.373L212.233 388.374Z" fill="#A6E7BC"/>
</g>
<path d="M332.479 97.0288L332.486 312.506L322.658 318.219L322.645 102.742L332.479 97.0288Z" fill="#F5D9A9"/>
<path d="M322.645 102.742L322.658 318.218L166.049 227.804L166.042 12.3275L322.645 102.742Z" fill="#D5B989"/>
<path d="M166.042 12.3275L166.049 227.804L10.4651 318.218L10.4581 102.742L166.042 12.3275Z" fill="#F9DFBA"/>
<path d="M10.458 102.741L10.4649 318.217L0.616667 312.532L0.609741 97.0547L10.458 102.741Z" fill="#DCC79C"/>
<path d="M332.479 97.0282L322.644 102.742L166.042 12.3278L10.458 102.742L0.609741 97.0559L166.028 0.928223L332.479 97.0282Z" fill="#DACAA9"/>
<path d="M155.438 176.129C158.357 174.444 160.736 175.8 160.746 179.153L160.862 223.804L48.2712 288.808L48.1555 244.157C48.1459 240.803 50.5096 236.709 53.4287 235.024L80.368 219.47C83.3169 217.767 85.6661 219.141 85.6758 222.494C85.6661 219.14 88.0298 215.046 90.949 213.361L117.888 197.807C120.807 196.122 123.186 197.478 123.196 200.832C123.186 197.478 125.55 193.383 128.469 191.698L155.438 176.129Z" fill="#E3C56D"/>
<path d="M37.8542 238.172C37.8445 234.818 40.2082 230.724 43.128 229.038L70.0666 213.485C71.5466 212.63 72.8756 212.551 73.8342 213.107L75.7352 214.212C76.4749 211.463 78.3725 208.69 80.6476 207.376L107.586 191.823C109.055 190.975 110.387 190.897 111.35 191.456L113.253 192.563C113.99 189.809 115.888 187.03 118.166 185.714L145.136 170.143C146.604 169.295 147.936 169.217 148.899 169.777L159.2 175.762L159.19 175.76C158.881 175.582 158.485 175.583 158.109 175.54C157.898 175.516 157.73 175.4 157.502 175.42C156.895 175.474 156.226 175.71 155.529 176.098C155.497 176.116 155.469 176.111 155.437 176.129L128.468 191.7C127.738 192.121 127.042 192.693 126.411 193.366C125.779 194.039 125.21 194.814 124.733 195.64C123.778 197.294 123.189 199.156 123.194 200.833C123.184 197.506 120.838 196.161 117.951 197.786L117.943 197.782C117.924 197.793 117.906 197.797 117.886 197.808L90.9474 213.361C88.7582 214.625 86.8813 217.244 86.0835 219.89C85.8176 220.772 85.6714 221.656 85.6742 222.494C85.6645 219.167 83.3479 217.805 80.4308 219.447L80.4239 219.443C80.4038 219.454 80.3858 219.458 80.3664 219.469L53.4271 235.022C52.6972 235.443 52.0025 236.016 51.3709 236.689C50.107 238.035 49.0958 239.787 48.5639 241.55C48.298 242.433 48.1519 243.317 48.1546 244.155L48.2606 284.957L37.9698 278.976L37.8542 238.172Z" fill="#FFE7A0"/>
<path d="M205.236 261.118L160.96 235.389L160.863 201.495L205.146 227.224L205.236 261.118Z" fill="#FFE7A0"/>
<path d="M175.945 185.627C174.337 184.692 172.111 184.823 169.658 186.24C164.781 189.055 160.845 195.887 160.861 201.491L205.144 227.225C205.128 221.621 209.064 214.79 213.94 211.974C216.394 210.557 218.62 210.427 220.227 211.361L175.945 185.627Z" fill="#FFE7A0"/>
<path d="M213.94 211.975C218.816 209.159 222.791 211.424 222.807 217.028C222.823 222.631 218.875 229.47 213.998 232.285L214.065 256.024L205.239 261.12L205.143 227.225C205.128 221.622 209.064 214.791 213.94 211.975Z" fill="#C2A13D"/>
<path d="M44.8938 292.934L44.9284 305.213L86.7592 329.522L86.7246 317.243L44.8938 292.934Z" fill="#BFBFBF"/>
<path d="M86.7244 317.244L86.759 329.523L205.236 261.119L205.208 248.839L86.7244 317.244Z" fill="#D3B354"/>
<path d="M44.8938 292.934L86.7246 317.243L205.208 248.839L163.37 224.53L44.8938 292.934Z" fill="#D3B354"/>
<path d="M166.647 257.521L166.679 270.192C168.453 270.348 170.29 270.037 171.66 269.258L203.852 250.671C205.004 249.986 205.564 249.145 205.564 248.274L205.533 235.571C205.533 236.443 204.973 237.314 203.821 237.969L171.598 256.587C170.258 257.365 168.422 257.676 166.647 257.521Z" fill="#E3C56D"/>
<path d="M127.823 279.937L127.854 292.609C129.628 292.765 131.465 292.453 132.835 291.674L165.059 273.056C166.18 272.403 166.74 271.562 166.74 270.69L166.709 257.988C166.709 258.859 166.149 259.731 164.997 260.385L132.773 278.972C131.434 279.75 129.598 280.061 127.823 279.937Z" fill="#E3C56D"/>
<path d="M85.9787 259.429C87.3306 258.648 89.1749 258.338 90.9375 258.487C90.6854 257.466 91.2263 256.399 92.5782 255.618L124.8 237.014C126.152 236.234 127.996 235.924 129.759 236.073C129.507 235.052 130.048 233.984 131.4 233.204L163.622 214.6C165.888 213.292 169.573 213.292 171.845 214.612L203.838 233.205C206.109 234.525 206.097 236.659 203.831 237.967L171.609 256.571C170.257 257.352 168.412 257.661 166.65 257.512C166.902 258.534 166.361 259.601 165.009 260.381L132.787 278.985C131.435 279.766 129.591 280.075 127.828 279.926C128.08 280.948 127.539 282.015 126.188 282.796L93.9654 301.399C91.6993 302.707 88.0142 302.707 85.7426 301.387L53.7497 282.795C51.4788 281.475 51.4905 279.34 53.7566 278.032L85.9787 259.429ZM165.015 255.619C166.378 256.41 168.597 256.41 169.969 255.619L202.191 237.015C203.543 236.235 203.55 234.949 202.187 234.158L170.194 215.565C168.831 214.773 166.612 214.773 165.261 215.553L133.038 234.157C131.667 234.948 131.659 236.234 133.022 237.026L165.015 255.619ZM87.3923 300.434C88.7545 301.226 90.9742 301.226 92.3254 300.446L124.548 281.843C125.919 281.051 125.906 279.777 124.544 278.985L92.5512 260.393C91.1882 259.601 88.9893 259.589 87.618 260.381L55.3959 278.984C54.044 279.765 54.0371 281.05 55.3993 281.842L87.3923 300.434ZM126.214 278.02C127.576 278.812 129.776 278.824 131.147 278.032L163.369 259.429C164.721 258.648 164.728 257.363 163.366 256.571L131.373 237.978C130.01 237.187 127.791 237.187 126.44 237.967L94.2175 256.57C92.8462 257.362 92.8587 258.636 94.2209 259.428L126.214 278.02Z" fill="#E1C778"/>
<path d="M133.039 234.157C131.667 234.948 131.66 236.234 133.023 237.026L165.016 255.618C166.379 256.41 168.598 256.41 169.969 255.618L202.191 237.015C203.543 236.234 203.55 234.949 202.188 234.157L170.195 215.565C168.832 214.773 166.613 214.773 165.262 215.553L133.039 234.157ZM94.2172 256.571C92.8459 257.362 92.8584 258.637 94.2206 259.428L126.214 278.021C127.576 278.812 129.775 278.824 131.147 278.033L163.369 259.429C164.721 258.648 164.728 257.363 163.365 256.571L131.372 237.979C130.009 237.187 127.791 237.187 126.439 237.967L94.2172 256.571ZM55.3956 278.984C54.0437 279.765 54.0368 281.05 55.3991 281.842L87.392 300.434C88.7549 301.226 90.9739 301.226 92.3251 300.446L124.547 281.842C125.918 281.051 125.906 279.776 124.544 278.985L92.5509 260.392C91.1879 259.601 88.989 259.589 87.6177 260.38L55.3956 278.984Z" fill="#FFE391"/>
<path d="M52.0436 280.434L52.0747 293.106C52.1059 293.978 52.6662 294.818 53.7868 295.473L85.7921 314.091C88.0651 315.398 91.7385 315.398 94.0115 314.091L126.235 295.473C127.356 294.819 127.916 293.978 127.916 293.106L127.885 280.404C127.885 281.276 127.324 282.147 126.173 282.801L93.9803 301.388C91.7073 302.695 88.0028 302.695 85.7298 301.388L53.7556 282.801C52.6039 282.147 52.0436 281.275 52.0436 280.434Z" fill="#E3C56D"/>
<path d="M77.9219 334.626L33.6394 308.89L33.5702 285.156L77.8526 310.885L77.9219 334.626Z" fill="#D3B354"/>
<path d="M170.58 88.2196L142.642 71.9859L145.191 70.5107L173.122 86.7444L170.58 88.2196Z" fill="#A7763D"/>
<path d="M170.906 117.472L142.975 101.245L142.642 71.9847L170.58 88.2184L170.906 117.472Z" fill="#957137"/>
<path d="M173.122 86.7441L173.455 115.998L170.892 117.473L170.581 88.2193L173.122 86.7441Z" fill="#996323"/>
<path d="M114.344 147.226L86.281 130.937L142.815 98.2549L170.753 114.489L114.344 147.226Z" fill="#B59155"/>
<path d="M114.344 147.226L114.358 150.156L170.754 117.432V114.489L114.344 147.226Z" fill="#996323"/>
<path d="M119.912 107.68L143.085 121.143L164.208 108.947L141.035 95.4836L119.912 107.68Z" fill="white"/>
<path d="M119.912 107.679L119.919 113.386L143.092 126.849L143.085 121.143L119.912 107.679Z" fill="#AFAFB0"/>
<path d="M143.085 121.143L143.092 126.849L164.215 114.653L164.208 108.947L143.085 121.143Z" fill="#D7D7D7"/>
<path d="M114.025 120.896L86.108 104.662L142.642 71.9868L170.58 88.2205L114.025 120.896Z" fill="#B59155"/>
<path d="M114.025 120.903L114.039 123.833L170.58 91.1579V88.2214L114.025 120.903Z" fill="#996323"/>
<path d="M111.477 122.37L83.546 106.136L86.0946 104.661L114.026 120.894L111.477 122.37Z" fill="#A7763D"/>
<path d="M111.809 151.63L83.8785 135.396L83.546 106.136L111.477 122.369L111.809 151.63Z" fill="#B59155"/>
<path d="M114.025 120.895L114.358 150.156L111.795 151.631L111.477 122.37L114.025 120.895Z" fill="#996323"/>
<path d="M317.265 145.037L317.252 150.695L289.535 166.804L289.549 161.139L317.265 145.037Z" fill="#835A29"/>
<path d="M289.549 161.14L289.535 166.805L191.995 110.486L192.008 104.827L289.549 161.14Z" fill="#AD7A3F"/>
<path d="M317.265 145.037L289.549 161.139L192.009 104.827L219.725 88.718L317.265 145.037Z" fill="#B59155"/>
<path d="M203.228 79.6527L203.311 106.517L217.91 98.0887L217.827 71.2242L203.228 79.6527Z" fill="#FF6C3E"/>
<path d="M203.228 81.3849L206.912 83.518L221.511 75.0895L217.827 72.9564L203.228 81.3849Z" fill="white"/>
<path d="M203.228 79.6519L203.311 106.516L206.988 108.656L206.912 81.7849L203.228 79.6519Z" fill="#C4C4C5"/>
<path d="M206.912 81.7857L206.988 108.657L221.588 100.229L221.511 73.3572L206.912 81.7857Z" fill="#888888"/>
<path d="M206.898 83.2118L206.981 110.083L222.813 100.941L222.73 74.0699L206.898 83.2118Z" fill="#FF6C3E"/>
<path d="M200.776 79.6519L200.852 106.516L206.981 110.083L206.898 83.2116L200.776 79.6519Z" fill="#EA4335"/>
<path d="M216.608 70.5117L200.776 79.6535L206.898 83.2133L222.73 74.0715L221.511 73.3581L206.912 81.7866L203.228 79.6535L217.827 71.2251L216.608 70.5117Z" fill="#EF655A"/>
<path d="M212.945 85.4216L213.028 112.286L227.628 103.858L227.544 76.9932L212.945 85.4216Z" fill="#FF6C3E"/>
<path d="M212.945 87.1528L216.623 89.2859L231.222 80.8575L227.544 78.7244L212.945 87.1528Z" fill="white"/>
<path d="M212.945 85.4219L213.028 112.286L216.706 114.426L216.623 87.555L212.945 85.4219Z" fill="#C4C4C5"/>
<path d="M216.622 87.5557L216.705 114.427L231.305 105.999L231.222 79.1272L216.622 87.5557Z" fill="#888888"/>
<path d="M216.616 88.9807L216.699 115.845L232.531 106.71L232.448 79.8389L216.616 88.9807Z" fill="#FF6C3E"/>
<path d="M210.486 85.4219L210.569 112.286L216.699 115.846L216.616 88.9816L210.486 85.4219Z" fill="#EA4335"/>
<path d="M226.318 76.2804L210.486 85.4222L216.615 88.982L232.447 79.8402L231.221 79.1268L216.622 87.5553L212.945 85.4222L227.544 76.9937L226.318 76.2804Z" fill="#EF655A"/>
<path d="M222.661 91.1887L222.744 118.053L237.337 109.625L237.26 82.7603L222.661 91.1887Z" fill="#FF6C3E"/>
<path d="M222.661 92.9209L226.339 95.054L240.938 86.6255L237.26 84.4924L222.661 92.9209Z" fill="white"/>
<path d="M222.661 91.1877L222.744 118.052L226.422 120.192L226.339 93.3208L222.661 91.1877Z" fill="#C4C4C5"/>
<path d="M226.338 93.3217L226.421 120.193L241.021 111.765L240.938 84.8932L226.338 93.3217Z" fill="#888888"/>
<path d="M226.332 94.7477L226.415 121.619L242.24 112.477L242.164 85.6058L226.332 94.7477Z" fill="#FF6C3E"/>
<path d="M220.202 91.1877L220.285 118.052L226.415 121.619L226.331 94.7475L220.202 91.1877Z" fill="#EA4335"/>
<path d="M236.034 82.0475L220.202 91.1893L226.331 94.7491L242.163 85.6073L240.938 84.8939L226.338 93.3224L222.661 91.1893L237.26 82.7608L236.034 82.0475Z" fill="#EF655A"/>
<path d="M232.37 96.9531L232.453 123.824L247.053 115.396L246.97 88.5315L232.37 96.9531Z" fill="#FF6C3E"/>
<path d="M232.37 98.6912L236.055 100.824L250.654 92.3958L246.97 90.2627L232.37 98.6912Z" fill="white"/>
<path d="M232.37 96.9529L232.453 123.824L236.131 125.964L236.055 99.0929L232.37 96.9529Z" fill="#C4C4C5"/>
<path d="M236.055 99.0919L236.131 125.963L250.731 117.535L250.654 90.6635L236.055 99.0919Z" fill="#888888"/>
<path d="M236.048 100.52L236.124 127.384L251.956 118.25L251.873 91.3782L236.048 100.52Z" fill="#FF6C3E"/>
<path d="M229.918 96.9529L230.001 123.824L236.124 127.384L236.047 100.52L229.918 96.9529Z" fill="#EA4335"/>
<path d="M245.75 87.8177L229.918 96.9526L236.047 100.519L251.872 91.3775L250.654 90.6642L236.054 99.0927L232.37 96.9526L246.969 88.5311L245.75 87.8177Z" fill="#EF655A"/>
<path d="M247.613 110.381L247.682 132.405L259.65 125.493L259.581 103.469L247.613 110.381Z" fill="#ADB5FA"/>
<path d="M247.613 111.8L250.633 113.553L262.6 106.641L259.581 104.889L247.613 111.8Z" fill="white"/>
<path d="M247.613 110.382L247.682 132.405L250.702 134.157L250.633 112.134L247.613 110.382Z" fill="#C4C4C5"/>
<path d="M250.632 112.133L250.701 134.156L262.662 127.245L262.6 105.221L250.632 112.133Z" fill="#888888"/>
<path d="M250.626 113.297L250.695 135.328L263.667 127.834L263.605 105.804L250.626 113.297Z" fill="#ADB5FA"/>
<path d="M245.604 110.382L245.667 132.405L250.695 135.328L250.626 113.297L245.604 110.382Z" fill="#7C85D2"/>
<path d="M258.576 102.887L245.604 110.38L250.626 113.296L263.604 105.803L262.6 105.221L250.633 112.133L247.613 110.38L259.58 103.469L258.576 102.887Z" fill="#5360CD"/>
<path d="M261.679 113.857L261.762 140.728L276.362 132.3L276.279 105.428L261.679 113.857Z" fill="#FFD36A"/>
<path d="M261.679 115.589L265.357 117.729L279.956 109.301L276.279 107.161L261.679 115.589Z" fill="white"/>
<path d="M261.679 113.856L261.762 140.727L265.44 142.86L265.357 115.996L261.679 113.856Z" fill="#C4C4C5"/>
<path d="M265.356 115.997L265.44 142.861L280.039 134.433L279.956 107.568L265.356 115.997Z" fill="#733333"/>
<path d="M265.35 117.416L265.433 144.287L281.265 135.145L281.182 108.274L265.35 117.416Z" fill="#FFD36A"/>
<path d="M259.22 113.856L259.304 140.727L265.433 144.287L265.35 117.416L259.22 113.856Z" fill="#EDB633"/>
<path d="M275.052 104.716L259.22 113.858L265.35 117.417L281.182 108.276L279.956 107.569L265.357 115.998L261.679 113.858L276.278 105.429L275.052 104.716Z" fill="#C2972F"/>
<path d="M271.396 119.627L271.479 146.498L286.072 138.07L285.996 111.198L271.396 119.627Z" fill="#FFD36A"/>
<path d="M271.396 121.359L275.074 123.499L289.673 115.071L285.996 112.931L271.396 121.359Z" fill="white"/>
<path d="M271.396 119.627L271.479 146.498L275.157 148.631L275.074 121.767L271.396 119.627Z" fill="#C4C4C5"/>
<path d="M275.073 121.767L275.157 148.631L289.756 140.203L289.673 113.339L275.073 121.767Z" fill="#733333"/>
<path d="M275.067 123.187L275.15 150.058L290.982 140.916L290.899 114.045L275.067 123.187Z" fill="#FFD36A"/>
<path d="M268.938 119.627L269.021 146.498L275.15 150.058L275.067 123.187L268.938 119.627Z" fill="#EDB633"/>
<path d="M284.77 110.485L268.938 119.627L275.067 123.187L290.899 114.045L289.673 113.339L275.074 121.767L271.396 119.627L285.995 111.199L284.77 110.485Z" fill="#C2972F"/>
<path d="M281.106 125.397L281.189 152.268L295.788 143.84L295.705 116.969L281.106 125.397Z" fill="#FFD36A"/>
<path d="M281.106 127.128L284.791 129.268L299.39 120.84L295.705 118.7L281.106 127.128Z" fill="white"/>
<path d="M281.106 125.397L281.189 152.269L284.867 154.402L284.791 127.537L281.106 125.397Z" fill="#C4C4C5"/>
<path d="M284.791 127.536L284.867 154.401L299.466 145.972L299.39 119.108L284.791 127.536Z" fill="#733333"/>
<path d="M284.783 128.957L284.859 155.828L300.691 146.687L300.615 119.815L284.783 128.957Z" fill="#FFD36A"/>
<path d="M278.654 125.397L278.737 152.269L284.859 155.828L284.783 128.957L278.654 125.397Z" fill="#EDB633"/>
<path d="M294.486 116.255L278.654 125.397L284.783 128.956L300.615 119.815L299.389 119.108L284.79 127.537L281.106 125.397L295.705 116.968L294.486 116.255Z" fill="#C2972F"/>
<path d="M183.46 233.148L166.507 223.296C166.802 223.468 166.988 223.831 166.989 224.353C166.991 224.872 166.808 225.448 166.514 225.961C166.217 226.475 165.809 226.922 165.355 227.185L182.309 237.037C182.763 236.775 183.171 236.327 183.468 235.813C183.762 235.3 183.945 234.724 183.943 234.205C183.942 233.683 183.756 233.32 183.46 233.148ZM153.89 233.998C153.89 234.051 153.91 234.09 153.943 234.109L170.897 243.962C170.863 243.943 170.844 243.905 170.844 243.851C170.844 243.746 170.921 243.611 171.017 243.558L171.334 243.37L182.309 237.037L165.355 227.185L154.38 233.517L154.063 233.705C153.968 233.758 153.89 233.892 153.89 233.998Z" fill="#FF6C3E"/>
<path d="M170.775 239.279L154.375 229.749L154.382 233.517L170.782 243.053L170.775 239.279Z" fill="#D7D7D7"/>
<path d="M182.299 233.268L165.345 223.412L154.375 229.749L171.329 239.604L182.299 233.268Z" fill="#2C703E"/>
<path d="M182.297 232.871L181.956 233.068L165.344 223.414C165.798 223.152 166.208 223.124 166.507 223.294L182.68 232.693C182.556 232.737 182.428 232.796 182.297 232.871Z" fill="#2C703E"/>
<path d="M170.775 239.281L170.786 243.05L181.757 236.715C182.212 236.453 182.619 236.006 182.917 235.491C183.21 234.979 183.394 234.402 183.392 233.884C183.39 233.361 183.205 232.998 182.909 232.826C182.61 232.656 182.201 232.683 181.746 232.946L170.775 239.281Z" fill="white"/>
<path d="M153.88 229.837C153.88 229.89 153.9 229.929 153.928 229.948L170.882 239.801C170.853 239.782 170.834 239.744 170.834 239.69C170.834 239.58 170.911 239.445 171.003 239.392L182.294 232.873C182.847 232.556 183.343 232.527 183.703 232.734L166.75 222.881C166.389 222.673 165.893 222.703 165.34 223.02L154.049 229.539C153.957 229.597 153.88 229.726 153.88 229.837Z" fill="#FF6C3E"/>
<path d="M171.005 239.392C170.91 239.446 170.833 239.579 170.833 239.689C170.833 239.798 170.91 239.842 171.005 239.787L171.325 239.603L182.296 233.268C182.75 233.006 183.16 232.978 183.459 233.148C183.755 233.321 183.94 233.684 183.942 234.206C183.943 234.725 183.76 235.301 183.467 235.813C183.169 236.328 182.762 236.775 182.307 237.038L171.336 243.373L171.016 243.557C170.922 243.611 170.845 243.744 170.845 243.85C170.845 243.96 170.922 244.003 171.017 243.949L182.309 237.43C183.402 236.798 184.287 235.266 184.283 234.009C184.28 232.749 183.389 232.242 182.295 232.873L171.005 239.392Z" fill="#BC362B"/>
<path d="M165.34 223.021C165.893 222.704 166.389 222.675 166.749 222.882L183.703 232.735C183.343 232.528 182.847 232.557 182.294 232.874L181.137 233.542L164.183 223.688L165.34 223.021Z" fill="#3D3D3D"/>
<path d="M155.955 251.911C158.938 254.084 159.594 258.264 157.421 261.247C155.248 264.23 151.068 264.886 148.085 262.713L124.425 245.474C121.442 243.301 120.786 239.121 122.959 236.139C125.133 233.156 129.312 232.5 132.295 234.673L155.955 251.911Z" fill="#ADB5FA"/>
<path d="M107.564 296.011C107.625 295.989 107.689 296.013 107.758 296.012L101.469 278.655L85.4918 288.816C85.4918 288.816 88.3155 296.034 90.7936 302.183C90.855 302.16 90.8934 302.075 90.9671 302.048L107.571 296.032L107.564 296.011Z" fill="#ADB5FA"/>
<g filter="url(#filter1_d_680_357)">
<path d="M107.906 294.942C107.906 294.942 107.776 294.938 107.714 294.961L90.7201 301.118C90.6446 301.146 90.6104 301.208 90.535 301.236C89.7735 301.645 89.4166 302.662 89.7704 303.638C90.1564 304.704 91.2017 305.313 92.1193 304.98L109.113 298.823C109.176 298.8 109.215 298.752 109.273 298.715C110.052 298.315 110.404 297.284 110.045 296.292C109.685 295.301 108.76 294.749 107.9 294.927L107.906 294.942Z" fill="#A6E7BC"/>
</g>
<path d="M114.659 293.419C114.597 293.441 114.567 293.511 114.515 293.559L106.828 272.345L125.917 270.771C125.917 270.771 128.959 279.741 131.497 287.435C131.435 287.457 131.346 287.402 131.272 287.429L114.668 293.445L114.659 293.419Z" fill="#ADB5FA"/>
<path d="M132.262 289.401C132.515 290.332 132.699 291.034 132.742 291.349C132.976 292.423 133.609 292.494 134.107 292.074C135.937 290.146 137.973 289.529 140.15 289.884C143.32 290.601 145.536 295.352 144.082 298.121C143.298 299.82 142.192 300.898 140.874 301.511L123.642 307.754C121.224 308.525 119.596 307.385 118.588 304.8L115.224 295.514C115.224 295.514 115.351 295.513 115.413 295.491L132.258 289.387L132.262 289.401Z" fill="#A6E7BC"/>
<g filter="url(#filter2_d_680_357)">
<path d="M113.718 292.834C113.718 292.834 113.815 292.749 113.878 292.726L130.872 286.569C130.947 286.542 131.013 286.568 131.089 286.54C131.936 286.367 132.861 286.919 133.215 287.896C133.601 288.961 133.188 290.098 132.271 290.431L115.277 296.588C115.214 296.611 115.153 296.599 115.085 296.607C114.231 296.8 113.3 296.233 112.941 295.242C112.582 294.25 112.939 293.234 113.713 292.82L113.718 292.834Z" fill="#A6E7BC"/>
</g>
<g filter="url(#filter3_d_680_357)">
<path fill-rule="evenodd" clip-rule="evenodd" d="M61.8896 215.889C68.3934 207.632 74.8922 206.977 78.9318 210.813C79.8813 211.715 82.2017 212.618 83.8868 209.018C85.0917 205.467 92.4563 196.57 109.404 207.246L109.253 207.126C119.798 213.85 128.61 226.09 137.491 245.736C145.119 262.616 145.639 264.923 143.249 271.329C139.853 280.429 133.571 282.556 124.818 277.563L117.818 273.57L116.208 280.683C114.234 289.394 106.109 292.804 98.1484 288.263C92.3451 284.952 92.2332 284.993 90.2827 291.113C87.6791 299.287 79.7966 301.883 71.6639 297.244C65.8083 293.903 64.5691 291.578 59.9379 275.256C53.4963 252.553 54.2667 228.004 61.7949 216.038C61.8262 215.989 61.8578 215.939 61.8896 215.889Z" fill="#ADB5FA"/>
</g>
<path d="M119.232 243.276C123.965 256.339 116.78 270.923 103.184 275.849C89.5872 280.776 74.728 274.18 69.9947 261.117C65.2614 248.053 72.4464 233.47 86.0429 228.543C99.6393 223.617 114.499 230.213 119.232 243.276Z" fill="url(#paint0_radial_680_357)"/>
<path d="M87.1799 242.81C87.9342 244.892 86.8581 247.191 84.7762 247.946C82.6944 248.7 80.3952 247.624 79.6409 245.542C78.8865 243.46 79.9627 241.161 82.0446 240.407C84.1264 239.652 86.4256 240.729 87.1799 242.81Z" fill="black"/>
<path d="M84.4399 243.093C84.5656 243.44 84.9488 243.619 85.2958 243.493C85.6427 243.368 85.8221 242.984 85.6964 242.637C85.5707 242.29 85.1875 242.111 84.8405 242.237C84.4935 242.363 84.3142 242.746 84.4399 243.093Z" fill="white"/>
<path d="M101.002 237.802C101.756 239.884 100.68 242.183 98.5982 242.937C96.5164 243.691 94.2172 242.615 93.4629 240.533C92.7086 238.452 93.7847 236.152 95.8666 235.398C97.9484 234.644 100.248 235.72 101.002 237.802Z" fill="black"/>
<path d="M98.2614 238.085C98.3871 238.432 98.7703 238.611 99.1173 238.486C99.4643 238.36 99.6436 237.977 99.5179 237.63C99.3922 237.283 99.009 237.104 98.662 237.229C98.3151 237.355 98.1357 237.738 98.2614 238.085Z" fill="white"/>
<path fill-rule="evenodd" clip-rule="evenodd" d="M79.4447 238.341C79.0695 238.653 78.8845 238.926 78.8377 239.102C78.7666 239.369 78.4927 239.527 78.2259 239.456C77.959 239.385 77.8003 239.111 77.8713 238.844C77.998 238.369 78.3743 237.93 78.8058 237.572C79.2521 237.201 79.822 236.863 80.4388 236.604C81.6442 236.097 83.177 235.836 84.3688 236.426C84.6163 236.548 84.7177 236.848 84.5953 237.096C84.4728 237.343 84.1729 237.445 83.9254 237.322C83.1211 236.924 81.9311 237.061 80.826 237.526C80.2874 237.752 79.8051 238.042 79.4447 238.341Z" fill="black"/>
<path fill-rule="evenodd" clip-rule="evenodd" d="M93.7818 233.135C93.4933 233.407 93.3579 233.65 93.3282 233.815C93.2794 234.087 93.0195 234.268 92.7477 234.219C92.4759 234.17 92.2951 233.91 92.344 233.639C92.4274 233.174 92.7326 232.749 93.0963 232.407C93.4693 232.056 93.9515 231.745 94.4783 231.518C95.511 231.072 96.8504 230.894 97.9244 231.551C98.1599 231.696 98.2339 232.004 98.0896 232.239C97.9454 232.475 97.6375 232.548 97.4021 232.404C96.7214 231.987 95.7603 232.054 94.8747 232.436C94.4423 232.623 94.0609 232.872 93.7818 233.135Z" fill="black"/>
<path d="M90.8615 250.423L91.3515 251.776C91.6436 252.582 94.219 251.649 93.927 250.843L93.4369 249.49L90.8615 250.423Z" fill="white"/>
<path d="M94.0852 249.255L94.5753 250.608C94.8673 251.414 97.4428 250.481 97.1508 249.675L96.6607 248.322L94.0852 249.255Z" fill="white"/>
<path fill-rule="evenodd" clip-rule="evenodd" d="M88.3293 249.424C88.589 249.33 88.8757 249.465 88.9698 249.724C89.0085 249.831 89.103 249.941 89.3455 250.026C89.5968 250.114 89.9587 250.154 90.4215 250.131C91.3425 250.085 92.523 249.797 93.6784 249.364C94.8329 248.932 95.9184 248.371 96.6569 247.807C97.0285 247.524 97.2853 247.26 97.4267 247.034C97.5669 246.81 97.5586 246.687 97.5347 246.621C97.4406 246.361 97.5748 246.074 97.8345 245.98C98.0941 245.886 98.3808 246.02 98.4749 246.28C98.6422 246.742 98.5065 247.194 98.2741 247.565C98.0429 247.934 97.6819 248.283 97.2637 248.602C96.4229 249.244 95.2416 249.847 94.0292 250.301C92.8175 250.755 91.5308 251.077 90.4714 251.13C89.944 251.156 89.4374 251.118 89.0154 250.97C88.5844 250.819 88.2007 250.537 88.0296 250.065C87.9355 249.805 88.0697 249.518 88.3293 249.424Z" fill="#010101"/>
<path d="M77.7987 290.577C82.6751 287.761 86.6497 290.026 86.6656 295.629L86.7619 329.524L77.9241 334.627L77.8569 310.888C72.9806 313.703 69.006 311.439 68.99 305.835C68.9741 300.231 72.9224 293.392 77.7987 290.577Z" fill="#C2A13D"/>
<path d="M39.803 264.229C38.1955 263.294 35.9703 263.425 33.5159 264.842C28.6396 267.657 24.6913 274.496 24.7072 280.099C24.7148 282.883 25.6996 284.843 27.287 285.765L71.5694 311.5C69.9821 310.577 68.9979 308.618 68.9896 305.834C68.9737 300.23 72.922 293.391 77.7983 290.576C80.2521 289.159 82.478 289.029 84.0854 289.963L39.803 264.229Z" fill="#FFE7A0"/>
<path d="M329.523 357.667C331.893 361.181 330.966 365.95 327.453 368.321C323.939 370.691 319.17 369.765 316.799 366.251L297.996 338.381C295.626 334.868 296.553 330.098 300.066 327.727C303.58 325.357 308.349 326.284 310.72 329.797L329.523 357.667Z" fill="#FF9F80"/>
<path d="M198.412 357.667C196.042 361.181 196.968 365.95 200.482 368.321C203.995 370.691 208.765 369.765 211.136 366.251L229.939 338.381C232.309 334.868 231.382 330.098 227.869 327.727C224.355 325.357 219.586 326.284 217.215 329.797L198.412 357.667Z" fill="#FF9F80"/>
<path d="M244.674 404.483C244.7 404.549 244.56 404.663 244.505 404.759L297.664 373.236L282.387 358.525C282.387 358.525 260.983 377.284 237.496 386.413C237.521 386.48 237.786 386.456 237.816 386.536L244.595 404.513L244.674 404.483Z" fill="#FF9F80"/>
<path d="M234.851 386.247C233.852 386.721 233.106 387.083 232.799 387.28C231.691 387.877 231.157 387.38 231.153 386.633C231.466 383.606 230.486 381.375 228.556 379.746C225.57 377.524 219.789 379.135 218.463 382.463C217.569 384.409 217.456 386.174 217.904 387.777L225.309 407.414C226.44 410.092 228.645 410.658 231.643 409.609L242.225 405.619C242.225 405.619 242.131 405.508 242.104 405.437L234.866 386.241L234.851 386.247Z" fill="#A6E7BC"/>
<g filter="url(#filter4_d_680_357)">
<path d="M245.678 404.933C245.678 404.933 245.68 404.785 245.653 404.714L238.351 385.348C238.318 385.262 238.246 385.224 238.214 385.138C237.733 384.272 236.564 383.878 235.451 384.298C234.237 384.756 233.556 385.962 233.95 387.007L241.252 406.373C241.279 406.445 241.334 406.489 241.378 406.554C241.847 407.441 243.033 407.828 244.163 407.402C245.293 406.976 245.911 405.909 245.695 404.927L245.678 404.933Z" fill="#A6E7BC"/>
</g>
<g filter="url(#filter5_d_680_357)">
<path fill-rule="evenodd" clip-rule="evenodd" d="M242.178 282.188C252.408 275.825 259.666 277.653 262.52 283.362C263.191 284.703 265.336 286.58 268.555 283.362C271.237 280.009 282.636 273.304 296.717 291.408L296.599 291.218C305.33 302.57 310.041 319.185 311.94 343.8C313.567 364.948 313.227 367.635 308.155 373.599C300.95 382.071 293.357 381.91 285.882 373.121L279.903 366.091L275.395 373.121C269.872 381.729 259.794 382.231 252.996 374.236C248.039 368.409 247.903 368.409 243.416 374.236C237.424 382.021 227.925 381.741 220.98 373.574C215.979 367.694 215.552 364.707 216.933 345.328C218.854 318.374 229.26 292.246 242.032 282.301C242.08 282.263 242.129 282.225 242.178 282.188Z" fill="#FF9F80"/>
</g>
<path d="M293.242 334.03C293.242 349.94 279.818 362.838 263.258 362.838C246.699 362.838 233.275 349.94 233.275 334.03C233.275 318.12 246.699 305.223 263.258 305.223C279.818 305.223 293.242 318.12 293.242 334.03Z" fill="url(#paint1_radial_680_357)"/>
<path d="M258.916 321.028C258.916 323.563 256.86 325.619 254.325 325.619C251.789 325.619 249.734 323.563 249.734 321.028C249.734 318.492 251.789 316.437 254.325 316.437C256.86 316.437 258.916 318.492 258.916 321.028Z" fill="black"/>
<path d="M255.855 320.263C255.855 320.686 256.198 321.029 256.621 321.029C257.043 321.029 257.386 320.686 257.386 320.263C257.386 319.841 257.043 319.498 256.621 319.498C256.198 319.498 255.855 319.841 255.855 320.263Z" fill="white"/>
<path d="M275.749 321.028C275.749 323.563 273.694 325.619 271.158 325.619C268.623 325.619 266.567 323.563 266.567 321.028C266.567 318.492 268.623 316.437 271.158 316.437C273.694 316.437 275.749 318.492 275.749 321.028Z" fill="black"/>
<path d="M272.688 320.263C272.688 320.686 273.031 321.029 273.454 321.029C273.876 321.029 274.219 320.686 274.219 320.263C274.219 319.841 273.876 319.498 273.454 319.498C273.031 319.498 272.688 319.841 272.688 320.263Z" fill="white"/>
<path fill-rule="evenodd" clip-rule="evenodd" d="M252.308 313.129C251.778 313.32 251.455 313.548 251.323 313.738C251.165 313.965 250.854 314.021 250.627 313.863C250.4 313.705 250.344 313.394 250.502 313.167C250.811 312.723 251.37 312.404 251.97 312.188C252.587 311.966 253.326 311.825 254.084 311.787C255.572 311.713 257.297 312.03 258.329 313.107C258.52 313.306 258.513 313.623 258.313 313.814C258.114 314.005 257.797 313.998 257.606 313.798C256.874 313.034 255.513 312.717 254.134 312.786C253.46 312.82 252.821 312.945 252.308 313.129Z" fill="black"/>
<path fill-rule="evenodd" clip-rule="evenodd" d="M269.769 313.118C269.346 313.3 269.089 313.518 268.982 313.703C268.843 313.942 268.537 314.023 268.298 313.885C268.059 313.746 267.978 313.44 268.117 313.202C268.377 312.753 268.855 312.423 269.373 312.2C269.903 311.971 270.535 311.826 271.183 311.787C272.457 311.711 273.94 312.039 274.819 313.14C274.991 313.356 274.956 313.671 274.74 313.843C274.524 314.015 274.21 313.98 274.037 313.764C273.446 313.024 272.357 312.719 271.243 312.785C270.697 312.818 270.181 312.94 269.769 313.118Z" fill="black"/>
<g clip-path="url(#clip0_680_357)">
<path d="M253.443 334.551C257.577 339.736 268.439 340.114 272.86 334.551C273.472 333.632 273.646 332.539 273.625 331.376C273.339 329.191 271.196 328.16 269.297 328.201C268.041 328.18 267.469 328.589 266.806 329.048L266.806 331.161C266.806 333.54 259.956 333.795 259.956 331.161L259.956 329.211C258.884 328.681 257.822 328.16 256.505 328.201C254.678 328.18 252.953 329.232 252.565 331.08C252.453 332.09 252.524 333.54 253.433 334.54L253.443 334.551Z" fill="#020304"/>
<path d="M266.816 331.161L266.816 329.048C266.122 329.528 265.326 330.069 263.539 330.222C262.161 330.283 261.059 329.742 259.977 329.211L259.977 331.161C259.977 333.795 266.827 333.54 266.827 331.161L266.816 331.161Z" fill="white"/>
<path d="M257.747 337.559C258.817 336.553 265.005 334.97 268.675 337.559C265.283 339.067 261.05 338.94 257.747 337.559Z" fill="#FF3838"/>
</g>
<path d="M49.2677 290.568C48.3694 294.148 50.5429 297.778 54.1223 298.676C57.7018 299.574 61.3318 297.401 62.2302 293.821L69.3563 265.428C70.2546 261.848 68.0812 258.218 64.5017 257.32C60.9222 256.422 57.2922 258.595 56.3938 262.175L49.2677 290.568Z" fill="#ADB5FA"/>
<path d="M91.4659 304.183C91.8686 305.061 92.1769 305.717 92.3453 305.987C92.8538 306.961 92.4133 307.422 91.7618 307.417C89.1218 307.11 87.1625 307.94 85.7182 309.607C83.7437 312.189 85.0853 317.256 87.9762 318.451C89.6655 319.254 91.206 319.373 92.6104 318.999L109.842 312.755C112.193 311.798 112.713 309.879 111.831 307.249L108.466 297.964C108.466 297.964 108.368 298.044 108.306 298.067L91.4611 304.17L91.4659 304.183Z" fill="#A6E7BC"/>
<defs>
<filter id="filter0_d_680_357" x="200.553" y="359.596" width="25.7228" height="44.6687" filterUnits="userSpaceOnUse" color-interpolation-filters="sRGB">
<feFlood flood-opacity="0" result="BackgroundImageFix"/>
<feColorMatrix in="SourceAlpha" type="matrix" values="0 0 0 0 0 0 0 0 0 0 0 0 0 0 0 0 0 0 127 0" result="hardAlpha"/>
<feOffset dx="4" dy="4"/>
<feGaussianBlur stdDeviation="5"/>
<feComposite in2="hardAlpha" operator="out"/>
<feColorMatrix type="matrix" values="0 0 0 0 0 0 0 0 0 0 0 0 0 0 0 0 0 0 0.05 0"/>
<feBlend mode="normal" in2="BackgroundImageFix" result="effect1_dropShadow_680_357"/>
<feBlend mode="normal" in="SourceGraphic" in2="effect1_dropShadow_680_357" result="shape"/>
</filter>
<filter id="filter1_d_680_357" x="83.6332" y="288.894" width="40.5525" height="30.1772" filterUnits="userSpaceOnUse" color-interpolation-filters="sRGB">
<feFlood flood-opacity="0" result="BackgroundImageFix"/>
<feColorMatrix in="SourceAlpha" type="matrix" values="0 0 0 0 0 0 0 0 0 0 0 0 0 0 0 0 0 0 127 0" result="hardAlpha"/>
<feOffset dx="4" dy="4"/>
<feGaussianBlur stdDeviation="5"/>
<feComposite in2="hardAlpha" operator="out"/>
<feColorMatrix type="matrix" values="0 0 0 0 0 0 0 0 0 0 0 0 0 0 0 0 0 0 0.05 0"/>
<feBlend mode="normal" in2="BackgroundImageFix" result="effect1_dropShadow_680_357"/>
<feBlend mode="normal" in="SourceGraphic" in2="effect1_dropShadow_680_357" result="shape"/>
</filter>
<filter id="filter2_d_680_357" x="106.801" y="280.509" width="40.5587" height="30.1357" filterUnits="userSpaceOnUse" color-interpolation-filters="sRGB">
<feFlood flood-opacity="0" result="BackgroundImageFix"/>
<feColorMatrix in="SourceAlpha" type="matrix" values="0 0 0 0 0 0 0 0 0 0 0 0 0 0 0 0 0 0 127 0" result="hardAlpha"/>
<feOffset dx="4" dy="4"/>
<feGaussianBlur stdDeviation="5"/>
<feComposite in2="hardAlpha" operator="out"/>
<feColorMatrix type="matrix" values="0 0 0 0 0 0 0 0 0 0 0 0 0 0 0 0 0 0 0.05 0"/>
<feBlend mode="normal" in2="BackgroundImageFix" result="effect1_dropShadow_680_357"/>
<feBlend mode="normal" in="SourceGraphic" in2="effect1_dropShadow_680_357" result="shape"/>
</filter>
<filter id="filter3_d_680_357" x="45.5814" y="196.161" width="108.932" height="117.372" filterUnits="userSpaceOnUse" color-interpolation-filters="sRGB">
<feFlood flood-opacity="0" result="BackgroundImageFix"/>
<feColorMatrix in="SourceAlpha" type="matrix" values="0 0 0 0 0 0 0 0 0 0 0 0 0 0 0 0 0 0 127 0" result="hardAlpha"/>
<feOffset dy="4"/>
<feGaussianBlur stdDeviation="5"/>
<feComposite in2="hardAlpha" operator="out"/>
<feColorMatrix type="matrix" values="0 0 0 0 0 0 0 0 0 0 0 0 0 0 0 0 0 0 0.05 0"/>
<feBlend mode="normal" in2="BackgroundImageFix" result="effect1_dropShadow_680_357"/>
<feBlend mode="normal" in="SourceGraphic" in2="effect1_dropShadow_680_357" result="shape"/>
</filter>
<filter id="filter4_d_680_357" x="227.838" y="378.129" width="31.8995" height="43.4465" filterUnits="userSpaceOnUse" color-interpolation-filters="sRGB">
<feFlood flood-opacity="0" result="BackgroundImageFix"/>
<feColorMatrix in="SourceAlpha" type="matrix" values="0 0 0 0 0 0 0 0 0 0 0 0 0 0 0 0 0 0 127 0" result="hardAlpha"/>
<feOffset dx="4" dy="4"/>
<feGaussianBlur stdDeviation="5"/>
<feComposite in2="hardAlpha" operator="out"/>
<feColorMatrix type="matrix" values="0 0 0 0 0 0 0 0 0 0 0 0 0 0 0 0 0 0 0.05 0"/>
<feBlend mode="normal" in2="BackgroundImageFix" result="effect1_dropShadow_680_357"/>
<feBlend mode="normal" in="SourceGraphic" in2="effect1_dropShadow_680_357" result="shape"/>
</filter>
<filter id="filter5_d_680_357" x="206.252" y="272.179" width="116.557" height="121.74" filterUnits="userSpaceOnUse" color-interpolation-filters="sRGB">
<feFlood flood-opacity="0" result="BackgroundImageFix"/>
<feColorMatrix in="SourceAlpha" type="matrix" values="0 0 0 0 0 0 0 0 0 0 0 0 0 0 0 0 0 0 127 0" result="hardAlpha"/>
<feOffset dy="4"/>
<feGaussianBlur stdDeviation="5"/>
<feComposite in2="hardAlpha" operator="out"/>
<feColorMatrix type="matrix" values="0 0 0 0 0 0 0 0 0 0 0 0 0 0 0 0 0 0 0.05 0"/>
<feBlend mode="normal" in2="BackgroundImageFix" result="effect1_dropShadow_680_357"/>
<feBlend mode="normal" in="SourceGraphic" in2="effect1_dropShadow_680_357" result="shape"/>
</filter>
<radialGradient id="paint0_radial_680_357" cx="0" cy="0" r="1" gradientUnits="userSpaceOnUse" gradientTransform="translate(94.6133 252.196) rotate(70.0827) scale(25.1579 26.1848)">
<stop stop-color="#CAD2FF" stop-opacity="0.8"/>
<stop offset="1" stop-color="#D9D9D9" stop-opacity="0"/>
</radialGradient>
<radialGradient id="paint1_radial_680_357" cx="0" cy="0" r="1" gradientUnits="userSpaceOnUse" gradientTransform="translate(263.258 334.03) rotate(90) scale(28.8075 29.9833)">
<stop offset="0.141692" stop-color="#FFB1D2" stop-opacity="0.8"/>
<stop offset="1" stop-color="#D9D9D9" stop-opacity="0"/>
</radialGradient>
<clipPath id="clip0_680_357">
<rect width="21.091" height="10.3822" fill="white" transform="translate(273.625 338.583) rotate(-180)"/>
</clipPath>
</defs>
</svg>
