<svg width="113" height="26" viewBox="0 0 113 26" fill="none" xmlns="http://www.w3.org/2000/svg">
<path d="M9.888 12.824C10.128 13.256 10.152 13.808 9.912 14.264C9.624 14.84 9.072 15.032 8.424 14.888C7.824 14.744 7.632 14.192 6.696 14.048C6.216 13.976 5.592 14.048 5.16 14.24C3.768 14.96 3.432 17.312 4.464 18.488C4.848 18.944 5.544 19.256 6.12 19.304C6.672 19.376 7.224 19.28 7.728 19.112C8.112 18.944 8.64 18.584 9.072 18.536C10.2 18.512 10.392 19.928 9.84 20.624C9.456 21.104 8.64 21.584 8.016 21.776C7.248 22.016 6.216 22.04 5.4 21.944C5.016 21.896 4.584 21.776 4.2 21.656C1.368 20.648 0.432 17.696 1.176 15.08C1.872 12.56 3.312 11.792 5.472 11.312C6.6 11.096 7.944 11.336 8.928 11.936C9.288 12.128 9.648 12.464 9.888 12.824ZM21.4059 17.336C21.4299 17.96 21.4299 18.704 21.4059 19.28C21.3339 21.008 21.3099 22.208 19.8699 22.04C18.4059 21.872 18.7419 19.256 18.6939 18.344C18.6459 16.928 18.7899 14.384 17.1339 14.336C14.9979 14.216 15.1419 15.296 14.9739 16.712L14.9499 17.648V19.4C14.9499 20.552 14.9979 22.04 13.4619 22.064C12.5019 22.064 12.0459 21.344 12.0459 20.432V6.632C12.0459 6.44 12.0699 6.272 12.0939 6.08C12.1419 5.888 12.1899 5.72 12.2379 5.552C12.2859 5.408 12.3819 5.264 12.4779 5.192C12.6459 5.048 12.7899 4.928 12.9819 4.904C13.1499 4.88 13.3419 4.856 13.5339 4.856C13.7979 4.856 14.0139 4.928 14.2299 5.072C14.4219 5.192 14.5899 5.336 14.6859 5.576C14.8059 5.864 14.8779 6.128 14.8779 6.44C14.9259 6.752 14.9259 7.76 14.9499 8.072V8.192C14.9739 9.2 14.9739 10.28 14.9739 11.36V11.768C16.2939 11.312 17.9019 11.312 19.0539 11.888C21.4299 13.088 21.3339 15.008 21.4059 17.336ZM31.6468 18.776C32.3908 18.56 33.3748 18.632 33.3748 19.712C33.3748 20.504 32.5108 21.104 31.8868 21.368C30.9748 21.776 29.7028 22.016 28.4308 21.968C26.7028 21.896 24.9748 21.32 24.0868 19.904C23.2708 18.512 23.1508 16.616 23.4628 15.104C23.8228 13.256 24.7108 12.128 25.8868 11.432C27.3028 10.616 29.2708 10.592 30.8788 11.312C31.9588 11.792 32.8708 12.608 33.3268 13.76C33.5668 14.336 33.6868 15.536 33.4468 16.232C33.0388 17.384 32.3668 17.408 30.6148 17.48C29.0788 17.552 27.9988 17.48 26.1508 17.432C25.9588 18.728 27.3748 19.232 28.5508 19.328C29.6308 19.4 30.5908 19.088 31.6468 18.776ZM30.6148 14.12C30.3268 13.784 30.0148 13.52 29.6548 13.352C29.1508 13.136 28.5508 13.184 28.0468 13.328C27.5428 13.448 27.2068 13.664 26.8708 14.048C26.7748 14.144 26.1028 15.176 26.3668 15.176H31.0708C31.0468 14.72 30.9268 14.456 30.6148 14.12ZM44.4349 12.824C44.6749 13.256 44.6989 13.808 44.4589 14.264C44.1709 14.84 43.6189 15.032 42.9709 14.888C42.3709 14.744 42.1789 14.192 41.2429 14.048C40.7629 13.976 40.1389 14.048 39.7069 14.24C38.3149 14.96 37.9789 17.312 39.0109 18.488C39.3949 18.944 40.0909 19.256 40.6669 19.304C41.2189 19.376 41.7709 19.28 42.2749 19.112C42.6589 18.944 43.1869 18.584 43.6189 18.536C44.7469 18.512 44.9389 19.928 44.3869 20.624C44.0029 21.104 43.1869 21.584 42.5629 21.776C41.7949 22.016 40.7629 22.04 39.9469 21.944C39.5629 21.896 39.1309 21.776 38.7469 21.656C35.9149 20.648 34.9789 17.696 35.7229 15.08C36.4189 12.56 37.8589 11.792 40.0189 11.312C41.1469 11.096 42.4909 11.336 43.4749 11.936C43.8349 12.128 44.1949 12.464 44.4349 12.824ZM51.3688 16.544C53.4568 18.752 51.8728 16.976 54.0088 19.184C54.5848 19.76 55.1128 20.528 54.6568 21.392C54.1528 22.304 53.3368 22.016 52.5448 21.44C51.8008 20.888 51.0808 20.048 50.6728 19.664C50.5528 19.544 50.4568 19.448 50.4088 19.376C50.3608 19.328 50.2888 19.28 50.2168 19.208C50.0008 18.992 49.7368 18.752 49.4728 18.512V19.448C49.4728 19.592 49.4728 19.712 49.4968 19.832C49.4968 19.976 49.4968 20.072 49.4728 20.192C49.4248 20.36 49.4008 20.528 49.4008 20.696C49.3768 20.84 49.3528 20.984 49.2808 21.152C49.2568 21.224 49.2328 21.248 49.2328 21.296C49.2088 21.344 49.1848 21.368 49.1608 21.44C49.0648 21.632 48.9208 21.776 48.7768 21.896C48.4408 22.088 48.0568 22.112 47.6488 22.04C47.4088 21.992 47.2408 21.92 47.0968 21.776C46.9528 21.68 46.8568 21.536 46.8088 21.368C46.7368 21.2 46.6888 21.032 46.6408 20.864C46.5928 20.72 46.5928 20.552 46.5928 20.456V6.8C46.5928 6.608 46.5928 6.416 46.6168 6.224C46.6408 6.032 46.7128 5.864 46.7608 5.696C46.8328 5.528 46.9048 5.408 47.0008 5.312C47.1688 5.144 47.3368 5.072 47.5048 5.024C47.6728 5 47.8888 4.976 48.0808 4.976C48.3208 4.976 48.5368 5.048 48.7528 5.168C48.9688 5.312 49.1128 5.48 49.2088 5.72C49.3288 6.008 49.4008 6.296 49.4008 6.608C49.4248 6.92 49.4728 7.76 49.4728 8.072V8.168C49.4968 9.224 49.4968 10.136 49.4968 11.24C49.4728 12.344 49.4728 13.352 49.4728 14.336V14.6C49.7368 14.36 50.0008 14.12 50.2168 13.88C50.3128 13.808 50.3608 13.76 50.4088 13.712L50.6728 13.448C51.0808 13.04 51.8008 12.2 52.5448 11.648C53.3368 11.072 54.1528 10.808 54.6568 11.696C55.1128 12.56 54.5848 13.328 54.0088 13.952C51.8728 16.136 53.4568 14.36 51.3688 16.544Z" fill="#FF6C3E"/>
<path d="M80.2877 11.96C82.2317 10.976 84.5837 11.12 86.2157 12.704C87.0557 13.544 87.4637 14.528 87.6557 15.728C87.8957 17.36 88.9277 18.536 89.2877 20.096C89.4557 20.84 89.1917 21.656 88.3757 21.8C87.3917 21.992 86.6957 20.936 86.2637 20.24C85.5197 21.2 84.7037 21.704 83.5037 21.872C82.4717 21.992 81.6077 21.944 80.5517 21.656C77.8157 20.936 77.0237 17.936 77.7197 15.32C78.1757 13.592 79.1117 12.536 80.2877 11.96ZM80.8877 14.768C79.9757 15.632 79.8797 17.384 80.5997 18.416C80.9117 18.872 81.7757 19.208 82.6157 19.256C84.5357 19.376 85.5677 16.64 84.5357 14.984C83.7917 13.76 81.7997 13.88 80.8877 14.768ZM98.6964 11.48C98.9364 12.08 98.7204 12.992 98.1684 13.208C97.6164 13.448 96.0804 13.544 95.2884 13.568C95.3604 15.488 95.4324 17.696 95.3844 19.088C95.3844 20.072 95.4324 21.752 94.7844 21.992C93.8004 22.4 92.8884 22.16 92.5524 21.656C92.0244 20.84 92.0964 19.304 92.1204 18.464C92.1444 17.12 92.1684 15.32 92.1684 13.592H91.8084C91.0404 13.592 89.2644 13.568 88.8084 13.016C88.0884 12.176 88.6164 10.976 89.4324 10.76C90.0084 10.616 91.2084 10.616 92.1444 10.64C92.1204 10.328 92.1204 10.016 92.0964 9.728C92.0484 8.936 92.0244 7.208 92.7444 6.656C93.7044 5.888 94.8084 6.584 95.0484 7.472C95.2644 8.216 95.2404 9.704 95.2404 10.64H95.4804C96.4164 10.664 98.2164 10.328 98.6964 11.48ZM108.073 18.776C108.817 18.56 109.801 18.632 109.801 19.712C109.801 20.504 108.937 21.104 108.313 21.368C107.401 21.776 106.129 22.016 104.857 21.968C103.129 21.896 101.401 21.32 100.513 19.904C99.6967 18.512 99.5767 16.616 99.8887 15.104C100.249 13.256 101.137 12.128 102.313 11.432C103.729 10.616 105.697 10.592 107.305 11.312C108.385 11.792 109.297 12.608 109.753 13.76C109.993 14.336 110.113 15.536 109.873 16.232C109.465 17.384 108.793 17.408 107.041 17.48C105.505 17.552 104.425 17.48 102.577 17.432C102.385 18.728 103.801 19.232 104.977 19.328C106.057 19.4 107.017 19.088 108.073 18.776ZM107.041 14.12C106.753 13.784 106.441 13.52 106.081 13.352C105.577 13.136 104.977 13.184 104.473 13.328C103.969 13.448 103.633 13.664 103.297 14.048C103.201 14.144 102.529 15.176 102.793 15.176H107.497C107.473 14.72 107.353 14.456 107.041 14.12Z" fill="#FF6C3E"/>
<path fill-rule="evenodd" clip-rule="evenodd" d="M63.7694 6.87114C65.4099 5.85052 66.5736 6.14365 67.0312 7.05884C67.1387 7.27382 67.4827 7.5748 67.9986 7.05884C68.4286 6.52139 70.2559 5.44647 72.5133 8.34874L72.4939 8.3174C73.8938 10.1372 74.6492 12.801 74.9536 16.7474C75.2145 20.1376 75.1599 20.5684 74.3468 21.5243C73.1918 22.8825 71.9746 22.8568 70.7762 21.4478L69.8178 20.3208L69.0951 21.4478C68.2099 22.8276 66.5943 22.9082 65.5044 21.6266C64.7098 20.6924 64.688 20.6924 63.9687 21.6266C63.0082 22.8746 61.4855 22.8296 60.372 21.5204C59.5703 20.5777 59.5018 20.099 59.7233 16.9924C60.0313 12.6715 61.6993 8.48292 63.7468 6.88862C63.7543 6.88278 63.7619 6.87695 63.7694 6.87114Z" fill="#FF6C3E"/>
</svg>
