<svg width="128" height="30" viewBox="0 0 128 30" fill="none" xmlns="http://www.w3.org/2000/svg">
<path d="M11.8728 14.8671C12.1528 15.3711 12.1808 16.0151 11.9008 16.5471C11.5648 17.2191 10.9208 17.4431 10.1648 17.2751C9.46479 17.1071 9.24079 16.4631 8.14879 16.2951C7.58879 16.2111 6.86079 16.2951 6.35679 16.5191C4.73279 17.3591 4.34079 20.1031 5.54479 21.4751C5.99279 22.0071 6.80479 22.3711 7.47679 22.4271C8.12079 22.5111 8.76479 22.3991 9.35279 22.2031C9.80079 22.0071 10.4168 21.5871 10.9208 21.5311C12.2368 21.5031 12.4608 23.1551 11.8168 23.9671C11.3688 24.5271 10.4168 25.0871 9.68879 25.3111C8.79279 25.5911 7.58879 25.6191 6.63679 25.5071C6.18879 25.4511 5.68479 25.3111 5.23679 25.1711C1.93279 23.9951 0.840792 20.5511 1.70879 17.4991C2.52079 14.5591 4.20079 13.6631 6.72079 13.1031C8.03679 12.8511 9.60479 13.1311 10.7528 13.8311C11.1728 14.0551 11.5928 14.4471 11.8728 14.8671ZM25.3104 20.1311C25.3384 20.8591 25.3384 21.7271 25.3104 22.3991C25.2264 24.4151 25.1984 25.8151 23.5184 25.6191C21.8104 25.4231 22.2024 22.3711 22.1464 21.3071C22.0904 19.6551 22.2584 16.6871 20.3264 16.6311C17.8344 16.4911 18.0024 17.7511 17.8064 19.4031L17.7784 20.4951V22.5391C17.7784 23.8831 17.8344 25.6191 16.0424 25.6471C14.9224 25.6471 14.3904 24.8071 14.3904 23.7431V7.64313C14.3904 7.41914 14.4184 7.22313 14.4464 6.99913C14.5024 6.77514 14.5584 6.57913 14.6144 6.38313C14.6704 6.21513 14.7824 6.04714 14.8944 5.96313C15.0904 5.79514 15.2584 5.65514 15.4824 5.62714C15.6784 5.59913 15.9024 5.57113 16.1264 5.57113C16.4344 5.57113 16.6864 5.65514 16.9384 5.82313C17.1624 5.96313 17.3584 6.13114 17.4704 6.41114C17.6104 6.74713 17.6944 7.05514 17.6944 7.41914C17.7504 7.78313 17.7504 8.95913 17.7784 9.32314V9.46314C17.8064 10.6391 17.8064 11.8991 17.8064 13.1591V13.6351C19.3464 13.1031 21.2224 13.1031 22.5664 13.7751C25.3384 15.1751 25.2264 17.4151 25.3104 20.1311ZM37.2581 21.8111C38.1261 21.5591 39.2741 21.6431 39.2741 22.9031C39.2741 23.8271 38.2661 24.5271 37.5381 24.8351C36.4741 25.3111 34.9901 25.5911 33.5061 25.5351C31.4901 25.4511 29.4741 24.7791 28.4381 23.1271C27.4861 21.5031 27.3461 19.2911 27.7101 17.5271C28.1301 15.3711 29.1661 14.0551 30.5381 13.2431C32.1901 12.2911 34.4861 12.2631 36.3621 13.1031C37.6221 13.6631 38.6861 14.6151 39.2181 15.9591C39.4981 16.6311 39.6381 18.0311 39.3581 18.8431C38.8821 20.1871 38.0981 20.2151 36.0541 20.2991C34.2621 20.3831 33.0021 20.2991 30.8461 20.2431C30.6221 21.7551 32.2741 22.3431 33.6461 22.4551C34.9061 22.5391 36.0261 22.1751 37.2581 21.8111ZM36.0541 16.3791C35.7181 15.9871 35.3541 15.6791 34.9341 15.4831C34.3461 15.2311 33.6461 15.2871 33.0581 15.4551C32.4701 15.5951 32.0781 15.8471 31.6861 16.2951C31.5741 16.4071 30.7901 17.6111 31.0981 17.6111H36.5861C36.5581 17.0791 36.4181 16.7711 36.0541 16.3791ZM52.1775 14.8671C52.4575 15.3711 52.4855 16.0151 52.2055 16.5471C51.8695 17.2191 51.2255 17.4431 50.4695 17.2751C49.7695 17.1071 49.5455 16.4631 48.4535 16.2951C47.8935 16.2111 47.1655 16.2951 46.6615 16.5191C45.0375 17.3591 44.6455 20.1031 45.8495 21.4751C46.2975 22.0071 47.1095 22.3711 47.7815 22.4271C48.4255 22.5111 49.0695 22.3991 49.6575 22.2031C50.1055 22.0071 50.7215 21.5871 51.2255 21.5311C52.5415 21.5031 52.7655 23.1551 52.1215 23.9671C51.6735 24.5271 50.7215 25.0871 49.9935 25.3111C49.0975 25.5911 47.8935 25.6191 46.9415 25.5071C46.4935 25.4511 45.9895 25.3111 45.5415 25.1711C42.2375 23.9951 41.1455 20.5511 42.0135 17.4991C42.8255 14.5591 44.5055 13.6631 47.0255 13.1031C48.3415 12.8511 49.9095 13.1311 51.0575 13.8311C51.4775 14.0551 51.8975 14.4471 52.1775 14.8671ZM60.2671 19.2071C62.7031 21.7831 60.8551 19.7111 63.3471 22.2871C64.0191 22.9591 64.6351 23.8551 64.1031 24.8631C63.5151 25.9271 62.5631 25.5911 61.6391 24.9191C60.7711 24.2751 59.9311 23.2951 59.4551 22.8471C59.3151 22.7071 59.2031 22.5951 59.1471 22.5111C59.0911 22.4551 59.0071 22.3991 58.9231 22.3151C58.6711 22.0631 58.3631 21.7831 58.0551 21.5031V22.5951C58.0551 22.7631 58.0551 22.9031 58.0831 23.0431C58.0831 23.2111 58.0831 23.3231 58.0551 23.4631C57.9991 23.6591 57.9711 23.8551 57.9711 24.0511C57.9431 24.2191 57.9151 24.3871 57.8311 24.5831C57.8031 24.6671 57.7751 24.6951 57.7751 24.7511C57.7471 24.8071 57.7191 24.8351 57.6911 24.9191C57.5791 25.1431 57.4111 25.3111 57.2431 25.4511C56.8511 25.6751 56.4031 25.7031 55.9271 25.6191C55.6471 25.5631 55.4511 25.4791 55.2831 25.3111C55.1151 25.1991 55.0031 25.0311 54.9471 24.8351C54.8631 24.6391 54.8071 24.4431 54.7511 24.2471C54.6951 24.0791 54.6951 23.8831 54.6951 23.7711V7.83914C54.6951 7.61513 54.6951 7.39113 54.7231 7.16714C54.7511 6.94314 54.8351 6.74713 54.8911 6.55114C54.9751 6.35513 55.0591 6.21513 55.1711 6.10313C55.3671 5.90714 55.5631 5.82313 55.7591 5.76714C55.9551 5.73914 56.2071 5.71113 56.4311 5.71113C56.7111 5.71113 56.9631 5.79514 57.2151 5.93513C57.4671 6.10313 57.6351 6.29914 57.7471 6.57913C57.8871 6.91514 57.9711 7.25113 57.9711 7.61513C57.9991 7.97914 58.0551 8.95913 58.0551 9.32314V9.43513C58.0831 10.6671 58.0831 11.7311 58.0831 13.0191C58.0551 14.3071 58.0551 15.4831 58.0551 16.6311V16.9391C58.3631 16.6591 58.6711 16.3791 58.9231 16.0991C59.0351 16.0151 59.0911 15.9591 59.1471 15.9031L59.4551 15.5951C59.9311 15.1191 60.7711 14.1391 61.6391 13.4951C62.5631 12.8231 63.5151 12.5151 64.1031 13.5511C64.6351 14.5591 64.0191 15.4551 63.3471 16.1831C60.8551 18.7311 62.7031 16.6591 60.2671 19.2071Z" fill="black"/>
<path d="M90.9539 13.8591C93.2219 12.7111 95.9659 12.8791 97.8699 14.7271C98.8499 15.7071 99.3259 16.8551 99.5499 18.2551C99.8299 20.1591 101.034 21.5311 101.454 23.3511C101.65 24.2191 101.342 25.1711 100.39 25.3391C99.2419 25.5631 98.4299 24.3311 97.9259 23.5191C97.0579 24.6391 96.1059 25.2271 94.7059 25.4231C93.5019 25.5631 92.4939 25.5071 91.2619 25.1711C88.0699 24.3311 87.1459 20.8311 87.9579 17.7791C88.4899 15.7631 89.5819 14.5311 90.9539 13.8591ZM91.6539 17.1351C90.5899 18.1431 90.4779 20.1871 91.3179 21.3911C91.6819 21.9231 92.6899 22.3151 93.6699 22.3711C95.9099 22.5111 97.1139 19.3191 95.9099 17.3871C95.0419 15.9591 92.7179 16.0991 91.6539 17.1351ZM112.431 13.2991C112.711 13.9991 112.459 15.0631 111.815 15.3151C111.171 15.5951 109.379 15.7071 108.455 15.7351C108.539 17.9751 108.623 20.5511 108.567 22.1751C108.567 23.3231 108.623 25.2831 107.867 25.5631C106.719 26.0391 105.655 25.7591 105.263 25.1711C104.647 24.2191 104.731 22.4271 104.759 21.4471C104.787 19.8791 104.815 17.7791 104.815 15.7631H104.395C103.499 15.7631 101.427 15.7351 100.895 15.0911C100.055 14.1111 100.671 12.7111 101.623 12.4591C102.295 12.2911 103.695 12.2911 104.787 12.3191C104.759 11.9551 104.759 11.5911 104.731 11.2551C104.675 10.3311 104.647 8.31513 105.487 7.67113C106.607 6.77514 107.895 7.58714 108.175 8.62314C108.427 9.49114 108.399 11.2271 108.399 12.3191H108.679C109.771 12.3471 111.871 11.9551 112.431 13.2991ZM123.37 21.8111C124.238 21.5591 125.386 21.6431 125.386 22.9031C125.386 23.8271 124.378 24.5271 123.65 24.8351C122.586 25.3111 121.102 25.5911 119.618 25.5351C117.602 25.4511 115.586 24.7791 114.55 23.1271C113.598 21.5031 113.458 19.2911 113.822 17.5271C114.242 15.3711 115.278 14.0551 116.65 13.2431C118.302 12.2911 120.598 12.2631 122.474 13.1031C123.734 13.6631 124.798 14.6151 125.33 15.9591C125.61 16.6311 125.75 18.0311 125.47 18.8431C124.994 20.1871 124.21 20.2151 122.166 20.2991C120.374 20.3831 119.114 20.2991 116.958 20.2431C116.734 21.7551 118.386 22.3431 119.758 22.4551C121.018 22.5391 122.138 22.1751 123.37 21.8111ZM122.166 16.3791C121.83 15.9871 121.466 15.6791 121.046 15.4831C120.458 15.2311 119.758 15.2871 119.17 15.4551C118.582 15.5951 118.19 15.8471 117.798 16.2951C117.686 16.4071 116.902 17.6111 117.21 17.6111H122.698C122.67 17.0791 122.53 16.7711 122.166 16.3791Z" fill="black"/>
<path fill-rule="evenodd" clip-rule="evenodd" d="M72.192 7.98125C74.0399 6.83195 75.3508 7.16231 75.8663 8.19335C75.9875 8.43559 76.375 8.77472 76.9564 8.19335C77.4409 7.58776 79.4999 6.37656 82.0434 9.64679L82.0221 9.61225C83.5992 11.6628 84.4502 14.6641 84.7931 19.1104C85.0871 22.9304 85.0256 23.4158 84.1095 24.493C82.808 26.0233 81.4364 25.9944 80.0862 24.4067L79.0063 23.1369L78.192 24.4067C77.1944 25.9615 75.374 26.0522 74.1459 24.6082C73.2507 23.5555 73.2261 23.5555 72.4155 24.6082C71.3332 26.0144 69.6175 25.9637 68.3629 24.4885C67.4596 23.4264 67.3824 22.8869 67.6319 19.3865C67.9789 14.5177 69.8585 9.79812 72.1655 8.0017C72.1743 7.99485 72.1832 7.98804 72.192 7.98125Z" fill="black"/>
</svg>
