<svg width="1364" height="904" viewBox="0 0 1364 904" fill="none" xmlns="http://www.w3.org/2000/svg">
<mask id="mask0_460_3604" style="mask-type:alpha" maskUnits="userSpaceOnUse" x="0" y="26" width="1350" height="865">
<path d="M0 130C0 72.5624 46.5624 26 104 26H1246C1303.44 26 1350 72.5624 1350 130V787C1350 844.438 1303.44 891 1246 891H104C46.5624 891 0 844.438 0 787V130Z" fill="#FFE9B5"/>
</mask>
<g mask="url(#mask0_460_3604)">
<path d="M932.899 359.404C861.566 362.195 782.493 381.972 717.512 403.367C695.956 411.567 696.511 426.865 700.607 437.58L920.055 387.794L932.899 359.404Z" fill="#F4C7AC"/>
<path d="M1469.71 697.968L1278.36 583.819C1251.48 569.057 1233.25 553.555 1221.99 537.455C1180.58 475.271 1132.76 397.586 1112.07 385.784C1086.31 366.195 1025.23 362.848 963.971 359.572C888.25 356.718 808.271 390.822 715.696 424.926C672.698 440.815 685.224 467.908 715.696 472.453C766.962 479.746 860.171 463.575 955.456 446.205C974.985 477.914 995.006 498.383 1015.24 514.625C1023.23 522.622 1016.36 547.989 1000.42 544.289L870.586 518.042C794.408 498.947 777.765 544.712 813.62 572.792C899.932 629.126 1005.25 655.973 1121.15 666.295C1139.48 667.881 1152.61 674.152 1161.02 684.721C1223.75 773.152 1304.12 867.29 1392.23 963.965L1469.67 697.933L1469.71 697.968Z" fill="#F6D6C6"/>
<path d="M816.933 463.952L871.847 630.904C886.086 656.639 943.498 635.782 937.615 610.282L882.701 442.6L816.933 463.975V463.952Z" fill="#F2904D"/>
<path d="M735.436 215.995L824.831 488.034C839.07 513.769 896.482 492.912 890.599 467.412L804.421 196.269L735.436 215.995Z" fill="#E8E7F5"/>
<path d="M937.591 610.277L883.492 445.093L890.6 467.435C893.025 477.922 884.717 487.632 873.119 493.618L920.59 636.225C931.948 630.215 939.992 620.623 937.591 610.277Z" fill="#DE6941"/>
<path d="M890.599 467.412L883.491 445.07L804.421 196.269L776.783 204.187L858.735 450.373L873.142 493.619C884.74 487.609 893.048 477.923 890.623 467.436L890.599 467.412Z" fill="#CAC8E5"/>
<path d="M737.052 218.734L745.924 236.24C747.393 239.513 749.584 239.091 752.281 236.24C755.604 231.568 759.144 243.763 762.707 247.168C768.029 252.025 772.869 252.078 777.203 247.168L783.56 237.243C786.137 233.389 788.858 231.964 791.723 232.28C810.722 237.586 808.145 219.689 803.715 196.513L737.052 218.734Z" fill="#9998CB"/>
<path d="M775.651 225.46C794.698 220.012 807.572 206.954 804.406 196.295C801.241 185.636 783.235 181.412 764.189 186.861C745.142 192.309 732.268 205.367 735.434 216.026C738.599 226.686 756.605 230.909 775.651 225.46Z" fill="#352F4A"/>
<path d="M1469.67 697.948L1469.67 697.946L1431.96 827.474C1414.56 887.257 1338.46 904.858 1297.9 857.615C1246.93 798.251 1200.49 740.357 1161.02 684.722C1152.61 674.153 1139.48 667.882 1121.15 666.296C1005.25 655.974 899.933 629.127 813.62 572.793C777.765 544.713 794.409 498.948 870.587 518.043L988.635 541.907C996.469 543.491 1004.46 544.166 1012.45 543.92L1165.79 539.189C1200.86 538.108 1233.85 556.059 1263.41 574.969C1268.06 577.948 1273.04 580.898 1278.36 583.82L1469.67 697.946L1469.67 697.942C1469.67 697.939 1469.68 697.937 1469.68 697.94C1469.68 697.945 1469.68 697.951 1469.67 697.948Z" fill="#F6D6C6"/>
<path d="M1407.17 907.904L1202.6 683.517C1177.89 651.663 1167.15 635.314 1139.97 634.964C1057.56 638.612 960.543 624.299 854.723 599.145C926.572 638.261 1016.02 659.907 1119.56 667.555C1136.24 668.187 1149.9 673.694 1159.44 685.903C1218.72 768.276 1299.66 863.174 1390.76 963.965L1407.17 907.904Z" fill="#F4C7AC"/>
<path d="M491.396 163.358C501.228 165.081 513.006 173.63 514.812 185.624L524.853 344.358L510.053 349.845L491.396 163.358Z" fill="#EABDA7"/>
<path d="M459.884 149.159C478.158 148.266 495.043 154.87 499.108 181.123L514.811 349.554L510.886 483.757H464.782L459.884 149.159Z" fill="#F4C7AC"/>
<path d="M0 507.173H331.373C363.266 507.747 375.704 502.101 381.089 477.761C391.408 439.864 406.938 404.966 408.57 368.472L415.102 163.101C415.762 130.212 466.278 127.086 471.35 163.101C474.963 212.514 478.854 267.158 481.807 304.226C483.927 328.087 483.649 383.274 483.927 431.538C484.1 468.095 489.555 466.883 491.778 437.854L501.089 359.508C505.988 316.284 576.446 321.835 573.18 362.666L553.064 533.043C550.806 551.737 551.744 563.667 541.947 574.481L470.655 655.539C463.707 663.578 451.026 675.061 432.716 675.349H342.456C323.764 674.711 315.808 677.677 303.232 680.165L0 735.958V507.173Z" fill="#F6D6C6"/>
<path d="M0 683.705L301.946 635.058C309.311 633.271 318.622 634.165 336.272 635.058H419.653C438.171 635.728 454.118 629.22 468.71 618.853C487.158 604.625 505.05 585.071 522.665 562.996C528.71 555.978 544.483 534.637 557.476 495.688L551.466 548.609C550.041 558.977 547.262 568.004 541.947 574.384L470.655 655.442C457.418 671.264 437.963 677.07 413.747 675.252H342.456C332.867 674.805 319.352 676.751 303.232 680.069L0 735.957V683.705Z" fill="#F4C7AC"/>
<path d="M872.885 134.44C869.885 134.769 867.315 136.711 866.715 139.667C865.572 145.308 862.602 150.75 857.489 155.077C850.348 161.132 840.051 163.018 831.253 159.819C813.858 153.478 808.031 133.326 817.643 119.002C819.585 116.102 822.013 113.717 824.727 111.861C827.155 110.19 828.483 107.191 827.64 104.377C824.198 92.7233 825.726 79.6985 833.024 68.8158C847.877 46.6936 879.968 43.066 899.463 63.7887C910.474 75.5139 913.659 93.2946 907.546 108.162C901.134 123.715 887.495 132.826 872.885 134.44ZM951.933 82.2977C940.78 84.4971 929.954 77.2277 927.755 66.0595C925.555 54.9055 932.825 44.08 943.993 41.8806C955.147 39.6813 965.972 46.9506 968.172 58.1189C970.357 69.2871 963.087 80.0984 951.933 82.2977Z" fill="#ABABAB"/>
</g>
</svg>
