<svg width="1350" height="891" viewBox="0 0 1350 891" fill="none" xmlns="http://www.w3.org/2000/svg">
<path d="M734.544 490H-0.000209161V326.758C70.3239 253.032 205.982 270.593 244.476 363.621C298.745 343.449 361.755 363.621 388.874 412.762C430.87 359.239 553.387 371.516 570.899 462.772C617.265 446.112 706.526 463.643 734.544 489.969V490Z" fill="#5576AB"/>
<path d="M677.646 661.788C772.731 661.788 849.813 584.764 849.813 489.749C849.813 394.734 772.731 317.71 677.646 317.71C582.561 317.71 505.479 394.734 505.479 489.749C505.479 584.764 582.561 661.788 677.646 661.788Z" fill="#FFE16B"/>
<path d="M721.12 441.032C745.145 441.032 764.621 421.571 764.621 397.564C764.621 373.557 745.145 354.096 721.12 354.096C697.096 354.096 677.62 373.557 677.62 397.564C677.62 421.571 697.096 441.032 721.12 441.032Z" fill="#F2D150"/>
<path d="M723.321 490.117C734.499 490.117 743.561 481.062 743.561 469.892C743.561 458.722 734.499 449.667 723.321 449.667C712.143 449.667 703.081 458.722 703.081 469.892C703.081 481.062 712.143 490.117 723.321 490.117Z" fill="#F2D150"/>
<path d="M784.01 484.926C800.006 484.926 812.973 471.969 812.973 455.985C812.973 440.001 800.006 427.044 784.01 427.044C768.015 427.044 755.048 440.001 755.048 455.985C755.048 471.969 768.015 484.926 784.01 484.926Z" fill="#F2D150"/>
<path d="M615.456 594H1350V430.758C1279.68 357.032 1144.02 374.593 1105.52 467.621C1051.25 447.449 988.245 467.621 961.126 516.762C919.13 463.239 796.613 475.516 779.101 566.772C732.735 550.112 643.474 567.643 615.456 593.969V594Z" fill="#5576AB"/>
<path d="M924.899 239.214C916.03 239.204 907.527 235.679 901.255 229.412C894.983 223.145 891.456 214.648 891.446 205.786C891.446 205.047 891.152 204.338 890.629 203.816C890.106 203.293 889.397 203 888.658 203C887.918 203 887.209 203.293 886.687 203.816C886.164 204.338 885.87 205.047 885.87 205.786C885.86 214.648 882.332 223.145 876.061 229.412C869.789 235.679 861.286 239.204 852.417 239.214C851.677 239.214 850.968 239.508 850.445 240.03C849.923 240.553 849.629 241.261 849.629 242C849.629 242.739 849.923 243.447 850.445 243.97C850.968 244.492 851.677 244.786 852.417 244.786C861.286 244.796 869.789 248.321 876.061 254.588C882.332 260.855 885.86 269.352 885.87 278.214C885.87 278.953 886.164 279.662 886.687 280.184C887.209 280.707 887.918 281 888.658 281C889.397 281 890.106 280.707 890.629 280.184C891.152 279.662 891.446 278.953 891.446 278.214C891.456 269.352 894.983 260.855 901.255 254.588C907.527 248.321 916.03 244.796 924.899 244.786C925.638 244.786 926.347 244.492 926.87 243.97C927.393 243.447 927.687 242.739 927.687 242C927.687 241.261 927.393 240.553 926.87 240.03C926.347 239.508 925.638 239.214 924.899 239.214Z" fill="white"/>
<path d="M430.64 662.821C425.296 662.815 420.172 660.691 416.393 656.915C412.614 653.139 410.488 648.019 410.482 642.679C410.482 642.233 410.305 641.806 409.99 641.492C409.675 641.177 409.248 641 408.803 641C408.357 641 407.93 641.177 407.615 641.492C407.3 641.806 407.123 642.233 407.123 642.679C407.117 648.019 404.991 653.139 401.212 656.915C397.433 660.691 392.309 662.815 386.965 662.821C386.519 662.821 386.092 662.998 385.777 663.313C385.462 663.628 385.285 664.055 385.285 664.5C385.285 664.945 385.462 665.372 385.777 665.687C386.092 666.002 386.519 666.179 386.965 666.179C392.309 666.185 397.433 668.309 401.212 672.085C404.991 675.861 407.117 680.981 407.123 686.321C407.123 686.767 407.3 687.194 407.615 687.508C407.93 687.823 408.357 688 408.803 688C409.248 688 409.675 687.823 409.99 687.508C410.305 687.194 410.482 686.767 410.482 686.321C410.488 680.981 412.614 675.861 416.393 672.085C420.172 668.309 425.296 666.185 430.64 666.179C431.086 666.179 431.513 666.002 431.828 665.687C432.143 665.372 432.32 664.945 432.32 664.5C432.32 664.055 432.143 663.628 431.828 663.313C431.513 662.998 431.086 662.821 430.64 662.821Z" fill="white"/>
<path d="M977.727 277.213H958.492V257.992C958.492 257.142 958.154 256.327 957.553 255.726C956.952 255.126 956.136 254.788 955.286 254.788C954.436 254.788 953.62 255.126 953.019 255.726C952.418 256.327 952.08 257.142 952.08 257.992V277.213H932.845C931.994 277.213 931.179 277.55 930.578 278.151C929.976 278.752 929.639 279.567 929.639 280.416C929.639 281.266 929.976 282.081 930.578 282.681C931.179 283.282 931.994 283.62 932.845 283.62H952.08V302.841C952.08 303.691 952.418 304.505 953.019 305.106C953.62 305.707 954.436 306.044 955.286 306.044C956.136 306.044 956.952 305.707 957.553 305.106C958.154 304.505 958.492 303.691 958.492 302.841V283.62H977.727C978.577 283.62 979.393 283.282 979.994 282.681C980.595 282.081 980.933 281.266 980.933 280.416C980.933 279.567 980.595 278.752 979.994 278.151C979.393 277.55 978.577 277.213 977.727 277.213Z" fill="white"/>
<path d="M571.608 363.379H552.373V344.158C552.373 343.308 552.035 342.493 551.434 341.892C550.832 341.292 550.017 340.954 549.167 340.954C548.316 340.954 547.501 341.292 546.9 341.892C546.299 342.493 545.961 343.308 545.961 344.158V363.379H526.725C525.875 363.379 525.06 363.716 524.459 364.317C523.857 364.918 523.52 365.733 523.52 366.582C523.52 367.432 523.857 368.247 524.459 368.848C525.06 369.448 525.875 369.786 526.725 369.786H545.961V389.007C545.961 389.857 546.299 390.671 546.9 391.272C547.501 391.873 548.316 392.21 549.167 392.21C550.017 392.21 550.832 391.873 551.434 391.272C552.035 390.671 552.373 389.857 552.373 389.007V369.786H571.608C572.458 369.786 573.274 369.448 573.875 368.848C574.476 368.247 574.814 367.432 574.814 366.582C574.814 365.733 574.476 364.918 573.875 364.317C573.274 363.716 572.458 363.379 571.608 363.379Z" fill="white"/>
</svg>
