<svg width="1350" height="898" viewBox="0 0 1350 898" fill="none" xmlns="http://www.w3.org/2000/svg">
<path d="M963.635 737.001V897.075H363V737.001C363 602.123 470.703 542.981 604.029 542.981H723.5C855.932 543.887 963.635 602.877 963.635 737.001Z" fill="#7FB3FA"/>
<path d="M878.742 651.177C848.254 601.543 753.95 562.905 710.609 549.791L739.617 542.981C811.952 543.587 873.875 575.011 895.794 590.648C951.39 628.781 965.289 698.339 965.289 728.351V897.075H901.16V736.673C901.16 698.843 887.211 664.796 878.742 651.177Z" fill="#619CEC"/>
<path d="M660.667 585.34H669.602C745.55 585.34 807.102 523.953 807.102 447.839V358.819H523.166V447.012C523.166 523.953 584.553 585.34 660.667 585.34Z" fill="#F2D6B8"/>
<path d="M762.598 248.951C742.411 246.469 721.397 250.606 708.491 265.994C706.009 237.699 684.168 215.031 657.528 215.031H561.228C443.087 206.923 463.439 358.985 523.171 358.985H684.995H701.211H793.374H807.108V314.475C806.28 295.777 813.561 254.577 762.598 248.951Z" fill="#6F3A2A"/>
<path d="M718.556 565.815L657.894 508.952C646.145 501.496 627.038 523.176 635.264 532.43L696.092 589.596L718.551 565.806L718.556 565.815Z" fill="#F2904D"/>
<path d="M808.626 650.285L709.815 557.61C698.067 550.154 678.96 571.834 687.186 581.087L784.457 674.12L808.626 650.285Z" fill="#E8E7F5"/>
<path d="M635.272 532.422L695.194 588.736L687.176 581.072C683.791 577.268 685.038 571.352 688.496 566.236L636.445 517.793C633.093 522.864 631.928 528.671 635.272 532.422Z" fill="#DE6941"/>
<path d="M687.183 581.083L695.201 588.747L784.455 674.115L794.134 664.56L704.277 580.931L688.487 566.243C685.035 571.369 683.782 577.274 687.168 581.079L687.183 581.083Z" fill="#CAC8E5"/>
<path d="M807.332 649.511L799.678 644.255C798.326 643.229 797.512 643.901 797.038 645.697C796.718 648.39 792.483 644.13 790.231 643.524C786.92 642.714 784.899 643.79 784.213 646.811L783.824 652.374C783.628 654.558 782.822 655.767 781.56 656.286C772.469 658.391 777.598 665.238 784.693 673.856L807.332 649.511Z" fill="#9998CB"/>
<path d="M789.781 655.472C783.109 662.054 780.725 670.395 784.456 674.103C788.188 677.81 796.622 675.48 803.294 668.899C809.966 662.317 812.35 653.976 808.618 650.268C804.887 646.56 796.453 648.89 789.781 655.472Z" fill="#352F4A"/>
<path d="M887.967 461.26C911.085 456.801 930.352 441.571 940.27 421.005C942.874 421.576 945.575 421.895 948.354 421.895C966.911 421.895 982.294 408.502 985.396 390.888C985.771 388.767 986.001 386.595 986.001 384.37C986.001 363.65 969.144 346.85 948.354 346.85C932.93 346.85 919.692 356.101 913.873 369.328C915.788 358.447 922.396 349.206 931.546 343.71C918.067 326.797 897.266 315.936 873.906 315.936C862.628 315.936 851.942 318.474 842.387 322.996C833.739 305.33 815.595 293.128 794.546 293.128C793.101 293.128 791.683 293.232 790.267 293.342C762.85 295.521 741.281 318.335 741.281 346.213C741.281 374.094 762.852 396.902 790.267 399.084C788.851 399.197 787.433 399.298 785.985 399.298C766.431 399.298 749.385 388.767 740.124 373.115C722.549 381.968 710.477 400.08 710.477 421.046C710.477 430.962 713.218 440.218 717.921 448.194C727.29 464.075 744.562 474.771 764.384 474.771C789.305 474.771 810.217 457.893 816.388 434.998C817.661 436.583 818.993 438.115 820.391 439.59C816.042 459.043 801.124 474.473 781.945 479.661C782.95 487.843 785.796 495.444 790.069 502.061C770.532 506.007 755.829 523.215 755.829 543.842C755.829 567.392 774.983 586.483 798.613 586.483C798.825 586.483 799.028 586.454 799.246 586.451C798.287 589.418 797.755 592.576 797.755 595.861C797.755 612.814 811.548 626.561 828.559 626.561C845.573 626.561 859.366 612.814 859.366 595.861C859.366 584.334 852.98 574.298 843.547 569.049C835.722 579.119 823.507 585.629 809.737 585.629C809.019 585.629 808.319 585.556 807.609 585.522C826.92 581.402 841.399 564.312 841.399 543.842C841.399 537.729 840.085 531.927 837.759 526.671C841.466 526.512 845.067 525.985 848.544 525.116C871.956 519.261 889.315 498.211 889.315 473.065C889.313 469 888.821 465.063 887.967 461.26Z" fill="#ABABAB"/>
<path d="M826.571 257.643C838.386 257.643 847.963 248.098 847.963 236.324C847.963 224.55 838.386 215.005 826.571 215.005C814.757 215.005 805.18 224.55 805.18 236.324C805.18 248.098 814.757 257.643 826.571 257.643Z" fill="#ABABAB"/>
<path d="M904.662 299.078C921.438 299.078 935.039 285.524 935.039 268.804C935.039 252.084 921.438 238.53 904.662 238.53C887.885 238.53 874.285 252.084 874.285 268.804C874.285 285.524 887.885 299.078 904.662 299.078Z" fill="#ABABAB"/>
<path d="M839 136C830.716 136 824 127.941 824 118C824 108.059 830.716 100 839 100C847.284 100 854 108.059 854 118C854 127.941 847.284 136 839 136Z" fill="#ABABAB"/>
<path d="M777.5 192C763.417 192 752 180.583 752 166.5C752 152.417 763.417 141 777.5 141C791.583 141 803 152.417 803 166.5C803 180.583 791.583 192 777.5 192Z" fill="#ABABAB"/>
</svg>
