<svg width="1350" height="891" viewBox="0 0 1350 891" fill="none" xmlns="http://www.w3.org/2000/svg">
<path d="M430.297 114.001C429.034 114.021 427.788 114.289 426.629 114.791C425.47 115.292 424.421 116.017 423.542 116.923C422.663 117.83 421.972 118.901 421.507 120.075C421.042 121.249 420.812 122.504 420.832 123.766V133.118C420.814 134.393 421.05 135.658 421.525 136.84C422 138.023 422.705 139.098 423.6 140.006C424.494 140.913 425.56 141.634 426.736 142.126C427.911 142.617 429.173 142.871 430.447 142.871C431.722 142.871 432.983 142.617 434.159 142.126C435.334 141.634 436.4 140.913 437.295 140.006C438.189 139.098 438.895 138.023 439.37 136.84C439.845 135.658 440.08 134.393 440.062 133.118V123.766C440.082 122.478 439.844 121.2 439.36 120.006C438.877 118.812 438.157 117.728 437.247 116.817C436.336 115.906 435.251 115.186 434.058 114.703C432.864 114.219 431.585 113.981 430.297 114.001ZM430.297 162.076C429.034 162.096 427.788 162.365 426.629 162.866C425.47 163.368 424.421 164.092 423.542 164.999C422.663 165.906 421.972 166.976 421.507 168.15C421.042 169.324 420.812 170.579 420.832 171.842V181.194C420.814 182.468 421.05 183.733 421.525 184.916C422 186.098 422.705 187.174 423.6 188.081C424.494 188.989 425.56 189.709 426.736 190.201C427.911 190.693 429.173 190.946 430.447 190.946C431.722 190.946 432.983 190.693 434.159 190.201C435.334 189.709 436.4 188.989 437.295 188.081C438.189 187.174 438.895 186.098 439.37 184.916C439.845 183.733 440.08 182.468 440.062 181.194V171.842C440.082 170.554 439.844 169.275 439.36 168.081C438.877 166.887 438.157 165.803 437.247 164.892C436.336 163.981 435.251 163.262 434.058 162.778C432.864 162.295 431.585 162.056 430.297 162.076ZM449.828 142.846C448.554 142.828 447.288 143.064 446.106 143.539C444.923 144.014 443.848 144.719 442.94 145.614C442.033 146.508 441.312 147.574 440.821 148.75C440.329 149.926 440.075 151.187 440.075 152.461C440.075 153.736 440.329 154.997 440.821 156.173C441.312 157.348 442.033 158.414 442.94 159.309C443.848 160.203 444.923 160.909 446.106 161.384C447.288 161.859 448.554 162.094 449.828 162.076H459.18C460.454 162.094 461.719 161.859 462.902 161.384C464.084 160.909 465.16 160.203 466.067 159.309C466.975 158.414 467.695 157.348 468.187 156.173C468.679 154.997 468.932 153.736 468.932 152.461C468.932 151.187 468.679 149.926 468.187 148.75C467.695 147.574 466.975 146.508 466.067 145.614C465.16 144.719 464.084 144.014 462.902 143.539C461.719 143.064 460.454 142.828 459.18 142.846H449.828ZM401.752 142.846C400.478 142.828 399.213 143.064 398.03 143.539C396.848 144.014 395.772 144.719 394.865 145.614C393.958 146.508 393.237 147.574 392.745 148.75C392.253 149.926 392 151.187 392 152.461C392 153.736 392.253 154.997 392.745 156.173C393.237 157.348 393.958 158.414 394.865 159.309C395.772 160.203 396.848 160.909 398.03 161.384C399.213 161.859 400.478 162.094 401.752 162.076H411.104C412.379 162.094 413.644 161.859 414.826 161.384C416.009 160.909 417.084 160.203 417.992 159.309C418.899 158.414 419.62 157.348 420.112 156.173C420.603 154.997 420.857 153.736 420.857 152.461C420.857 151.187 420.603 149.926 420.112 148.75C419.62 147.574 418.899 146.508 417.992 145.614C417.084 144.719 416.009 144.014 414.826 143.539C413.644 143.064 412.379 142.828 411.104 142.846H401.752Z" fill="#595BD4"/>
<path d="M905.776 536.539C904.513 536.559 903.267 536.827 902.108 537.328C900.949 537.83 899.9 538.555 899.021 539.462C898.142 540.369 897.449 541.44 896.984 542.614C896.519 543.789 896.29 545.043 896.31 546.306V555.66C896.292 556.934 896.527 558.2 897.003 559.382C897.478 560.565 898.183 561.641 899.078 562.548C899.973 563.456 901.039 564.176 902.215 564.668C903.39 565.16 904.652 565.414 905.927 565.414C907.201 565.414 908.463 565.16 909.639 564.668C910.814 564.176 911.88 563.456 912.775 562.548C913.67 561.641 914.375 560.565 914.851 559.382C915.326 558.2 915.561 556.934 915.543 555.66V546.306C915.563 545.018 915.325 543.739 914.841 542.545C914.358 541.351 913.638 540.266 912.727 539.355C911.816 538.444 910.732 537.725 909.538 537.241C908.343 536.758 907.065 536.519 905.776 536.539ZM905.776 584.622C904.513 584.642 903.267 584.91 902.108 585.411C900.949 585.913 899.9 586.638 899.021 587.545C898.142 588.452 897.449 589.523 896.984 590.697C896.519 591.872 896.29 593.126 896.31 594.389V603.743C896.292 605.017 896.527 606.283 897.003 607.465C897.478 608.648 898.183 609.724 899.078 610.631C899.973 611.539 901.039 612.26 902.215 612.751C903.39 613.243 904.652 613.497 905.927 613.497C907.201 613.497 908.463 613.243 909.639 612.751C910.814 612.26 911.88 611.539 912.775 610.631C913.67 609.724 914.375 608.648 914.851 607.465C915.326 606.283 915.561 605.017 915.543 603.743V594.389C915.563 593.101 915.325 591.822 914.841 590.628C914.358 589.434 913.638 588.35 912.727 587.439C911.816 586.528 910.732 585.808 909.538 585.324C908.343 584.841 907.065 584.602 905.776 584.622ZM925.273 565.389C923.998 565.371 922.733 565.607 921.55 566.082C920.368 566.557 919.292 567.262 918.384 568.157C917.477 569.052 916.756 570.118 916.264 571.294C915.772 572.47 915.519 573.731 915.519 575.006C915.519 576.28 915.772 577.542 916.264 578.718C916.756 579.893 917.477 580.959 918.384 581.854C919.292 582.749 920.368 583.455 921.55 583.93C922.733 584.405 923.998 584.64 925.273 584.622H934.626C935.901 584.64 937.166 584.405 938.349 583.93C939.531 583.455 940.607 582.749 941.515 581.854C942.422 580.959 943.143 579.893 943.635 578.718C944.127 577.542 944.38 576.28 944.38 575.006C944.38 573.731 944.127 572.47 943.635 571.294C943.143 570.118 942.422 569.052 941.515 568.157C940.607 567.262 939.531 566.557 938.349 566.082C937.166 565.607 935.901 565.371 934.626 565.389H925.273ZM877.19 565.389C875.915 565.371 874.65 565.607 873.467 566.082C872.285 566.557 871.209 567.262 870.301 568.157C869.394 569.052 868.673 570.118 868.181 571.294C867.689 572.47 867.436 573.731 867.436 575.006C867.436 576.28 867.689 577.542 868.181 578.718C868.673 579.893 869.394 580.959 870.301 581.854C871.209 582.749 872.285 583.455 873.467 583.93C874.65 584.405 875.915 584.64 877.19 584.622H886.543C887.817 584.64 889.083 584.405 890.266 583.93C891.448 583.455 892.524 582.749 893.432 581.854C894.339 580.959 895.06 579.893 895.552 578.718C896.044 577.542 896.297 576.28 896.297 575.006C896.297 573.731 896.044 572.47 895.552 571.294C895.06 570.118 894.339 569.052 893.432 568.157C892.524 567.262 891.448 566.557 890.266 566.082C889.083 565.607 887.817 565.371 886.543 565.389H877.19Z" fill="#595BD4"/>
<path d="M957.001 650.864C957.001 653.414 955.988 655.86 954.185 657.663C952.382 659.467 949.936 660.479 947.386 660.479C944.836 660.479 942.389 659.467 940.586 657.663C938.783 655.86 937.771 653.414 937.771 650.864C937.771 648.314 938.783 645.868 940.586 644.065C942.389 642.262 944.836 641.249 947.386 641.249C949.936 641.249 952.382 642.262 954.185 644.065C955.988 645.868 957.001 648.314 957.001 650.864Z" fill="#595BD4"/>
<path d="M737.223 283.956C725.454 283.956 715.979 293.431 715.979 305.201V475.157C715.965 495.817 723.524 515.766 737.226 531.23C750.928 546.693 769.822 556.599 790.334 559.072V687.601C790.334 693.236 788.096 698.639 784.112 702.624C780.128 706.608 774.724 708.846 769.09 708.846H726.601C720.61 710.036 715.979 713.583 715.979 719.468C715.979 725.353 720.716 730.09 726.601 730.09H875.312C878.129 730.09 880.831 728.971 882.823 726.979C884.815 724.987 885.934 722.285 885.934 719.468C885.934 716.651 884.815 713.949 882.823 711.957C880.831 709.965 878.129 708.846 875.312 708.846H832.823C827.189 708.846 821.785 706.608 817.801 702.624C813.817 698.639 811.579 693.236 811.579 687.601V559.072C832.091 556.599 850.985 546.693 864.687 531.23C878.389 515.766 885.948 495.817 885.934 475.157V305.201C885.934 293.431 876.459 283.956 864.69 283.956H737.223Z" fill="#C6C6CE"/>
<path d="M737.223 283.956C725.454 283.956 715.979 293.431 715.979 305.201V475.156C715.979 522.234 753.879 560.134 800.956 560.134C848.034 560.134 885.934 522.234 885.934 475.156V305.201C885.934 293.431 876.459 283.956 864.69 283.956H737.223Z" fill="#C6C6CE"/>
<path d="M753.158 326.635C751.064 326.629 748.99 327.038 747.054 327.836C745.118 328.635 743.36 329.808 741.879 331.289C740.398 332.77 739.225 334.528 738.426 336.464C737.627 338.4 737.219 340.474 737.225 342.568V475.155C737.225 510.463 765.65 538.889 800.958 538.889C836.267 538.889 864.692 510.463 864.692 475.155V342.589C864.697 340.495 864.289 338.421 863.49 336.485C862.691 334.55 861.518 332.791 860.037 331.31C858.557 329.83 856.798 328.656 854.862 327.858C852.927 327.059 850.852 326.65 848.758 326.656L753.158 326.635Z" fill="white"/>
<path d="M843.446 326.614V475.156C843.462 486.701 841.097 498.125 836.499 508.714C831.9 519.304 825.168 528.831 816.721 536.701C830.431 533.254 842.597 525.327 851.288 514.177C859.979 503.026 864.696 489.293 864.691 475.156V342.548C864.696 340.454 864.288 338.379 863.489 336.444C862.691 334.508 861.517 332.749 860.036 331.269C858.556 329.788 856.797 328.614 854.861 327.816C852.926 327.017 850.851 326.609 848.757 326.614H843.446Z" fill="#DCDCDC"/>
<path d="M535.4 135.246V283.958C535.4 301.166 528.304 316.398 517.257 327.827C485.093 333.84 461.044 359.375 461.044 390.18V708.847C461.044 720.617 471.581 730.092 484.647 730.092H649.886C662.952 730.092 673.489 720.617 673.489 708.847V390.18C673.489 359.375 649.44 333.84 617.276 327.827C605.721 316.141 599.208 300.391 599.133 283.958V135.246H535.4Z" fill="#29292E"/>
<path d="M567.268 135.246V283.958C567.268 302.844 575.553 319.563 588.512 331.227H620.379C607.42 319.563 599.134 302.844 599.134 283.958V135.246H567.268Z" fill="#16161B"/>
<path d="M567.265 411.421C602.573 411.421 630.998 439.846 630.998 475.154V602.621C630.998 637.93 602.573 666.355 567.265 666.355C531.956 666.355 503.531 637.93 503.531 602.621V475.154C503.531 439.846 531.956 411.421 567.265 411.421Z" fill="#C6C6CE"/>
<path fill-rule="evenodd" clip-rule="evenodd" d="M535.528 475.133C532.71 475.133 530.009 476.253 528.016 478.245C526.024 480.237 524.905 482.938 524.905 485.755C524.905 488.572 526.024 491.276 528.016 493.268C530.009 495.26 532.71 496.377 535.528 496.377H599.006C601.823 496.377 604.525 495.26 606.517 493.268C608.509 491.276 609.628 488.572 609.628 485.755C609.628 482.938 608.509 480.237 606.517 478.245C604.525 476.253 601.823 475.133 599.006 475.133H535.528ZM535.528 581.355C532.71 581.355 530.009 582.475 528.016 584.467C526.024 586.459 524.905 589.16 524.905 591.978C524.905 594.795 526.024 597.498 528.016 599.49C530.009 601.482 532.71 602.6 535.528 602.6H599.006C601.823 602.6 604.525 601.482 606.517 599.49C608.509 597.498 609.628 594.795 609.628 591.978C609.628 589.16 608.509 586.459 606.517 584.467C604.525 582.475 601.823 581.355 599.006 581.355H535.528Z" fill="#595BD4"/>
<path d="M822.2 283.956C833.969 283.956 843.444 293.431 843.444 305.201V326.615H848.756C857.572 326.615 864.689 333.732 864.689 342.548V475.156C864.689 504.984 844.294 529.67 816.719 536.702C806.302 546.528 793.572 553.565 779.711 557.16C786.53 558.902 793.562 560.134 800.955 560.134C848.033 560.134 885.933 522.234 885.933 475.156V305.201C885.933 293.431 876.458 283.956 864.689 283.956H822.2Z" fill="#A9A9B1"/>
<path d="M737.225 368.935V475.157C737.225 510.465 765.65 538.891 800.958 538.891C836.266 538.891 864.692 510.465 864.692 475.157V368.935H737.225Z" fill="#FE9526"/>
<path d="M769.087 422.047C769.087 424.865 767.968 427.566 765.976 429.558C763.984 431.551 761.282 432.67 758.465 432.67C755.648 432.67 752.946 431.551 750.954 429.558C748.962 427.566 747.843 424.865 747.843 422.047C747.843 419.23 748.962 416.528 750.954 414.536C752.946 412.544 755.648 411.425 758.465 411.425C761.282 411.425 763.984 412.544 765.976 414.536C767.968 416.528 769.087 419.23 769.087 422.047ZM843.443 443.292C843.443 446.109 842.324 448.811 840.332 450.803C838.34 452.795 835.638 453.914 832.821 453.914C830.004 453.914 827.302 452.795 825.31 450.803C823.318 448.811 822.199 446.109 822.199 443.292C822.199 440.475 823.318 437.773 825.31 435.781C827.302 433.789 830.004 432.67 832.821 432.67C835.638 432.67 838.34 433.789 840.332 435.781C842.324 437.773 843.443 440.475 843.443 443.292ZM790.332 485.781C790.332 488.598 789.213 491.3 787.221 493.292C785.229 495.284 782.527 496.403 779.71 496.403C776.892 496.403 774.191 495.284 772.198 493.292C770.206 491.3 769.087 488.598 769.087 485.781C769.087 482.964 770.206 480.262 772.198 478.27C774.191 476.278 776.892 475.159 779.71 475.159C782.527 475.159 785.229 476.278 787.221 478.27C789.213 480.262 790.332 482.964 790.332 485.781ZM843.443 507.025C843.443 509.843 842.324 512.544 840.332 514.536C838.34 516.529 835.638 517.648 832.821 517.648C830.004 517.648 827.302 516.529 825.31 514.536C823.318 512.544 822.199 509.843 822.199 507.025C822.199 504.208 823.318 501.506 825.31 499.514C827.302 497.522 830.004 496.403 832.821 496.403C835.638 496.403 838.34 497.522 840.332 499.514C842.324 501.506 843.443 504.208 843.443 507.025ZM822.199 400.803C822.199 403.62 821.079 406.322 819.087 408.314C817.095 410.306 814.393 411.425 811.576 411.425C808.759 411.425 806.057 410.306 804.065 408.314C802.073 406.322 800.954 403.62 800.954 400.803C800.954 397.986 802.073 395.284 804.065 393.292C806.057 391.3 808.759 390.181 811.576 390.181C814.393 390.181 817.095 391.3 819.087 393.292C821.079 395.284 822.199 397.986 822.199 400.803Z" fill="#FFA94E"/>
<path d="M560.169 326.443C599.408 326.443 630.998 354.868 630.998 390.177V708.844C630.998 720.614 620.461 730.089 607.395 730.089H649.884C662.95 730.089 673.487 720.614 673.487 708.844V390.177C673.487 354.868 641.897 326.443 602.658 326.443H560.169Z" fill="#16161B"/>
<path d="M546.022 114H588.511C594.395 114 599.133 118.738 599.133 124.622L592.76 145.867C591.06 151.518 588.022 156.489 582.137 156.489H552.395C546.51 156.489 543.472 151.518 541.773 145.867L535.399 124.622C535.399 118.738 540.137 114 546.022 114Z" fill="#FE9526"/>
<path d="M567.268 114C573.152 114 577.89 118.738 577.89 124.622L571.495 145.867C569.796 151.518 566.758 156.489 560.873 156.489H582.118C588.002 156.489 591.04 151.518 592.74 145.867L599.113 124.622C599.113 118.738 594.397 114 588.491 114H567.246H567.268Z" fill="#E67701"/>
<path d="M535.399 135.246C529.514 135.246 524.776 139.984 524.776 145.868V167.113C524.776 172.998 529.514 177.735 535.399 177.735V262.713C535.399 274.483 544.874 283.958 556.643 283.958H577.888C589.657 283.958 599.132 274.483 599.132 262.713V177.735C605.017 177.735 609.754 172.998 609.754 167.113V145.868C609.754 139.984 605.017 135.246 599.132 135.246H535.399Z" fill="#FFA94E"/>
<path d="M577.889 135.246C583.774 135.246 588.511 139.984 588.511 145.868V167.113C588.511 172.998 583.774 177.735 577.889 177.735V262.713C577.889 274.483 568.414 283.958 556.645 283.958H577.889C589.658 283.958 599.134 274.483 599.134 262.713V177.735C605.018 177.735 609.756 172.998 609.756 167.113V145.868C609.756 139.984 605.018 135.246 599.134 135.246H577.889Z" fill="#FE9526"/>
<path d="M843.446 368.935V475.157C843.462 486.702 841.097 498.126 836.499 508.716C831.9 519.305 825.168 528.832 816.721 536.702C830.431 533.256 842.597 525.328 851.288 514.178C859.979 503.028 864.696 489.294 864.691 475.157V368.935H843.446Z" fill="#E67701"/>
<path d="M832.82 708.848C835.638 708.848 838.339 709.967 840.331 711.959C842.323 713.951 843.443 716.653 843.443 719.47C843.443 722.287 842.323 724.989 840.331 726.981C838.339 728.973 835.638 730.092 832.82 730.092H875.309C878.126 730.092 880.828 728.973 882.82 726.981C884.812 724.989 885.932 722.287 885.932 719.47C885.932 716.653 884.812 713.951 882.82 711.959C880.828 709.967 878.126 708.848 875.309 708.848H832.82Z" fill="#A9A9B1"/>
<path d="M829.4 257.493C828.804 257.374 828.256 257.072 827.827 256.626C827.558 256.316 827.34 255.961 827.184 255.576C827.012 255.198 826.928 254.783 826.938 254.366C826.95 253.523 827.267 252.715 827.827 252.105C827.978 251.96 828.142 251.832 828.318 251.723C828.474 251.597 828.651 251.5 828.839 251.437C829.022 251.34 829.219 251.275 829.422 251.246C829.914 251.143 830.423 251.168 830.905 251.318C831.386 251.468 831.824 251.738 832.181 252.105L832.549 252.58C832.664 252.759 832.757 252.952 832.825 253.156C832.913 253.336 832.975 253.53 833.009 253.729C833.044 253.939 833.065 254.152 833.07 254.366C833.081 254.783 832.997 255.198 832.825 255.576C832.669 255.961 832.451 256.316 832.181 256.626C831.883 256.907 831.541 257.133 831.169 257.295C830.612 257.543 829.995 257.612 829.4 257.493Z" fill="#595BD4"/>
<path d="M798.741 241.574C798.145 241.455 797.598 241.153 797.169 240.707C796.899 240.397 796.681 240.042 796.525 239.657C796.363 239.276 796.28 238.864 796.28 238.447C796.28 238.03 796.363 237.618 796.525 237.237C796.673 236.848 796.892 236.491 797.169 236.186C797.6 235.745 798.148 235.445 798.742 235.326C799.337 235.207 799.952 235.274 800.511 235.518C800.891 235.661 801.237 235.889 801.523 236.186C801.809 236.483 802.029 236.842 802.166 237.237C802.328 237.618 802.412 238.03 802.412 238.447C802.412 238.864 802.328 239.276 802.166 239.657C802.01 240.042 801.792 240.397 801.522 240.707C801.224 240.988 800.882 241.215 800.511 241.376C799.953 241.624 799.337 241.693 798.741 241.574Z" fill="#595BD4"/>
<path d="M731.897 244.814C731.496 244.814 731.099 244.728 730.732 244.56C730.361 244.398 730.018 244.172 729.72 243.891C729.291 243.446 729.001 242.877 728.886 242.259C728.771 241.64 728.837 241 729.076 240.421C729.225 240.031 729.443 239.675 729.72 239.37C729.87 239.225 730.035 239.097 730.211 238.988C730.367 238.862 730.543 238.765 730.732 238.702C730.914 238.605 731.111 238.54 731.314 238.511C731.807 238.408 732.316 238.433 732.797 238.583C733.278 238.733 733.717 239.003 734.074 239.37C734.351 239.675 734.569 240.031 734.718 240.421C734.956 241 735.023 241.64 734.908 242.259C734.793 242.877 734.503 243.446 734.074 243.891C733.776 244.172 733.433 244.398 733.062 244.56C732.695 244.728 732.298 244.814 731.897 244.814Z" fill="#595BD4"/>
<path d="M762.555 251.182H759.49C758.677 251.182 757.897 250.847 757.322 250.25C756.747 249.652 756.424 248.843 756.424 247.998C756.424 247.154 756.747 246.344 757.322 245.747C757.897 245.15 758.677 244.815 759.49 244.815H762.555V241.631C762.555 240.786 762.878 239.977 763.453 239.379C764.028 238.782 764.808 238.447 765.621 238.447C766.434 238.447 767.214 238.782 767.789 239.379C768.364 239.977 768.687 240.786 768.687 241.631V244.815H771.753C772.566 244.815 773.346 245.15 773.921 245.747C774.496 246.344 774.819 247.154 774.819 247.998C774.819 248.843 774.496 249.652 773.921 250.25C773.346 250.847 772.566 251.182 771.753 251.182H768.687V254.366C768.687 255.21 768.364 256.02 767.789 256.617C767.214 257.214 766.434 257.55 765.621 257.55C764.808 257.55 764.028 257.214 763.453 256.617C762.878 256.02 762.555 255.21 762.555 254.366V251.182Z" fill="#595BD4"/>
<path d="M854.531 238.447H851.465C850.652 238.447 849.872 238.112 849.297 237.514C848.722 236.917 848.399 236.108 848.399 235.263C848.399 234.419 848.722 233.609 849.297 233.012C849.872 232.415 850.652 232.079 851.465 232.079H854.531V228.896C854.531 228.051 854.854 227.241 855.429 226.644C856.004 226.047 856.784 225.712 857.597 225.712C858.41 225.712 859.19 226.047 859.765 226.644C860.34 227.241 860.663 228.051 860.663 228.896V232.079H863.729C864.542 232.079 865.321 232.415 865.896 233.012C866.471 233.609 866.794 234.419 866.794 235.263C866.794 236.108 866.471 236.917 865.896 237.514C865.321 238.112 864.542 238.447 863.729 238.447H860.663V241.631C860.663 242.475 860.34 243.285 859.765 243.882C859.19 244.479 858.41 244.815 857.597 244.815C856.784 244.815 856.004 244.479 855.429 243.882C854.854 243.285 854.531 242.475 854.531 241.631V238.447Z" fill="#595BD4"/>
</svg>
