<svg width="1350" height="891" viewBox="0 0 1350 891" fill="none" xmlns="http://www.w3.org/2000/svg">
<path d="M493.333 610H402.667C390.148 610 380 620.208 380 632.8V701.2C380 713.792 390.148 724 402.667 724H493.333C505.852 724 516 713.792 516 701.2V632.8C516 620.208 505.852 610 493.333 610Z" fill="#FFD599"/>
<path d="M946.5 610H856.5C844.074 610 834 620.208 834 632.8V701.2C834 713.792 844.074 724 856.5 724H946.5C958.926 724 969 713.792 969 701.2V632.8C969 620.208 958.926 610 946.5 610Z" fill="#FFD599"/>
<path d="M809.5 229H539.5C509.663 229 481.048 240.8 459.95 261.804C438.853 282.808 427 311.296 427 341V430.6C427 436.541 429.371 442.238 433.59 446.439C437.81 450.64 443.533 453 449.5 453H899.5C905.467 453 911.19 450.64 915.41 446.439C919.629 442.238 922 436.541 922 430.6V341C922 311.296 910.147 282.808 889.05 261.804C867.952 240.8 839.337 229 809.5 229Z" fill="#FFD599"/>
<path d="M810.588 229H543.2C515.714 229.033 489.238 239.444 469 258.178C485.936 247.835 505.346 242.326 525.151 242.242H792.54C822.088 242.242 850.426 254.066 871.32 275.112C892.213 296.158 903.951 324.703 903.951 354.467V444.247C903.946 447.255 903.339 450.232 902.169 453C907.568 452.399 912.563 449.831 916.215 445.781C919.867 441.73 921.924 436.475 922 431.004V341.224C922 311.461 910.262 282.916 889.368 261.87C868.475 240.824 840.137 229 810.588 229Z" fill="#E4AB7B"/>
<path d="M774.6 339H595.4C583.029 339 573 349.208 573 361.8V430.2C573 442.792 583.029 453 595.4 453H774.6C786.971 453 797 442.792 797 430.2V361.8C797 349.208 786.971 339 774.6 339Z" fill="#E4AB7B"/>
<path d="M764.6 339H585.4C573.029 339 563 349.208 563 361.8V430.2C563 442.792 573.029 453 585.4 453H764.6C776.971 453 787 442.792 787 430.2V361.8C787 349.208 776.971 339 764.6 339Z" fill="#FF9797"/>
<path d="M764.809 339H587.304C583.305 339.074 579.4 340.257 576.002 342.425C572.604 344.592 569.839 347.663 568 351.312C569.329 351.206 570.665 351.206 571.994 351.312H749.499C755.384 351.312 761.027 353.714 765.188 357.99C769.35 362.266 771.687 368.065 771.687 374.112V442.512C771.652 446.21 770.657 449.831 768.803 453C773.972 452.029 778.637 449.204 781.969 445.029C785.301 440.854 787.083 435.599 786.997 430.2V361.8C786.997 355.753 784.659 349.954 780.498 345.678C776.337 341.402 770.694 339 764.809 339Z" fill="#E47979"/>
<path d="M901.038 406H447.962C429.937 406 412.651 413.23 399.905 426.1C387.16 438.969 380 456.425 380 474.625V566.125C380 572.192 382.387 578.01 386.635 582.3C390.884 586.59 396.646 589 402.654 589H946.346C952.354 589 958.116 586.59 962.365 582.3C966.613 578.01 969 572.192 969 566.125V474.625C969 456.425 961.84 438.969 949.095 426.1C936.349 413.23 919.063 406 901.038 406Z" fill="#F4DAB7"/>
<path d="M901.273 406H449.763C440.64 406.035 431.618 407.938 423.239 411.594C414.859 415.249 407.295 420.583 401 427.274C408.225 424.556 415.869 423.162 423.576 423.156H875.086C893.048 423.156 910.275 430.386 922.976 443.256C935.677 456.126 942.812 473.581 942.812 491.781V583.281C943.049 585.18 943.049 587.101 942.812 589H946.425C952.412 589 958.154 586.59 962.388 582.3C966.622 578.01 969 572.192 969 566.125V474.625C969 456.425 961.865 438.969 949.163 426.1C936.462 413.23 919.236 406 901.273 406Z" fill="#ECC5B4"/>
<path d="M515.923 632.333V677H380V632.333C380 626.41 382.387 620.73 386.635 616.541C390.884 612.353 396.646 610 402.654 610H493.269C499.277 610 505.039 612.353 509.288 616.541C513.536 620.73 515.923 626.41 515.923 632.333ZM969 632.333V677H833.077V632.333C833.077 626.41 835.464 620.73 839.712 616.541C843.96 612.353 849.723 610 855.731 610H946.346C952.354 610 958.116 612.353 962.365 616.541C966.613 620.73 969 626.41 969 632.333Z" fill="#E4AB7B"/>
<path d="M988.6 542H361.4C349.029 542 339 552.208 339 564.8V633.2C339 645.792 349.029 656 361.4 656H988.6C1000.97 656 1011 645.792 1011 633.2V564.8C1011 552.208 1000.97 542 988.6 542Z" fill="#D6B5B0"/>
<path d="M988.6 542H986.36V609.032C986.36 615.079 984 620.878 979.799 625.154C975.598 629.43 969.901 631.832 963.96 631.832H339V633.2C339 639.247 341.36 645.046 345.561 649.322C349.762 653.598 355.459 656 361.4 656H988.6C994.541 656 1000.24 653.598 1004.44 649.322C1008.64 645.046 1011 639.247 1011 633.2V564.8C1011 558.753 1008.64 552.954 1004.44 548.678C1000.24 544.402 994.541 542 988.6 542Z" fill="#BF9E99"/>
<path d="M417.027 263.369L364.549 275.822L375.222 244.69L298.728 274.932L291.612 301.616C291.612 301.616 352.986 268.706 349.428 274.043C345.87 279.379 336.086 303.395 336.086 303.395L417.027 263.369ZM423.254 204.664L394.791 184.206L415.248 176.201L368.107 150.406L351.207 158.412C351.207 158.412 393.901 175.312 389.454 175.312C385.006 176.201 368.996 181.538 368.996 181.538L423.254 204.664ZM459.722 204.664L474.843 161.97L491.743 184.206L505.974 116.607L490.853 98.8174C490.853 98.8174 485.516 157.522 482.848 152.185C480.18 146.849 468.616 129.949 468.616 129.949L459.722 204.664Z" fill="#EA4335"/>
<path d="M919.628 253.328L982.676 253.738L961.14 286.108L1056.54 273.987L1073.03 245.986C1073.03 245.986 993.394 265.747 999.195 259.803C1005 253.859 1021.95 230.942 1021.95 230.942L919.628 253.328Z" fill="#EA4335"/>
<path d="M979.559 198.805L1011.02 161.507L1019.92 190.762L1060.8 128.117L1051.51 103.799C1051.51 103.799 1023.46 161.231 1023.94 155.059C1023.18 148.791 1017.5 125.996 1017.5 125.996L979.559 198.805Z" fill="#EA4335"/>
</svg>
