<svg width="1350" height="891" viewBox="0 0 1350 891" fill="none" xmlns="http://www.w3.org/2000/svg">
<path d="M331.214 343.214C322.352 343.204 313.855 339.679 307.588 333.412C301.321 327.145 297.796 318.648 297.786 309.786C297.786 309.047 297.492 308.338 296.97 307.816C296.447 307.293 295.739 307 295 307C294.261 307 293.553 307.293 293.03 307.816C292.508 308.338 292.214 309.047 292.214 309.786C292.204 318.648 288.679 327.145 282.412 333.412C276.145 339.679 267.648 343.204 258.786 343.214C258.047 343.214 257.338 343.508 256.816 344.03C256.293 344.553 256 345.261 256 346C256 346.739 256.293 347.447 256.816 347.97C257.338 348.492 258.047 348.786 258.786 348.786C267.648 348.796 276.145 352.321 282.412 358.588C288.679 364.855 292.204 373.352 292.214 382.214C292.214 382.953 292.508 383.662 293.03 384.184C293.553 384.707 294.261 385 295 385C295.739 385 296.447 384.707 296.97 384.184C297.492 383.662 297.786 382.953 297.786 382.214C297.796 373.352 301.321 364.855 307.588 358.588C313.855 352.321 322.352 348.796 331.214 348.786C331.953 348.786 332.662 348.492 333.184 347.97C333.707 347.447 334 346.739 334 346C334 345.261 333.707 344.553 333.184 344.03C332.662 343.508 331.953 343.214 331.214 343.214Z" fill="white"/>
<path d="M1045.21 137.536C1036.35 137.525 1027.85 133.774 1021.59 127.105C1015.32 120.437 1011.8 111.395 1011.79 101.964C1011.79 101.178 1011.49 100.424 1010.97 99.8682C1010.45 99.3123 1009.74 99 1009 99C1008.26 99 1007.55 99.3123 1007.03 99.8682C1006.51 100.424 1006.21 101.178 1006.21 101.964C1006.2 111.395 1002.68 120.437 996.412 127.105C990.145 133.774 981.648 137.525 972.786 137.536C972.047 137.536 971.338 137.848 970.816 138.404C970.293 138.96 970 139.714 970 140.5C970 141.286 970.293 142.04 970.816 142.596C971.338 143.152 972.047 143.464 972.786 143.464C981.648 143.475 990.145 147.226 996.412 153.895C1002.68 160.563 1006.2 169.605 1006.21 179.036C1006.21 179.822 1006.51 180.576 1007.03 181.132C1007.55 181.688 1008.26 182 1009 182C1009.74 182 1010.45 181.688 1010.97 181.132C1011.49 180.576 1011.79 179.822 1011.79 179.036C1011.8 169.605 1015.32 160.563 1021.59 153.895C1027.85 147.226 1036.35 143.475 1045.21 143.464C1045.95 143.464 1046.66 143.152 1047.18 142.596C1047.71 142.04 1048 141.286 1048 140.5C1048 139.714 1047.71 138.96 1047.18 138.404C1046.66 137.848 1045.95 137.536 1045.21 137.536Z" fill="white"/>
<path d="M383.487 381.447H364.266V362.226C364.266 361.376 363.929 360.562 363.328 359.961C362.727 359.36 361.912 359.022 361.063 359.022C360.213 359.022 359.398 359.36 358.798 359.961C358.197 360.562 357.859 361.376 357.859 362.226V381.447H338.638C337.788 381.447 336.974 381.785 336.373 382.385C335.772 382.986 335.435 383.801 335.435 384.651C335.435 385.5 335.772 386.315 336.373 386.916C336.974 387.517 337.788 387.854 338.638 387.854H357.859V407.075C357.859 407.925 358.197 408.74 358.798 409.341C359.398 409.941 360.213 410.279 361.063 410.279C361.912 410.279 362.727 409.941 363.328 409.341C363.929 408.74 364.266 407.925 364.266 407.075V387.854H383.487C384.337 387.854 385.152 387.517 385.753 386.916C386.353 386.315 386.691 385.5 386.691 384.651C386.691 383.801 386.353 382.986 385.753 382.385C385.152 381.785 384.337 381.447 383.487 381.447Z" fill="white"/>
<path d="M1073.42 658.626H1054.2V639.405C1054.2 638.555 1053.87 637.74 1053.27 637.139C1052.66 636.539 1051.85 636.201 1051 636.201C1050.15 636.201 1049.34 636.539 1048.74 637.139C1048.13 637.74 1047.8 638.555 1047.8 639.405V658.626H1028.58C1027.73 658.626 1026.91 658.963 1026.31 659.564C1025.71 660.165 1025.37 660.98 1025.37 661.829C1025.37 662.679 1025.71 663.494 1026.31 664.095C1026.91 664.695 1027.73 665.033 1028.58 665.033H1047.8V684.254C1047.8 685.104 1048.13 685.918 1048.74 686.519C1049.34 687.12 1050.15 687.458 1051 687.458C1051.85 687.458 1052.66 687.12 1053.27 686.519C1053.87 685.918 1054.2 685.104 1054.2 684.254V665.033H1073.42C1074.27 665.033 1075.09 664.695 1075.69 664.095C1076.29 663.494 1076.63 662.679 1076.63 661.829C1076.63 660.98 1076.29 660.165 1075.69 659.564C1075.09 658.963 1074.27 658.626 1073.42 658.626Z" fill="white"/>
<path d="M584.131 117.866V415.048L552.254 440.344L520.448 415.048V117.866C520.837 109.683 524.362 101.964 530.291 96.3105C536.22 90.6569 544.098 87.5029 552.29 87.5029C560.482 87.5029 568.36 90.6569 574.289 96.3105C580.218 101.964 583.742 109.683 584.131 117.866Z" fill="#F8E883"/>
<path d="M679.32 662.489C680.487 680.324 676.94 698.152 669.037 714.183C655.503 721.616 641.285 727.729 626.578 732.435C619.576 734.667 612.563 736.548 605.344 738.173C591.39 741.346 577.18 743.263 562.885 743.901C559.389 744.014 555.779 744.117 552.273 744.117C548.766 744.117 545.157 744.014 541.661 743.901C527.365 743.262 513.155 741.345 499.202 738.173C492.004 736.579 484.97 734.667 477.967 732.435C463.271 727.727 449.063 721.615 435.539 714.183C414.274 682.13 424.886 564.615 477.957 500.51V457.517C477.955 451.94 479.053 446.419 481.186 441.267C483.319 436.115 486.447 431.433 490.39 427.491C494.333 423.548 499.014 420.42 504.166 418.287C509.318 416.154 514.84 415.056 520.416 415.058H584.109C589.685 415.056 595.207 416.154 600.359 418.287C605.511 420.42 610.192 423.548 614.135 427.491C618.078 431.433 621.206 436.115 623.339 441.267C625.472 446.419 626.569 451.94 626.568 457.517V500.51C662.867 544.347 679.32 613.028 679.32 662.489Z" fill="#DCDCDC"/>
<path d="M530.145 500.51V453.105C530.168 445.815 531.808 438.62 534.949 432.04C538.089 425.461 542.651 419.66 548.305 415.058H520.448C514.871 415.055 509.348 416.151 504.195 418.284C499.042 420.417 494.36 423.544 490.416 427.487C486.471 431.43 483.343 436.112 481.209 441.264C479.075 446.417 477.978 451.94 477.979 457.517V500.51C424.908 564.615 414.296 682.13 435.541 714.183C447.318 720.598 459.607 726.026 472.282 730.409C460.529 676.598 477.167 564.481 530.145 500.51Z" fill="#C7BDC0"/>
<path d="M626.589 457.517V500.51H477.978V457.517C477.976 451.94 479.074 446.417 481.208 441.264C483.342 436.112 486.47 431.43 490.414 427.487C494.358 423.544 499.041 420.417 504.194 418.284C509.347 416.151 514.87 415.055 520.447 415.058H584.13C589.706 415.056 595.228 416.154 600.38 418.287C605.532 420.42 610.213 423.548 614.156 427.491C618.099 431.433 621.226 436.115 623.36 441.267C625.493 446.419 626.59 451.94 626.589 457.517Z" fill="#FF6F7F"/>
<path d="M541.651 478.751C536.02 478.748 530.62 476.51 526.639 472.529C522.657 468.547 520.419 463.147 520.416 457.517V435.757C520.464 428.488 522.398 421.355 526.031 415.058H520.457C509.196 415.058 498.395 419.531 490.431 427.493C482.467 435.455 477.991 446.255 477.988 457.517V500.51H626.589V478.751H541.651Z" fill="#ED5C79"/>
<path d="M552.264 361.979V85.9912C548.081 85.9898 543.938 86.8139 540.073 88.4162C536.208 90.0185 532.698 92.3675 529.742 95.3287C526.787 98.2898 524.444 101.805 522.85 105.673C521.255 109.541 520.439 113.685 520.448 117.869V415.05H584.132V383.173H573.499C567.873 383.175 562.477 380.945 558.495 376.971C554.514 372.997 552.272 367.605 552.264 361.979Z" fill="#F2CB77"/>
<path d="M562.876 669.811V743.85C559.38 743.963 555.77 744.066 552.264 744.066C548.757 744.066 545.148 743.963 541.652 743.85V669.811C541.652 666.997 542.77 664.298 544.76 662.307C546.75 660.317 549.449 659.199 552.264 659.199C555.078 659.199 557.777 660.317 559.768 662.307C561.758 664.298 562.876 666.997 562.876 669.811ZM626.569 669.811V732.435C619.567 734.667 612.553 736.549 605.335 738.173V669.811C605.421 667.053 606.577 664.436 608.559 662.515C610.54 660.594 613.192 659.519 615.952 659.519C618.712 659.519 621.364 660.594 623.345 662.515C625.327 664.436 626.483 667.053 626.569 669.811ZM499.193 669.811V738.173C491.994 736.58 484.961 734.667 477.958 732.435V669.811C478.044 667.053 479.2 664.436 481.182 662.515C483.164 660.594 485.815 659.519 488.575 659.519C491.335 659.519 493.987 660.594 495.969 662.515C497.951 664.436 499.107 667.053 499.193 669.811Z" fill="#655E67"/>
<path d="M966.04 438.02V494.632H928.302V438.02C928.55 427.955 926.781 417.942 923.101 408.571C919.42 399.2 913.902 390.659 906.871 383.453C899.84 376.247 891.438 370.52 882.16 366.61C872.883 362.7 862.916 360.686 852.848 360.686C842.78 360.686 832.814 362.7 823.536 366.61C814.258 370.52 805.857 376.247 798.826 383.453C791.794 390.659 786.276 399.2 782.596 408.571C778.915 417.942 777.147 427.955 777.394 438.02V494.632H739.61V438.02C739.61 407.993 751.538 379.197 772.77 357.965C794.002 336.733 822.799 324.805 852.825 324.805C882.852 324.805 911.649 336.733 932.88 357.965C954.112 379.197 966.04 407.993 966.04 438.02Z" fill="#DCDCDC"/>
<path d="M975.482 475.762H730.178C725.177 475.776 720.385 477.769 716.849 481.306C713.312 484.842 711.319 489.634 711.305 494.635V532.374C711.322 537.373 713.316 542.163 716.852 545.698C720.388 549.232 725.179 551.224 730.178 551.238H739.611L754.893 696.68C755.88 705.956 760.261 714.54 767.193 720.783C774.125 727.025 783.12 730.485 792.448 730.498H913.213C922.541 730.487 931.535 727.027 938.466 720.784C945.397 714.541 949.776 705.956 950.759 696.68L966.041 551.238H975.482C980.481 551.224 985.271 549.232 988.805 545.697C992.34 542.162 994.332 537.373 994.347 532.374V494.635C994.332 489.636 992.34 484.845 988.806 481.309C985.272 477.773 980.482 475.779 975.482 475.762Z" fill="#7FB3FA"/>
<path d="M802.072 696.68L786.763 551.238H777.331C772.331 551.224 767.54 549.232 764.004 545.698C760.468 542.163 758.474 537.373 758.457 532.374V494.635C758.471 489.634 760.465 484.842 764.001 481.306C767.537 477.769 772.33 475.776 777.331 475.762H730.178C725.177 475.776 720.385 477.769 716.849 481.306C713.312 484.842 711.319 489.634 711.305 494.635V532.374C711.322 537.373 713.316 542.163 716.852 545.698C720.388 549.232 725.179 551.224 730.178 551.238H739.611L754.893 696.68C755.88 705.956 760.261 714.54 767.193 720.783C774.125 727.025 783.12 730.485 792.448 730.498H839.6C830.277 730.478 821.289 727.015 814.362 720.773C807.436 714.532 803.059 705.952 802.072 696.68Z" fill="#64A6F4"/>
<path d="M994.347 494.635V532.374C994.332 537.373 992.34 542.162 988.805 545.697C985.271 549.232 980.481 551.224 975.482 551.238H730.178C725.179 551.224 720.388 549.232 716.852 545.698C713.316 542.163 711.322 537.373 711.305 532.374V494.635C711.319 489.634 713.312 484.842 716.849 481.306C720.385 477.769 725.177 475.776 730.178 475.762H975.482C980.482 475.779 985.272 477.773 988.806 481.309C992.34 484.845 994.332 489.636 994.347 494.635Z" fill="#655E67"/>
<path d="M786.763 522.934H777.331C772.331 522.92 767.54 520.928 764.004 517.394C760.468 513.859 758.474 509.069 758.457 504.07V475.736H730.178C725.177 475.751 720.385 477.744 716.849 481.28C713.312 484.817 711.319 489.609 711.305 494.61V532.348C711.322 537.348 713.316 542.138 716.852 545.672C720.388 549.207 725.179 551.199 730.178 551.213H975.482C980.481 551.199 985.271 549.206 988.805 545.672C992.34 542.137 994.332 537.347 994.347 532.348V522.934H786.763Z" fill="#544F56"/>
</svg>
