<svg width="1370" height="904" viewBox="0 0 1370 904" fill="none" xmlns="http://www.w3.org/2000/svg">
<path d="M529.161 371.747H350.792C339.476 371.747 328.489 369.527 318.142 365.153C308.154 360.929 299.187 354.881 291.487 347.18C283.786 339.478 277.739 330.509 273.516 320.52C269.138 310.171 266.923 299.188 266.923 287.865C266.923 276.547 269.143 265.559 273.516 255.209C277.739 245.22 283.786 236.251 291.487 228.55C299.187 220.848 308.154 214.8 318.142 210.576C328.489 206.197 339.471 203.982 350.792 203.982C353.532 203.982 356.283 204.116 359.013 204.384C368.026 192.103 379.688 181.825 393.012 174.454C408.49 165.887 426.075 161.358 443.865 161.358C455.923 161.358 467.754 163.383 479.024 167.381C489.918 171.244 500.049 176.859 509.146 184.066C518.131 191.181 525.896 199.714 532.133 209.33C537.404 217.436 541.524 226.235 544.377 235.474C558.469 238.652 571.279 246.225 580.936 257.182C592.031 269.775 598.15 285.984 598.145 302.768C598.145 321.195 590.97 338.52 577.944 351.548C564.907 364.576 547.585 371.747 529.161 371.747Z" fill="white"/>
<path d="M503.37 242.941C499.852 242.941 496.51 240.855 495.083 237.403C492.678 231.597 489.17 226.363 484.653 221.846C475.593 212.784 463.545 207.792 450.73 207.792C445.775 207.792 441.763 203.774 441.763 198.823C441.763 193.868 445.775 189.854 450.73 189.854C468.335 189.854 484.89 196.711 497.339 209.162C503.53 215.355 508.346 222.546 511.653 230.536C513.548 235.111 511.375 240.36 506.801 242.256C505.678 242.72 504.514 242.941 503.37 242.941Z" fill="#E2E2E2"/>
<path opacity="0.6" d="M790.507 372.355C790.507 387.19 817.379 405.356 813.725 419.039C809.94 433.197 777.48 435.478 770.309 447.872C763.034 460.444 777.212 489.684 767.013 499.887C756.811 510.091 727.575 495.911 715.005 503.185C702.612 510.356 700.332 542.824 686.178 546.608C672.498 550.264 654.334 523.387 639.502 523.387C624.67 523.387 606.506 550.264 592.828 546.608C578.67 542.823 576.392 510.356 563.998 503.185C551.429 495.908 522.195 510.091 511.993 499.887C501.792 489.684 515.967 460.444 508.695 447.871C501.527 435.479 469.062 433.198 465.278 419.04C461.625 405.357 488.497 387.191 488.497 372.356C488.497 357.525 461.625 339.357 465.278 325.675C469.063 311.518 501.527 309.237 508.695 296.842C515.97 284.269 501.792 255.031 511.993 244.828C522.195 234.624 551.429 248.803 564.001 241.53C576.392 234.359 578.67 201.891 592.828 198.106C606.506 194.45 624.671 221.329 639.502 221.329C654.333 221.329 672.498 194.45 686.178 198.106C700.332 201.892 702.612 234.359 715.007 241.53C727.576 248.806 756.812 234.624 767.013 244.828C777.213 255.032 763.038 284.269 770.309 296.844C777.479 309.237 809.94 311.518 813.725 325.675C817.379 339.356 790.507 357.524 790.507 372.355Z" fill="#FFBE55"/>
<path d="M756.747 372.356C756.747 313.128 712.842 264.154 655.803 256.219C650.404 255.465 644.96 255.089 639.509 255.093C574.757 255.093 522.257 307.595 522.257 372.355C522.257 437.122 574.756 489.621 639.509 489.621C645.038 489.621 650.479 489.241 655.803 488.496C712.843 480.564 756.747 431.589 756.747 372.356Z" fill="#FFBE55"/>
<path d="M1064.65 659.615H823.323C808.012 659.615 793.148 656.611 779.148 650.693C765.635 644.978 753.502 636.795 743.084 626.375C732.666 615.955 724.484 603.821 718.77 590.306C712.846 576.303 709.85 561.443 709.85 546.124C709.85 530.811 712.853 515.944 718.77 501.941C724.484 488.426 732.666 476.292 743.084 465.872C753.502 455.452 765.635 447.269 779.148 441.554C793.148 435.629 808.005 432.632 823.323 432.632C827.03 432.632 830.752 432.813 834.445 433.176C846.641 416.559 862.418 402.654 880.446 392.68C901.388 381.089 925.179 374.963 949.25 374.963C965.564 374.963 981.571 377.702 996.819 383.111C1011.56 388.338 1025.27 395.935 1037.57 405.686C1049.73 415.312 1060.24 426.857 1068.67 439.867C1075.8 450.835 1081.38 462.739 1085.24 475.239C1104.31 479.54 1121.64 489.786 1134.7 504.611C1149.71 521.648 1157.99 543.579 1157.99 566.288C1157.99 591.219 1148.28 614.659 1130.65 632.286C1113.02 649.913 1089.58 659.615 1064.65 659.615Z" fill="white"/>
<path d="M1029.76 485.347C1025 485.347 1020.48 482.524 1018.55 477.854C1015.29 469.999 1010.55 462.917 1004.43 456.805C992.177 444.545 975.876 437.791 958.538 437.791C951.834 437.791 946.405 432.354 946.405 425.656C946.405 418.951 951.834 413.521 958.538 413.521C982.357 413.521 1004.76 422.798 1021.6 439.645C1029.98 448.023 1036.49 457.753 1040.97 468.563C1043.53 474.752 1040.59 481.855 1034.4 484.42C1032.88 485.047 1031.31 485.347 1029.76 485.347Z" fill="#E2E2E2"/>
<mask id="mask0_456_3277" style="mask-type:alpha" maskUnits="userSpaceOnUse" x="6" y="88" width="1350" height="803">
<path d="M6.37793 192.395C6.37793 134.957 52.9403 88.3945 110.378 88.3945H1252C1309.44 88.3945 1356 134.957 1356 192.395V787C1356 844.438 1309.44 891 1252 891H110.378C52.9404 891 6.37793 844.438 6.37793 787V192.395Z" fill="#FFE9B5"/>
</mask>
<g mask="url(#mask0_456_3277)">
<path d="M141.083 529.91C182.722 477.303 262.539 477.303 304.178 529.91L551.785 842.74C605.75 910.921 557.191 1011.29 470.238 1011.29H-24.9766C-111.93 1011.29 -160.489 910.921 -106.524 842.74L141.083 529.91Z" fill="#9EED80"/>
<path d="M490.213 751.327C531.852 698.72 611.669 698.72 653.308 751.327L900.915 1064.16C954.88 1132.34 906.321 1232.7 819.368 1232.7H324.153C237.2 1232.7 188.641 1132.34 242.606 1064.16L490.213 751.327Z" fill="#BAF2A7"/>
<path d="M1266.64 572.489C1308.28 519.882 1388.09 519.882 1429.73 572.489L1677.34 885.319C1731.3 953.5 1682.74 1053.86 1595.79 1053.86H1100.58C1013.62 1053.86 965.065 953.5 1019.03 885.319L1266.64 572.489Z" fill="#D2F1A1"/>
</g>
</svg>
