<svg width="390" height="375" viewBox="0 0 390 375" fill="none" xmlns="http://www.w3.org/2000/svg">
<ellipse cx="65.7548" cy="14.1449" rx="65.7548" ry="14.1449" transform="matrix(0.999946 -0.0103766 0.0427622 0.999085 251 149.365)" fill="#F2EFE7"/>
<path d="M374 96.5862H259V104.517H374V96.5862Z" fill="#285D36"/>
<path d="M374 152.103H259V160.034H374V152.103Z" fill="#285D36"/>
<path d="M266.931 49H259V164H266.931V49Z" fill="#285D36"/>
<path d="M366.069 164H374V49H366.069V164Z" fill="#285D36"/>
<path d="M374 49H372.017V164H374V49Z" fill="#1D4227"/>
<path d="M286.759 56.931H274.862V96.5862H286.759V56.931Z" fill="#FBBC05"/>
<path d="M286.759 56.931H284.776V96.5862H286.759V56.931Z" fill="#B95C54"/>
<path d="M346.241 96.5862H358.138V56.9311H346.241V96.5862Z" fill="#59976A"/>
<path d="M358.138 56.931H356.155V96.5862H358.138V56.931Z" fill="#34A853"/>
<path d="M298.655 56.931H286.759V96.5862H298.655V56.931Z" fill="#CC6158"/>
<path d="M298.655 56.931H296.672V96.5862H298.655V56.931Z" fill="#A64F48"/>
<path d="M338.31 96.5862H346.241V56.9311H338.31V96.5862Z" fill="#994D47"/>
<path d="M346.241 56.931H344.259V96.5862H346.241V56.931Z" fill="#2C5F3A"/>
<path d="M310.552 62.8793H298.655V96.5862H310.552V62.8793Z" fill="#87AAE5"/>
<path d="M310.552 62.8793H308.569V96.5862H310.552V62.8793Z" fill="#4285F4"/>
<path d="M338.312 65.0354L327.178 60.8464L315.309 92.3945L326.444 96.5835L338.312 65.0354Z" fill="#DE6F66"/>
<path d="M286.759 82.7069H274.862V90.6379H286.759V82.7069Z" fill="#994C46"/>
<path d="M292.707 90.6379C294.897 90.6379 296.672 88.8625 296.672 86.6724C296.672 84.4823 294.897 82.7069 292.707 82.7069C290.517 82.7069 288.741 84.4823 288.741 86.6724C288.741 88.8625 290.517 90.6379 292.707 90.6379Z" fill="#974841"/>
<path d="M310.552 70.8104H298.655V82.7069H310.552V70.8104Z" fill="#59976A"/>
<path d="M356.155 80.7241H348.224C347.129 80.7241 346.241 79.8363 346.241 78.7414C346.241 77.6464 347.129 76.7586 348.224 76.7586H356.155C357.25 76.7586 358.138 77.6464 358.138 78.7414C358.138 79.8363 357.25 80.7241 356.155 80.7241ZM356.155 90.6379H348.224C347.129 90.6379 346.241 89.7501 346.241 88.6552C346.241 87.5602 347.129 86.6724 348.224 86.6724H356.155C357.25 86.6724 358.138 87.5602 358.138 88.6552C358.138 89.7501 357.25 90.6379 356.155 90.6379Z" fill="#FBBC05"/>
<path d="M358.138 116.414H346.241V152.103H358.138V116.414Z" fill="#59976A"/>
<path d="M358.138 116.414H356.155V152.103H358.138V116.414Z" fill="#3B6446"/>
<path d="M336.328 116.414H324.431V152.103H336.328V116.414Z" fill="#59976A"/>
<path d="M336.328 116.414H334.345V152.103H336.328V116.414Z" fill="#3D6848"/>
<path d="M346.241 118.397H336.328V152.103H346.241V118.397Z" fill="#FBBC05"/>
<path d="M346.241 118.397H344.259V152.103H346.241V118.397Z" fill="#B45A52"/>
<path d="M334.345 136.241H326.414C325.319 136.241 324.431 135.354 324.431 134.259C324.431 133.164 325.319 132.276 326.414 132.276H334.345C335.44 132.276 336.328 133.164 336.328 134.259C336.328 135.354 335.44 136.241 334.345 136.241ZM334.345 142.19H326.414C325.319 142.19 324.431 141.302 324.431 140.207C324.431 139.112 325.319 138.224 326.414 138.224H334.345C335.44 138.224 336.328 139.112 336.328 140.207C336.328 141.302 335.44 142.19 334.345 142.19ZM334.345 148.138H326.414C325.319 148.138 324.431 147.25 324.431 146.155C324.431 145.06 325.319 144.172 326.414 144.172H334.345C335.44 144.172 336.328 145.06 336.328 146.155C336.328 147.25 335.44 148.138 334.345 148.138Z" fill="#33573D"/>
<path d="M324.431 116.414H316.5V152.103H324.431V116.414Z" fill="#DE6F66"/>
<path d="M324.431 116.414H322.448V152.103H324.431V116.414Z" fill="#EA4335"/>
<path d="M320.466 144.172C322.656 144.172 324.431 142.397 324.431 140.207C324.431 138.017 322.656 136.241 320.466 136.241C318.275 136.241 316.5 138.017 316.5 140.207C316.5 142.397 318.275 144.172 320.466 144.172Z" fill="#994D47"/>
<path d="M358.138 138.224H346.241V146.155H358.138V138.224Z" fill="#33573D"/>
<path d="M304.603 152.103H274.862C277.692 150.217 277.692 146.059 274.862 144.172H304.603C306.794 144.172 308.569 145.948 308.569 148.138C308.569 150.328 306.794 152.103 304.603 152.103Z" fill="#87AAE5"/>
<path d="M304.603 144.172H300.638C302.828 144.172 304.603 145.948 304.603 148.138C304.603 150.328 302.828 152.103 300.638 152.103H304.603C306.794 152.103 308.569 150.328 308.569 148.138C308.569 145.948 306.794 144.172 304.603 144.172Z" fill="#647EAA"/>
<path d="M306.586 144.172H278.828C281.018 141.982 281.018 138.432 278.828 136.241H306.586C308.776 136.241 310.552 138.017 310.552 140.207C310.552 142.397 308.776 144.172 306.586 144.172Z" fill="#FBBC05"/>
<path d="M306.586 136.241H302.621C304.811 136.241 306.586 138.017 306.586 140.207C306.586 142.397 304.811 144.172 302.621 144.172H306.586C308.776 144.172 310.552 142.397 310.552 140.207C310.552 138.017 308.776 136.241 306.586 136.241Z" fill="#B45A52"/>
<path d="M300.638 136.241H274.862C278.147 132.956 278.147 127.63 274.862 124.345H300.638C303.923 124.345 306.586 127.008 306.586 130.293C306.586 133.578 303.923 136.241 300.638 136.241Z" fill="#DE6F66"/>
<path d="M300.638 124.345H296.672C299.958 124.345 302.621 127.008 302.621 130.293C302.621 133.578 299.958 136.241 296.672 136.241H300.638C303.923 136.241 306.586 133.578 306.586 130.293C306.586 127.008 303.923 124.345 300.638 124.345Z" fill="#B25952"/>
<ellipse cx="39.1415" cy="14.1449" rx="39.1415" ry="14.1449" transform="matrix(0.999166 -0.0408226 0.073167 0.99732 22 170.196)" fill="#F2EFE7"/>
<path d="M98 172V188H53.3684C52.9006 188.001 52.4337 187.961 51.9737 187.88C50.4594 187.637 49.0444 187 47.884 186.039C46.7236 185.078 45.8626 183.829 45.3957 182.431C44.9288 181.033 44.8739 179.539 45.2372 178.112C45.6004 176.686 46.3677 175.383 47.4547 174.347C48.6735 173.162 50.2572 172.382 51.9737 172.12C52.4337 172.039 52.9006 171.999 53.3684 172H98Z" fill="#CC7400"/>
<path d="M93 137V155H49.2105C48.7516 155.001 48.2935 154.956 47.8421 154.865C46.3564 154.592 44.9681 153.875 43.8295 152.794C42.691 151.712 41.8464 150.308 41.3883 148.735C40.9301 147.162 40.8763 145.481 41.2327 143.876C41.5891 142.272 42.3419 140.806 43.4084 139.64C44.6042 138.307 46.158 137.429 47.8421 137.135C48.2935 137.044 48.7516 136.999 49.2105 137H93Z" fill="#6F72C0"/>
<path d="M101 155V172H55.5263C55.0497 172.001 54.574 171.958 54.1052 171.872C52.5624 171.615 51.1207 170.938 49.9384 169.916C48.7561 168.895 47.8789 167.569 47.4032 166.083C46.9275 164.597 46.8716 163.01 47.2416 161.494C47.6117 159.979 48.3935 158.595 49.501 157.493C50.7428 156.235 52.3564 155.405 54.1052 155.128C54.574 155.042 55.0497 154.999 55.5263 155H101Z" fill="#FF6243"/>
<path d="M107 120V137H63.2105C62.7516 137.001 62.2935 136.958 61.8421 136.872C60.3564 136.615 58.9681 135.938 57.8295 134.916C56.691 133.895 55.8464 132.569 55.3883 131.083C54.9301 129.597 54.8763 128.01 55.2327 126.494C55.5891 124.979 56.3419 123.595 57.4084 122.493C58.6042 121.235 60.158 120.405 61.8421 120.128C62.2935 120.042 62.7516 119.999 63.2105 120H107Z" fill="#FF9D43"/>
<path d="M90 104V120H45.3684C44.9006 120.001 44.4337 119.961 43.9737 119.88C42.4594 119.637 41.0444 119 39.884 118.039C38.7236 117.078 37.8626 115.829 37.3957 114.431C36.9288 113.033 36.8739 111.539 37.2372 110.112C37.6004 108.686 38.3677 107.383 39.4547 106.347C40.6735 105.162 42.2572 104.382 43.9737 104.12C44.4337 104.039 44.9006 103.999 45.3684 104H90Z" fill="#69E88D"/>
<path d="M98 175H51V184H98V175Z" fill="#E0E0E2"/>
<path d="M93 142H47V150H93V142Z" fill="#E0E0E2"/>
<path d="M101 158H55V167H101V158Z" fill="#E0E0E2"/>
<path d="M107 125H62V134H107V125Z" fill="#E0E0E2"/>
<path d="M90 108H44V117H90V108Z" fill="#E0E0E2"/>
<path d="M101 158H55V160H101V158Z" fill="#C6C5CA"/>
<path d="M107 125H62V127H107V125Z" fill="#C6C5CA"/>
<path d="M90 108H44V109H90V108Z" fill="#C6C5CA"/>
<path d="M98 175H51V177H98V175Z" fill="#C6C5CA"/>
<path d="M93 142H47V143H93V142Z" fill="#C6C5CA"/>
<path d="M245.287 224.948C248.869 241.686 213.985 262.069 167.372 270.476C120.759 278.883 80.068 272.129 76.4859 255.391C72.9039 238.654 107.787 218.27 154.4 209.863C201.013 201.457 241.705 208.21 245.287 224.948Z" fill="#F2EFE7"/>
<path d="M332.197 241.561C335.78 258.298 300.896 278.682 254.283 287.089C207.67 295.496 166.979 288.742 163.397 272.004C159.815 255.267 194.698 234.883 241.311 226.476C287.924 218.069 328.615 224.823 332.197 241.561Z" fill="#F2EFE7"/>
<path d="M161.203 302.295C161.775 310.086 144.728 317.117 123.129 317.999C101.53 318.882 83.5568 313.281 82.9853 305.49C82.4137 297.699 99.46 290.668 121.059 289.785C142.658 288.903 160.631 294.504 161.203 302.295Z" fill="#F2EFE7"/>
<path d="M401.983 323.097C402.554 330.888 379.972 338.145 351.544 339.307C323.116 340.468 299.607 335.094 299.035 327.303C298.463 319.512 321.046 312.254 349.474 311.093C377.902 309.931 401.411 315.306 401.983 323.097Z" fill="#F2EFE7"/>
<path d="M155.363 151.729C160.372 149.208 166.476 151.226 168.996 156.234V156.234C171.516 161.243 169.499 167.347 164.49 169.867L124.759 189.859C119.75 192.38 113.647 190.362 111.126 185.353V185.353C108.606 180.345 110.623 174.241 115.632 171.721L155.363 151.729Z" fill="#FF9F80"/>
<path d="M206.134 234.397C206.234 234.397 206.313 234.465 206.412 234.499V206.451L178.33 212.695C178.33 212.695 178.627 224.467 178.984 234.533C179.084 234.533 179.183 234.431 179.302 234.431H206.134V234.397Z" fill="#FF9F80"/>
<path d="M178.909 237.74C179.03 239.202 179.131 240.298 179.232 240.771C179.454 242.427 178.586 242.857 177.658 242.513C174.046 240.707 170.817 240.879 167.891 242.513C163.735 245.179 163.028 253.111 166.539 256.315C168.537 258.335 170.676 259.303 172.875 259.496H200.722C204.576 259.346 206.311 256.873 206.412 252.66V237.654C206.412 237.654 206.231 237.719 206.13 237.719H178.909V237.74Z" fill="#A6E7BC"/>
<g filter="url(#filter0_d_680_140)">
<path d="M207.176 233.046C207.176 233.046 206.994 232.974 206.892 232.974H179.43C179.308 232.974 179.227 233.046 179.105 233.046C177.805 233.237 176.769 234.504 176.769 236.082C176.769 237.804 177.948 239.214 179.43 239.214H206.892C206.994 239.214 207.075 239.167 207.176 239.143C208.497 238.975 209.533 237.684 209.533 236.082C209.533 234.48 208.497 233.213 207.176 233.022V233.046Z" fill="#A6E7BC"/>
</g>
<path d="M217.611 234.367C217.512 234.367 217.433 234.451 217.333 234.493V200.211L245.416 207.843C245.416 207.843 245.118 222.231 244.761 234.534C244.662 234.534 244.563 234.409 244.444 234.409H217.611V234.367Z" fill="#FF9F80"/>
<path d="M244.837 237.74C244.716 239.202 244.615 240.298 244.514 240.771C244.292 242.427 245.16 242.857 246.088 242.513C249.7 240.707 252.928 240.879 255.854 242.513C260.011 245.179 260.717 253.111 257.206 256.315C255.209 258.335 253.07 259.303 250.87 259.496H223.024C219.17 259.346 217.434 256.873 217.333 252.66V237.654C217.333 237.654 217.515 237.719 217.616 237.719H244.837V237.74Z" fill="#A6E7BC"/>
<g filter="url(#filter1_d_680_140)">
<path d="M216.569 233.046C216.569 233.046 216.752 232.974 216.854 232.974H244.315C244.437 232.974 244.518 233.046 244.64 233.046C245.94 233.237 246.976 234.504 246.976 236.082C246.976 237.804 245.798 239.214 244.315 239.214H216.854C216.752 239.214 216.671 239.167 216.569 239.143C215.249 238.975 214.213 237.684 214.213 236.082C214.213 234.48 215.249 233.213 216.569 233.022V233.046Z" fill="#A6E7BC"/>
</g>
<g filter="url(#filter2_d_680_140)">
<path fill-rule="evenodd" clip-rule="evenodd" d="M182.35 96.3136C195.919 87.8773 205.546 90.3045 209.332 97.8767C210.222 99.6561 213.069 102.147 217.339 97.8767C220.898 93.4283 236.023 84.5311 254.707 108.553L254.547 108.295C266.135 123.358 272.387 145.406 274.906 178.07C277.066 206.131 276.614 209.697 269.885 217.609C260.324 228.851 250.249 228.638 240.331 216.975L232.398 207.648L226.416 216.975C219.089 228.397 205.717 229.063 196.695 218.456C190.119 210.723 189.938 210.723 183.984 218.456C176.034 228.785 163.431 228.413 154.215 217.577C147.579 209.774 147.012 205.812 148.845 180.099C151.394 144.334 165.201 109.665 182.148 96.4693C182.215 96.4172 182.282 96.3653 182.35 96.3136Z" fill="#FF9F80"/>
</g>
<path d="M250.097 165.106C250.097 186.217 232.285 203.33 210.313 203.33C188.341 203.33 170.529 186.217 170.529 165.106C170.529 143.996 188.341 126.883 210.313 126.883C232.285 126.883 250.097 143.996 250.097 165.106Z" fill="url(#paint0_radial_680_140)"/>
<path d="M204.551 147.855C204.551 151.219 201.824 153.946 198.459 153.946C195.095 153.946 192.368 151.219 192.368 147.855C192.368 144.49 195.095 141.763 198.459 141.763C201.824 141.763 204.551 144.49 204.551 147.855Z" fill="black"/>
<path d="M200.49 146.839C200.49 147.4 200.945 147.855 201.505 147.855C202.066 147.855 202.521 147.4 202.521 146.839C202.521 146.279 202.066 145.824 201.505 145.824C200.945 145.824 200.49 146.279 200.49 146.839Z" fill="white"/>
<path d="M226.887 147.854C226.887 151.219 224.159 153.946 220.795 153.946C217.431 153.946 214.704 151.219 214.704 147.854C214.704 144.49 217.431 141.763 220.795 141.763C224.159 141.763 226.887 144.49 226.887 147.854Z" fill="black"/>
<path d="M222.826 146.839C222.826 147.4 223.28 147.855 223.841 147.855C224.402 147.855 224.856 147.4 224.856 146.839C224.856 146.279 224.402 145.824 223.841 145.824C223.28 145.824 222.826 146.279 222.826 146.839Z" fill="white"/>
<path fill-rule="evenodd" clip-rule="evenodd" d="M195.728 137.222C195.012 137.479 194.545 137.797 194.342 138.09C194.184 138.317 193.872 138.373 193.646 138.215C193.419 138.057 193.363 137.746 193.521 137.519C193.902 136.971 194.605 136.563 195.389 136.281C196.191 135.992 197.155 135.808 198.148 135.758C200.103 135.66 202.333 136.081 203.653 137.459C203.844 137.658 203.837 137.974 203.638 138.165C203.438 138.356 203.122 138.35 202.931 138.15C201.91 137.085 200.045 136.664 198.198 136.757C197.289 136.802 196.425 136.971 195.728 137.222Z" fill="black"/>
<path fill-rule="evenodd" clip-rule="evenodd" d="M218.888 137.21C218.31 137.459 217.934 137.766 217.766 138.055C217.627 138.294 217.322 138.375 217.083 138.237C216.844 138.098 216.762 137.792 216.901 137.554C217.221 137.002 217.819 136.582 218.491 136.292C219.175 135.997 219.995 135.809 220.838 135.758C222.503 135.658 224.406 136.09 225.525 137.492C225.697 137.708 225.662 138.023 225.446 138.195C225.23 138.367 224.916 138.332 224.743 138.116C223.912 137.075 222.403 136.666 220.898 136.756C220.157 136.801 219.453 136.966 218.888 137.21Z" fill="black"/>
<g filter="url(#filter3_d_680_140)">
<path d="M222.869 189.781C217.267 189.549 212.913 184.819 213.145 179.216V179.216C213.378 173.614 218.107 169.261 223.71 169.493L273.424 171.553C279.026 171.785 283.38 176.515 283.147 182.117V182.117C282.915 187.72 278.186 192.073 272.583 191.841L222.869 189.781Z" fill="#FA9170"/>
</g>
<g clip-path="url(#clip0_680_140)">
<path d="M197.289 165.798C202.775 172.68 217.188 173.181 223.053 165.798C223.866 164.579 224.096 163.13 224.069 161.586C223.69 158.687 220.845 157.319 218.326 157.373C216.66 157.346 215.901 157.888 215.021 158.497L215.021 161.301C215.021 164.457 205.931 164.796 205.931 161.301L205.931 158.714C204.509 158.01 203.1 157.319 201.353 157.373C198.928 157.346 196.639 158.741 196.125 161.193C195.976 162.534 196.07 164.457 197.276 165.785L197.289 165.798Z" fill="#020304"/>
<path d="M215.034 161.301L215.034 158.497C214.113 159.134 213.056 159.852 210.686 160.055C208.857 160.136 207.394 159.419 205.959 158.714L205.959 161.301C205.959 164.796 215.048 164.457 215.048 161.301L215.034 161.301Z" fill="white"/>
<path d="M203 169.791C204.42 168.455 212.63 166.355 217.5 169.791C213 171.791 207.383 171.623 203 169.791Z" fill="#FF3838"/>
</g>
<path d="M154.739 208.881C152.939 208.881 151.48 204.746 151.48 199.646C151.48 194.546 152.939 190.412 154.739 190.412C156.539 190.412 157.998 194.546 157.998 199.646C157.998 204.746 156.539 208.881 154.739 208.881Z" fill="#6563FF"/>
<path d="M154.971 164.43C161.672 164.43 167.124 180.217 167.124 199.629C167.124 219.042 161.672 234.829 154.971 234.829C148.27 234.829 142.818 219.042 142.818 199.629C142.818 180.217 148.27 164.43 154.971 164.43ZM154.971 206.921C155.942 206.921 156.35 205.819 156.805 204.449C157.259 203.079 157.473 201.334 157.401 199.588C157.473 197.842 157.259 196.098 156.805 194.728C156.35 193.358 155.825 192.255 154.971 192.255C154.151 192.255 153.591 193.358 153.137 194.728C152.683 196.098 152.494 197.9 152.566 199.646C152.494 201.392 152.683 203.079 153.137 204.449C153.591 205.819 154 206.921 154.971 206.921Z" fill="#B2B1FF"/>
<path d="M74.7774 308.733C82.0534 300.704 86.0001 290.528 85.9068 280.039V199.538C85.9068 180.125 89.6119 164.338 98.6525 164.338H155.267C145.041 164.98 142.818 191.654 142.818 199.538V280.039C142.818 300.681 137.887 306.204 128.653 316.359C128.059 317.003 127.322 317.52 126.493 317.874C125.663 318.228 124.761 318.412 123.848 318.412H79.5833C78.3745 318.412 77.1909 318.091 76.1729 317.486C75.1549 316.882 74.3451 316.019 73.8394 315C73.3336 313.982 73.1532 312.85 73.3195 311.739C73.4857 310.628 73.9917 309.585 74.7774 308.733Z" fill="#D8D8FF"/>
<path d="M142.818 199.629C142.818 219.042 148.27 234.828 154.971 234.828H142.818V199.629Z" fill="#6563FF"/>
<path d="M205.091 172.437L204.325 173.355L201.402 170.917L200.365 170.05L201.131 169.132L202.168 169.998L205.091 172.437Z" fill="#78909C"/>
<path d="M202.168 169.998C202.047 170.156 201.922 170.311 201.795 170.465C201.667 170.618 201.535 170.77 201.402 170.916L200.364 170.05L201.133 169.131L202.168 169.998ZM205.246 172.549C205.125 172.706 205 172.862 204.872 173.015C204.745 173.169 204.613 173.32 204.48 173.467L203.442 172.6L204.211 171.682L205.246 172.549Z" fill="#465E66"/>
<path d="M203.275 159.541C203.583 162.949 202.557 166.343 200.412 169.009C198.267 171.675 195.171 173.405 191.776 173.834C191.621 173.853 191.465 173.87 191.308 173.885C190.49 173.959 189.668 173.958 188.85 173.881C187.294 173.735 185.777 173.31 184.371 172.628C183.399 172.155 182.488 171.565 181.658 170.872C178.995 168.62 177.33 165.405 177.028 161.93C176.726 158.455 177.81 155.002 180.045 152.323C182.279 149.645 185.483 147.959 188.955 147.634C192.428 147.309 195.889 148.37 198.582 150.587C199.177 151.083 199.727 151.629 200.227 152.22C201.236 153.413 202.023 154.777 202.551 156.248C202.931 157.31 203.175 158.417 203.275 159.541Z" fill="#90CAF9" fill-opacity="0.7"/>
<path fill-rule="evenodd" clip-rule="evenodd" d="M185.914 151.791C188.548 150.697 191.509 150.693 194.146 151.781C194.911 152.097 195.276 152.974 194.96 153.74C194.644 154.506 193.767 154.87 193.001 154.554C191.1 153.77 188.965 153.772 187.065 154.562C185.165 155.351 183.657 156.862 182.871 158.763C182.555 159.529 181.678 159.893 180.912 159.576C180.147 159.26 179.782 158.383 180.099 157.617C181.188 154.981 183.28 152.885 185.914 151.791Z" fill="white"/>
<path d="M217.296 183.082C216.864 183.602 216.25 183.938 215.579 184.021L215.485 184.033C215.136 184.066 214.785 184.029 214.45 183.925C214.116 183.821 213.805 183.652 213.537 183.427L202.528 174.576L205.95 170.472L216.956 179.318C217.5 179.773 217.841 180.424 217.904 181.13C217.968 181.835 217.749 182.538 217.296 183.082Z" fill="#5E35B1"/>
<path d="M217.592 182.647C217.39 183.02 217.102 183.339 216.752 183.579C216.402 183.818 216 183.971 215.579 184.024L215.485 184.036C215.136 184.068 214.784 184.031 214.45 183.927C214.115 183.822 213.805 183.652 213.537 183.427L202.528 174.576L203.082 173.911L214.068 182.742C214.336 182.967 214.647 183.136 214.981 183.24C215.316 183.344 215.667 183.381 216.016 183.348L216.11 183.336C216.664 183.268 217.183 183.027 217.592 182.647Z" fill="#4A2A96"/>
<path d="M199.23 149.81C196.331 147.418 192.603 146.271 188.861 146.619C185.119 146.968 181.667 148.783 179.26 151.669C176.852 154.555 175.685 158.276 176.013 162.02C176.341 165.764 178.138 169.225 181.01 171.649C182.442 172.849 184.097 173.754 185.88 174.31C187.663 174.867 189.539 175.065 191.399 174.891C191.568 174.876 191.736 174.858 191.903 174.837C194.65 174.49 197.237 173.348 199.344 171.551C201.452 169.755 202.989 167.382 203.767 164.724C204.545 162.067 204.53 159.239 203.724 156.59C202.918 153.941 201.356 151.584 199.23 149.81ZM203.275 159.541C203.583 162.949 202.557 166.343 200.412 169.009C198.267 171.675 195.171 173.405 191.776 173.834C191.621 173.853 191.465 173.87 191.308 173.885C188.707 174.117 186.095 173.574 183.802 172.324C181.509 171.073 179.639 169.171 178.426 166.858C177.214 164.545 176.714 161.925 176.99 159.328C177.266 156.731 178.306 154.274 179.978 152.267C181.651 150.261 183.882 148.796 186.388 148.058C188.894 147.32 191.563 147.341 194.056 148.12C196.55 148.898 198.757 150.399 200.398 152.432C202.039 154.465 203.04 156.939 203.275 159.541Z" fill="#465E66"/>
<path d="M396 310V327H352.211C351.752 327.001 351.293 326.958 350.842 326.872C349.356 326.615 347.968 325.938 346.83 324.916C345.691 323.895 344.846 322.569 344.388 321.083C343.93 319.597 343.876 318.01 344.233 316.494C344.589 314.979 345.342 313.595 346.408 312.493C347.604 311.235 349.158 310.405 350.842 310.128C351.293 310.042 351.752 309.999 352.211 310H396Z" fill="#FF9D43"/>
<path d="M355.226 289L363.053 302.955L324.126 324.788C323.718 325.017 323.291 325.211 322.85 325.365C321.411 325.894 319.865 326.031 318.383 325.76C316.901 325.489 315.539 324.822 314.448 323.831C313.357 322.84 312.578 321.563 312.197 320.142C311.816 318.72 311.848 317.208 312.289 315.772C312.772 314.143 313.772 312.688 315.141 311.62C315.503 311.324 315.89 311.061 316.299 310.833L355.226 289Z" fill="#69E88D"/>
<path d="M396 315H351V324H396V315Z" fill="#E0E0E2"/>
<path d="M357.182 292.489L317.062 314.991L321.465 322.841L361.585 300.338L357.182 292.489Z" fill="#E0E0E2"/>
<path d="M396 315H351V317H396V315Z" fill="#C6C5CA"/>
<path d="M357.182 292.489L317.062 314.991L317.551 315.863L357.672 293.361L357.182 292.489Z" fill="#C6C5CA"/>
<defs>
<filter id="filter0_d_680_140" x="170.769" y="226.974" width="52.7631" height="26.2406" filterUnits="userSpaceOnUse" color-interpolation-filters="sRGB">
<feFlood flood-opacity="0" result="BackgroundImageFix"/>
<feColorMatrix in="SourceAlpha" type="matrix" values="0 0 0 0 0 0 0 0 0 0 0 0 0 0 0 0 0 0 127 0" result="hardAlpha"/>
<feOffset dx="4" dy="4"/>
<feGaussianBlur stdDeviation="5"/>
<feComposite in2="hardAlpha" operator="out"/>
<feColorMatrix type="matrix" values="0 0 0 0 0 0 0 0 0 0 0 0 0 0 0 0 0 0 0.05 0"/>
<feBlend mode="normal" in2="BackgroundImageFix" result="effect1_dropShadow_680_140"/>
<feBlend mode="normal" in="SourceGraphic" in2="effect1_dropShadow_680_140" result="shape"/>
</filter>
<filter id="filter1_d_680_140" x="208.213" y="226.974" width="52.7631" height="26.2406" filterUnits="userSpaceOnUse" color-interpolation-filters="sRGB">
<feFlood flood-opacity="0" result="BackgroundImageFix"/>
<feColorMatrix in="SourceAlpha" type="matrix" values="0 0 0 0 0 0 0 0 0 0 0 0 0 0 0 0 0 0 127 0" result="hardAlpha"/>
<feOffset dx="4" dy="4"/>
<feGaussianBlur stdDeviation="5"/>
<feComposite in2="hardAlpha" operator="out"/>
<feColorMatrix type="matrix" values="0 0 0 0 0 0 0 0 0 0 0 0 0 0 0 0 0 0 0.05 0"/>
<feBlend mode="normal" in2="BackgroundImageFix" result="effect1_dropShadow_680_140"/>
<feBlend mode="normal" in="SourceGraphic" in2="effect1_dropShadow_680_140" result="shape"/>
</filter>
<filter id="filter2_d_680_140" x="137.942" y="85.0001" width="148.118" height="154.996" filterUnits="userSpaceOnUse" color-interpolation-filters="sRGB">
<feFlood flood-opacity="0" result="BackgroundImageFix"/>
<feColorMatrix in="SourceAlpha" type="matrix" values="0 0 0 0 0 0 0 0 0 0 0 0 0 0 0 0 0 0 127 0" result="hardAlpha"/>
<feOffset dy="4"/>
<feGaussianBlur stdDeviation="5"/>
<feComposite in2="hardAlpha" operator="out"/>
<feColorMatrix type="matrix" values="0 0 0 0 0 0 0 0 0 0 0 0 0 0 0 0 0 0 0.05 0"/>
<feBlend mode="normal" in2="BackgroundImageFix" result="effect1_dropShadow_680_140"/>
<feBlend mode="normal" in="SourceGraphic" in2="effect1_dropShadow_680_140" result="shape"/>
</filter>
<filter id="filter3_d_680_140" x="207.136" y="163.484" width="90.0199" height="42.3657" filterUnits="userSpaceOnUse" color-interpolation-filters="sRGB">
<feFlood flood-opacity="0" result="BackgroundImageFix"/>
<feColorMatrix in="SourceAlpha" type="matrix" values="0 0 0 0 0 0 0 0 0 0 0 0 0 0 0 0 0 0 127 0" result="hardAlpha"/>
<feOffset dx="4" dy="4"/>
<feGaussianBlur stdDeviation="5"/>
<feComposite in2="hardAlpha" operator="out"/>
<feColorMatrix type="matrix" values="0 0 0 0 0 0 0 0 0 0 0 0 0 0 0 0 0 0 0.1 0"/>
<feBlend mode="normal" in2="BackgroundImageFix" result="effect1_dropShadow_680_140"/>
<feBlend mode="normal" in="SourceGraphic" in2="effect1_dropShadow_680_140" result="shape"/>
</filter>
<radialGradient id="paint0_radial_680_140" cx="0" cy="0" r="1" gradientUnits="userSpaceOnUse" gradientTransform="translate(210.313 165.106) rotate(90) scale(38.2236 39.7838)">
<stop offset="0.141692" stop-color="#FFB1D2" stop-opacity="0.8"/>
<stop offset="1" stop-color="#D9D9D9" stop-opacity="0"/>
</radialGradient>
<clipPath id="clip0_680_140">
<rect width="27.985" height="13.7758" fill="white" transform="translate(224.069 171.149) rotate(-180)"/>
</clipPath>
</defs>
</svg>
