<svg width="390" height="375" viewBox="0 0 390 375" fill="none" xmlns="http://www.w3.org/2000/svg">
<path d="M143.33 281.628C145.806 293.197 121.695 307.286 89.4763 313.097C57.258 318.907 29.1328 314.239 26.6569 302.67C24.181 291.101 48.292 277.013 80.5103 271.202C112.729 265.391 140.854 270.059 143.33 281.628Z" fill="#F2EFE7"/>
<path d="M215.764 279.559C218.24 291.127 194.129 305.216 161.911 311.027C129.693 316.838 101.568 312.17 99.0916 300.601C96.6157 289.032 120.727 274.943 152.945 269.132C185.163 263.322 213.289 267.99 215.764 279.559Z" fill="#F2EFE7"/>
<path d="M300.617 281.628C303.092 293.197 278.981 307.286 246.763 313.097C214.545 318.907 186.42 314.239 183.944 302.67C181.468 291.101 205.579 277.013 237.797 271.202C270.015 265.391 298.141 270.059 300.617 281.628Z" fill="#F2EFE7"/>
<path d="M367.877 282.663C370.353 294.232 346.242 308.321 314.024 314.131C281.806 319.942 253.68 315.274 251.205 303.705C248.729 292.136 272.84 278.047 305.058 272.237C337.276 266.426 365.401 271.094 367.877 282.663Z" fill="#F2EFE7"/>
<path d="M253.101 252.656C255.268 255.868 254.421 260.23 251.208 262.398V262.398C247.996 264.565 243.634 263.718 241.466 260.505L224.273 235.02C222.105 231.808 222.953 227.446 226.165 225.278V225.278C229.378 223.111 233.74 223.958 235.907 227.171L253.101 252.656Z" fill="#ADB5FA"/>
<path d="M133.936 252.656C131.768 255.868 132.615 260.23 135.828 262.398V262.398C139.041 264.565 143.403 263.718 145.57 260.505L162.764 235.02C164.931 231.808 164.084 227.446 160.871 225.278V225.278C157.658 223.111 153.297 223.958 151.129 227.171L133.936 252.656Z" fill="#ADB5FA"/>
<path d="M189.546 278.884C189.614 278.884 189.669 278.931 189.738 278.955V259.568L170.328 263.884C170.328 263.884 170.533 272.021 170.78 278.979C170.849 278.979 170.917 278.908 171 278.908H189.546V278.884Z" fill="#ADB5FA"/>
<path d="M170.728 281.195C170.812 282.206 170.881 282.963 170.951 283.29C171.105 284.435 170.505 284.732 169.863 284.494C167.367 283.246 165.135 283.365 163.113 284.494C160.24 286.337 159.752 291.82 162.178 294.034C163.559 295.43 165.038 296.099 166.558 296.233H185.805C188.469 296.129 189.668 294.42 189.738 291.508V281.136C189.738 281.136 189.612 281.18 189.543 281.18H170.728V281.195Z" fill="#A6E7BC"/>
<g filter="url(#filter0_d_681_823)">
<path d="M190.266 277.951C190.266 277.951 190.14 277.901 190.07 277.901H171.088C171.004 277.901 170.948 277.951 170.864 277.951C169.965 278.083 169.249 278.959 169.249 280.049C169.249 281.239 170.064 282.214 171.088 282.214H190.07C190.14 282.214 190.196 282.181 190.266 282.165C191.179 282.049 191.895 281.157 191.895 280.049C191.895 278.942 191.179 278.066 190.266 277.934V277.951Z" fill="#A6E7BC"/>
</g>
<path d="M197.478 278.864C197.41 278.864 197.355 278.922 197.286 278.951V255.256L216.697 260.531C216.697 260.531 216.491 270.476 216.244 278.979C216.175 278.979 216.107 278.893 216.025 278.893H197.478V278.864Z" fill="#ADB5FA"/>
<path d="M216.297 281.195C216.213 282.206 216.143 282.963 216.073 283.29C215.92 284.435 216.52 284.732 217.161 284.494C219.658 283.246 221.889 283.365 223.912 284.494C226.785 286.337 227.273 291.82 224.846 294.034C223.465 295.43 221.987 296.099 220.467 296.233H201.22C198.556 296.129 197.356 294.42 197.286 291.508V281.136C197.286 281.136 197.412 281.18 197.482 281.18H216.297V281.195Z" fill="#A6E7BC"/>
<g filter="url(#filter1_d_681_823)">
<path d="M196.758 277.951C196.758 277.951 196.885 277.901 196.955 277.901H215.936C216.02 277.901 216.076 277.951 216.161 277.951C217.059 278.083 217.775 278.959 217.775 280.049C217.775 281.239 216.961 282.214 215.936 282.214H196.955C196.885 282.214 196.828 282.181 196.758 282.165C195.846 282.049 195.13 281.157 195.13 280.049C195.13 278.942 195.846 278.066 196.758 277.934V277.951Z" fill="#A6E7BC"/>
</g>
<g filter="url(#filter2_d_681_823)">
<path fill-rule="evenodd" clip-rule="evenodd" d="M173.107 183.443C182.486 177.612 189.139 179.29 191.756 184.524C192.371 185.753 194.339 187.475 197.291 184.524C199.75 181.449 210.205 175.299 223.119 191.903L223.008 191.725C231.017 202.136 235.339 217.375 237.08 239.952C238.573 259.347 238.26 261.812 233.609 267.281C227.001 275.051 220.037 274.904 213.182 266.843L207.699 260.396L203.564 266.843C198.5 274.737 189.257 275.198 183.022 267.866C178.476 262.521 178.351 262.521 174.236 267.866C168.741 275.006 160.03 274.748 153.66 267.258C149.073 261.866 148.681 259.127 149.948 241.354C151.71 216.634 161.253 192.672 172.967 183.551C173.013 183.515 173.06 183.479 173.107 183.443Z" fill="#ADB5FA"/>
</g>
<path d="M219.932 230.992C219.932 245.583 207.621 257.412 192.434 257.412C177.247 257.412 164.936 245.583 164.936 230.992C164.936 216.401 177.247 204.572 192.434 204.572C207.621 204.572 219.932 216.401 219.932 230.992Z" fill="url(#paint0_radial_681_823)"/>
<path d="M188.451 219.068C188.451 221.393 186.566 223.278 184.241 223.278C181.916 223.278 180.031 221.393 180.031 219.068C180.031 216.742 181.916 214.857 184.241 214.857C186.566 214.857 188.451 216.742 188.451 219.068Z" fill="black"/>
<path d="M185.645 218.366C185.645 218.754 185.959 219.068 186.346 219.068C186.734 219.068 187.048 218.754 187.048 218.366C187.048 217.978 186.734 217.664 186.346 217.664C185.959 217.664 185.645 217.978 185.645 218.366Z" fill="white"/>
<path d="M203.89 219.068C203.89 221.393 202.004 223.278 199.679 223.278C197.354 223.278 195.469 221.393 195.469 219.068C195.469 216.742 197.354 214.857 199.679 214.857C202.004 214.857 203.89 216.742 203.89 219.068Z" fill="black"/>
<path d="M201.083 218.366C201.083 218.754 201.397 219.068 201.784 219.068C202.172 219.068 202.486 218.754 202.486 218.366C202.486 217.978 202.172 217.664 201.784 217.664C201.397 217.664 201.083 217.978 201.083 218.366Z" fill="white"/>
<path fill-rule="evenodd" clip-rule="evenodd" d="M182.405 211.864C181.921 212.038 181.635 212.243 181.522 212.407C181.364 212.633 181.052 212.689 180.826 212.532C180.599 212.374 180.543 212.062 180.701 211.836C180.991 211.418 181.514 211.121 182.066 210.923C182.637 210.717 183.318 210.587 184.018 210.552C185.386 210.484 186.984 210.775 187.942 211.775C188.133 211.975 188.126 212.291 187.927 212.482C187.728 212.673 187.411 212.666 187.22 212.467C186.561 211.779 185.328 211.488 184.068 211.551C183.453 211.582 182.871 211.696 182.405 211.864Z" fill="black"/>
<path fill-rule="evenodd" clip-rule="evenodd" d="M198.422 211.852C198.038 212.018 197.811 212.213 197.719 212.372C197.581 212.611 197.275 212.692 197.036 212.554C196.797 212.415 196.715 212.109 196.854 211.87C197.099 211.448 197.546 211.141 198.026 210.934C198.516 210.722 199.101 210.589 199.7 210.553C200.875 210.482 202.251 210.784 203.069 211.809C203.241 212.025 203.206 212.34 202.99 212.512C202.774 212.684 202.46 212.649 202.287 212.433C201.757 211.769 200.775 211.49 199.76 211.551C199.263 211.581 198.795 211.691 198.422 211.852Z" fill="black"/>
<path d="M370.079 252.58C372.245 255.789 371.398 260.146 368.189 262.312V262.312C364.979 264.477 360.622 263.631 358.457 260.421L341.28 234.962C339.115 231.753 339.962 227.396 343.171 225.23V225.23C346.381 223.065 350.738 223.912 352.903 227.121L370.079 252.58Z" fill="#FFD36A"/>
<path d="M250.642 252.58C248.477 255.789 249.323 260.146 252.533 262.312V262.312C255.742 264.477 260.1 263.631 262.265 260.421L279.441 234.962C281.606 231.753 280.76 227.396 277.55 225.23V225.23C274.341 223.065 269.984 223.911 267.818 227.121L250.642 252.58Z" fill="#FFD36A"/>
<path d="M306.589 278.782C306.657 278.782 306.712 278.829 306.78 278.853V259.485L287.39 263.797C287.39 263.797 287.595 271.926 287.842 278.876C287.911 278.876 287.979 278.805 288.061 278.805H306.589V278.782Z" fill="#FFD36A"/>
<path d="M287.79 281.091C287.874 282.1 287.943 282.857 288.013 283.184C288.166 284.327 287.567 284.623 286.926 284.386C284.432 283.139 282.203 283.258 280.183 284.386C277.312 286.227 276.825 291.704 279.249 293.916C280.628 295.311 282.105 295.979 283.624 296.113H302.852C305.513 296.009 306.711 294.302 306.781 291.392V281.031C306.781 281.031 306.655 281.076 306.586 281.076H287.79V281.091Z" fill="#A6E7BC"/>
<g filter="url(#filter3_d_681_823)">
<path d="M307.308 277.849C307.308 277.849 307.182 277.8 307.112 277.8H288.15C288.066 277.8 288.01 277.849 287.925 277.849C287.028 277.981 286.312 278.856 286.312 279.946C286.312 281.135 287.126 282.109 288.15 282.109H307.112C307.182 282.109 307.238 282.076 307.308 282.059C308.22 281.944 308.935 281.052 308.935 279.946C308.935 278.84 308.22 277.965 307.308 277.833V277.849Z" fill="#A6E7BC"/>
</g>
<path d="M314.513 278.762C314.444 278.762 314.39 278.819 314.321 278.848V255.177L333.712 260.447C333.712 260.447 333.506 270.382 333.26 278.877C333.191 278.877 333.122 278.791 333.04 278.791H314.513V278.762Z" fill="#FFD36A"/>
<path d="M333.312 281.091C333.228 282.1 333.159 282.857 333.089 283.184C332.936 284.327 333.535 284.623 334.176 284.386C336.67 283.139 338.899 283.258 340.919 284.386C343.79 286.227 344.277 291.704 341.853 293.916C340.474 295.311 338.997 295.979 337.478 296.113H318.25C315.589 296.009 314.391 294.302 314.321 291.392V281.031C314.321 281.031 314.447 281.076 314.516 281.076H333.312V281.091Z" fill="#A6E7BC"/>
<g filter="url(#filter4_d_681_823)">
<path d="M313.794 277.849C313.794 277.849 313.92 277.8 313.99 277.8H332.952C333.036 277.8 333.092 277.849 333.176 277.849C334.074 277.981 334.789 278.856 334.789 279.946C334.789 281.135 333.976 282.109 332.952 282.109H313.99C313.92 282.109 313.864 282.076 313.794 282.059C312.882 281.944 312.167 281.052 312.167 279.946C312.167 278.84 312.882 277.965 313.794 277.833V277.849Z" fill="#A6E7BC"/>
</g>
<g filter="url(#filter5_d_681_823)">
<path fill-rule="evenodd" clip-rule="evenodd" d="M290.168 183.437C299.536 177.613 306.183 179.289 308.797 184.517C309.411 185.746 311.377 187.466 314.326 184.517C316.783 181.445 327.226 175.302 340.127 191.889L340.018 191.713C348.018 202.113 352.335 217.337 354.075 239.89C355.566 259.265 355.254 261.727 350.607 267.191C344.006 274.953 337.049 274.806 330.201 266.753L324.723 260.313L320.593 266.753C315.533 274.639 306.3 275.1 300.071 267.775C295.53 262.436 295.405 262.436 291.294 267.775C285.805 274.908 277.103 274.651 270.739 267.168C266.157 261.781 265.766 259.045 267.031 241.29C268.792 216.595 278.325 192.657 290.026 183.545C290.073 183.509 290.12 183.473 290.168 183.437Z" fill="#FFD36A"/>
</g>
<path d="M336.944 230.938C336.944 245.514 324.645 257.331 309.474 257.331C294.302 257.331 282.004 245.514 282.004 230.938C282.004 216.362 294.302 204.545 309.474 204.545C324.645 204.545 336.944 216.362 336.944 230.938Z" fill="url(#paint1_radial_681_823)"/>
<path d="M305.495 219.026C305.495 221.349 303.612 223.232 301.289 223.232C298.966 223.232 297.083 221.349 297.083 219.026C297.083 216.703 298.966 214.82 301.289 214.82C303.612 214.82 305.495 216.703 305.495 219.026Z" fill="black"/>
<path d="M302.691 218.325C302.691 218.712 303.005 219.026 303.392 219.026C303.779 219.026 304.093 218.712 304.093 218.325C304.093 217.938 303.779 217.624 303.392 217.624C303.005 217.624 302.691 217.938 302.691 218.325Z" fill="white"/>
<path d="M320.918 219.026C320.918 221.349 319.034 223.232 316.711 223.232C314.388 223.232 312.505 221.349 312.505 219.026C312.505 216.703 314.388 214.82 316.711 214.82C319.034 214.82 320.918 216.703 320.918 219.026Z" fill="black"/>
<path d="M318.114 218.325C318.114 218.712 318.427 219.026 318.815 219.026C319.202 219.026 319.515 218.712 319.515 218.325C319.515 217.938 319.202 217.624 318.815 217.624C318.427 217.624 318.114 217.938 318.114 218.325Z" fill="white"/>
<path fill-rule="evenodd" clip-rule="evenodd" d="M299.455 211.83C298.972 212.003 298.686 212.209 298.573 212.372C298.415 212.599 298.103 212.655 297.877 212.497C297.65 212.339 297.594 212.028 297.752 211.801C298.042 211.383 298.565 211.087 299.117 210.889C299.687 210.684 300.367 210.554 301.066 210.519C302.433 210.45 304.03 210.741 304.987 211.741C305.178 211.94 305.171 212.257 304.972 212.448C304.772 212.639 304.456 212.632 304.265 212.432C303.606 211.745 302.375 211.455 301.116 211.518C300.502 211.548 299.92 211.662 299.455 211.83Z" fill="black"/>
<path fill-rule="evenodd" clip-rule="evenodd" d="M315.456 211.818C315.072 211.984 314.846 212.178 314.754 212.337C314.615 212.576 314.309 212.657 314.07 212.519C313.832 212.38 313.75 212.075 313.889 211.836C314.133 211.414 314.581 211.107 315.059 210.9C315.55 210.688 316.134 210.555 316.732 210.519C317.906 210.449 319.281 210.751 320.098 211.775C320.271 211.99 320.235 212.305 320.019 212.477C319.804 212.649 319.489 212.614 319.317 212.398C318.787 211.735 317.806 211.456 316.792 211.517C316.296 211.547 315.828 211.658 315.456 211.818Z" fill="black"/>
<path d="M140.814 252.656C142.981 255.869 142.134 260.23 138.921 262.398V262.398C135.708 264.565 131.347 263.718 129.179 260.505L111.985 235.021C109.818 231.808 110.665 227.446 113.878 225.279V225.279C117.091 223.111 121.452 223.959 123.62 227.171L140.814 252.656Z" fill="#FF9F80"/>
<path d="M20.9247 252.656C18.7571 255.869 19.6045 260.23 22.8172 262.398V262.398C26.03 264.565 30.3916 263.718 32.5592 260.505L49.7527 235.021C51.9202 231.808 51.0729 227.446 47.8601 225.279V225.279C44.6474 223.111 40.2858 223.959 38.1182 227.171L20.9247 252.656Z" fill="#FF9F80"/>
<path d="M77.3415 278.794C77.4099 278.794 77.4646 278.841 77.533 278.864V259.535L58.1798 263.838C58.1798 263.838 58.3849 271.951 58.6311 278.888C58.6995 278.888 58.7679 278.817 58.85 278.817H77.3415V278.794Z" fill="#FF9F80"/>
<path d="M58.5791 281.098C58.6626 282.105 58.7321 282.861 58.8016 283.187C58.9546 284.328 58.3566 284.624 57.717 284.387C55.2278 283.142 53.0028 283.261 50.9864 284.387C48.1217 286.224 47.635 291.691 50.0547 293.898C51.4314 295.291 52.9054 295.958 54.4212 296.091H73.6117C76.2677 295.987 77.4637 294.284 77.5332 291.38V281.039C77.5332 281.039 77.408 281.083 77.3385 281.083H58.5791V281.098Z" fill="#A6E7BC"/>
<g filter="url(#filter6_d_681_823)">
<path d="M78.0596 277.863C78.0596 277.863 77.9336 277.813 77.8636 277.813H58.9383C58.8544 277.813 58.7984 277.863 58.7144 277.863C57.8185 277.995 57.1046 278.868 57.1046 279.955C57.1046 281.142 57.9165 282.114 58.9383 282.114H77.8636C77.9336 282.114 77.9896 282.081 78.0596 282.065C78.9695 281.949 79.6833 281.059 79.6833 279.955C79.6833 278.851 78.9695 277.978 78.0596 277.846V277.863Z" fill="#A6E7BC"/>
</g>
<path d="M85.2508 278.774C85.1824 278.774 85.1277 278.831 85.0593 278.86V255.235L104.413 260.494C104.413 260.494 104.207 270.41 103.961 278.889C103.893 278.889 103.824 278.802 103.742 278.802H85.2508V278.774Z" fill="#FF9F80"/>
<path d="M104.013 281.098C103.93 282.105 103.86 282.861 103.791 283.187C103.638 284.328 104.236 284.624 104.876 284.387C107.365 283.142 109.59 283.261 111.606 284.387C114.471 286.224 114.957 291.691 112.538 293.898C111.161 295.291 109.687 295.958 108.171 296.091H88.9808C86.3248 295.987 85.1288 294.284 85.0593 291.38V281.039C85.0593 281.039 85.1845 281.083 85.254 281.083H104.013V281.098Z" fill="#A6E7BC"/>
<g filter="url(#filter7_d_681_823)">
<path d="M84.5327 277.863C84.5327 277.863 84.6587 277.813 84.7287 277.813H103.654C103.738 277.813 103.794 277.863 103.878 277.863C104.774 277.995 105.488 278.868 105.488 279.955C105.488 281.142 104.676 282.114 103.654 282.114H84.7287C84.6587 282.114 84.6027 282.081 84.5327 282.065C83.6228 281.949 82.9089 281.059 82.9089 279.955C82.9089 278.851 83.6228 277.978 84.5327 277.846V277.863Z" fill="#A6E7BC"/>
</g>
<g filter="url(#filter8_d_681_823)">
<path fill-rule="evenodd" clip-rule="evenodd" d="M60.9503 183.634C70.3018 177.82 76.936 179.493 79.5451 184.711C80.1583 185.937 82.1203 187.654 85.0634 184.711C87.516 181.645 97.9395 175.514 110.815 192.069L110.705 191.89C118.691 202.271 123 217.465 124.736 239.976C126.224 259.314 125.913 261.772 121.275 267.225C114.687 274.972 107.743 274.825 100.908 266.788L95.4412 260.36L91.3189 266.788C86.269 274.659 77.0538 275.118 70.8368 267.808C66.3046 262.479 66.18 262.479 62.0768 267.808C56.598 274.927 47.9124 274.67 41.5611 267.202C36.9883 261.825 36.5976 259.094 37.8607 241.374C39.6174 216.727 49.1323 192.835 60.8114 183.741C60.8575 183.705 60.9038 183.669 60.9503 183.634Z" fill="#FF9F80"/>
</g>
<path d="M107.638 231.042C107.638 245.591 95.3632 257.384 80.2212 257.384C65.0792 257.384 52.8041 245.591 52.8041 231.042C52.8041 216.494 65.0792 204.701 80.2212 204.701C95.3632 204.701 107.638 216.494 107.638 231.042Z" fill="url(#paint2_radial_681_823)"/>
<path d="M76.2503 219.153C76.2503 221.472 74.3708 223.351 72.0523 223.351C69.7338 223.351 67.8543 221.472 67.8543 219.153C67.8543 216.835 69.7338 214.955 72.0523 214.955C74.3708 214.955 76.2503 216.835 76.2503 219.153Z" fill="black"/>
<path d="M73.4519 218.454C73.4519 218.84 73.7651 219.153 74.1515 219.153C74.5379 219.153 74.8512 218.84 74.8512 218.454C74.8512 218.067 74.5379 217.754 74.1515 217.754C73.7651 217.754 73.4519 218.067 73.4519 218.454Z" fill="white"/>
<path d="M91.643 219.153C91.643 221.472 89.7635 223.351 87.445 223.351C85.1265 223.351 83.247 221.472 83.247 219.153C83.247 216.835 85.1265 214.955 87.445 214.955C89.7635 214.955 91.643 216.835 91.643 219.153Z" fill="black"/>
<path d="M88.8443 218.454C88.8443 218.84 89.1576 219.153 89.544 219.153C89.9304 219.153 90.2437 218.84 90.2437 218.454C90.2437 218.067 89.9304 217.754 89.544 217.754C89.1576 217.754 88.8443 218.067 88.8443 218.454Z" fill="white"/>
<path fill-rule="evenodd" clip-rule="evenodd" d="M70.2222 211.972C69.7401 212.145 69.455 212.35 69.342 212.513C69.1843 212.739 68.8727 212.795 68.646 212.638C68.4193 212.48 68.3634 212.168 68.5211 211.942C68.8113 211.524 69.3326 211.229 69.8836 211.031C70.4528 210.826 71.1322 210.697 71.8297 210.662C73.1944 210.593 74.7879 210.883 75.7437 211.881C75.9347 212.081 75.9279 212.397 75.7285 212.588C75.529 212.779 75.2125 212.772 75.0215 212.573C74.3646 211.887 73.1357 211.597 71.8797 211.66C71.2668 211.691 70.6863 211.805 70.2222 211.972Z" fill="black"/>
<path fill-rule="evenodd" clip-rule="evenodd" d="M86.192 211.96C85.8089 212.126 85.5837 212.32 85.4919 212.478C85.3534 212.717 85.0474 212.798 84.8085 212.66C84.5696 212.521 84.4882 212.215 84.6267 211.976C84.8709 211.555 85.3177 211.249 85.7955 211.042C86.2852 210.831 86.868 210.698 87.4652 210.662C88.6372 210.591 90.0101 210.893 90.826 211.915C90.9982 212.131 90.9629 212.446 90.7471 212.618C90.5312 212.79 90.2166 212.755 90.0444 212.539C89.5162 211.877 88.5372 211.599 87.5252 211.66C87.0305 211.69 86.5633 211.8 86.192 211.96Z" fill="black"/>
<g clip-path="url(#clip0_681_823)">
<path d="M71.2462 231.519C75.0268 236.261 84.9591 236.607 89.0011 231.519C89.5612 230.679 89.7199 229.68 89.7013 228.616C89.4399 226.618 87.4796 225.676 85.7433 225.713C84.5951 225.694 84.0723 226.068 83.4656 226.488L83.4656 228.42C83.4656 230.595 77.2019 230.829 77.2019 228.42L77.2019 226.637C76.2217 226.152 75.2509 225.676 74.0467 225.713C72.3757 225.694 70.7981 226.656 70.4434 228.345C70.3407 229.27 70.4061 230.595 71.2369 231.51L71.2462 231.519Z" fill="#020304"/>
<path d="M83.4747 228.42L83.4747 226.488C82.84 226.927 82.1118 227.421 80.4782 227.561C79.218 227.617 78.2099 227.123 77.2204 226.637L77.2204 228.42C77.2204 230.829 83.4841 230.595 83.4841 228.42L83.4747 228.42Z" fill="white"/>
<path d="M75.1815 234.271C76.1603 233.35 81.8183 231.903 85.1742 234.271C82.073 235.649 78.2018 235.534 75.1815 234.271Z" fill="#FF3838"/>
</g>
<path d="M312.603 229.637C312.603 232.495 311.058 234.811 309.153 234.811C307.248 234.811 305.704 232.495 305.704 229.637C305.704 226.78 307.248 224.464 309.153 224.464C311.058 224.464 312.603 226.78 312.603 229.637Z" fill="#020304"/>
<mask id="mask0_681_823" style="mask-type:alpha" maskUnits="userSpaceOnUse" x="305" y="224" width="8" height="6">
<path d="M312.603 229.637C312.603 228.958 312.513 228.285 312.34 227.657C312.167 227.03 311.913 226.459 311.592 225.979C311.272 225.498 310.892 225.117 310.473 224.857C310.055 224.597 309.606 224.464 309.153 224.464C308.7 224.464 308.252 224.597 307.833 224.857C307.415 225.117 307.035 225.498 306.714 225.979C306.394 226.459 306.14 227.03 305.967 227.657C305.793 228.285 305.704 228.958 305.704 229.637L309.153 229.637H312.603Z" fill="#020304"/>
</mask>
<g mask="url(#mask0_681_823)">
<path d="M312.592 225.465L312.592 223.314C311.886 223.802 310.972 224.308 309.153 224.463C307.75 224.526 306.731 224.02 305.63 223.48L305.63 225.465C305.63 228.146 312.603 227.886 312.603 225.465L312.592 225.465Z" fill="white"/>
</g>
<g clip-path="url(#clip1_681_823)">
<path d="M189.364 227.899V229.41C189.364 230.31 192.24 230.31 192.24 229.41V227.899H189.364Z" fill="white"/>
<path d="M192.965 227.899V229.41C192.965 230.31 195.841 230.31 195.841 229.41V227.899H192.965Z" fill="white"/>
<path fill-rule="evenodd" clip-rule="evenodd" d="M187.222 226.033C187.498 226.033 187.722 226.257 187.722 226.533C187.722 226.662 187.781 226.811 187.994 226.985C188.214 227.165 188.56 227.335 189.027 227.478C189.956 227.763 191.228 227.901 192.525 227.887C193.821 227.873 195.096 227.708 196.03 227.415C196.499 227.267 196.851 227.097 197.074 226.922C197.296 226.749 197.338 226.617 197.338 226.533C197.338 226.257 197.562 226.033 197.838 226.033C198.115 226.033 198.338 226.257 198.338 226.533C198.338 227.038 198.049 227.43 197.69 227.71C197.333 227.989 196.855 228.204 196.329 228.369C195.273 228.701 193.893 228.873 192.535 228.887C191.178 228.902 189.795 228.76 188.734 228.434C188.205 228.272 187.722 228.054 187.362 227.76C186.994 227.46 186.722 227.051 186.722 226.533C186.722 226.257 186.945 226.033 187.222 226.033Z" fill="#010101"/>
</g>
<path d="M312.948 79.0406C312.948 71.8923 307.954 65.0369 299.067 59.9823C290.179 54.9277 278.124 52.0881 265.555 52.0881C257.934 52.0876 250.426 53.1366 243.673 55.1453C229.577 44.2603 206.943 37.168 181.344 37.168C146.598 37.168 117.201 50.1822 107.397 68.1094C98.4667 69.2893 90.5012 72.1533 84.7971 76.2355C79.0931 80.3176 75.9863 85.3775 75.9826 90.5916C75.9877 96.0617 79.4079 101.353 85.6337 105.523C91.8595 109.692 100.486 112.469 109.977 113.359C111.439 128.564 133.518 140.646 160.613 140.646C175.345 140.646 188.575 137.054 197.85 131.355C202.589 134.285 208.346 136.623 214.755 138.222C221.165 139.821 228.088 140.647 235.088 140.646C263.138 140.646 285.866 127.721 285.866 111.769C285.855 109.105 285.197 106.455 283.909 103.895C292.515 101.838 299.861 98.3826 305.027 93.9611C310.193 89.5396 312.948 84.3491 312.948 79.0406Z" fill="#CFE9FC"/>
<path d="M108.17 150.531C108.17 153.153 107.128 155.667 105.275 157.521C103.421 159.374 100.906 160.416 98.2849 160.416C95.6632 160.416 93.149 159.374 91.2952 157.521C89.4414 155.667 88.4 153.153 88.4 150.531C88.4 147.909 89.4414 145.395 91.2952 143.541C93.149 141.688 95.6632 140.646 98.2849 140.646C100.906 140.646 103.421 141.688 105.275 143.541C107.128 145.395 108.17 147.909 108.17 150.531Z" fill="#CFE9FC"/>
<path d="M208.544 159.844C208.544 162.466 207.502 164.98 205.648 166.834C203.795 168.688 201.28 169.729 198.659 169.729C196.037 169.729 193.523 168.688 191.669 166.834C189.815 164.98 188.774 162.466 188.774 159.844C188.774 157.222 189.815 154.708 191.669 152.854C193.523 151.001 196.037 149.959 198.659 149.959C201.28 149.959 203.795 151.001 205.648 152.854C207.502 154.708 208.544 157.222 208.544 159.844Z" fill="#CFE9FC"/>
<path d="M298.57 150.531C298.57 153.153 297.528 155.667 295.674 157.521C293.821 159.374 291.306 160.416 288.685 160.416C286.063 160.416 283.549 159.374 281.695 157.521C279.841 155.667 278.8 153.153 278.8 150.531C278.8 147.909 279.841 145.395 281.695 143.541C283.549 141.688 286.063 140.646 288.685 140.646C291.306 140.646 293.821 141.688 295.674 143.541C297.528 145.395 298.57 147.909 298.57 150.531Z" fill="#CFE9FC"/>
<mask id="mask1_681_823" style="mask-type:alpha" maskUnits="userSpaceOnUse" x="75" y="37" width="238" height="104">
<path d="M312.948 79.0406C312.948 71.8923 307.954 65.0369 299.067 59.9823C290.179 54.9277 278.124 52.0881 265.555 52.0881C257.934 52.0876 250.426 53.1366 243.673 55.1453C229.577 44.2603 206.943 37.168 181.344 37.168C146.598 37.168 117.201 50.1822 107.397 68.1094C98.4667 69.2893 90.5012 72.1533 84.7971 76.2355C79.0931 80.3176 75.9863 85.3775 75.9826 90.5916C75.9877 96.0617 79.4079 101.353 85.6337 105.523C91.8595 109.692 100.486 112.469 109.977 113.359C111.439 128.564 133.518 140.646 160.613 140.646C175.345 140.646 188.575 137.054 197.85 131.355C202.589 134.285 208.346 136.623 214.755 138.222C221.165 139.821 228.088 140.647 235.088 140.646C263.138 140.646 285.866 127.721 285.866 111.769C285.855 109.105 285.197 106.455 283.909 103.895C292.515 101.838 299.861 98.3826 305.027 93.9611C310.193 89.5396 312.948 84.3491 312.948 79.0406Z" fill="#CFE9FC"/>
</mask>
<g mask="url(#mask1_681_823)">
<path d="M143.797 144.383C143.471 133.407 142.602 125.527 141.576 125.527C140.551 125.527 139.681 133.407 139.356 144.383H143.797Z" fill="#FFCC4D"/>
<path d="M167.503 114.739C167.503 126.63 162.228 130.241 155.718 130.241C149.211 130.241 143.933 126.63 143.933 114.739C143.933 102.851 153.361 85.4583 155.718 85.4583C158.075 85.4583 167.503 102.851 167.503 114.739Z" fill="#A6D388"/>
<path d="M153.361 113.108C153.361 126.246 148.086 130.241 141.576 130.241C135.069 130.241 129.791 126.246 129.791 113.108C129.791 99.9633 139.219 80.7443 141.576 80.7443C143.933 80.7443 153.361 99.9633 153.361 113.108Z" fill="#77B255"/>
<path d="M148.647 104.314L179.288 73.6733L209.929 104.314V142.026H148.647V104.314Z" fill="#FFE8B6"/>
<path d="M181.645 142.026H179.288V104.314H181.645V142.026Z" fill="white"/>
<path d="M151.004 142.026H148.647V104.314H151.004V142.026ZM207.572 142.026H209.929V104.314H207.572V142.026Z" fill="#FFCC4D"/>
<path d="M209.929 106.671C209.62 106.672 209.313 106.611 209.027 106.492C208.741 106.374 208.481 106.2 208.263 105.981L179.288 77.0061L150.314 105.981C150.095 106.199 149.835 106.373 149.549 106.492C149.263 106.61 148.957 106.671 148.647 106.671C148.338 106.671 148.031 106.61 147.745 106.492C147.459 106.373 147.2 106.199 146.981 105.981C146.762 105.762 146.588 105.502 146.47 105.216C146.352 104.93 146.291 104.624 146.291 104.314C146.291 104.005 146.352 103.698 146.47 103.412C146.588 103.126 146.762 102.867 146.981 102.648L177.622 72.0069C177.841 71.7878 178.1 71.614 178.386 71.4954C178.672 71.3768 178.979 71.3158 179.288 71.3158C179.598 71.3158 179.904 71.3768 180.19 71.4954C180.476 71.614 180.736 71.7878 180.955 72.0069L211.596 102.648C211.926 102.977 212.152 103.397 212.243 103.855C212.335 104.312 212.288 104.787 212.11 105.218C211.931 105.649 211.629 106.017 211.241 106.276C210.852 106.535 210.396 106.672 209.929 106.671Z" fill="#66757F"/>
<path d="M179.288 106.671C178.822 106.672 178.365 106.535 177.977 106.276C177.589 106.017 177.286 105.649 177.108 105.218C176.929 104.787 176.883 104.312 176.974 103.855C177.066 103.397 177.291 102.977 177.622 102.648L192.942 87.3274C193.384 86.8854 193.984 86.6371 194.609 86.6371C195.234 86.6371 195.833 86.8854 196.275 87.3274C196.717 87.7693 196.965 88.3687 196.965 88.9938C196.965 89.6188 196.717 90.2182 196.275 90.6602L180.955 105.981C180.736 106.2 180.476 106.374 180.19 106.492C179.904 106.611 179.598 106.672 179.288 106.671Z" fill="#66757F"/>
<path d="M169.86 142.026H160.432V127.884H169.86V142.026Z" fill="#C1694F"/>
<path d="M198.144 137.312H191.073V127.884H198.144V137.312Z" fill="#55ACEE"/>
<path d="M188.716 137.312H193.43V127.884H188.716V137.312ZM200.501 137.312H195.787V127.884H200.501V137.312ZM169.86 116.099H160.432V106.671H169.86V116.099ZM200.501 116.099H188.716V106.671H200.501V116.099Z" fill="#55ACEE"/>
</g>
<path opacity="0.6" d="M238.4 74.2606C238.4 75.39 240.446 76.7731 240.168 77.8148C239.88 78.8928 237.408 79.0664 236.862 80.0101C236.308 80.9672 237.388 83.1934 236.611 83.9702C235.834 84.7471 233.608 83.6676 232.651 84.2213C231.707 84.7673 231.533 87.2393 230.456 87.5274C229.414 87.8057 228.031 85.7594 226.901 85.7594C225.772 85.7594 224.389 87.8057 223.347 87.5274C222.269 87.2392 222.096 84.7673 221.152 84.2213C220.195 83.6673 217.969 84.7471 217.192 83.9702C216.415 83.1934 217.494 80.9672 216.941 80.01C216.395 79.0665 213.923 78.8928 213.635 77.8149C213.356 76.7732 215.403 75.3901 215.403 74.2607C215.403 73.1314 213.356 71.7483 213.635 70.7066C213.923 69.6287 216.395 69.4551 216.941 68.5114C217.495 67.5541 216.415 65.3281 217.192 64.5512C217.969 63.7744 220.195 64.8539 221.152 64.3002C222.096 63.7542 222.269 61.2822 223.347 60.9941C224.389 60.7157 225.772 62.7622 226.901 62.7622C228.031 62.7622 229.414 60.7157 230.456 60.9941C231.533 61.2823 231.707 63.7542 232.651 64.3002C233.608 64.8542 235.834 63.7744 236.611 64.5512C237.388 65.3281 236.308 67.5541 236.862 68.5115C237.408 69.4551 239.88 69.6287 240.168 70.7066C240.446 71.7482 238.4 73.1314 238.4 74.2606Z" fill="#FFBE55"/>
<path d="M235.829 74.2606C235.829 69.7512 232.486 66.0226 228.142 65.4185C227.731 65.3611 227.317 65.3324 226.902 65.3328C221.971 65.3328 217.973 69.33 217.973 74.2605C217.973 79.1916 221.971 83.1886 226.902 83.1886C227.323 83.1886 227.737 83.1597 228.142 83.103C232.486 82.499 235.829 78.7703 235.829 74.2606Z" fill="#FFBE55"/>
<path d="M259.275 96.1311H240.899C239.733 96.1311 238.601 95.9024 237.535 95.4519C236.506 95.0167 235.582 94.3937 234.789 93.6004C233.995 92.8071 233.372 91.8832 232.937 90.8542C232.486 89.7881 232.258 88.6568 232.258 87.4904C232.258 86.3245 232.487 85.1927 232.937 84.1266C233.372 83.0976 233.995 82.1737 234.789 81.3804C235.582 80.5871 236.506 79.9641 237.535 79.5289C238.601 79.0779 239.732 78.8497 240.899 78.8497C241.181 78.8497 241.464 78.8635 241.746 78.8911C242.674 77.626 243.876 76.5673 245.248 75.808C246.843 74.9255 248.655 74.459 250.488 74.459C251.73 74.459 252.949 74.6676 254.11 75.0794C255.232 75.4774 256.276 76.0558 257.213 76.7982C258.139 77.531 258.939 78.41 259.582 79.4005C260.125 80.2356 260.549 81.1419 260.843 82.0936C262.295 82.421 263.615 83.2011 264.61 84.3298C265.753 85.627 266.383 87.2967 266.382 89.0256C266.382 90.9238 265.643 92.7084 264.301 94.0504C262.958 95.3924 261.174 96.1311 259.275 96.1311Z" fill="white"/>
<path d="M256.618 82.8631C256.256 82.8631 255.911 82.6482 255.764 82.2927C255.517 81.6946 255.155 81.1555 254.69 80.6901C253.756 79.7567 252.515 79.2425 251.195 79.2425C250.685 79.2425 250.271 78.8286 250.271 78.3186C250.271 77.8081 250.685 77.3947 251.195 77.3947C253.009 77.3947 254.714 78.101 255.997 79.3836C256.635 80.0215 257.131 80.7623 257.472 81.5853C257.667 82.0565 257.443 82.5973 256.972 82.7926C256.856 82.8403 256.736 82.8631 256.618 82.8631Z" fill="#E2E2E2"/>
<defs>
<filter id="filter0_d_681_823" x="163.249" y="271.901" width="42.6454" height="24.3134" filterUnits="userSpaceOnUse" color-interpolation-filters="sRGB">
<feFlood flood-opacity="0" result="BackgroundImageFix"/>
<feColorMatrix in="SourceAlpha" type="matrix" values="0 0 0 0 0 0 0 0 0 0 0 0 0 0 0 0 0 0 127 0" result="hardAlpha"/>
<feOffset dx="4" dy="4"/>
<feGaussianBlur stdDeviation="5"/>
<feComposite in2="hardAlpha" operator="out"/>
<feColorMatrix type="matrix" values="0 0 0 0 0 0 0 0 0 0 0 0 0 0 0 0 0 0 0.05 0"/>
<feBlend mode="normal" in2="BackgroundImageFix" result="effect1_dropShadow_681_823"/>
<feBlend mode="normal" in="SourceGraphic" in2="effect1_dropShadow_681_823" result="shape"/>
</filter>
<filter id="filter1_d_681_823" x="189.13" y="271.901" width="42.6454" height="24.3134" filterUnits="userSpaceOnUse" color-interpolation-filters="sRGB">
<feFlood flood-opacity="0" result="BackgroundImageFix"/>
<feColorMatrix in="SourceAlpha" type="matrix" values="0 0 0 0 0 0 0 0 0 0 0 0 0 0 0 0 0 0 127 0" result="hardAlpha"/>
<feOffset dx="4" dy="4"/>
<feGaussianBlur stdDeviation="5"/>
<feComposite in2="hardAlpha" operator="out"/>
<feColorMatrix type="matrix" values="0 0 0 0 0 0 0 0 0 0 0 0 0 0 0 0 0 0 0.05 0"/>
<feBlend mode="normal" in2="BackgroundImageFix" result="effect1_dropShadow_681_823"/>
<feBlend mode="normal" in="SourceGraphic" in2="effect1_dropShadow_681_823" result="shape"/>
</filter>
<filter id="filter2_d_681_823" x="139.324" y="173.771" width="108.553" height="113.307" filterUnits="userSpaceOnUse" color-interpolation-filters="sRGB">
<feFlood flood-opacity="0" result="BackgroundImageFix"/>
<feColorMatrix in="SourceAlpha" type="matrix" values="0 0 0 0 0 0 0 0 0 0 0 0 0 0 0 0 0 0 127 0" result="hardAlpha"/>
<feOffset dy="4"/>
<feGaussianBlur stdDeviation="5"/>
<feComposite in2="hardAlpha" operator="out"/>
<feColorMatrix type="matrix" values="0 0 0 0 0 0 0 0 0 0 0 0 0 0 0 0 0 0 0.05 0"/>
<feBlend mode="normal" in2="BackgroundImageFix" result="effect1_dropShadow_681_823"/>
<feBlend mode="normal" in="SourceGraphic" in2="effect1_dropShadow_681_823" result="shape"/>
</filter>
<filter id="filter3_d_681_823" x="280.312" y="271.8" width="42.6224" height="24.309" filterUnits="userSpaceOnUse" color-interpolation-filters="sRGB">
<feFlood flood-opacity="0" result="BackgroundImageFix"/>
<feColorMatrix in="SourceAlpha" type="matrix" values="0 0 0 0 0 0 0 0 0 0 0 0 0 0 0 0 0 0 127 0" result="hardAlpha"/>
<feOffset dx="4" dy="4"/>
<feGaussianBlur stdDeviation="5"/>
<feComposite in2="hardAlpha" operator="out"/>
<feColorMatrix type="matrix" values="0 0 0 0 0 0 0 0 0 0 0 0 0 0 0 0 0 0 0.05 0"/>
<feBlend mode="normal" in2="BackgroundImageFix" result="effect1_dropShadow_681_823"/>
<feBlend mode="normal" in="SourceGraphic" in2="effect1_dropShadow_681_823" result="shape"/>
</filter>
<filter id="filter4_d_681_823" x="306.167" y="271.8" width="42.6224" height="24.309" filterUnits="userSpaceOnUse" color-interpolation-filters="sRGB">
<feFlood flood-opacity="0" result="BackgroundImageFix"/>
<feColorMatrix in="SourceAlpha" type="matrix" values="0 0 0 0 0 0 0 0 0 0 0 0 0 0 0 0 0 0 127 0" result="hardAlpha"/>
<feOffset dx="4" dy="4"/>
<feGaussianBlur stdDeviation="5"/>
<feComposite in2="hardAlpha" operator="out"/>
<feColorMatrix type="matrix" values="0 0 0 0 0 0 0 0 0 0 0 0 0 0 0 0 0 0 0.05 0"/>
<feBlend mode="normal" in2="BackgroundImageFix" result="effect1_dropShadow_681_823"/>
<feBlend mode="normal" in="SourceGraphic" in2="effect1_dropShadow_681_823" result="shape"/>
</filter>
<filter id="filter5_d_681_823" x="256.408" y="173.769" width="108.463" height="113.213" filterUnits="userSpaceOnUse" color-interpolation-filters="sRGB">
<feFlood flood-opacity="0" result="BackgroundImageFix"/>
<feColorMatrix in="SourceAlpha" type="matrix" values="0 0 0 0 0 0 0 0 0 0 0 0 0 0 0 0 0 0 127 0" result="hardAlpha"/>
<feOffset dy="4"/>
<feGaussianBlur stdDeviation="5"/>
<feComposite in2="hardAlpha" operator="out"/>
<feColorMatrix type="matrix" values="0 0 0 0 0 0 0 0 0 0 0 0 0 0 0 0 0 0 0.05 0"/>
<feBlend mode="normal" in2="BackgroundImageFix" result="effect1_dropShadow_681_823"/>
<feBlend mode="normal" in="SourceGraphic" in2="effect1_dropShadow_681_823" result="shape"/>
</filter>
<filter id="filter6_d_681_823" x="51.1046" y="271.813" width="42.5787" height="24.3007" filterUnits="userSpaceOnUse" color-interpolation-filters="sRGB">
<feFlood flood-opacity="0" result="BackgroundImageFix"/>
<feColorMatrix in="SourceAlpha" type="matrix" values="0 0 0 0 0 0 0 0 0 0 0 0 0 0 0 0 0 0 127 0" result="hardAlpha"/>
<feOffset dx="4" dy="4"/>
<feGaussianBlur stdDeviation="5"/>
<feComposite in2="hardAlpha" operator="out"/>
<feColorMatrix type="matrix" values="0 0 0 0 0 0 0 0 0 0 0 0 0 0 0 0 0 0 0.05 0"/>
<feBlend mode="normal" in2="BackgroundImageFix" result="effect1_dropShadow_681_823"/>
<feBlend mode="normal" in="SourceGraphic" in2="effect1_dropShadow_681_823" result="shape"/>
</filter>
<filter id="filter7_d_681_823" x="76.9089" y="271.813" width="42.5787" height="24.3007" filterUnits="userSpaceOnUse" color-interpolation-filters="sRGB">
<feFlood flood-opacity="0" result="BackgroundImageFix"/>
<feColorMatrix in="SourceAlpha" type="matrix" values="0 0 0 0 0 0 0 0 0 0 0 0 0 0 0 0 0 0 127 0" result="hardAlpha"/>
<feOffset dx="4" dy="4"/>
<feGaussianBlur stdDeviation="5"/>
<feComposite in2="hardAlpha" operator="out"/>
<feColorMatrix type="matrix" values="0 0 0 0 0 0 0 0 0 0 0 0 0 0 0 0 0 0 0.05 0"/>
<feBlend mode="normal" in2="BackgroundImageFix" result="effect1_dropShadow_681_823"/>
<feBlend mode="normal" in="SourceGraphic" in2="effect1_dropShadow_681_823" result="shape"/>
</filter>
<filter id="filter8_d_681_823" x="27.2381" y="173.972" width="108.293" height="113.033" filterUnits="userSpaceOnUse" color-interpolation-filters="sRGB">
<feFlood flood-opacity="0" result="BackgroundImageFix"/>
<feColorMatrix in="SourceAlpha" type="matrix" values="0 0 0 0 0 0 0 0 0 0 0 0 0 0 0 0 0 0 127 0" result="hardAlpha"/>
<feOffset dy="4"/>
<feGaussianBlur stdDeviation="5"/>
<feComposite in2="hardAlpha" operator="out"/>
<feColorMatrix type="matrix" values="0 0 0 0 0 0 0 0 0 0 0 0 0 0 0 0 0 0 0.05 0"/>
<feBlend mode="normal" in2="BackgroundImageFix" result="effect1_dropShadow_681_823"/>
<feBlend mode="normal" in="SourceGraphic" in2="effect1_dropShadow_681_823" result="shape"/>
</filter>
<radialGradient id="paint0_radial_681_823" cx="0" cy="0" r="1" gradientUnits="userSpaceOnUse" gradientTransform="translate(192.434 230.992) rotate(90) scale(26.4197 27.498)">
<stop stop-color="#CAD2FF" stop-opacity="0.8"/>
<stop offset="1" stop-color="#D9D9D9" stop-opacity="0"/>
</radialGradient>
<radialGradient id="paint1_radial_681_823" cx="0" cy="0" r="1" gradientUnits="userSpaceOnUse" gradientTransform="translate(309.474 230.938) rotate(90) scale(26.3928 27.4701)">
<stop stop-color="#E2FFB1" stop-opacity="0.8"/>
<stop offset="0.364583" stop-color="#DFF3BE" stop-opacity="0.545833"/>
<stop offset="1" stop-color="#D9D9D9" stop-opacity="0"/>
</radialGradient>
<radialGradient id="paint2_radial_681_823" cx="0" cy="0" r="1" gradientUnits="userSpaceOnUse" gradientTransform="translate(80.2212 231.042) rotate(90) scale(26.3419 27.417)">
<stop offset="0.141692" stop-color="#FFB1D2" stop-opacity="0.8"/>
<stop offset="1" stop-color="#D9D9D9" stop-opacity="0"/>
</radialGradient>
<clipPath id="clip0_681_823">
<rect width="19.2859" height="9.49357" fill="white" transform="translate(89.7011 235.207) rotate(-180)"/>
</clipPath>
<clipPath id="clip1_681_823">
<rect width="11.6516" height="3.5493" fill="white" transform="translate(186.704 226.533)"/>
</clipPath>
</defs>
</svg>
