<svg width="390" height="429" viewBox="0 0 390 429" fill="none" xmlns="http://www.w3.org/2000/svg">
<path d="M363.19 378.735C363.887 391.654 335.436 402.752 299.641 403.523C263.847 404.294 234.265 394.446 233.568 381.527C232.87 368.607 261.322 357.509 297.116 356.738C332.91 355.967 362.492 365.815 363.19 378.735Z" fill="#F2EFE7"/>
<path d="M239.335 394.633C239.339 394.707 239.211 394.773 239.15 394.851L292.76 392.199L279.779 371.65C279.779 371.65 257.289 372.988 238.063 374.209C238.067 374.284 238.266 374.349 238.27 374.438L239.27 394.636L239.335 394.633Z" fill="#FF9F80"/>
<path d="M235.646 374.271C234.55 374.416 233.728 374.533 233.376 374.627C232.138 374.856 231.782 374.218 232.007 373.507C233.232 370.721 232.982 368.297 231.643 366.155C229.482 363.126 223.484 362.89 221.204 365.652C219.757 367.231 219.108 368.877 219.045 370.54L220.082 391.501C220.339 394.396 222.264 395.61 225.44 395.529L236.735 394.971C236.735 394.971 236.68 394.836 236.676 394.76L235.662 374.27L235.646 374.271Z" fill="#A6E7BC"/>
<g filter="url(#filter0_d_680_355)">
<path d="M240.233 395.374C240.233 395.374 240.28 395.234 240.276 395.157L239.253 374.486C239.249 374.394 239.192 374.336 239.187 374.244C238.995 373.273 238.002 372.54 236.814 372.599C235.518 372.663 234.5 373.602 234.556 374.719L235.579 395.39C235.582 395.466 235.621 395.526 235.643 395.601C235.818 396.589 236.829 397.321 238.035 397.261C239.241 397.201 240.156 396.374 240.251 395.373L240.233 395.374Z" fill="#A6E7BC"/>
</g>
<path d="M360.479 104.029L360.486 319.506L350.658 325.219L350.645 109.742L360.479 104.029Z" fill="#F5D9A9"/>
<path d="M350.645 109.742L350.658 325.218L194.049 234.804L194.042 19.3275L350.645 109.742Z" fill="#D5B989"/>
<path d="M194.042 19.3275L194.049 234.804L38.4651 325.218L38.4581 109.742L194.042 19.3275Z" fill="#F9DFBA"/>
<path d="M38.458 109.741L38.4649 325.217L28.6167 319.532L28.6097 104.055L38.458 109.741Z" fill="#DCC79C"/>
<path d="M360.479 104.028L350.644 109.742L194.042 19.3278L38.458 109.742L28.6097 104.056L194.028 7.92822L360.479 104.028Z" fill="#DACAA9"/>
<path d="M183.438 183.129C186.357 181.444 188.736 182.8 188.746 186.153L188.862 230.804L76.2712 295.808L76.1555 251.157C76.1459 247.803 78.5096 243.709 81.4287 242.024L108.368 226.47C111.317 224.767 113.666 226.141 113.676 229.494C113.666 226.14 116.03 222.046 118.949 220.361L145.888 204.807C148.807 203.122 151.186 204.478 151.196 207.832C151.186 204.478 153.55 200.383 156.469 198.698L183.438 183.129Z" fill="#E3C56D"/>
<path d="M65.8542 245.172C65.8445 241.818 68.2082 237.724 71.128 236.038L98.0666 220.485C99.5466 219.63 100.876 219.551 101.834 220.107L103.735 221.212C104.475 218.463 106.373 215.69 108.648 214.376L135.586 198.823C137.055 197.975 138.387 197.897 139.35 198.456L141.253 199.563C141.99 196.809 143.888 194.03 146.166 192.714L173.136 177.143C174.604 176.295 175.936 176.217 176.899 176.777L187.2 182.762L187.19 182.76C186.881 182.582 186.485 182.583 186.109 182.54C185.898 182.516 185.73 182.4 185.502 182.42C184.895 182.474 184.226 182.71 183.529 183.098C183.497 183.116 183.469 183.111 183.437 183.129L156.468 198.7C155.738 199.121 155.042 199.693 154.411 200.366C153.779 201.039 153.21 201.814 152.733 202.64C151.778 204.294 151.189 206.156 151.194 207.833C151.184 204.506 148.838 203.161 145.951 204.786L145.943 204.782C145.924 204.793 145.906 204.797 145.886 204.808L118.947 220.361C116.758 221.625 114.881 224.244 114.083 226.89C113.818 227.772 113.671 228.656 113.674 229.494C113.664 226.167 111.348 224.805 108.431 226.447L108.424 226.443C108.404 226.454 108.386 226.458 108.366 226.469L81.4271 242.022C80.6972 242.443 80.0025 243.016 79.3709 243.689C78.107 245.035 77.0958 246.787 76.5639 248.55C76.298 249.433 76.1519 250.317 76.1546 251.155L76.2606 291.957L65.9698 285.976L65.8542 245.172Z" fill="#FFE7A0"/>
<path d="M233.236 268.118L188.96 242.389L188.863 208.495L233.146 234.224L233.236 268.118Z" fill="#FFE7A0"/>
<path d="M203.945 192.627C202.337 191.692 200.111 191.823 197.658 193.24C192.781 196.055 188.845 202.887 188.861 208.491L233.144 234.225C233.128 228.621 237.064 221.79 241.94 218.974C244.394 217.557 246.62 217.427 248.227 218.361L203.945 192.627Z" fill="#FFE7A0"/>
<path d="M241.94 218.975C246.816 216.159 250.791 218.424 250.807 224.028C250.823 229.631 246.875 236.47 241.998 239.285L242.065 263.024L233.239 268.12L233.143 234.225C233.128 228.622 237.064 221.791 241.94 218.975Z" fill="#C2A13D"/>
<path d="M72.8938 299.934L72.9284 312.213L114.759 336.522L114.725 324.243L72.8938 299.934Z" fill="#BFBFBF"/>
<path d="M114.724 324.244L114.759 336.523L233.236 268.119L233.208 255.839L114.724 324.244Z" fill="#D3B354"/>
<path d="M72.8938 299.934L114.725 324.243L233.208 255.839L191.37 231.53L72.8938 299.934Z" fill="#D3B354"/>
<path d="M194.647 264.521L194.679 277.192C196.453 277.348 198.29 277.037 199.66 276.258L231.852 257.671C233.004 256.986 233.564 256.145 233.564 255.274L233.533 242.571C233.533 243.443 232.973 244.314 231.821 244.969L199.598 263.587C198.258 264.365 196.422 264.676 194.647 264.521Z" fill="#E3C56D"/>
<path d="M155.823 286.937L155.854 299.609C157.628 299.765 159.465 299.453 160.835 298.674L193.059 280.056C194.18 279.403 194.74 278.562 194.74 277.69L194.709 264.988C194.709 265.859 194.149 266.731 192.997 267.385L160.773 285.972C159.434 286.75 157.598 287.061 155.823 286.937Z" fill="#E3C56D"/>
<path d="M113.979 266.429C115.331 265.648 117.175 265.338 118.937 265.487C118.685 264.466 119.226 263.399 120.578 262.618L152.8 244.014C154.152 243.234 155.997 242.924 157.759 243.073C157.507 242.052 158.048 240.984 159.4 240.204L191.622 221.6C193.888 220.292 197.573 220.292 199.845 221.612L231.838 240.205C234.109 241.525 234.097 243.659 231.831 244.967L199.609 263.571C198.257 264.352 196.412 264.661 194.65 264.512C194.902 265.534 194.361 266.601 193.009 267.381L160.787 285.985C159.435 286.766 157.591 287.075 155.828 286.926C156.08 287.948 155.539 289.015 154.188 289.796L121.965 308.399C119.699 309.707 116.014 309.707 113.743 308.387L81.7497 289.795C79.4788 288.475 79.4905 286.34 81.7566 285.032L113.979 266.429ZM193.015 262.619C194.378 263.41 196.597 263.41 197.969 262.619L230.191 244.015C231.543 243.235 231.55 241.949 230.187 241.158L198.194 222.565C196.831 221.773 194.612 221.773 193.261 222.553L161.038 241.157C159.667 241.948 159.659 243.234 161.022 244.026L193.015 262.619ZM115.392 307.434C116.755 308.226 118.974 308.226 120.325 307.446L152.548 288.843C153.919 288.051 153.906 286.777 152.544 285.985L120.551 267.393C119.188 266.601 116.989 266.589 115.618 267.381L83.3959 285.984C82.044 286.765 82.0371 288.05 83.3993 288.842L115.392 307.434ZM154.214 285.02C155.576 285.812 157.776 285.824 159.147 285.032L191.369 266.429C192.721 265.648 192.728 264.363 191.366 263.571L159.373 244.978C158.01 244.187 155.791 244.187 154.44 244.967L122.217 263.57C120.846 264.362 120.859 265.636 122.221 266.428L154.214 285.02Z" fill="#E1C778"/>
<path d="M161.039 241.157C159.667 241.948 159.66 243.234 161.023 244.026L193.016 262.618C194.379 263.41 196.598 263.41 197.969 262.618L230.191 244.015C231.543 243.234 231.55 241.949 230.188 241.157L198.195 222.565C196.832 221.773 194.613 221.773 193.262 222.553L161.039 241.157ZM122.217 263.571C120.846 264.362 120.858 265.637 122.221 266.428L154.214 285.021C155.577 285.812 157.775 285.824 159.147 285.033L191.369 266.429C192.721 265.648 192.728 264.363 191.365 263.571L159.372 244.979C158.009 244.187 155.791 244.187 154.439 244.967L122.217 263.571ZM83.3956 285.984C82.0437 286.765 82.0368 288.05 83.3991 288.842L115.392 307.434C116.755 308.226 118.974 308.226 120.325 307.446L152.547 288.842C153.918 288.051 153.906 286.776 152.544 285.985L120.551 267.392C119.188 266.601 116.989 266.589 115.618 267.38L83.3956 285.984Z" fill="#FFE391"/>
<path d="M80.0436 287.434L80.0747 300.106C80.1059 300.978 80.6662 301.818 81.7868 302.473L113.792 321.091C116.065 322.398 119.738 322.398 122.011 321.091L154.235 302.473C155.356 301.819 155.916 300.978 155.916 300.106L155.885 287.404C155.885 288.276 155.324 289.147 154.173 289.801L121.98 308.388C119.707 309.695 116.003 309.695 113.73 308.388L81.7556 289.801C80.6039 289.147 80.0436 288.275 80.0436 287.434Z" fill="#E3C56D"/>
<path d="M105.922 341.626L61.6394 315.89L61.5702 292.156L105.853 317.885L105.922 341.626Z" fill="#D3B354"/>
<path d="M198.58 95.2196L170.642 78.9859L173.191 77.5107L201.122 93.7444L198.58 95.2196Z" fill="#A7763D"/>
<path d="M198.906 124.472L170.975 108.245L170.642 78.9847L198.58 95.2184L198.906 124.472Z" fill="#957137"/>
<path d="M201.122 93.7441L201.455 122.998L198.892 124.473L198.581 95.2193L201.122 93.7441Z" fill="#996323"/>
<path d="M142.344 154.226L114.281 137.937L170.815 105.255L198.753 121.489L142.344 154.226Z" fill="#B59155"/>
<path d="M142.344 154.226L142.358 157.156L198.754 124.432V121.489L142.344 154.226Z" fill="#996323"/>
<path d="M147.912 114.68L171.085 128.143L192.208 115.947L169.035 102.484L147.912 114.68Z" fill="white"/>
<path d="M147.912 114.679L147.919 120.386L171.092 133.849L171.085 128.143L147.912 114.679Z" fill="#AFAFB0"/>
<path d="M171.085 128.143L171.092 133.849L192.215 121.653L192.208 115.947L171.085 128.143Z" fill="#D7D7D7"/>
<path d="M142.025 127.896L114.108 111.662L170.642 78.9868L198.58 95.2205L142.025 127.896Z" fill="#B59155"/>
<path d="M142.025 127.903L142.039 130.833L198.58 98.1579V95.2214L142.025 127.903Z" fill="#996323"/>
<path d="M139.477 129.37L111.546 113.136L114.095 111.661L142.026 127.894L139.477 129.37Z" fill="#A7763D"/>
<path d="M139.809 158.63L111.878 142.396L111.546 113.136L139.477 129.369L139.809 158.63Z" fill="#B59155"/>
<path d="M142.025 127.895L142.358 157.156L139.795 158.631L139.477 129.37L142.025 127.895Z" fill="#996323"/>
<path d="M345.265 152.037L345.252 157.695L317.535 173.804L317.549 168.139L345.265 152.037Z" fill="#835A29"/>
<path d="M317.549 168.14L317.535 173.805L219.995 117.486L220.008 111.827L317.549 168.14Z" fill="#AD7A3F"/>
<path d="M345.265 152.037L317.549 168.139L220.009 111.827L247.725 95.718L345.265 152.037Z" fill="#B59155"/>
<path d="M231.228 86.6527L231.311 113.517L245.91 105.089L245.827 78.2242L231.228 86.6527Z" fill="#FF6C3E"/>
<path d="M231.228 88.3849L234.912 90.518L249.511 82.0895L245.827 79.9564L231.228 88.3849Z" fill="white"/>
<path d="M231.228 86.6519L231.311 113.516L234.988 115.656L234.912 88.7849L231.228 86.6519Z" fill="#C4C4C5"/>
<path d="M234.912 88.7857L234.988 115.657L249.588 107.229L249.511 80.3572L234.912 88.7857Z" fill="#888888"/>
<path d="M234.898 90.2118L234.981 117.083L250.813 107.941L250.73 81.0699L234.898 90.2118Z" fill="#FF6C3E"/>
<path d="M228.776 86.6519L228.852 113.516L234.981 117.083L234.898 90.2116L228.776 86.6519Z" fill="#EA4335"/>
<path d="M244.608 77.5117L228.776 86.6535L234.898 90.2133L250.73 81.0715L249.511 80.3581L234.912 88.7866L231.228 86.6535L245.827 78.2251L244.608 77.5117Z" fill="#EF655A"/>
<path d="M240.945 92.4216L241.028 119.286L255.628 110.858L255.544 83.9932L240.945 92.4216Z" fill="#FF6C3E"/>
<path d="M240.945 94.1528L244.623 96.2859L259.222 87.8575L255.544 85.7244L240.945 94.1528Z" fill="white"/>
<path d="M240.945 92.4219L241.028 119.286L244.706 121.426L244.623 94.555L240.945 92.4219Z" fill="#C4C4C5"/>
<path d="M244.622 94.5557L244.705 121.427L259.305 112.999L259.222 86.1272L244.622 94.5557Z" fill="#888888"/>
<path d="M244.616 95.9807L244.699 122.845L260.531 113.71L260.448 86.8389L244.616 95.9807Z" fill="#FF6C3E"/>
<path d="M238.486 92.4219L238.569 119.286L244.699 122.846L244.616 95.9816L238.486 92.4219Z" fill="#EA4335"/>
<path d="M254.318 83.2804L238.486 92.4222L244.615 95.982L260.447 86.8402L259.221 86.1268L244.622 94.5553L240.945 92.4222L255.544 83.9937L254.318 83.2804Z" fill="#EF655A"/>
<path d="M250.661 98.1887L250.744 125.053L265.337 116.625L265.26 89.7603L250.661 98.1887Z" fill="#FF6C3E"/>
<path d="M250.661 99.9209L254.339 102.054L268.938 93.6255L265.26 91.4924L250.661 99.9209Z" fill="white"/>
<path d="M250.661 98.1877L250.744 125.052L254.422 127.192L254.339 100.321L250.661 98.1877Z" fill="#C4C4C5"/>
<path d="M254.338 100.322L254.421 127.193L269.021 118.765L268.938 91.8932L254.338 100.322Z" fill="#888888"/>
<path d="M254.332 101.748L254.415 128.619L270.24 119.477L270.164 92.6058L254.332 101.748Z" fill="#FF6C3E"/>
<path d="M248.202 98.1877L248.285 125.052L254.415 128.619L254.331 101.748L248.202 98.1877Z" fill="#EA4335"/>
<path d="M264.034 89.0475L248.202 98.1893L254.331 101.749L270.163 92.6073L268.938 91.8939L254.338 100.322L250.661 98.1893L265.26 89.7608L264.034 89.0475Z" fill="#EF655A"/>
<path d="M260.37 103.953L260.453 130.824L275.053 122.396L274.97 95.5315L260.37 103.953Z" fill="#FF6C3E"/>
<path d="M260.37 105.691L264.055 107.824L278.654 99.3958L274.97 97.2627L260.37 105.691Z" fill="white"/>
<path d="M260.37 103.953L260.453 130.824L264.131 132.964L264.055 106.093L260.37 103.953Z" fill="#C4C4C5"/>
<path d="M264.055 106.092L264.131 132.963L278.731 124.535L278.654 97.6635L264.055 106.092Z" fill="#888888"/>
<path d="M264.048 107.52L264.124 134.384L279.956 125.25L279.873 98.3782L264.048 107.52Z" fill="#FF6C3E"/>
<path d="M257.918 103.953L258.001 130.824L264.124 134.384L264.047 107.52L257.918 103.953Z" fill="#EA4335"/>
<path d="M273.75 94.8177L257.918 103.953L264.047 107.519L279.872 98.3775L278.654 97.6642L264.054 106.093L260.37 103.953L274.969 95.5311L273.75 94.8177Z" fill="#EF655A"/>
<path d="M275.613 117.381L275.682 139.405L287.65 132.493L287.581 110.469L275.613 117.381Z" fill="#ADB5FA"/>
<path d="M275.613 118.8L278.633 120.553L290.6 113.641L287.581 111.889L275.613 118.8Z" fill="white"/>
<path d="M275.613 117.382L275.682 139.405L278.702 141.157L278.633 119.134L275.613 117.382Z" fill="#C4C4C5"/>
<path d="M278.632 119.133L278.701 141.156L290.662 134.245L290.6 112.221L278.632 119.133Z" fill="#888888"/>
<path d="M278.626 120.297L278.695 142.328L291.667 134.834L291.605 112.804L278.626 120.297Z" fill="#ADB5FA"/>
<path d="M273.604 117.382L273.667 139.405L278.695 142.328L278.626 120.297L273.604 117.382Z" fill="#7C85D2"/>
<path d="M286.576 109.887L273.604 117.38L278.626 120.296L291.604 112.803L290.6 112.221L278.633 119.133L275.613 117.38L287.58 110.469L286.576 109.887Z" fill="#5360CD"/>
<path d="M289.679 120.857L289.762 147.728L304.362 139.3L304.279 112.428L289.679 120.857Z" fill="#FFD36A"/>
<path d="M289.679 122.589L293.357 124.729L307.956 116.301L304.279 114.161L289.679 122.589Z" fill="white"/>
<path d="M289.679 120.856L289.762 147.727L293.44 149.86L293.357 122.996L289.679 120.856Z" fill="#C4C4C5"/>
<path d="M293.356 122.997L293.44 149.861L308.039 141.433L307.956 114.568L293.356 122.997Z" fill="#733333"/>
<path d="M293.35 124.416L293.433 151.287L309.265 142.145L309.182 115.274L293.35 124.416Z" fill="#FFD36A"/>
<path d="M287.22 120.856L287.304 147.727L293.433 151.287L293.35 124.416L287.22 120.856Z" fill="#EDB633"/>
<path d="M303.052 111.716L287.22 120.858L293.35 124.417L309.182 115.276L307.956 114.569L293.357 122.998L289.679 120.858L304.278 112.429L303.052 111.716Z" fill="#C2972F"/>
<path d="M299.396 126.627L299.479 153.498L314.072 145.07L313.996 118.198L299.396 126.627Z" fill="#FFD36A"/>
<path d="M299.396 128.359L303.074 130.499L317.673 122.071L313.996 119.931L299.396 128.359Z" fill="white"/>
<path d="M299.396 126.627L299.479 153.498L303.157 155.631L303.074 128.767L299.396 126.627Z" fill="#C4C4C5"/>
<path d="M303.073 128.767L303.157 155.631L317.756 147.203L317.673 120.339L303.073 128.767Z" fill="#733333"/>
<path d="M303.067 130.187L303.15 157.058L318.982 147.916L318.899 121.045L303.067 130.187Z" fill="#FFD36A"/>
<path d="M296.938 126.627L297.021 153.498L303.15 157.058L303.067 130.187L296.938 126.627Z" fill="#EDB633"/>
<path d="M312.77 117.485L296.938 126.627L303.067 130.187L318.899 121.045L317.673 120.339L303.074 128.767L299.396 126.627L313.995 118.199L312.77 117.485Z" fill="#C2972F"/>
<path d="M309.106 132.397L309.189 159.268L323.788 150.84L323.705 123.969L309.106 132.397Z" fill="#FFD36A"/>
<path d="M309.106 134.128L312.791 136.268L327.39 127.84L323.705 125.7L309.106 134.128Z" fill="white"/>
<path d="M309.106 132.397L309.189 159.269L312.867 161.402L312.791 134.537L309.106 132.397Z" fill="#C4C4C5"/>
<path d="M312.791 134.536L312.867 161.401L327.466 152.972L327.39 126.108L312.791 134.536Z" fill="#733333"/>
<path d="M312.783 135.957L312.859 162.828L328.691 153.687L328.615 126.815L312.783 135.957Z" fill="#FFD36A"/>
<path d="M306.654 132.397L306.737 159.269L312.859 162.828L312.783 135.957L306.654 132.397Z" fill="#EDB633"/>
<path d="M322.486 123.255L306.654 132.397L312.783 135.956L328.615 126.815L327.389 126.108L312.79 134.537L309.106 132.397L323.705 123.968L322.486 123.255Z" fill="#C2972F"/>
<path d="M211.46 240.148L194.507 230.296C194.802 230.468 194.988 230.831 194.989 231.353C194.991 231.872 194.808 232.448 194.514 232.961C194.217 233.475 193.809 233.922 193.355 234.185L210.309 244.037C210.763 243.775 211.171 243.327 211.468 242.813C211.762 242.3 211.945 241.724 211.943 241.205C211.942 240.683 211.756 240.32 211.46 240.148ZM181.89 240.998C181.89 241.051 181.91 241.09 181.943 241.109L198.897 250.962C198.863 250.943 198.844 250.905 198.844 250.851C198.844 250.746 198.921 250.611 199.017 250.558L199.334 250.37L210.309 244.037L193.355 234.185L182.38 240.517L182.063 240.705C181.968 240.758 181.89 240.892 181.89 240.998Z" fill="#FF6C3E"/>
<path d="M198.775 246.279L182.375 236.749L182.382 240.517L198.782 250.053L198.775 246.279Z" fill="#D7D7D7"/>
<path d="M210.299 240.268L193.345 230.412L182.375 236.749L199.329 246.604L210.299 240.268Z" fill="#2C703E"/>
<path d="M210.297 239.871L209.956 240.068L193.344 230.414C193.798 230.152 194.208 230.124 194.507 230.294L210.68 239.693C210.556 239.737 210.428 239.796 210.297 239.871Z" fill="#2C703E"/>
<path d="M198.775 246.281L198.786 250.05L209.757 243.715C210.212 243.453 210.619 243.006 210.917 242.491C211.21 241.979 211.394 241.402 211.392 240.884C211.39 240.361 211.205 239.998 210.909 239.826C210.61 239.656 210.201 239.683 209.746 239.946L198.775 246.281Z" fill="white"/>
<path d="M181.88 236.837C181.88 236.89 181.9 236.929 181.928 236.948L198.882 246.801C198.853 246.782 198.834 246.744 198.834 246.69C198.834 246.58 198.911 246.445 199.003 246.392L210.294 239.873C210.847 239.556 211.343 239.527 211.703 239.734L194.75 229.881C194.389 229.673 193.893 229.703 193.34 230.02L182.049 236.539C181.957 236.597 181.88 236.726 181.88 236.837Z" fill="#FF6C3E"/>
<path d="M199.005 246.392C198.91 246.446 198.833 246.579 198.833 246.689C198.833 246.798 198.91 246.842 199.005 246.787L199.325 246.603L210.296 240.268C210.75 240.006 211.16 239.978 211.459 240.148C211.755 240.321 211.94 240.684 211.942 241.206C211.943 241.725 211.76 242.301 211.467 242.813C211.169 243.328 210.762 243.775 210.307 244.038L199.336 250.373L199.016 250.557C198.922 250.611 198.845 250.744 198.845 250.85C198.845 250.96 198.922 251.003 199.017 250.949L210.309 244.43C211.402 243.798 212.287 242.266 212.283 241.009C212.28 239.749 211.389 239.242 210.295 239.873L199.005 246.392Z" fill="#BC362B"/>
<path d="M193.34 230.021C193.893 229.704 194.389 229.675 194.749 229.882L211.703 239.735C211.343 239.528 210.847 239.557 210.294 239.874L209.137 240.542L192.183 230.688L193.34 230.021Z" fill="#3D3D3D"/>
<path d="M183.955 258.911C186.938 261.084 187.594 265.264 185.421 268.247V268.247C183.248 271.23 179.068 271.886 176.085 269.713L152.425 252.474C149.442 250.301 148.786 246.121 150.959 243.139V243.139C153.133 240.156 157.312 239.5 160.295 241.673L183.955 258.911Z" fill="#ADB5FA"/>
<path d="M135.564 303.011C135.625 302.989 135.689 303.013 135.758 303.012L129.469 285.655L113.492 295.816C113.492 295.816 116.316 303.034 118.794 309.183C118.855 309.16 118.893 309.075 118.967 309.048L135.571 303.032L135.564 303.011Z" fill="#ADB5FA"/>
<g filter="url(#filter1_d_680_355)">
<path d="M135.906 301.942C135.906 301.942 135.776 301.938 135.714 301.961L118.72 308.118C118.645 308.146 118.61 308.208 118.535 308.236C117.773 308.645 117.417 309.662 117.77 310.638C118.156 311.704 119.202 312.313 120.119 311.98L137.113 305.823C137.176 305.8 137.215 305.752 137.273 305.715C138.052 305.315 138.404 304.284 138.045 303.292C137.685 302.301 136.76 301.749 135.9 301.927L135.906 301.942Z" fill="#A6E7BC"/>
</g>
<path d="M142.659 300.419C142.597 300.441 142.567 300.511 142.515 300.559L134.828 279.345L153.917 277.771C153.917 277.771 156.959 286.741 159.497 294.435C159.435 294.457 159.346 294.402 159.272 294.429L142.668 300.445L142.659 300.419Z" fill="#ADB5FA"/>
<path d="M160.262 296.401C160.515 297.332 160.699 298.034 160.742 298.349C160.976 299.423 161.609 299.494 162.107 299.074C163.937 297.146 165.973 296.529 168.15 296.884C171.32 297.601 173.536 302.352 172.082 305.121C171.298 306.82 170.192 307.898 168.874 308.511L151.642 314.754C149.224 315.525 147.596 314.385 146.588 311.8L143.224 302.514C143.224 302.514 143.351 302.513 143.413 302.491L160.258 296.387L160.262 296.401Z" fill="#A6E7BC"/>
<g filter="url(#filter2_d_680_355)">
<path d="M141.718 299.834C141.718 299.834 141.815 299.749 141.878 299.726L158.872 293.569C158.947 293.542 159.013 293.568 159.089 293.54C159.936 293.367 160.861 293.919 161.215 294.896C161.601 295.961 161.188 297.098 160.271 297.431L143.277 303.588C143.214 303.611 143.153 303.599 143.085 303.607C142.231 303.8 141.3 303.233 140.941 302.242C140.582 301.25 140.939 300.234 141.713 299.82L141.718 299.834Z" fill="#A6E7BC"/>
</g>
<g filter="url(#filter3_d_680_355)">
<path fill-rule="evenodd" clip-rule="evenodd" d="M89.8896 222.889C96.3934 214.632 102.892 213.977 106.932 217.813C107.881 218.715 110.202 219.618 111.887 216.018C113.092 212.467 120.456 203.57 137.404 214.246L137.253 214.126C147.798 220.85 156.61 233.09 165.491 252.736C173.119 269.616 173.639 271.923 171.249 278.329C167.853 287.429 161.571 289.556 152.818 284.563L145.818 280.57L144.208 287.683C142.234 296.394 134.109 299.804 126.148 295.263C120.345 291.952 120.233 291.993 118.283 298.113C115.679 306.287 107.797 308.883 99.6639 304.244C93.8083 300.903 92.5691 298.578 87.9379 282.256C81.4963 259.553 82.2667 235.004 89.7949 223.038C89.8262 222.989 89.8578 222.939 89.8896 222.889Z" fill="#ADB5FA"/>
</g>
<path d="M147.232 250.276C151.965 263.339 144.78 277.923 131.184 282.849C117.587 287.776 102.728 281.18 97.9947 268.117C93.2614 255.053 100.446 240.47 114.043 235.543C127.639 230.617 142.499 237.213 147.232 250.276Z" fill="url(#paint0_radial_680_355)"/>
<path d="M115.18 249.81C115.934 251.892 114.858 254.191 112.776 254.946C110.694 255.7 108.395 254.624 107.641 252.542C106.887 250.46 107.963 248.161 110.045 247.407C112.126 246.652 114.426 247.729 115.18 249.81Z" fill="black"/>
<path d="M112.44 250.093C112.566 250.44 112.949 250.619 113.296 250.493C113.643 250.368 113.822 249.984 113.696 249.637C113.571 249.29 113.187 249.111 112.84 249.237C112.494 249.363 112.314 249.746 112.44 250.093Z" fill="white"/>
<path d="M129.002 244.802C129.756 246.884 128.68 249.183 126.598 249.937C124.516 250.691 122.217 249.615 121.463 247.533C120.709 245.452 121.785 243.152 123.867 242.398C125.948 241.644 128.248 242.72 129.002 244.802Z" fill="black"/>
<path d="M126.261 245.085C126.387 245.432 126.77 245.611 127.117 245.486C127.464 245.36 127.644 244.977 127.518 244.63C127.392 244.283 127.009 244.104 126.662 244.229C126.315 244.355 126.136 244.738 126.261 245.085Z" fill="white"/>
<path fill-rule="evenodd" clip-rule="evenodd" d="M107.445 245.341C107.069 245.653 106.884 245.926 106.838 246.102C106.767 246.369 106.493 246.527 106.226 246.456C105.959 246.385 105.8 246.111 105.871 245.844C105.998 245.369 106.374 244.93 106.806 244.572C107.252 244.201 107.822 243.863 108.439 243.604C109.644 243.097 111.177 242.836 112.369 243.426C112.616 243.548 112.718 243.848 112.595 244.096C112.473 244.343 112.173 244.445 111.925 244.322C111.121 243.924 109.931 244.061 108.826 244.526C108.287 244.752 107.805 245.042 107.445 245.341Z" fill="black"/>
<path fill-rule="evenodd" clip-rule="evenodd" d="M121.782 240.135C121.493 240.407 121.358 240.65 121.328 240.815C121.279 241.087 121.019 241.268 120.748 241.219C120.476 241.17 120.295 240.91 120.344 240.639C120.427 240.174 120.733 239.749 121.096 239.407C121.469 239.056 121.952 238.745 122.478 238.518C123.511 238.072 124.85 237.894 125.924 238.551C126.16 238.696 126.234 239.004 126.09 239.239C125.945 239.475 125.638 239.548 125.402 239.404C124.721 238.987 123.76 239.054 122.875 239.436C122.442 239.623 122.061 239.872 121.782 240.135Z" fill="black"/>
<path d="M118.861 257.423L119.352 258.776C119.644 259.582 122.219 258.649 121.927 257.843L121.437 256.49L118.861 257.423Z" fill="white"/>
<path d="M122.085 256.255L122.575 257.608C122.867 258.414 125.443 257.481 125.151 256.675L124.661 255.322L122.085 256.255Z" fill="white"/>
<path fill-rule="evenodd" clip-rule="evenodd" d="M116.329 256.424C116.589 256.33 116.876 256.465 116.97 256.724C117.008 256.831 117.103 256.941 117.345 257.026C117.597 257.114 117.959 257.154 118.422 257.131C119.342 257.085 120.523 256.797 121.678 256.364C122.833 255.932 123.918 255.371 124.657 254.807C125.028 254.524 125.285 254.26 125.427 254.034C125.567 253.81 125.559 253.687 125.535 253.621C125.441 253.361 125.575 253.074 125.834 252.98C126.094 252.886 126.381 253.02 126.475 253.28C126.642 253.742 126.506 254.194 126.274 254.565C126.043 254.934 125.682 255.283 125.264 255.602C124.423 256.244 123.242 256.847 122.029 257.301C120.818 257.755 119.531 258.077 118.471 258.13C117.944 258.156 117.437 258.118 117.015 257.97C116.584 257.819 116.201 257.537 116.03 257.065C115.936 256.805 116.07 256.518 116.329 256.424Z" fill="#010101"/>
<path d="M105.799 297.577C110.675 294.761 114.65 297.026 114.666 302.629L114.762 336.524L105.924 341.627L105.857 317.888C100.981 320.703 97.006 318.439 96.99 312.835C96.9741 307.231 100.922 300.392 105.799 297.577Z" fill="#C2A13D"/>
<path d="M67.803 271.229C66.1955 270.294 63.9703 270.425 61.5159 271.842C56.6396 274.657 52.6913 281.496 52.7072 287.099C52.7148 289.883 53.6996 291.843 55.287 292.765L99.5694 318.5C97.9821 317.577 96.9979 315.618 96.9896 312.834C96.9737 307.23 100.922 300.391 105.798 297.576C108.252 296.159 110.478 296.029 112.085 296.963L67.803 271.229Z" fill="#FFE7A0"/>
<path d="M357.523 364.667C359.893 368.181 358.966 372.95 355.453 375.321V375.321C351.939 377.691 347.17 376.765 344.799 373.251L325.996 345.381C323.626 341.868 324.553 337.098 328.066 334.727V334.727C331.58 332.357 336.349 333.284 338.72 336.797L357.523 364.667Z" fill="#FF9F80"/>
<path d="M226.412 364.667C224.042 368.181 224.968 372.95 228.482 375.321V375.321C231.995 377.691 236.765 376.765 239.136 373.251L257.939 345.381C260.309 341.868 259.382 337.098 255.869 334.727V334.727C252.355 332.357 247.586 333.284 245.215 336.797L226.412 364.667Z" fill="#FF9F80"/>
<path d="M272.674 411.483C272.7 411.549 272.56 411.663 272.505 411.759L325.664 380.236L310.387 365.525C310.387 365.525 288.983 384.284 265.496 393.413C265.521 393.48 265.786 393.456 265.816 393.536L272.595 411.513L272.674 411.483Z" fill="#FF9F80"/>
<path d="M262.851 393.247C261.852 393.721 261.106 394.083 260.799 394.28C259.691 394.877 259.157 394.38 259.153 393.633C259.466 390.606 258.486 388.375 256.556 386.746C253.57 384.524 247.789 386.135 246.463 389.463C245.569 391.409 245.456 393.174 245.904 394.777L253.309 414.414C254.44 417.092 256.645 417.658 259.643 416.609L270.225 412.619C270.225 412.619 270.131 412.508 270.104 412.437L262.866 393.241L262.851 393.247Z" fill="#A6E7BC"/>
<g filter="url(#filter4_d_680_355)">
<path d="M273.678 411.933C273.678 411.933 273.68 411.785 273.653 411.714L266.351 392.348C266.318 392.262 266.246 392.224 266.214 392.138C265.733 391.272 264.564 390.878 263.451 391.298C262.237 391.756 261.556 392.962 261.95 394.007L269.252 413.373C269.279 413.445 269.334 413.489 269.378 413.554C269.847 414.441 271.033 414.828 272.163 414.402C273.293 413.976 273.911 412.909 273.695 411.927L273.678 411.933Z" fill="#A6E7BC"/>
</g>
<g filter="url(#filter5_d_680_355)">
<path fill-rule="evenodd" clip-rule="evenodd" d="M270.178 289.188C280.408 282.825 287.666 284.653 290.52 290.362C291.191 291.703 293.336 293.58 296.555 290.362C299.237 287.009 310.636 280.304 324.717 298.408L324.599 298.218C333.33 309.57 338.041 326.185 339.94 350.8C341.567 371.948 341.227 374.635 336.155 380.599C328.95 389.071 321.357 388.91 313.882 380.121L307.903 373.091L303.395 380.121C297.872 388.729 287.794 389.231 280.996 381.236C276.039 375.409 275.903 375.409 271.416 381.236C265.424 389.021 255.925 388.741 248.98 380.574C243.979 374.694 243.552 371.707 244.933 352.328C246.854 325.374 257.26 299.246 270.032 289.301C270.08 289.263 270.129 289.225 270.178 289.188Z" fill="#FF9F80"/>
</g>
<path d="M321.242 341.03C321.242 356.94 307.818 369.838 291.258 369.838C274.699 369.838 261.275 356.94 261.275 341.03C261.275 325.12 274.699 312.223 291.258 312.223C307.818 312.223 321.242 325.12 321.242 341.03Z" fill="url(#paint1_radial_680_355)"/>
<path d="M286.916 328.028C286.916 330.563 284.86 332.619 282.325 332.619C279.789 332.619 277.734 330.563 277.734 328.028C277.734 325.492 279.789 323.437 282.325 323.437C284.86 323.437 286.916 325.492 286.916 328.028Z" fill="black"/>
<path d="M283.855 327.263C283.855 327.686 284.198 328.029 284.621 328.029C285.043 328.029 285.386 327.686 285.386 327.263C285.386 326.841 285.043 326.498 284.621 326.498C284.198 326.498 283.855 326.841 283.855 327.263Z" fill="white"/>
<path d="M303.749 328.028C303.749 330.563 301.694 332.619 299.158 332.619C296.623 332.619 294.567 330.563 294.567 328.028C294.567 325.492 296.623 323.437 299.158 323.437C301.694 323.437 303.749 325.492 303.749 328.028Z" fill="black"/>
<path d="M300.688 327.263C300.688 327.686 301.031 328.029 301.454 328.029C301.876 328.029 302.219 327.686 302.219 327.263C302.219 326.841 301.876 326.498 301.454 326.498C301.031 326.498 300.688 326.841 300.688 327.263Z" fill="white"/>
<path fill-rule="evenodd" clip-rule="evenodd" d="M280.308 320.129C279.778 320.32 279.455 320.548 279.323 320.738C279.165 320.965 278.854 321.021 278.627 320.863C278.4 320.705 278.344 320.394 278.502 320.167C278.811 319.723 279.37 319.404 279.97 319.188C280.587 318.966 281.326 318.825 282.084 318.787C283.572 318.713 285.297 319.03 286.329 320.107C286.52 320.306 286.513 320.623 286.313 320.814C286.114 321.005 285.797 320.998 285.606 320.798C284.874 320.034 283.513 319.717 282.134 319.786C281.46 319.82 280.821 319.945 280.308 320.129Z" fill="black"/>
<path fill-rule="evenodd" clip-rule="evenodd" d="M297.769 320.118C297.346 320.3 297.089 320.518 296.982 320.703C296.843 320.942 296.537 321.023 296.298 320.885C296.059 320.746 295.978 320.44 296.117 320.202C296.377 319.753 296.855 319.423 297.373 319.2C297.903 318.971 298.535 318.826 299.183 318.787C300.457 318.711 301.94 319.039 302.819 320.14C302.991 320.356 302.956 320.671 302.74 320.843C302.524 321.015 302.21 320.98 302.037 320.764C301.446 320.024 300.357 319.719 299.243 319.785C298.697 319.818 298.181 319.94 297.769 320.118Z" fill="black"/>
<g clip-path="url(#clip0_680_355)">
<path d="M281.443 341.551C285.577 346.736 296.439 347.114 300.86 341.551C301.472 340.632 301.646 339.539 301.625 338.376C301.339 336.191 299.196 335.16 297.297 335.201C296.041 335.18 295.469 335.589 294.806 336.048L294.806 338.161C294.806 340.54 287.956 340.795 287.956 338.161L287.956 336.211C286.884 335.681 285.822 335.16 284.505 335.201C282.678 335.18 280.953 336.232 280.565 338.08C280.453 339.09 280.524 340.54 281.433 341.54L281.443 341.551Z" fill="#020304"/>
<path d="M294.816 338.161L294.816 336.048C294.122 336.528 293.326 337.069 291.539 337.222C290.161 337.283 289.059 336.742 287.977 336.211L287.977 338.161C287.977 340.795 294.827 340.54 294.827 338.161L294.816 338.161Z" fill="white"/>
<path d="M285.747 344.559C286.817 343.553 293.005 341.97 296.675 344.559C293.283 346.067 289.05 345.94 285.747 344.559Z" fill="#FF3838"/>
</g>
<path d="M77.2677 297.568C76.3694 301.148 78.5429 304.778 82.1223 305.676V305.676C85.7018 306.574 89.3318 304.401 90.2302 300.821L97.3563 272.428C98.2546 268.848 96.0812 265.218 92.5017 264.32V264.32C88.9222 263.422 85.2922 265.595 84.3938 269.175L77.2677 297.568Z" fill="#ADB5FA"/>
<path d="M119.466 311.183C119.869 312.061 120.177 312.717 120.345 312.987C120.854 313.961 120.413 314.422 119.762 314.417C117.122 314.11 115.162 314.94 113.718 316.607C111.744 319.189 113.085 324.256 115.976 325.451C117.666 326.254 119.206 326.373 120.61 325.999L137.842 319.755C140.193 318.798 140.713 316.879 139.831 314.249L136.466 304.964C136.466 304.964 136.368 305.044 136.306 305.067L119.461 311.17L119.466 311.183Z" fill="#A6E7BC"/>
<defs>
<filter id="filter0_d_680_355" x="228.553" y="366.596" width="25.7228" height="44.6687" filterUnits="userSpaceOnUse" color-interpolation-filters="sRGB">
<feFlood flood-opacity="0" result="BackgroundImageFix"/>
<feColorMatrix in="SourceAlpha" type="matrix" values="0 0 0 0 0 0 0 0 0 0 0 0 0 0 0 0 0 0 127 0" result="hardAlpha"/>
<feOffset dx="4" dy="4"/>
<feGaussianBlur stdDeviation="5"/>
<feComposite in2="hardAlpha" operator="out"/>
<feColorMatrix type="matrix" values="0 0 0 0 0 0 0 0 0 0 0 0 0 0 0 0 0 0 0.05 0"/>
<feBlend mode="normal" in2="BackgroundImageFix" result="effect1_dropShadow_680_355"/>
<feBlend mode="normal" in="SourceGraphic" in2="effect1_dropShadow_680_355" result="shape"/>
</filter>
<filter id="filter1_d_680_355" x="111.633" y="295.894" width="40.5525" height="30.1772" filterUnits="userSpaceOnUse" color-interpolation-filters="sRGB">
<feFlood flood-opacity="0" result="BackgroundImageFix"/>
<feColorMatrix in="SourceAlpha" type="matrix" values="0 0 0 0 0 0 0 0 0 0 0 0 0 0 0 0 0 0 127 0" result="hardAlpha"/>
<feOffset dx="4" dy="4"/>
<feGaussianBlur stdDeviation="5"/>
<feComposite in2="hardAlpha" operator="out"/>
<feColorMatrix type="matrix" values="0 0 0 0 0 0 0 0 0 0 0 0 0 0 0 0 0 0 0.05 0"/>
<feBlend mode="normal" in2="BackgroundImageFix" result="effect1_dropShadow_680_355"/>
<feBlend mode="normal" in="SourceGraphic" in2="effect1_dropShadow_680_355" result="shape"/>
</filter>
<filter id="filter2_d_680_355" x="134.801" y="287.509" width="40.5587" height="30.1357" filterUnits="userSpaceOnUse" color-interpolation-filters="sRGB">
<feFlood flood-opacity="0" result="BackgroundImageFix"/>
<feColorMatrix in="SourceAlpha" type="matrix" values="0 0 0 0 0 0 0 0 0 0 0 0 0 0 0 0 0 0 127 0" result="hardAlpha"/>
<feOffset dx="4" dy="4"/>
<feGaussianBlur stdDeviation="5"/>
<feComposite in2="hardAlpha" operator="out"/>
<feColorMatrix type="matrix" values="0 0 0 0 0 0 0 0 0 0 0 0 0 0 0 0 0 0 0.05 0"/>
<feBlend mode="normal" in2="BackgroundImageFix" result="effect1_dropShadow_680_355"/>
<feBlend mode="normal" in="SourceGraphic" in2="effect1_dropShadow_680_355" result="shape"/>
</filter>
<filter id="filter3_d_680_355" x="73.5814" y="203.161" width="108.932" height="117.372" filterUnits="userSpaceOnUse" color-interpolation-filters="sRGB">
<feFlood flood-opacity="0" result="BackgroundImageFix"/>
<feColorMatrix in="SourceAlpha" type="matrix" values="0 0 0 0 0 0 0 0 0 0 0 0 0 0 0 0 0 0 127 0" result="hardAlpha"/>
<feOffset dy="4"/>
<feGaussianBlur stdDeviation="5"/>
<feComposite in2="hardAlpha" operator="out"/>
<feColorMatrix type="matrix" values="0 0 0 0 0 0 0 0 0 0 0 0 0 0 0 0 0 0 0.05 0"/>
<feBlend mode="normal" in2="BackgroundImageFix" result="effect1_dropShadow_680_355"/>
<feBlend mode="normal" in="SourceGraphic" in2="effect1_dropShadow_680_355" result="shape"/>
</filter>
<filter id="filter4_d_680_355" x="255.838" y="385.129" width="31.8995" height="43.4465" filterUnits="userSpaceOnUse" color-interpolation-filters="sRGB">
<feFlood flood-opacity="0" result="BackgroundImageFix"/>
<feColorMatrix in="SourceAlpha" type="matrix" values="0 0 0 0 0 0 0 0 0 0 0 0 0 0 0 0 0 0 127 0" result="hardAlpha"/>
<feOffset dx="4" dy="4"/>
<feGaussianBlur stdDeviation="5"/>
<feComposite in2="hardAlpha" operator="out"/>
<feColorMatrix type="matrix" values="0 0 0 0 0 0 0 0 0 0 0 0 0 0 0 0 0 0 0.05 0"/>
<feBlend mode="normal" in2="BackgroundImageFix" result="effect1_dropShadow_680_355"/>
<feBlend mode="normal" in="SourceGraphic" in2="effect1_dropShadow_680_355" result="shape"/>
</filter>
<filter id="filter5_d_680_355" x="234.252" y="279.179" width="116.557" height="121.74" filterUnits="userSpaceOnUse" color-interpolation-filters="sRGB">
<feFlood flood-opacity="0" result="BackgroundImageFix"/>
<feColorMatrix in="SourceAlpha" type="matrix" values="0 0 0 0 0 0 0 0 0 0 0 0 0 0 0 0 0 0 127 0" result="hardAlpha"/>
<feOffset dy="4"/>
<feGaussianBlur stdDeviation="5"/>
<feComposite in2="hardAlpha" operator="out"/>
<feColorMatrix type="matrix" values="0 0 0 0 0 0 0 0 0 0 0 0 0 0 0 0 0 0 0.05 0"/>
<feBlend mode="normal" in2="BackgroundImageFix" result="effect1_dropShadow_680_355"/>
<feBlend mode="normal" in="SourceGraphic" in2="effect1_dropShadow_680_355" result="shape"/>
</filter>
<radialGradient id="paint0_radial_680_355" cx="0" cy="0" r="1" gradientUnits="userSpaceOnUse" gradientTransform="translate(122.613 259.196) rotate(70.0827) scale(25.1579 26.1848)">
<stop stop-color="#CAD2FF" stop-opacity="0.8"/>
<stop offset="1" stop-color="#D9D9D9" stop-opacity="0"/>
</radialGradient>
<radialGradient id="paint1_radial_680_355" cx="0" cy="0" r="1" gradientUnits="userSpaceOnUse" gradientTransform="translate(291.258 341.03) rotate(90) scale(28.8075 29.9833)">
<stop offset="0.141692" stop-color="#FFB1D2" stop-opacity="0.8"/>
<stop offset="1" stop-color="#D9D9D9" stop-opacity="0"/>
</radialGradient>
<clipPath id="clip0_680_355">
<rect width="21.091" height="10.3822" fill="white" transform="translate(301.625 345.583) rotate(-180)"/>
</clipPath>
</defs>
</svg>
